<svg width="16" height="20" viewBox="0 0 16 20" fill="none" xmlns="http://www.w3.org/2000/svg">
<path d="M7.99971 8C8.79536 8 9.55842 7.68393 10.121 7.12132C10.6836 6.55871 10.9997 5.79565 10.9997 5C10.9997 4.20435 10.6836 3.44129 10.121 2.87868C9.55842 2.31607 8.79536 2 7.99971 2C7.20406 2 6.441 2.31607 5.87839 2.87868C5.31578 3.44129 4.99971 4.20435 4.99971 5C4.99971 5.79565 5.31578 6.55871 5.87839 7.12132C6.441 7.68393 7.20406 8 7.99971 8ZM1.46471 14.493C1.37188 14.7411 1.36163 15.0126 1.43551 15.267C1.50938 15.5214 1.66342 15.7452 1.87471 15.905C3.62605 17.266 5.78169 18.0034 7.99971 18C10.3097 18 12.4377 17.216 14.1307 15.9C14.5607 15.567 14.7347 14.997 14.5387 14.49C14.0309 13.168 13.1343 12.0311 11.967 11.2292C10.7998 10.4274 9.41682 9.99829 8.00068 9.99861C6.58454 9.99894 5.20179 10.4287 4.03491 11.231C2.86802 12.0334 1.97187 13.1708 1.46471 14.493Z" stroke-width="1.5" stroke-linecap="round" stroke-linejoin="round"/>
</svg>
