<svg width="20" height="20" viewBox="0 0 20 20" fill="none" xmlns="http://www.w3.org/2000/svg">
<path fill-rule="evenodd" clip-rule="evenodd" d="M4.87316 15.6265C4.67425 15.6265 4.48348 15.5474 4.34283 15.4068C4.20218 15.2661 4.12316 15.0754 4.12316 14.8765C4.12316 14.6776 4.20218 14.4868 4.34283 14.3461L14.5955 4.09343C14.7362 3.95278 14.927 3.87376 15.1259 3.87376C15.3248 3.87376 15.5155 3.95278 15.6562 4.09343C15.7968 4.23408 15.8759 4.42485 15.8759 4.62376C15.8759 4.82267 15.7968 5.01344 15.6562 5.15409L5.40349 15.4068C5.26284 15.5474 5.07207 15.6265 4.87316 15.6265Z" fill="#111111"/>
<path fill-rule="evenodd" clip-rule="evenodd" d="M15.877 14.8764C15.877 15.0753 15.7979 15.266 15.6573 15.4067C15.5166 15.5473 15.3259 15.6264 15.127 15.6264C14.928 15.6264 14.7373 15.5473 14.5966 15.4067L4.34392 5.15398C4.20327 5.01333 4.12425 4.82256 4.12425 4.62365C4.12425 4.42474 4.20327 4.23397 4.34392 4.09332C4.48457 3.95267 4.67534 3.87365 4.87425 3.87365C5.07316 3.87365 5.26393 3.95267 5.40458 4.09332L15.6573 14.346C15.7979 14.4867 15.877 14.6774 15.877 14.8764Z" fill="#111111"/>
</svg>
