<svg width="51" height="51" viewBox="0 0 51 51" fill="none" xmlns="http://www.w3.org/2000/svg">
<path d="M43.6512 7.59018C38.9157 2.79276 32.5983 0.0987779 25.8626 0.00453888C25.1442 -0.00542296 24.5156 0.501236 24.3757 1.20903C23.8362 3.93967 21.5187 5.98254 18.74 6.1769C18.2937 6.20818 17.8848 6.4377 17.6259 6.8026C17.3669 7.1675 17.285 7.62913 17.4028 8.06078C17.9593 10.1006 17.5758 12.3748 16.3508 14.3002C15.0832 16.2925 13.1186 17.6142 10.9605 17.926C10.1602 18.0416 9.59695 18.773 9.68989 19.5765C9.71758 19.8164 9.73163 20.0572 9.73163 20.2925C9.73163 23.7079 6.95307 26.4865 3.53756 26.4865C3.00788 26.4865 2.4811 26.4194 1.97215 26.2869C1.50096 26.164 0.999577 26.2788 0.628598 26.594C0.25742 26.9092 0.0631643 27.3853 0.107893 27.8701C0.688569 34.1728 3.58727 40.0088 8.26983 44.303C12.9821 48.6246 19.101 51.0047 25.4996 51.0047C32.3115 51.0047 38.7157 48.352 43.5326 43.5352C48.3493 38.7184 51.0019 32.3143 51.0019 25.5024C51.0019 18.7538 48.3914 12.3925 43.6512 7.59018ZM41.4193 41.422C37.1669 45.6743 31.5133 48.0161 25.4996 48.0161C19.8511 48.0161 14.4493 45.9152 10.2895 42.1004C6.62453 38.7394 4.19753 34.3098 3.33663 29.4729C3.40347 29.4744 3.47051 29.4751 3.53746 29.4751C8.49815 29.4751 12.5527 25.5208 12.715 20.5989C15.1989 19.8869 17.395 18.2263 18.8723 15.9043C20.236 13.7607 20.8312 11.2789 20.5867 8.89279C23.5432 8.1328 25.9541 5.93084 26.9675 3.03752C32.4809 3.39087 37.6137 5.72782 41.5242 9.68964C45.7089 13.9291 48.0135 19.5449 48.0135 25.5024C48.0134 31.516 45.6716 37.1698 41.4193 41.422Z" fill="#272727"/>
<path d="M17.5918 26.9651C14.7347 26.9651 12.4102 29.2896 12.4102 32.1467C12.4102 35.0039 14.7347 37.3284 17.5918 37.3284C20.4491 37.3284 22.7736 35.0039 22.7736 32.1467C22.7735 29.2896 20.449 26.9651 17.5918 26.9651ZM17.5918 34.3398C16.3825 34.3398 15.3987 33.356 15.3987 32.1467C15.3987 30.9375 16.3825 29.9536 17.5918 29.9536C18.8012 29.9536 19.785 30.9375 19.785 32.1467C19.7849 33.356 18.8011 34.3398 17.5918 34.3398Z" fill="#272727"/>
<path d="M30.0606 18.2215C33.0771 18.2215 35.5313 15.7673 35.5313 12.7508C35.5313 9.73423 33.0771 7.28003 30.0606 7.28003C27.044 7.28003 24.5898 9.73423 24.5898 12.7508C24.5898 15.7673 27.0439 18.2215 30.0606 18.2215ZM30.0606 10.2686C31.4292 10.2686 32.5428 11.3821 32.5428 12.7508C32.5428 14.1195 31.4292 15.233 30.0606 15.233C28.6919 15.233 27.5784 14.1194 27.5784 12.7508C27.5784 11.382 28.6918 10.2686 30.0606 10.2686Z" fill="#272727"/>
<path d="M32.6737 31.0884C29.9092 31.0884 27.6602 33.3375 27.6602 36.102C27.6602 38.8665 29.9092 41.1156 32.6737 41.1156C35.4383 41.1156 37.6873 38.8665 37.6873 36.102C37.6873 33.3375 35.4383 31.0884 32.6737 31.0884ZM32.6737 38.127C31.5571 38.127 30.6487 37.2186 30.6487 36.102C30.6487 34.9854 31.5571 34.0769 32.6737 34.0769C33.7904 34.0769 34.6988 34.9854 34.6988 36.102C34.6988 37.2186 33.7904 38.127 32.6737 38.127Z" fill="#272727"/>
<path d="M44.699 23.3871C44.699 20.6226 42.4499 18.3735 39.6854 18.3735C36.9209 18.3735 34.6719 20.6226 34.6719 23.3871C34.6719 26.1516 36.9209 28.4007 39.6854 28.4007C42.4499 28.4007 44.699 26.1516 44.699 23.3871ZM39.6854 25.4122C38.5688 25.4122 37.6604 24.5038 37.6604 23.3871C37.6604 22.2705 38.5688 21.3621 39.6854 21.3621C40.802 21.3621 41.7104 22.2705 41.7104 23.3871C41.7104 24.5038 40.802 25.4122 39.6854 25.4122Z" fill="#272727"/>
<path d="M38.2212 13.9544C38.3483 14.5671 38.8464 15.0466 39.467 15.1404C40.0837 15.2334 40.7114 14.916 41.0035 14.3658C41.2957 13.8154 41.2142 13.1218 40.7935 12.6592C40.3735 12.1973 39.6917 12.0427 39.1147 12.2827C38.4587 12.5557 38.0914 13.2604 38.2212 13.9544Z" fill="#272727"/>
<path d="M44.2797 32.2904C44.1625 31.6781 43.6481 31.1974 43.0348 31.1052C42.4187 31.0124 41.7897 31.3286 41.4974 31.8791C41.2051 32.4294 41.2877 33.1242 41.7079 33.5865C42.1286 34.0494 42.809 34.2 43.3862 33.9621C44.0339 33.695 44.4227 32.9797 44.2797 32.2904Z" fill="#272727"/>
<path d="M19.0531 21.687C19.1677 22.2989 19.6865 22.781 20.2979 22.8729C20.9158 22.9659 21.5409 22.648 21.8354 22.0984C22.1304 21.5477 22.0423 20.8553 21.6252 20.3917C21.2067 19.9267 20.5225 19.7781 19.9466 20.0153C19.2989 20.2823 18.9101 20.9979 19.0531 21.687Z" fill="#272727"/>
<path d="M24.9677 42.2223C24.8392 41.6094 24.3438 41.1303 23.722 41.036C23.1058 40.9425 22.478 41.2608 22.1854 41.8099C21.8921 42.3601 21.9757 43.0549 22.3955 43.5174C22.8148 43.9792 23.4978 44.1331 24.074 43.8939C24.7206 43.6256 25.1108 42.9115 24.9677 42.2223Z" fill="#272727"/>
<path d="M31.4915 22.1561C31.2967 21.5606 30.7681 21.13 30.1354 21.0976C29.5116 21.0657 28.9209 21.4434 28.6822 22.0186C28.4435 22.5938 28.5948 23.2798 29.0587 23.6975C29.524 24.1165 30.2126 24.201 30.7653 23.9074C31.39 23.5756 31.692 22.8312 31.4915 22.1561Z" fill="#272727"/>
<path d="M27.8045 29.476C28.325 29.1333 28.5762 28.4731 28.4243 27.8703C28.2721 27.2659 27.743 26.8077 27.122 26.7475C26.5013 26.6875 25.8906 27.0297 25.6249 27.5956C25.3597 28.1602 25.4765 28.8489 25.9187 29.2908C26.4151 29.7867 27.2214 29.8692 27.8045 29.476Z" fill="#272727"/>
<path d="M8.9948 32.2902C8.87765 31.6778 8.36322 31.1972 7.74997 31.1049C7.13343 31.0121 6.50494 31.3283 6.21246 31.8789C5.92008 32.4294 6.00226 33.1237 6.42265 33.5863C6.84304 34.0489 7.52433 34.2003 8.10122 33.9619C8.74795 33.6946 9.13925 32.9795 8.9948 32.2902Z" fill="#272727"/>
<path d="M9.0215 10.3633C11.8788 10.3633 14.2032 8.03881 14.2032 5.18165C14.2031 2.3245 11.8787 0 9.0215 0C6.16434 0 3.83984 2.3245 3.83984 5.18165C3.83984 8.03881 6.16434 10.3633 9.0215 10.3633ZM9.0215 2.98855C10.2309 2.98855 11.2147 3.97238 11.2147 5.18165C11.2147 6.39092 10.2309 7.37475 9.0215 7.37475C7.81223 7.37475 6.8284 6.39092 6.8284 5.18165C6.8284 3.97238 7.81223 2.98855 9.0215 2.98855Z" fill="#272727"/>
<path d="M0.169638 16.8564C0.458332 17.4074 1.0938 17.7237 1.70725 17.6306C2.32458 17.5371 2.82985 17.0577 2.95298 16.445C3.07581 15.8336 2.7901 15.1914 2.25525 14.8715C1.719 14.5507 1.02416 14.6026 0.540218 14.9975C-0.0122656 15.4485 -0.150536 16.2294 0.169638 16.8564Z" fill="#272727"/>
</svg>
