<svg width="21" height="20" viewBox="0 0 21 20" fill="none" xmlns="http://www.w3.org/2000/svg">
<path d="M7.25 13.75L10.25 16.75M10.25 16.75L13.25 13.75M10.25 16.75V10M16.9089 14.5684C17.561 14.1099 18.0499 13.4555 18.3049 12.7003C18.5598 11.945 18.5675 11.1282 18.3267 10.3683C18.0859 9.6084 17.6093 8.94499 16.966 8.47435C16.3226 8.0037 15.546 7.7503 14.7489 7.75093H13.8039C13.5783 6.87183 13.1563 6.05536 12.5695 5.36299C11.9827 4.67061 11.2465 4.12037 10.4163 3.75369C9.58612 3.38701 8.68355 3.21345 7.77656 3.24606C6.86957 3.27868 5.9818 3.51663 5.18008 3.942C4.37836 4.36736 3.68358 4.96906 3.14805 5.7018C2.61252 6.43453 2.2502 7.27921 2.08836 8.17224C1.92651 9.06527 1.96937 9.98337 2.2137 10.8574C2.45802 11.7315 2.89746 12.5388 3.49891 13.2184" stroke-width="1.5" stroke-linecap="round" stroke-linejoin="round"/>
</svg>
