<svg width="20" height="20" viewBox="0 0 20 20" fill="none" xmlns="http://www.w3.org/2000/svg">
<path d="M17.5 9.375V16.25C17.5 16.5815 17.3683 16.8995 17.1339 17.1339C16.8995 17.3683 16.5815 17.5 16.25 17.5H4.375C4.04348 17.5 3.72554 17.3683 3.49112 17.1339C3.2567 16.8995 3.125 16.5815 3.125 16.25V9.375M10 4.0625C10 3.62985 9.87171 3.20692 9.63134 2.84719C9.39097 2.48746 9.04933 2.20708 8.64962 2.04151C8.24991 1.87595 7.81007 1.83263 7.38574 1.91703C6.96141 2.00144 6.57163 2.20978 6.2657 2.5157C5.95978 2.82163 5.75144 3.21141 5.66703 3.63574C5.58263 4.06007 5.62595 4.49991 5.79151 4.89962C5.95708 5.29933 6.23746 5.64098 6.59719 5.88134C6.95692 6.12171 7.37985 6.25 7.8125 6.25H10M10 4.0625V6.25M10 4.0625C10 3.62985 10.1283 3.20692 10.3687 2.84719C10.609 2.48746 10.9507 2.20708 11.3504 2.04151C11.7501 1.87595 12.1899 1.83263 12.6143 1.91703C13.0386 2.00144 13.4284 2.20978 13.7343 2.5157C14.0402 2.82163 14.2486 3.21141 14.333 3.63574C14.4174 4.06007 14.3741 4.49991 14.2085 4.89962C14.0429 5.29933 13.7625 5.64098 13.4028 5.88134C13.0431 6.12171 12.6201 6.25 12.1875 6.25H10M10 6.25V17.5M2.8125 9.375H17.8125C18.33 9.375 18.75 8.955 18.75 8.4375V7.1875C18.75 6.67 18.33 6.25 17.8125 6.25H2.8125C2.295 6.25 1.875 6.67 1.875 7.1875V8.4375C1.875 8.955 2.295 9.375 2.8125 9.375Z" stroke-width="1.5" stroke-linecap="round" stroke-linejoin="round"/>
</svg>
