<svg width="33" height="33" viewBox="0 0 33 33" fill="none" xmlns="http://www.w3.org/2000/svg">
<path fill-rule="evenodd" clip-rule="evenodd" d="M15.6868 30.3964C11.9897 30.3963 8.42056 30.3959 7.12108 30.3952C6.98953 30.3952 6.86445 30.3378 6.77872 30.238C6.69298 30.1382 6.655 30.006 6.6748 29.876C7.31862 25.8769 10.3859 22.6862 14.3243 21.8591L12.6633 26.2076C12.4198 26.845 12.5854 27.5663 13.0826 28.0336L15.333 30.1493C15.441 30.2508 15.5603 30.3332 15.6868 30.3964ZM18.3754 21.8595C19.6905 22.1361 20.9086 22.6767 21.972 23.4232C21.2196 24.4303 20.7733 25.6784 20.7733 27.0271C20.7733 28.2733 21.1542 29.4332 21.8056 30.3966C20.3733 30.3966 18.709 30.3966 17.0178 30.3965C17.1447 30.333 17.2644 30.2503 17.3728 30.1483L19.6184 28.0329C20.1146 27.5656 20.2797 26.8449 20.0364 26.208L18.3754 21.8595ZM16.3521 20.679C13.6187 20.679 11.3935 18.4539 11.3935 15.7252C11.3935 12.9966 13.6187 10.7714 16.3521 10.7714C19.0808 10.7714 21.306 12.9966 21.306 15.7252C21.306 18.4539 19.0808 20.679 16.3521 20.679ZM15.5125 21.6496H17.187L19.0693 26.5774C19.1628 26.8224 19.0994 27.0996 18.9085 27.2794L16.6629 29.3947C16.4886 29.5589 16.2166 29.559 16.0421 29.395L13.7917 27.2794C13.6005 27.0996 13.5367 26.8222 13.6304 26.5771L15.5125 21.6496ZM26.8123 32.0293C24.0567 32.0293 21.8086 29.7827 21.8086 27.0271C21.8086 24.2715 24.0567 22.0234 26.8123 22.0234C29.5679 22.0234 31.8145 24.2715 31.8145 27.0271C31.8145 29.7827 29.5679 32.0293 26.8123 32.0293ZM26.1555 27.4675L25.0374 26.3494C24.7478 26.0598 24.2776 26.0598 23.988 26.3494C23.6984 26.6405 23.6984 27.1092 23.988 27.3988L25.6316 29.0438C25.9211 29.3334 26.3913 29.3334 26.681 29.0438C27.6721 28.0526 28.6514 27.051 29.6381 26.0553C29.9261 25.7643 29.9247 25.2956 29.635 25.0074C29.3455 24.7193 28.8753 24.7208 28.5872 25.0104L26.1555 27.4675ZM16.5459 1.1061L17.5546 3.75988C17.5851 3.8405 17.6549 3.89059 17.7398 3.89499L20.5767 4.03443C20.7705 4.0431 20.849 4.28717 20.6986 4.407L18.485 6.18706C18.4174 6.23935 18.3913 6.32217 18.4131 6.40493L19.1582 9.14587C19.2105 9.33106 19.0035 9.48143 18.8423 9.3768L16.4653 7.82115C16.3934 7.77326 16.3062 7.77326 16.2343 7.82115L13.8594 9.3768C13.6982 9.48143 13.4912 9.33106 13.5413 9.14587L14.2864 6.40493C14.3082 6.32217 14.2821 6.23935 14.2145 6.18706L12.0009 4.407C11.8506 4.28717 11.929 4.0431 12.1229 4.03443L14.9597 3.89499C15.0446 3.89059 15.1144 3.8405 15.1449 3.75988L16.1537 1.1061C16.2212 0.925246 16.4783 0.925246 16.5459 1.1061ZM27.2845 8.79193L28.2932 11.4457C28.3237 11.5263 28.3935 11.5764 28.4784 11.5808L31.3152 11.7202C31.5091 11.7289 31.5875 11.9729 31.4372 12.0928L29.2236 13.8729C29.156 13.9252 29.1299 14.0079 29.1517 14.0908L29.8968 16.8317C29.9491 17.0169 29.7421 17.1672 29.5809 17.0626L27.2038 15.507C27.1319 15.459 27.0448 15.459 26.9728 15.507L24.598 17.0626C24.4368 17.1672 24.2298 17.0169 24.2798 16.8317L25.025 14.0908C25.0468 14.0079 25.0207 13.9252 24.9531 13.8729L22.7395 12.0928C22.5891 11.9729 22.6676 11.7289 22.8615 11.7202L25.6983 11.5808C25.7832 11.5764 25.853 11.5263 25.8835 11.4457L26.8923 8.79193C26.9598 8.61108 27.2169 8.61108 27.2845 8.79193ZM5.80729 8.79193L6.81605 11.4457C6.84653 11.5263 6.91628 11.5764 7.00124 11.5808L9.83807 11.7202C10.0319 11.7289 10.1104 11.9729 9.96004 12.0928L7.74639 13.8729C7.67884 13.9252 7.6527 14.0079 7.6745 14.0908L8.41966 16.8317C8.47194 17.0169 8.26495 17.1672 8.1037 17.0626L5.72666 15.507C5.65478 15.459 5.56762 15.459 5.49573 15.507L3.12083 17.0626C2.95958 17.1672 2.75259 17.0169 2.80273 16.8317L3.54789 14.0908C3.56963 14.0079 3.54349 13.9252 3.47593 13.8729L1.26228 12.0928C1.11197 11.9729 1.19039 11.7289 1.38432 11.7202L4.22109 11.5808C4.30605 11.5764 4.3758 11.5263 4.40628 11.4457L5.4151 8.79193C5.48266 8.61108 5.73973 8.61108 5.80729 8.79193Z" fill="#FFCD07"/>
</svg>
