<svg width="20" height="20" viewBox="0 0 20 20" fill="none" xmlns="http://www.w3.org/2000/svg">
<path d="M13.3359 6.66699C14.662 6.66699 15.9338 7.19378 16.8715 8.13146C17.8092 9.06914 18.3359 10.3409 18.3359 11.667V17.5003H15.0026V11.667C15.0026 11.225 14.827 10.801 14.5144 10.4885C14.2019 10.1759 13.778 10.0003 13.3359 10.0003C12.8939 10.0003 12.47 10.1759 12.1574 10.4885C11.8449 10.801 11.6693 11.225 11.6693 11.667V17.5003H8.33594V11.667C8.33594 10.3409 8.86272 9.06914 9.8004 8.13146C10.7381 7.19378 12.0099 6.66699 13.3359 6.66699Z" stroke-width="1.5" stroke-linecap="round" stroke-linejoin="round"/>
<path d="M5.0013 7.5H1.66797V17.5H5.0013V7.5Z" stroke-width="1.5" stroke-linecap="round" stroke-linejoin="round"/>
<path d="M3.33464 5.00033C4.25511 5.00033 5.0013 4.25413 5.0013 3.33366C5.0013 2.41318 4.25511 1.66699 3.33464 1.66699C2.41416 1.66699 1.66797 2.41318 1.66797 3.33366C1.66797 4.25413 2.41416 5.00033 3.33464 5.00033Z" stroke-width="1.5" stroke-linecap="round" stroke-linejoin="round"/>
</svg>
