<svg width="196" height="40" viewBox="0 0 196 40" fill="none" xmlns="http://www.w3.org/2000/svg">
<g clip-path="url(#clip0_2001_1843)">
<mask id="mask0_2001_1843" style="mask-type:luminance" maskUnits="userSpaceOnUse" x="0" y="0" width="196" height="40">
<path d="M196 0H0V40H196V0Z" fill="white"/>
</mask>
<g mask="url(#mask0_2001_1843)">
<path d="M53.9464 32.1893V28.8286L65.9136 12.5591H54.6411V8.79077H71.6469V12.1514L59.7128 28.4209H71.9791V32.1893H53.9443H53.9464Z" fill="#F28A5D"/>
<path d="M82.9875 32.5661C81.131 32.5661 79.5063 32.1681 78.1146 31.3721C76.7235 30.5761 75.6393 29.4985 74.867 28.1376C74.0923 26.7766 73.707 25.2681 73.707 23.614C73.707 21.9598 74.0984 20.3737 74.883 19.0438C75.6683 17.7139 76.7395 16.6616 78.0985 15.887C79.457 15.1123 80.9775 14.724 82.6558 14.724C84.0698 14.724 85.3136 14.9434 86.3854 15.3841C87.4566 15.8229 88.3688 16.4306 89.1208 17.2052C89.8727 17.9798 90.4465 18.8652 90.8441 19.8592C91.2416 20.8532 91.4407 21.9268 91.4407 23.0781C91.4407 23.3713 91.4241 23.6741 91.3914 23.9887C91.3587 24.3032 91.2971 24.575 91.209 24.806H77.285V21.6648H88.7559L86.701 23.1403C86.8994 22.1773 86.8501 21.3192 86.5512 20.5639C86.2523 19.8107 85.7666 19.2127 85.0923 18.7739C84.418 18.3351 83.6044 18.1138 82.6558 18.1138C81.7067 18.1138 80.9424 18.3293 80.2354 18.7584C79.5285 19.1874 78.9916 19.8165 78.6268 20.6435C78.2625 21.4706 78.1232 22.4704 78.2132 23.6431C78.125 24.6896 78.2748 25.6176 78.66 26.4233C79.0471 27.229 79.6209 27.8522 80.3834 28.2929C81.1452 28.7336 82.0247 28.953 83.0183 28.953C84.0124 28.953 84.8587 28.755 85.5552 28.357C86.2523 27.959 86.799 27.4251 87.1965 26.7552L90.711 28.3881C90.3566 29.2054 89.8055 29.9277 89.053 30.5547C88.301 31.1838 87.4116 31.675 86.3854 32.0302C85.3567 32.3855 84.2251 32.5641 82.9875 32.5641V32.5661Z" fill="#F28A5D"/>
<path d="M94.7227 32.1894V15.1026H98.8004V18.4633L98.4682 17.8673C98.8886 16.8422 99.5789 16.0617 100.54 15.5278C101.501 14.9939 102.622 14.726 103.905 14.726C105.188 14.726 106.407 14.9978 107.436 15.5433C108.464 16.0889 109.264 16.8461 109.839 17.8207C110.413 18.7953 110.702 19.9194 110.702 21.1969V32.1894H106.36V22.1695C106.36 21.4163 106.204 20.7678 105.897 20.2222C105.587 19.6786 105.161 19.2535 104.62 18.9506C104.079 18.6477 103.444 18.4944 102.714 18.4944C101.985 18.4944 101.376 18.6458 100.825 18.9506C100.272 19.2554 99.8415 19.6786 99.532 20.2222C99.2226 20.7678 99.0692 21.4163 99.0692 22.1695V32.1894H94.7264H94.7227Z" fill="#F28A5D"/>
<path d="M114.745 32.1896V8.78906H122.8C125.407 8.78906 127.679 9.28611 129.614 10.2801C131.548 11.2742 133.044 12.6467 134.106 14.3941C135.167 16.1433 135.698 18.1683 135.698 20.4728C135.698 22.7774 135.167 24.7809 134.106 26.5496C133.044 28.3183 131.548 29.7006 129.614 30.6946C127.679 31.6887 125.409 32.1857 122.8 32.1857H114.745V32.1896ZM119.253 28.4212H122.901C124.581 28.4212 126.034 28.0912 127.26 27.431C128.485 26.7709 129.442 25.8507 130.126 24.6664C130.811 23.484 131.153 22.0862 131.153 20.4728C131.153 18.8594 130.811 17.4364 130.126 16.2637C129.442 15.0911 128.485 14.1805 127.26 13.5302C126.032 12.8817 124.579 12.5555 122.901 12.5555H119.253V28.4173V28.4212Z" fill="#29A590"/>
<path d="M138.914 13.1865V8.78906H143.256V13.1865H138.914ZM138.914 32.1896V15.1027H143.256V32.1896H138.914Z" fill="#29A590"/>
<path d="M152.705 32.1896L145.61 15.1028H150.35L155.489 28.5455H153.733L158.905 15.1028H163.647L156.553 32.1896H152.706H152.705Z" fill="#29A590"/>
<path d="M174.252 32.5661C172.395 32.5661 170.77 32.1681 169.379 31.3721C167.987 30.5761 166.903 29.4985 166.129 28.1376C165.354 26.7766 164.969 25.2681 164.969 23.614C164.969 21.9598 165.36 20.3737 166.145 19.0438C166.93 17.7139 168.002 16.6616 169.36 15.887C170.719 15.1123 172.239 14.724 173.919 14.724C175.333 14.724 176.578 14.9434 177.649 15.3841C178.721 15.8229 179.633 16.4306 180.385 17.2052C181.137 17.9798 181.711 18.8652 182.108 19.8592C182.506 20.8532 182.704 21.9268 182.704 23.0781C182.704 23.3713 182.688 23.6741 182.656 23.9887C182.622 24.3032 182.561 24.575 182.473 24.806H168.549V21.6648H180.018L177.963 23.1403C178.162 22.1773 178.112 21.3192 177.813 20.5639C177.514 19.8107 177.028 19.2127 176.354 18.7739C175.68 18.3351 174.869 18.1138 173.918 18.1138C172.967 18.1138 172.205 18.3293 171.498 18.7584C170.791 19.1874 170.254 19.8165 169.889 20.6435C169.524 21.4706 169.387 22.4704 169.475 23.6431C169.387 24.6896 169.537 25.6176 169.922 26.4233C170.309 27.229 170.883 27.8522 171.645 28.2929C172.408 28.7336 173.286 28.953 174.281 28.953C175.274 28.953 176.12 28.755 176.818 28.357C177.514 27.959 178.061 27.4251 178.459 26.7552L181.973 28.3881C181.618 29.2054 181.067 29.9277 180.315 30.5547C179.563 31.1838 178.674 31.675 177.647 32.0302C176.618 32.3855 175.487 32.5641 174.25 32.5641L174.252 32.5661Z" fill="#29A590"/>
<path d="M185.987 32.1895V15.1026H190.065V18.904L189.733 18.339C190.153 17.0615 190.811 16.1724 191.706 15.6695C192.602 15.1667 193.68 14.9163 194.938 14.9163H195.999V18.5604H194.442C193.204 18.5604 192.211 18.9215 191.459 19.6437C190.707 20.3659 190.331 21.3774 190.331 22.6743V32.1914H185.989L185.987 32.1895Z" fill="#29A590"/>
<path fill-rule="evenodd" clip-rule="evenodd" d="M37.723 29.0988C26.0243 25.0315 13.7845 28.761 1.63696 29.1299C0.9095 27.6583 0.376713 26.0837 0.0693359 24.4354C13.264 24.1986 26.5345 19.4148 39.2742 24.4335C38.9689 26.0701 38.4423 27.635 37.723 29.0988Z" fill="#647B97"/>
<path fill-rule="evenodd" clip-rule="evenodd" d="M5.30478 34.1931C7.14698 36.0123 9.37034 37.4839 11.8539 38.4896C14.2536 39.4622 16.897 40 19.6716 40C22.7925 40 25.7453 39.3186 28.3745 38.1052C30.6265 37.0665 32.6408 35.6356 34.3191 33.9077C24.8724 31.0887 15.0814 33.3466 5.30273 34.1912L5.30478 34.1931Z" fill="#228B7D"/>
<path fill-rule="evenodd" clip-rule="evenodd" d="M37.723 29.0988C38.4423 27.6369 38.971 26.0721 39.2742 24.4335C26.5325 19.4148 13.262 24.1986 0.0693359 24.4354C0.376713 26.0837 0.9095 27.6583 1.63696 29.1299C13.7845 28.761 26.0243 25.0295 37.723 29.0988ZM5.30499 34.1932C15.0837 33.3467 24.8767 31.0888 34.3214 33.9098C35.7005 32.4906 36.8521 30.8694 37.723 29.0988C26.0243 25.0315 13.7845 28.761 1.63696 29.1299C2.56524 31.0073 3.80909 32.7158 5.30499 34.1932Z" fill="#29A590"/>
<path fill-rule="evenodd" clip-rule="evenodd" d="M37.7229 29.0987C37.7495 29.0501 37.813 28.9394 37.8376 28.8831C38.4811 27.4503 38.6778 26.8038 39.0139 25.606C39.2434 24.7497 39.4155 24.1188 39.4155 24.1188C26.7311 18.506 13.2413 23.3966 0.00976562 24.0236L0.0691921 24.4352C0.376569 26.0835 0.909355 27.6581 1.63682 29.1297C13.7844 28.7608 25.3581 23.5887 37.7229 29.0987C37.7352 29.1045 37.7106 29.0948 37.7229 29.0987Z" fill="#40CCB1"/>
<path fill-rule="evenodd" clip-rule="evenodd" d="M39.2923 16.3743C38.8866 13.4446 37.942 10.68 36.5546 8.17745C36.7534 8.58127 36.9481 8.99675 37.1407 9.43165C38.1038 11.7886 38.6489 13.831 38.8969 16.1141C38.6899 14.7512 38.3272 13.435 37.776 11.9633C36.86 9.71704 35.8518 8.02603 34.3579 6.27096C31.36 3.24807 27.403 1.11828 22.9563 0.333932C24.0342 0.609617 25.1079 0.98044 26.2719 1.46969C24.1837 0.625154 22.3067 0.203854 20.2022 0.025239C19.8497 0.00776585 19.4932 0 19.1366 0C14.9624 0 11.0731 1.1707 7.80055 3.18788C8.72267 2.68893 9.70631 2.25792 10.8272 1.84827C12.3395 1.33379 13.6386 1.0348 15.2288 0.836771C13.6735 1.07946 12.3702 1.45416 10.8948 2.00553C8.35792 3.03063 6.56489 4.16638 4.55259 5.98359C2.95833 7.5018 1.903 8.86475 0.831282 10.7635C2.00751 8.93849 3.13456 7.65328 4.81284 6.23988C6.87429 4.58768 8.67965 3.60142 11.2145 2.753C13.7063 1.99388 15.7144 1.73761 18.3251 1.86574C20.0546 1.99583 21.4296 2.26375 23.0751 2.79571C21.4542 2.31228 20.03 2.11037 18.3272 2.02495C15.7636 1.97253 13.7924 2.29287 11.3682 3.10828C8.93581 4.00136 7.21039 5.01286 5.25546 6.6709C4.7944 7.07472 4.37636 7.47855 3.95628 7.92313C4.39685 7.49791 4.83333 7.11159 5.31283 6.72719C7.31899 5.16818 9.07104 4.24404 11.5218 3.46551C13.9153 2.7763 15.8374 2.56079 18.3313 2.72387C20.3969 2.91802 21.9665 3.30437 23.8743 4.09067C21.989 3.39562 20.36 3.11411 18.3333 3.00151C15.9092 2.94908 14.0485 3.24419 11.7534 4.00912C9.45015 4.84784 7.81281 5.79913 5.95833 7.36012C4.04849 9.0589 2.86817 10.6121 1.73087 12.8642C0.640706 15.1939 0.15505 17.0926 0.0075086 19.634C-0.0150324 20.4669 0.0075086 21.2338 0.0730822 21.9754C9.65503 21.5541 19.1079 19.1001 28.7801 19.6457C32.3005 19.8437 35.6858 20.4437 38.9501 21.5561C38.9522 21.5386 38.9543 21.5192 38.9563 21.5017C38.9973 21.5173 39.0383 21.5328 39.0793 21.5464C39.2104 20.663 39.2944 19.7467 39.3415 18.7526C39.3559 17.9197 39.3415 17.1334 39.2923 16.3743Z" fill="#F28A5D"/>
</g>
</g>
</svg>
