<svg width="326" height="599" viewBox="0 0 326 599" fill="none" xmlns="http://www.w3.org/2000/svg">
<g clip-path="url(#clip0_190_307)">
<path d="M258.555 125.31L57.6256 68.3445C49.4685 77.7321 36.2665 81.9708 23.6045 78.0877C10.6014 74.0909 1.93274 62.6693 0.795868 49.9107L39.3929 61.759L46.5694 38.3469L7.97241 26.4986C16.0727 16.5705 29.6442 11.9763 42.6472 15.9731C55.295 19.8562 63.85 30.7799 65.3564 43.1403L266.285 100.092C274.443 90.7041 287.645 86.4655 300.307 90.3485C313.31 94.3454 321.978 105.767 323.115 118.526L284.518 106.677L277.342 130.089L315.939 141.938C307.838 151.866 294.267 156.46 281.264 152.463C268.616 148.58 260.061 137.656 258.555 125.296V125.31Z" fill="#FFCD07" stroke="black" stroke-miterlimit="10"/>
<path d="M260.643 125.879L59.714 68.9135C51.5569 78.3011 38.3549 82.5398 25.6929 78.6567C12.6899 74.6599 4.02118 63.2383 2.88431 50.4797L41.4813 62.328L48.6579 38.9159L10.0609 27.0676C18.1611 17.1395 31.7326 12.5452 44.7357 16.5421C57.3834 20.4251 65.9384 31.3489 67.4448 43.7092L268.36 100.661C276.517 91.2731 289.719 87.0344 302.381 90.9175C315.384 94.9143 324.053 106.336 325.189 119.095L286.592 107.246L279.416 130.658L318.013 142.507C309.913 152.435 296.341 157.029 283.338 153.032C270.69 149.149 262.135 138.225 260.629 125.865L260.643 125.879Z" fill="#FFCD07" stroke="black" stroke-miterlimit="10"/>
<path d="M66.4657 71.1466L87.3701 76.9925C84.0874 91.2162 80.0088 108.512 80.0088 108.512C80.0088 108.512 127.246 100.191 130.5 100.191C133.755 100.191 166.44 99.5939 166.44 99.5939L212.81 101.841C212.81 101.841 246.945 102.268 247.244 104.643C247.542 107.019 219.916 231.603 219.916 231.603C219.916 231.603 220.811 243.196 219.618 244.689C218.424 246.183 216.647 246.183 215.454 246.467C214.26 246.766 115.352 245.272 112.68 244.391C110.008 243.494 107.933 241.119 108.218 236.368C108.516 231.618 110.889 225.957 110.889 225.957L125.441 144.797C125.441 144.797 39.8912 137.073 37.2195 134.982C34.5479 132.891 34.8463 127.842 35.4431 126.96C35.7984 126.42 54.5996 92.7523 66.4657 71.1608V71.1466Z" fill="white" stroke="black" stroke-miterlimit="10"/>
<path d="M208.746 79.2399L206.458 101.571L181.106 131.526L169.694 99.5512L177.809 73.1522C177.809 73.1522 185.17 80.264 192.261 81.2739C199.353 82.2837 208.746 79.2399 208.746 79.2399Z" fill="#FFF7D0" stroke="black" stroke-miterlimit="10"/>
<path d="M192.062 88.3857L203.531 99.3379L207.751 91.2162L208.746 79.2399L192.062 88.3857Z" fill="black"/>
<path d="M207.479 89.1395L212.809 101.841L190.767 132.735L186.689 115.539L207.479 89.1395Z" fill="white" stroke="black" stroke-miterlimit="10"/>
<path d="M172.991 88.8835L181.361 113.007L169.197 129.25L163.1 95.9953L172.991 88.8835Z" fill="white" stroke="black" stroke-miterlimit="10"/>
<path d="M222.885 104.942C222.885 104.942 249.019 100.476 251.108 101.372C253.183 102.268 303.689 186.699 302.495 187.596C301.301 188.492 204.766 202.161 204.766 202.161L200.602 187.297L254.078 168.266L228.825 129.023" fill="white"/>
<path d="M222.885 104.942C222.885 104.942 249.019 100.476 251.108 101.372C253.183 102.268 303.689 186.699 302.495 187.596C301.301 188.492 204.766 202.161 204.766 202.161L200.602 187.297L254.078 168.266L228.825 129.023" stroke="black" stroke-miterlimit="10"/>
<path d="M200.602 187.297C200.602 187.297 191.692 190.568 189.617 192.645C187.542 194.722 172.976 214.649 172.095 215.246C171.2 215.844 172.692 228.332 174.17 229.214C175.662 230.11 186.05 233.083 188.125 233.083C190.2 233.083 192.289 227.735 192.289 227.735L189.617 224.463C189.617 224.463 195.557 218.816 197.931 213.468C200.304 208.12 202.677 201.876 202.677 201.876L204.752 202.175L200.588 187.311L200.602 187.297Z" fill="#FFF7D0" stroke="black" stroke-miterlimit="10"/>
<path d="M189.617 224.463L185.155 228.616" stroke="black" stroke-miterlimit="10"/>
<path d="M254.079 168.266C254.079 168.266 273.093 158.75 276.063 159.646C279.033 160.542 286.75 171.836 286.75 171.836" stroke="black" stroke-miterlimit="10"/>
<path d="M269.227 158.153L260.615 162.021" stroke="black" stroke-miterlimit="10"/>
<path d="M164.791 204.507L162.588 214.35" stroke="black" stroke-miterlimit="10"/>
<path d="M179.812 137.642L166.454 197.097" stroke="black" stroke-miterlimit="10"/>
<path d="M135.289 217.167L128.411 221.149" stroke="black" stroke-miterlimit="10"/>
<path d="M190.541 185.135L141.3 213.682" stroke="black" stroke-miterlimit="10"/>
<path d="M155.881 213.283L137.577 222.458" stroke="black" stroke-miterlimit="10"/>
<path d="M125.455 144.782L126.635 117.43" stroke="black" stroke-miterlimit="10"/>
<path d="M217.414 246.353L205.392 305.751L110.889 557.424C110.889 557.424 100.899 551.493 97.9426 551.123C94.9868 550.753 85.7354 552.972 85.7354 552.972L117.568 422.584L143.105 305.168L68.7249 404.805L29.5025 383.697L106.853 266.281L112.722 244.376L217.457 246.353H217.414Z" fill="#F5F5F5" stroke="black" stroke-miterlimit="10"/>
<path d="M112.679 244.376L217.414 246.353L215.794 254.347L110.448 252.726L112.679 244.376Z" fill="black" stroke="black" stroke-miterlimit="10"/>
<path d="M165.188 246.624L163.866 253.75L146.145 253.408L147.637 245.628L165.188 246.624Z" fill="white" stroke="black" stroke-miterlimit="10"/>
<path d="M197.306 256.509L198.812 246.737L193.611 246.311L191.011 256.722" fill="#FFCD07"/>
<path d="M197.306 256.509L198.812 246.737L193.611 246.311L191.011 256.722" stroke="black" stroke-miterlimit="10"/>
<path d="M127.956 255.414L129.477 245.23L123.835 245.002L121.888 254.987" fill="#FFCD07"/>
<path d="M127.956 255.414L129.477 245.23L123.835 245.002L121.888 254.987" stroke="black" stroke-miterlimit="10"/>
<path d="M141.243 287.133L143.332 292.509" stroke="black" stroke-miterlimit="10"/>
<path d="M151.574 257.59V267.561L137.918 278.627L140.291 284.686" stroke="black" stroke-miterlimit="10"/>
<path d="M167.832 269.524L129.69 262.583" stroke="black" stroke-miterlimit="10"/>
<path d="M131.366 265.527L155.695 270.605" stroke="black" stroke-miterlimit="10"/>
<path d="M120.367 263.223L127.274 264.673" stroke="black" stroke-miterlimit="10"/>
<path d="M202.492 287.758C203.53 291.741 204.496 294.344 204.496 294.344" stroke="black" stroke-miterlimit="10"/>
<path d="M202.734 255.229C202.734 255.229 199.508 262.284 200.091 273.165C200.233 275.867 200.589 278.527 201.015 281.016" stroke="black" stroke-miterlimit="10"/>
<path d="M121.49 290.248L114.74 285.582" stroke="black" stroke-miterlimit="10"/>
<path d="M143.076 305.168L124.943 292.637" stroke="black" stroke-miterlimit="10"/>
<path d="M135.445 301.996L106.981 287.744" stroke="black" stroke-miterlimit="10"/>
<path d="M173.658 295.567L168.23 297.672" stroke="black" stroke-miterlimit="10"/>
<path d="M191.508 288.612L178.036 293.86" stroke="black" stroke-miterlimit="10"/>
<path d="M76.7959 384.877L139.324 513.516L120.779 534.24C120.779 534.24 30.2123 398.703 29.3454 394.806C28.4785 390.922 26.759 387.466 31.0649 380.568C35.3709 373.655 38.3978 371.507 38.3978 371.507" fill="#F5F5F5"/>
<path d="M76.7959 384.877L139.324 513.516L120.779 534.24C120.779 534.24 30.2123 398.703 29.3454 394.806C28.4785 390.922 26.759 387.466 31.0649 380.568C35.3709 373.655 38.3978 371.507 38.3978 371.507" stroke="black" stroke-miterlimit="10"/>
<path d="M85.7074 552.987L71.3543 574.948C71.3543 574.948 54.5142 588.474 53.4911 589.243C52.4679 590.011 53.4911 592.301 54.5142 594.605C55.5374 596.909 66.2525 599.199 75.4328 597.919C84.6131 596.639 102.732 587.706 106.043 585.402C109.354 583.098 110.889 580.552 110.378 576.982C109.866 573.412 110.875 557.424 110.875 557.424C110.875 557.424 100.515 551.308 97.9288 551.123C95.3424 550.938 85.7216 552.972 85.7216 552.972L85.7074 552.987Z" fill="white" stroke="black" stroke-miterlimit="10"/>
<path d="M75.4475 597.919C66.2672 599.199 55.5521 596.895 54.5289 594.605C53.7757 592.926 53.0368 591.248 53.0936 590.167C57.7833 593.31 66.9493 596.838 74.6801 595.117C82.3256 593.41 103.585 581.988 110.492 578.205C110.52 581.163 108.985 583.382 106.058 585.416C102.747 587.721 84.6278 596.653 75.4475 597.933V597.919Z" fill="white" stroke="black" stroke-miterlimit="10"/>
<path d="M139.325 513.502C139.325 513.502 160.641 522.335 160.13 525.151C159.618 527.967 145.848 556.557 145.08 558.605C144.313 560.653 134.109 586.44 131.821 587.962C129.519 589.499 113.702 593.837 110.647 591.789C107.592 589.74 108.345 587.706 110.903 584.122C113.461 580.552 116.26 575.702 117.028 573.397C117.795 571.093 121.874 540.455 121.874 540.455L120.794 534.211L139.339 513.487L139.325 513.502Z" fill="white" stroke="black" stroke-miterlimit="10"/>
<path d="M108.742 588.062C110.376 588.802 114.028 589.641 117.524 588.987C121.603 588.218 126.96 585.928 129.262 582.856C131.309 580.125 153.251 532.889 157.969 522.733C159.376 523.714 160.242 524.568 160.129 525.151C159.617 527.953 145.847 556.557 145.079 558.605C144.312 560.653 134.108 586.441 131.82 587.962C129.518 589.499 113.701 593.837 110.646 591.789C108.927 590.636 108.415 589.484 108.756 588.062H108.742Z" fill="white" stroke="black" stroke-miterlimit="10"/>
<path d="M80.0078 108.512C80.0078 108.512 75.304 119.535 68.6675 123.404" stroke="black" stroke-miterlimit="10"/>
<path d="M76.9668 119.521C76.9668 119.521 72.5472 124.499 66.4507 126.718" stroke="black" stroke-miterlimit="10"/>
<path d="M120.666 112.879L123.438 138.624" stroke="black" stroke-miterlimit="10"/>
<path d="M222.672 134.3L236.357 144.896" stroke="black" stroke-miterlimit="10"/>
<path d="M224.717 52.0016C224.717 52.0016 229.336 48.4884 230.984 55.1451C232.647 61.7875 226.366 67.5196 224.533 67.8894C222.685 68.2593 219.729 66.9649 219.729 66.9649C219.729 66.9649 215.85 75.8262 212.354 78.7847C208.844 81.7433 197.958 89.1253 192.061 88.3857C186.163 87.6461 177.85 78.5998 176.016 73.7922C174.169 68.9847 173.615 61.7875 173.615 61.7875C173.615 61.7875 165.315 60.3082 165.315 51.8167C165.315 43.3252 169.934 42.9554 172.137 44.0648L174.354 45.1743L176.571 30.9507L218.266 16.1865L225.456 42.5856L224.717 52.0016Z" fill="#FFF7D0" stroke="black" stroke-miterlimit="10"/>
<path d="M220.667 12.4884C220.667 12.4884 228.966 16.5563 229.52 26.5271C230.075 36.4979 222.884 57.7338 222.884 57.7338C222.884 57.7338 220.113 57.7338 220.667 55.6998C221.221 53.6658 222.699 44.9894 222.884 43.8799C223.069 42.7705 218.635 37.6073 217.356 33.5394C216.063 29.4714 215.139 22.829 215.139 22.829C215.139 22.829 207.024 32.245 199.279 32.9846C191.534 33.7243 183.05 36.313 183.05 36.313L176.599 44.6196C176.599 44.6196 176.599 51.262 175.86 51.8167C175.121 52.3715 174.382 51.6318 174.197 50.3375C174.012 49.0431 174.382 43.1403 174.382 43.1403C174.382 43.1403 170.502 38.162 171.241 32.245C171.98 26.3422 174.566 13.228 185.083 7.69501C195.599 2.16202 213.86 3.25724 220.681 12.5026L220.667 12.4884Z" fill="black" stroke="black" stroke-miterlimit="10"/>
<path d="M206.499 50.053C206.143 51.7029 206.655 53.2107 207.664 53.424C208.659 53.6374 209.753 52.4853 210.108 50.8353C210.463 49.1854 209.952 47.6777 208.943 47.4643C207.934 47.251 206.854 48.4031 206.499 50.053Z" fill="black"/>
<path d="M187.045 48.0475C186.945 49.7259 187.684 51.134 188.707 51.1909C189.731 51.2478 190.626 49.9392 190.725 48.2608C190.825 46.5825 190.086 45.1743 189.063 45.1174C188.04 45.0605 187.144 46.3691 187.045 48.0475Z" fill="black"/>
<path d="M193.168 42.5856L197.417 48.3035C197.417 48.3035 191.889 64.1771 192.443 65.4714C192.998 66.7658 200.373 67.1356 200.373 67.1356" stroke="black" stroke-miterlimit="10"/>
<path d="M205.902 71.7582C205.902 71.7582 200.19 74.9017 193.539 73.0526C186.902 71.2035 185.609 66.9649 185.609 66.9649" stroke="black" stroke-miterlimit="10"/>
<path d="M200.189 73.9772C200.189 73.9772 195.755 78.23 193.368 77.4904C190.966 76.7508 189.858 71.5876 189.858 71.5876C189.858 71.5876 192.998 73.8065 200.189 73.9914V73.9772Z" stroke="black" stroke-miterlimit="10"/>
<path d="M216.787 43.5101C216.787 43.5101 211.813 38.5319 204.978 41.2913" stroke="black" stroke-miterlimit="10"/>
<path d="M191.521 39.6413C191.521 39.6413 185.993 35.3884 181.19 40.7508" stroke="black" stroke-miterlimit="10"/>
<path d="M128.454 70.4781C128.454 70.4781 130.316 74.9017 132.405 77.6895C134.494 80.4774 135.886 80.9467 134.025 82.1131C132.163 83.2794 126.82 79.0977 126.82 79.0977C126.82 79.0977 126.592 72.5833 128.44 70.4924L128.454 70.4781Z" fill="#FFF7D0" stroke="black" stroke-miterlimit="10"/>
<path d="M84.1574 48.7444C84.1574 48.7444 96.6347 42.2016 100.5 43.695C104.365 45.1885 112.977 49.6405 117.141 53.808C121.305 57.9756 129.021 65.4003 129.021 66.8938C129.021 68.3873 129.021 79.6808 126.947 80.8614C124.872 82.042 117.44 80.5627 117.44 80.5627C117.44 80.5627 104.067 80.8614 103.186 79.0692C102.291 77.2913 97.2457 72.825 98.4394 71.6303C99.6332 70.4355 100.813 70.4355 100.813 70.4355L93.9772 57.3497L92.2008 52.0016L84.1858 48.7302L84.1574 48.7444Z" fill="#FFF7D0" stroke="black" stroke-miterlimit="10"/>
<path d="M111.785 68.6718L107.096 80.008" stroke="black" stroke-miterlimit="10"/>
<path d="M125.441 68.1455L119.629 80.4774" stroke="black" stroke-miterlimit="10"/>
<path d="M119.174 69.0842L112.893 80.2356" stroke="black" stroke-miterlimit="10"/>
<path d="M100.799 70.4497L102.22 73.7354" stroke="black" stroke-miterlimit="10"/>
<path d="M177.424 86.2948C177.751 86.2948 178.077 86.181 178.348 85.9534C178.944 85.4414 179.015 84.5453 178.504 83.9479C176.614 81.729 175.306 79.7661 174.724 78.2727C172.905 73.5789 171.242 62.0293 171.214 61.9155C171.1 61.1332 170.389 60.5927 169.608 60.7065C168.826 60.8203 168.286 61.5314 168.4 62.3137C168.471 62.7973 170.119 74.3043 172.066 79.2968C172.777 81.1174 174.212 83.2936 176.33 85.7827C176.614 86.1099 177.012 86.2806 177.41 86.2806L177.424 86.2948Z" fill="black"/>
<path d="M181.247 91.8278C182.043 91.8278 182.839 91.5007 183.393 90.8464C184.416 89.6516 184.288 87.8594 183.109 86.8353C183.109 86.8353 181.958 85.8112 179.599 83.0376C178.575 81.8428 176.785 81.7006 175.591 82.7247C174.397 83.7488 174.255 85.541 175.278 86.7357C177.936 89.8507 179.257 91.0171 179.4 91.1451C179.94 91.6144 180.593 91.842 181.261 91.842L181.247 91.8278Z" fill="#FFCD07" stroke="black" stroke-miterlimit="10"/>
<path d="M231.995 50.8779L234.397 40.708C237.139 26.9396 231.043 12.7159 219.205 5.24852C210.266 -0.384036 199.438 -1.55037 189.504 2.04821L188.225 2.51759C173.772 7.76611 164.621 22.1462 165.985 37.4651L166.809 44.3209L169.637 43.9795L168.813 37.1664C167.576 23.1703 175.947 9.99922 189.191 5.17741L190.47 4.70803C199.565 1.40814 209.485 2.47491 217.684 7.63809C228.513 14.4797 234.112 27.5085 231.611 40.0822L229.21 50.2094L231.981 50.8637L231.995 50.8779Z" fill="black"/>
<path d="M227.907 49.8195L230.579 50.5552C232.364 51.0468 233.414 52.8945 232.923 54.682L229.308 67.834C228.817 69.6215 226.971 70.6719 225.185 70.1803L222.513 69.4446C220.727 68.953 219.678 67.1053 220.169 65.3178L223.783 52.1658C224.275 50.3783 226.121 49.3278 227.907 49.8195Z" fill="#FFCD07" stroke="black" stroke-miterlimit="10"/>
<path d="M227.851 49.8044L230.619 50.5665L225.225 70.1916L222.458 69.4296L227.851 49.8044Z" fill="black" stroke="black" stroke-miterlimit="10"/>
<path d="M166.75 42.3634L169.515 42.1816C171.363 42.06 172.96 43.4611 173.081 45.311L173.975 58.9221C174.096 60.772 172.697 62.3702 170.848 62.4918L168.083 62.6737C166.235 62.7952 164.638 61.3941 164.517 59.5442L163.623 45.9331C163.501 44.0832 164.901 42.485 166.75 42.3634Z" fill="#FFCD07" stroke="black" stroke-miterlimit="10"/>
<path d="M166.694 42.3672L169.559 42.1788L170.892 62.489L168.028 62.6774L166.694 42.3672Z" fill="black" stroke="black" stroke-miterlimit="10"/>
<path d="M134.309 152.989H155.924V188.705H134.309V152.989Z" fill="#FFCD07" stroke="black" stroke-miterlimit="10"/>
<path d="M140.96 157.484H148.805V169.532H140.96V157.484Z" fill="white"/>
<path d="M138.818 173.727V181H137.28V173.727H138.818ZM139.783 181V173.727H144.598V174.995H141.321V176.728H144.279V177.996H141.321V181H139.783ZM146.87 173.727V181H145.333V173.727H146.87ZM149.277 173.727L150.744 176.206H150.801L152.274 173.727H154.011L151.791 177.364L154.061 181H152.292L150.801 178.518H150.744L149.252 181H147.491L149.767 177.364L147.534 173.727H149.277Z" fill="black"/>
<path d="M142.082 145.991H147.127V155.237H142.082V145.991Z" fill="black"/>
</g>
<defs>
<clipPath id="clip0_190_307">
<rect width="326" height="599" fill="white" transform="matrix(-1 0 0 1 326 0)"/>
</clipPath>
</defs>
</svg>
