<svg width="181" height="211" viewBox="0 0 181 211" fill="none" xmlns="http://www.w3.org/2000/svg">
<g opacity="0.8" clip-path="url(#clip0_190_1743)">
<path d="M88.6492 78.2697C86.3279 80.1803 84.8087 71.8579 84.8087 71.8579L94.4263 64.8858L100.611 57.9105C101.246 57.1942 102.338 57.1219 103.063 57.7495C103.803 58.3902 103.88 59.5139 103.234 60.2466L100.478 63.3712C100.095 63.8049 100.3 64.4916 100.857 64.6443C101.719 64.8825 102.615 64.9614 103.505 64.876C105.123 64.7199 107.912 64.3749 110.626 63.6932C111.9 63.3728 112.948 64.5704 112.141 65.6103L104.79 69.949C102.927 71.048 99.7957 71.1745 97.7085 70.6044C97.7085 70.6044 95.8358 72.8222 93.7796 74.5718C92.1131 75.9912 90.4368 76.7978 88.6492 78.2697Z" fill="#202020"/>
<path d="M87.9577 78.9199C87.794 78.9199 87.6483 78.887 87.5288 78.8427C85.638 78.1461 84.5674 72.559 84.4512 71.9248C84.4266 71.7868 84.4823 71.6456 84.5952 71.5634L94.18 64.6144L100.339 57.6702C101.101 56.8094 102.429 56.7223 103.3 57.4747C103.732 57.8493 103.992 58.3701 104.032 58.9418C104.071 59.5135 103.884 60.0622 103.506 60.4909L100.751 63.6155C100.654 63.7256 100.622 63.8702 100.664 64.0115C100.707 64.1527 100.812 64.2562 100.954 64.2957C101.779 64.524 102.627 64.5979 103.47 64.5158C104.929 64.3745 107.787 64.0345 110.537 63.3412C111.334 63.1408 112.142 63.4283 112.548 64.0542C112.903 64.6012 112.855 65.283 112.426 65.8366C112.399 65.8728 112.363 65.904 112.323 65.927L104.973 70.2656C103.012 71.4238 99.8949 71.5141 97.8355 71.0164C97.3477 71.5766 95.7368 73.3869 94.0147 74.8523C93.1454 75.5916 92.2598 76.1781 91.4036 76.7465C90.5851 77.2886 89.7404 77.8488 88.8793 78.5552C88.5421 78.8328 88.2245 78.9215 87.9577 78.9215V78.9199ZM85.2091 72.0185C85.6462 74.2724 86.6841 77.7551 87.7792 78.1576C87.9069 78.2053 88.1148 78.2398 88.4177 77.9884C89.3066 77.2574 90.1677 76.6857 91.0009 76.1353C91.8784 75.5538 92.7067 75.0051 93.5432 74.2938C95.5519 72.5852 97.4115 70.3905 97.4295 70.3691C97.5212 70.2607 97.6669 70.2147 97.8028 70.2525C99.7361 70.7798 102.809 70.6944 104.605 69.6348L111.891 65.3339C112.169 64.9364 112.042 64.6127 111.937 64.4517C111.74 64.1478 111.285 63.9047 110.712 64.0476C107.915 64.7507 105.017 65.0957 103.537 65.2403C102.604 65.3306 101.669 65.2501 100.758 64.9971C100.375 64.892 100.077 64.5996 99.9637 64.2168C99.8507 63.834 99.9391 63.4283 100.203 63.1293L102.958 60.0047C103.205 59.7237 103.328 59.3623 103.303 58.9878C103.277 58.6132 103.107 58.2715 102.824 58.0251C102.252 57.5306 101.381 57.5881 100.88 58.1532L94.6957 65.1286C94.6777 65.1483 94.658 65.1663 94.6368 65.1811L85.2058 72.0168L85.2091 72.0185Z" fill="black"/>
<path d="M58.533 29.9631C51.8163 31.509 47.0656 34.8389 47.0656 34.8389C47.0656 34.8389 36.7916 41.4134 37.0355 53.9595C37.2254 63.6948 44.4398 75.2831 44.3825 76.1127C43.749 85.4028 43.0385 85.0874 43.9962 88.3976C46.3208 96.4342 79.2415 93.119 79.8275 89.4359C80.3579 86.0944 78.8289 80.5072 79.5967 72.9947C80.2761 66.3528 82.6776 58.1799 82.6776 58.1799C93.3805 64.324 104.496 63.5371 114.611 56.3399C126.535 47.8549 135.585 28.9807 135.585 28.9807L129.002 25.1562C129.002 25.1562 114.804 41.5613 102.882 42.8427C95.7804 43.6066 89.6317 39.4371 86.045 36.237C82.4271 33.0088 78.0382 30.7533 73.2794 29.8547C69.0935 29.0645 63.9025 28.7277 58.533 29.9647V29.9631Z" fill="#202020"/>
<path d="M60.1571 93.7174C52.2601 93.7174 44.7658 92.3654 43.6477 88.4999C43.0141 86.3068 43.0927 85.6004 43.3906 82.9735C43.5609 81.472 43.7934 79.4136 44.0209 76.0885C43.9931 75.9177 43.5265 74.9747 43.0321 73.9775C41.0153 69.9067 36.818 61.438 36.6723 53.9682C36.4267 41.3629 46.7662 34.5995 46.871 34.5322C46.907 34.5075 51.7444 31.1513 58.453 29.6087C63.0858 28.5425 68.0984 28.5047 73.3483 29.4953C78.0728 30.3874 82.5468 32.6232 86.2891 35.963C90.0739 39.3407 96.0196 43.2111 102.844 42.4784C114.49 41.2249 128.588 25.0778 128.729 24.9152C128.844 24.7821 129.035 24.7509 129.186 24.838L135.768 28.6624C135.932 28.7577 135.996 28.9647 135.914 29.1372C135.822 29.3261 126.686 48.1937 114.823 56.6377C104.565 63.9383 93.5362 64.6563 82.902 58.7257C82.3995 60.5131 80.5382 67.3751 79.9603 73.0313C79.5281 77.2631 79.8326 80.9085 80.0765 83.8376C80.2713 86.1655 80.4252 88.0054 80.1878 89.4938C79.8211 91.8019 70.8093 93.195 64.8423 93.5679C63.297 93.6649 61.7189 93.7174 60.1588 93.7174H60.1571ZM58.5332 29.9635L58.615 30.32C52.044 31.833 47.3212 35.1071 47.2737 35.14C47.1607 35.2139 37.1617 41.7671 37.3991 53.9534C37.5415 61.2589 41.6881 69.629 43.682 73.6522C44.5235 75.3509 44.7658 75.8536 44.7461 76.1394C44.5186 79.4809 44.2845 81.5476 44.1126 83.0557C43.8146 85.694 43.7524 86.2443 44.345 88.2962C45.5663 92.5165 56.1251 93.3807 64.7948 92.8402C73.201 92.3145 79.2744 90.5945 79.4675 89.3788C79.6902 87.9775 79.533 86.0883 79.3497 83.8984C79.1025 80.9381 78.7947 77.2549 79.2335 72.9557C79.9079 66.3566 82.3029 58.1573 82.3274 58.0752C82.3585 57.9684 82.4371 57.8813 82.5403 57.8403C82.6434 57.7992 82.7596 57.8074 82.8562 57.8616C93.3496 63.8874 104.257 63.2566 114.399 56.0397C125.288 48.2906 133.881 31.58 135.105 29.1224L129.076 25.62C127.246 27.6882 114.222 41.9888 102.918 43.2045C95.8248 43.9668 89.6957 39.9846 85.8012 36.5085C82.1588 33.2573 77.8043 31.0806 73.2108 30.2132C68.0591 29.2407 63.1463 29.2768 58.6118 30.32L58.5299 29.9635H58.5332Z" fill="#656565"/>
<path d="M79.2088 93.2472L51.5346 92.8588C53.5567 83.4359 54.6218 72.5122 55.1826 63.8904C55.4691 59.4853 55.6242 55.6761 55.7078 52.9679C55.7495 51.6137 55.7734 50.5346 55.7868 49.7936C55.7935 49.4232 55.7976 49.1372 55.8001 48.9437C55.8013 48.8469 55.8021 48.7733 55.8026 48.7237L55.8031 48.6675L55.8032 48.6532L55.8032 48.6499C55.8134 47.9479 56.3829 47.3867 57.0778 47.3867H77.9941C78.6897 47.3867 79.2588 47.948 79.2687 48.6506L79.2088 93.2472Z" fill="#202020" stroke="#656565"/>
<path d="M59.5195 50.1838L59.523 50.184C59.5386 50.1848 59.558 50.185 59.5916 50.185C60.3441 50.185 60.8818 49.6678 60.9144 49.1119C61.3826 41.0084 59.7467 35.4496 56.3229 32.3021C55.1028 31.1811 54.0709 30.8294 53.3302 30.7493C52.6628 30.6771 52.1966 30.8181 51.9477 30.8933C51.9182 30.9023 51.8918 30.9103 51.8684 30.9169L59.5195 50.1838ZM59.5195 50.1838C58.7347 50.148 58.234 49.5696 58.2671 49.004L58.2671 49.0036M59.5195 50.1838L58.2671 49.0036M58.2671 49.0036C58.7893 39.9427 56.5317 35.769 54.4025 33.8555M58.2671 49.0036L54.4025 33.8555M54.4025 33.8555C53.2413 32.8118 51.4264 31.9577 50.2439 31.4669C50.8167 31.2577 51.4543 31.0341 51.8682 30.9169L54.4025 33.8555Z" fill="#202020" stroke="#656565"/>
<path d="M74.9162 49.2442C79.284 37.8418 78.3625 32.5046 77.1993 30.1736C77.3509 30.2327 77.5161 30.2964 77.6819 30.3603C77.7636 30.3918 77.8455 30.4234 77.926 30.4545C78.3539 30.6198 78.7278 30.7666 78.8799 30.8378L78.8807 30.8382C79.1047 30.9426 79.452 31.1549 79.7787 31.6524C80.1095 32.1563 80.4373 32.981 80.566 34.3382C80.8245 37.0662 80.2698 41.8516 77.4637 50.2323C77.292 50.7433 76.7121 51.0175 76.1901 50.8459L76.1553 50.8345C76.1546 50.8342 76.1539 50.8338 76.1531 50.8335L76.1437 50.8294L76.1342 50.8257C75.8413 50.7112 75.4589 50.4206 75.1885 50.0637C74.9026 49.6862 74.8573 49.3979 74.9161 49.2444L74.9162 49.2442Z" fill="#202020" stroke="#656565"/>
<path d="M1.37556 82.6636C2.27894 85.4691 4.25635 88.3037 6.70469 90.2011C9.15349 92.0989 11.9965 93.0066 14.6744 92.1406L118.425 55.7825L118.769 55.662L118.989 55.9523C127.165 66.7362 141.518 71.7134 155.093 67.3096L155.168 67.2852H155.169C157.618 66.4758 160.397 64.8151 163.211 62.7457C166.046 60.6602 168.886 58.1818 171.415 55.8C173.944 53.419 176.157 51.1399 177.738 49.4558C178.528 48.614 179.16 47.9212 179.594 47.4393C179.735 47.2822 179.856 47.1475 179.954 47.0374L177.227 44.3009L146.997 54.0164L146.8 54.0798L146.616 53.9852L124.953 42.8601L124.449 42.6012L124.769 42.1333L140.62 18.9304L140.739 18.7561L140.947 18.7199L169.06 13.8118C165.328 9.95165 159.764 6.87054 153.746 5.13848C147.386 3.30783 140.581 3.00245 134.971 4.82228L134.817 4.34677L134.971 4.82229C121.396 9.22461 112.658 21.6915 112.32 35.2389L112.311 35.5928L111.974 35.7021L8.14383 69.3812C2.62222 71.1718 -0.40988 77.1174 1.37556 82.6636ZM1.37556 82.6636L0.899615 82.8168L1.37556 82.6636Z" fill="#202020" stroke="#656565"/>
<path d="M12.6072 93.3258C7.4866 93.3258 2.3054 88.3744 0.552137 82.9285C-1.37629 76.9404 1.90924 70.4941 7.87621 68.5589L111.463 34.9602C111.926 20.7894 121.237 8.36819 134.704 4.00161C140.224 2.21096 147.071 2.31938 153.983 4.30882C160.636 6.22433 166.591 9.72186 170.32 13.9044C170.409 14.003 170.437 14.1426 170.392 14.2675C170.35 14.3923 170.242 14.4843 170.111 14.5073L141.242 19.5458L125.711 42.2789L146.872 53.1461L177.25 43.3829C177.379 43.3402 177.522 43.3763 177.618 43.4716L180.892 46.7572C181.028 46.8936 181.035 47.1104 180.909 47.255C180.285 47.9712 165.508 64.8379 155.356 68.1301C141.893 72.4967 127.1 67.8968 118.459 56.683L14.9531 92.9578C14.1821 93.2075 13.3946 93.3258 12.6072 93.3258ZM143.146 3.50056C140.23 3.50056 137.434 3.88333 134.928 4.69488C121.673 8.99409 112.532 21.2675 112.183 35.2362C112.18 35.3907 112.078 35.527 111.931 35.5747L8.10049 69.2521C2.51494 71.0641 -0.561044 77.0982 1.2446 82.7034C2.16789 85.5717 4.17816 88.4138 6.61897 90.3063C9.31025 92.391 12.1865 93.0876 14.7206 92.2662L118.469 55.9076C118.618 55.8551 118.783 55.906 118.878 56.0308C127.309 67.1526 141.88 71.7344 155.134 67.4352C164.425 64.4206 178.209 49.1951 180.136 47.0283L177.261 44.1435L146.95 53.8853C146.859 53.9149 146.759 53.9067 146.674 53.8623L125.011 42.7373C124.917 42.6896 124.85 42.6042 124.824 42.5024C124.798 42.4005 124.818 42.2937 124.876 42.2067L140.728 19.0037C140.783 18.9232 140.869 18.8673 140.965 18.8509L169.327 13.8995C163.288 7.51228 152.591 3.49727 143.141 3.49727L143.146 3.50056Z" fill="#202020"/>
<path d="M158.521 71.0694C169.981 67.3517 178.045 57.9762 180.637 47.0155L154.891 55.3658L133.228 44.2408L144.305 22.4966L170.05 14.1462C161.557 6.78155 149.55 3.91486 138.089 7.63252C124.305 12.1026 115.436 24.7604 115.092 38.5123L11.263 72.1914C5.47777 74.0675 2.30356 80.2954 4.17305 86.1027C6.04254 91.9083 12.2485 95.0937 18.0354 93.2177L121.866 59.5402C130.166 70.4878 144.738 75.5427 158.522 71.071L158.521 71.0694Z" fill="#202020"/>
<path d="M14.6349 94.1232C12.8587 94.1232 11.0956 93.701 9.46842 92.8648C6.76405 91.4766 4.76032 89.1143 3.82557 86.2131C1.89715 80.2251 5.18267 73.7787 11.1497 71.8435L114.736 38.2449C115.199 24.074 124.511 11.6528 137.977 7.28624C149.241 3.63264 161.319 6.09356 170.287 13.8706C170.387 13.9577 170.431 14.0907 170.405 14.2189C170.379 14.3487 170.285 14.4538 170.159 14.4932L144.556 22.7976L133.714 44.0817L154.919 54.9719L180.522 46.6675C180.646 46.6265 180.784 46.6577 180.88 46.7464C180.977 46.8351 181.018 46.9698 180.987 47.0996C178.251 58.6731 169.893 67.7628 158.628 71.4164C145.162 75.7829 130.368 71.1831 121.726 59.9644L18.1463 93.5646C16.9955 93.9375 15.8119 94.1232 14.6365 94.1232H14.6349ZM148.39 6.35805C144.992 6.35805 141.559 6.89197 138.2 7.98114C124.945 12.2804 115.803 24.5537 115.455 38.5225C115.451 38.6769 115.35 38.8133 115.203 38.8609L11.3739 72.5384C5.78838 74.3504 2.71239 80.3844 4.51804 85.9897C5.39221 88.7052 7.26825 90.9164 9.80074 92.2159C12.3332 93.5154 15.2177 93.747 17.922 92.8697L121.752 59.1923C121.9 59.1446 122.06 59.1955 122.153 59.3188C130.584 70.4389 145.155 75.024 158.409 70.7231C169.223 67.2157 177.298 58.5861 180.127 47.5661L155.002 55.7161C154.91 55.7457 154.811 55.7374 154.725 55.6931L133.063 44.568C132.884 44.476 132.812 44.2559 132.904 44.0768L143.98 22.3327C144.024 22.2456 144.101 22.1815 144.193 22.152L169.316 14.002C163.305 8.98654 155.934 6.35805 148.392 6.35805H148.39Z" fill="#656565"/>
<path d="M51.9854 35.749C51.9854 35.749 44.6695 38.8654 40.8077 51.5528C38.6763 58.5544 39.39 68.288 49.5806 81.8132C59.6336 95.1561 89.4586 78.9022 89.4586 78.9022L88.8006 68.9057C88.8006 68.9057 72.3762 77.9904 61.2772 72.7696C58.0833 71.2664 53.2 55.1604 52.704 47.1353L51.9854 35.749Z" fill="#202020"/>
<path d="M62.9123 87.4222C57.0386 87.4222 52.4304 85.6283 49.3233 82.0749C45.0441 78.4886 42.2137 71.2505 40.6929 67.3587C40.1772 66.0411 39.7712 64.9996 39.5355 64.671C39.4176 64.5067 39.4553 64.2784 39.619 64.1618C39.7827 64.0435 40.0102 64.0813 40.1265 64.2455C40.4146 64.6497 40.7944 65.6206 41.3706 67.0925C42.8718 70.9301 45.6645 78.073 49.8111 81.5328C49.8259 81.5459 49.839 81.559 49.8521 81.5738C60.6466 93.9655 86.551 80.097 89.0786 78.6973L88.4729 69.4861C85.4395 71.0237 69.9057 78.4016 61.0886 73.0822C58.4907 71.5149 54.7779 61.3279 53.1965 53.2683C53.1572 53.0712 53.2866 52.879 53.483 52.8396C53.6794 52.7985 53.871 52.9299 53.9103 53.127C55.5702 61.5842 59.3125 71.1585 61.4635 72.4563C70.7029 78.0303 88.45 68.6778 88.6284 68.5825C88.7381 68.525 88.8691 68.525 88.9755 68.5858C89.0835 68.6466 89.1539 68.7567 89.1621 68.8799L89.8202 78.8763C89.83 79.016 89.758 79.1474 89.6385 79.2164C89.5681 79.2575 82.4372 83.33 73.9753 85.7104C69.9188 86.8522 66.2158 87.4189 62.9139 87.4189L62.9123 87.4222Z" fill="#656565"/>
<path d="M54.8878 186.304L52.5583 197.624L58.6563 199.372L62.0269 188.351L54.8878 186.304Z" fill="#202020"/>
<path d="M58.6572 199.737C58.6244 199.737 58.5901 199.732 58.5573 199.722L52.4594 197.974C52.276 197.922 52.1647 197.736 52.2024 197.549L54.5319 186.228C54.5515 186.128 54.6137 186.043 54.7005 185.99C54.7872 185.937 54.892 185.924 54.9886 185.951L62.1293 187.998C62.2226 188.024 62.3029 188.088 62.3487 188.175C62.3945 188.26 62.406 188.362 62.3765 188.456L59.0042 199.477C58.9568 199.634 58.8127 199.735 58.6572 199.735V199.737ZM52.9849 197.366L58.4149 198.922L61.5727 188.599L55.167 186.762L52.9849 197.365V197.366Z" fill="#656565"/>
<path d="M50.5417 207.164C50.6104 208.253 51.9266 209.127 52.9891 209.289C56.6871 209.856 65.3781 209.616 67.7387 209.782C70.8032 209.997 76.5574 209.766 76.78 207.786C77.0518 205.371 74.4833 201.851 68.3362 199.922C65.1571 198.925 61.7946 193.982 60.3066 193.893C58.8185 193.804 56.1845 197.709 56.1845 197.709L51.9479 196.251C51.9479 196.251 50.193 201.641 50.5417 207.165V207.164Z" fill="#202020"/>
<path d="M69.6431 210.2C68.5299 210.2 67.7409 210.147 67.7147 210.145C66.9109 210.09 65.3263 210.08 63.4911 210.07C59.8782 210.05 55.3813 210.024 52.9339 209.649C51.6718 209.455 50.259 208.46 50.1788 207.185C49.8285 201.655 51.5834 196.188 51.6014 196.134C51.6325 196.04 51.698 195.965 51.7847 195.92C51.8715 195.876 51.973 195.869 52.0647 195.902L56.041 197.272C56.7433 196.267 58.8502 193.438 60.3268 193.528C61.1256 193.576 62.1684 194.586 63.4879 195.866C64.9481 197.282 66.7668 199.045 68.4448 199.572C74.8325 201.577 77.4321 205.256 77.1423 207.826C76.9099 209.892 72.3327 210.2 69.6431 210.2ZM52.1858 196.717C51.8126 197.999 50.6143 202.552 50.904 207.141C50.958 207.985 52.0778 208.78 53.0436 208.928C55.4386 209.294 59.906 209.319 63.4944 209.34C65.341 209.35 66.9371 209.36 67.7638 209.418C71.285 209.666 76.2518 209.221 76.4188 207.745C76.684 205.391 73.955 202.068 68.2271 200.271C66.3838 199.692 64.4979 197.862 62.982 196.392C61.9163 195.359 60.813 194.289 60.2842 194.258C59.4067 194.204 57.5307 196.364 56.4846 197.913C56.393 198.049 56.2211 198.107 56.0656 198.054L52.1858 196.717Z" fill="#656565"/>
<path d="M71.265 207.255C70.453 207.255 69.5641 207.208 68.6228 207.159C67.2297 207.085 65.7891 207.009 64.3747 207.075C61.1498 207.224 58.393 207.094 56.6463 206.96C53.382 206.708 53.256 206.506 53.1872 206.398C53.1168 206.286 53.1119 206.143 53.1741 206.028C53.2691 205.851 53.4868 205.784 53.6653 205.877C54.2071 206.015 58.7351 206.603 64.342 206.344C65.7924 206.276 67.251 206.354 68.6621 206.428C70.7886 206.539 72.7972 206.646 73.9481 206.15C74.1314 206.069 74.3459 206.155 74.4261 206.34C74.5047 206.526 74.4195 206.74 74.2346 206.82C73.4602 207.154 72.4453 207.254 71.265 207.254V207.255Z" fill="#656565"/>
<path d="M63.3756 203.374C63.2839 203.374 63.1938 203.34 63.1218 203.271C62.9778 203.131 62.9745 202.899 63.1136 202.755L65.3449 200.442C65.4841 200.297 65.7149 200.294 65.8589 200.434C66.003 200.573 66.0063 200.805 65.8671 200.949L63.6358 203.262C63.5638 203.336 63.4689 203.374 63.3739 203.374H63.3756Z" fill="#656565"/>
<path d="M21.8187 185.766L21.5077 193.661L26.9508 194.993L27.9199 185.821L21.8187 185.766Z" fill="#202020"/>
<path d="M26.9514 195.358C26.9219 195.358 26.8941 195.354 26.8646 195.348L21.4215 194.017C21.2529 193.976 21.1366 193.822 21.1448 193.648L21.4559 185.752C21.464 185.557 21.6245 185.402 21.8193 185.402H21.8225L27.9254 185.458C28.0285 185.458 28.1251 185.504 28.1939 185.58C28.2626 185.655 28.2954 185.759 28.2839 185.861L27.3148 195.031C27.3033 195.136 27.2477 195.23 27.1625 195.29C27.1003 195.335 27.0283 195.356 26.953 195.356L26.9514 195.358ZM21.8831 193.378L26.6321 194.54L27.5161 186.184L22.168 186.135L21.8831 193.378Z" fill="#656565"/>
<path d="M27.7818 209.348C25.6013 209.66 22.0408 209.791 17.8254 209.343C15.9346 209.142 15.198 206.481 15.5303 205.111C16.4552 201.295 18.0628 195.144 20.7966 191.789L21.8001 193.838L22.748 191.84C22.8756 191.605 23.1065 191.448 23.37 191.413L25.4147 191.433C25.8436 191.377 26.243 191.666 26.3314 192.096L26.6588 193.675L28.4039 191.638L29.7659 206.688C29.9329 207.976 29.0505 209.167 27.7835 209.348H27.7818Z" fill="#202020"/>
<path d="M23.1277 210C21.6282 210 19.8357 209.924 17.7877 209.707C17.0462 209.629 16.3963 209.22 15.9084 208.523C15.139 207.426 14.959 205.934 15.1783 205.027C16.2899 200.444 17.8991 194.771 20.5167 191.561C20.5953 191.466 20.7164 191.415 20.8392 191.43C20.9619 191.444 21.07 191.52 21.124 191.632L21.7968 193.003L22.4222 191.688C22.6153 191.333 22.9493 191.104 23.3258 191.055C23.3422 191.053 23.3586 191.053 23.3749 191.052L25.3967 191.071C26.0007 191.007 26.5639 191.423 26.6899 192.026L26.8667 192.879L28.1305 191.403C28.2255 191.292 28.3793 191.249 28.5168 191.293C28.656 191.338 28.7542 191.462 28.7689 191.609L30.131 206.658C30.3225 208.127 29.2944 209.504 27.8375 209.712C27.0566 209.824 25.4425 210.003 23.131 210.003L23.1277 210ZM27.7311 208.986C28.7951 208.835 29.5465 207.825 29.4041 206.736L28.119 192.53L26.9338 193.914C26.8438 194.019 26.7014 194.065 26.5671 194.029C26.4329 193.994 26.3298 193.886 26.3019 193.749L25.9745 192.171C25.9238 191.926 25.6995 191.765 25.4589 191.794C25.4425 191.796 25.4261 191.798 25.4098 191.798L23.3929 191.778C23.2554 191.803 23.1343 191.89 23.0655 192.016L22.1275 193.994C22.0669 194.121 21.9409 194.201 21.8017 194.203C21.6495 194.193 21.5349 194.124 21.4727 193.999L20.7262 192.476C18.0939 196.075 16.5551 202.422 15.8822 205.198C15.7038 205.937 15.8855 207.224 16.501 208.101C16.871 208.626 17.3294 208.924 17.863 208.98C21.4203 209.358 25.1085 209.361 27.7311 208.986Z" fill="#656565"/>
<path d="M21.7169 207.529C20.3172 207.529 18.8013 207.402 17.292 207.054C17.0956 207.008 16.9744 206.813 17.0186 206.617C17.0644 206.42 17.2593 206.3 17.4541 206.343C22.5698 207.526 27.918 206.004 27.972 205.99C28.1652 205.932 28.3665 206.045 28.4222 206.239C28.4778 206.433 28.3665 206.635 28.1733 206.691C28.0113 206.739 25.2267 207.531 21.7153 207.531L21.7169 207.529Z" fill="#656565"/>
<path d="M20.4688 201.685C20.274 201.685 20.112 201.529 20.1054 201.332C20.0989 201.13 20.256 200.962 20.4574 200.956L25.3636 200.792C25.5616 200.78 25.7319 200.943 25.7384 201.145C25.745 201.347 25.5878 201.514 25.3865 201.521L20.4803 201.685C20.4803 201.685 20.4721 201.685 20.4688 201.685Z" fill="#656565"/>
<path d="M70.6472 90.389C74.0609 90.1586 77.1668 89.6458 79.3699 88.6659C79.4096 88.9874 79.4597 89.4205 79.5174 89.9556C79.6558 91.2371 79.8379 93.0987 80.0277 95.4058C80.4073 100.02 80.8177 106.413 80.9713 113.51C81.279 127.725 80.5533 144.677 76.5367 155.826L76.5362 155.826C69.5706 175.161 64.6027 184.777 62.7022 188.252C62.276 189.03 61.4315 189.46 60.5693 189.348L55.6 188.699L55.5353 189.195L55.6 188.699C54.4122 188.544 53.5737 187.421 53.7652 186.202C54.6738 180.433 56.9289 163.531 58.717 147.426C59.6111 139.372 60.3891 131.512 60.8236 125.338C61.0408 122.252 61.1727 119.58 61.1897 117.514C61.1982 116.481 61.1781 115.593 61.1244 114.875C61.0718 114.172 60.9843 113.589 60.8383 113.195L60.3988 112.008L59.9085 113.175L29.0386 186.653C29.0384 186.653 29.0382 186.654 29.038 186.654C28.7822 187.25 28.2033 187.627 27.5721 187.621C27.5719 187.621 27.5717 187.621 27.5715 187.621L22.3567 187.562C21.482 187.552 20.7704 186.812 20.7931 185.902C21.5619 156.221 26.2351 139.016 31.3357 125.689C32.8229 121.803 34.3541 118.232 35.8397 114.767C39.3832 106.503 42.6673 98.8429 44.477 88.9603C44.5645 88.9714 44.6638 88.984 44.7745 88.9981C44.8999 89.0141 45.0401 89.032 45.1946 89.0516C45.9575 89.1483 47.0569 89.2851 48.4025 89.4371C51.0931 89.7411 54.7701 90.1058 58.7141 90.3313C62.6561 90.5566 66.8752 90.6435 70.6472 90.389Z" fill="#202020" stroke="#656565"/>
<path d="M44.6447 102.015C44.3828 102.015 44.2289 102.002 44.2175 102.002C44.0177 101.982 43.872 101.805 43.8901 101.604C43.9097 101.404 44.0881 101.258 44.2862 101.276C44.5694 101.304 51.2485 101.844 53.1524 94.3645C53.2015 94.169 53.3996 94.0507 53.5944 94.1017C53.7892 94.151 53.907 94.3497 53.8563 94.5452C52.0818 101.514 46.2703 102.015 44.6415 102.015H44.6447Z" fill="#656565"/>
<path d="M78.4156 102.013C77.2631 102.013 73.2262 101.502 72.0148 94.5155C71.9804 94.3168 72.113 94.1278 72.3111 94.0933C72.5125 94.0588 72.6975 94.1919 72.7318 94.3907C74.0235 101.842 78.5777 101.282 78.6219 101.276C78.8265 101.246 79.0049 101.387 79.0328 101.586C79.0606 101.787 78.9231 101.971 78.7234 101.999C78.7152 101.999 78.6039 102.013 78.414 102.013H78.4156Z" fill="#656565"/>
<path d="M70.0716 34.2275L71.4991 26.8185C71.6006 26.3207 72.0065 25.9445 72.5042 25.887L75.3739 25.5552C75.9862 25.4845 76.4756 25.0081 76.5722 24.392L77.2205 20.2604C77.2205 20.2604 77.2254 20.2489 77.2303 20.2456L78.594 19.4981C78.8657 19.3486 78.9688 19.0086 78.8297 18.7293L77.394 15.884C77.1141 15.3303 76.731 12.2041 76.1188 12.2337C76.1188 12.2337 65.794 8.59321 62.7573 12.9335C61.9535 14.0835 61.8635 15.5998 62.4086 16.8976L63.1044 18.5535C63.8263 20.2735 63.9867 22.2071 63.4351 23.9912C63.2386 24.627 62.962 25.2414 62.61 25.818L58.7302 31.944C61.5492 33.3765 64.6497 34.1454 67.801 34.193L70.0732 34.2275H70.0716Z" fill="#202020"/>
<path d="M70.0713 34.5928H70.0664L67.7942 34.5583C64.6052 34.5107 61.4147 33.7188 58.563 32.2699C58.4713 32.2239 58.4042 32.1401 58.3763 32.0415C58.3485 31.9429 58.3649 31.8362 58.4205 31.7491L62.3003 25.6231C62.631 25.0826 62.8962 24.4961 63.0861 23.8834C63.5952 22.2389 63.4822 20.3973 62.7669 18.6954L62.0711 17.0394C61.4621 15.5888 61.6095 13.9345 62.4575 12.7238C65.5334 8.32765 75.277 11.559 76.184 11.8712C76.8011 11.927 77.063 12.9587 77.4265 14.5999C77.528 15.0566 77.6426 15.5757 77.7162 15.7203L79.1519 18.5656C79.3827 19.0239 79.2141 19.5743 78.7672 19.8191L77.5525 20.486L76.9304 24.4501C76.8093 25.2255 76.1856 25.8301 75.4129 25.9204L72.5432 26.2523C72.1994 26.2917 71.9228 26.5496 71.8524 26.8946L70.4265 34.3004C70.3938 34.4729 70.2432 34.5961 70.0696 34.5961L70.0713 34.5928ZM59.2521 31.7967C61.9123 33.0831 64.8606 33.7845 67.8056 33.8289L69.7733 33.8585L71.1419 26.75C71.2761 26.0913 71.8065 25.6001 72.463 25.5245L75.3327 25.1927C75.7813 25.1417 76.143 24.7885 76.2134 24.3351L76.8617 20.2035C76.8797 20.0934 76.9566 19.9817 77.0532 19.9275L78.4201 19.1784C78.5184 19.1242 78.5577 18.9977 78.5053 18.8958L77.0696 16.0505C76.9615 15.8353 76.8699 15.4393 76.7193 14.7592C76.5785 14.13 76.2936 12.8421 76.0628 12.5957C76.0415 12.5924 76.0203 12.5874 75.999 12.5792C75.8991 12.5447 65.9001 9.08006 63.055 13.1444C62.3494 14.1514 62.2315 15.5363 62.7439 16.7569L63.4397 18.4128C64.2205 20.2725 64.3417 22.2931 63.7834 24.1019C63.5755 24.7721 63.2858 25.4144 62.9207 26.0108L59.2554 31.7984L59.2521 31.7967Z" fill="#656565"/>
<path d="M68.0676 16.8439C67.5372 15.5099 66.7089 15.0105 66.8644 14.2515C66.9577 13.7948 67.349 13.5074 67.5716 13.3447C68.6766 12.5332 70.1286 13.0293 73.0458 13.5862C76.6669 14.2778 77.0811 14.3863 77.7638 14.1135C79.5006 13.4186 80.4878 11.2534 80.5647 9.47427C80.586 8.97486 80.6302 6.32337 78.4071 4.95492C76.8028 3.96759 74.6534 4.04152 72.9181 5.13727C72.7659 4.62143 72.45 3.89695 71.7608 3.54046C70.1254 2.69442 67.6846 4.5935 66.8317 5.25719C66.0426 5.8716 64.6348 7.15299 63.6264 9.40856C63.3039 9.22621 62.0957 8.59208 60.7779 9.01757C58.8184 9.65169 58.3371 12.0765 58.2945 12.3065C57.8051 14.9859 59.979 17.3236 61.621 19.088C62.5263 20.0605 63.001 20.4318 63.533 20.7915C63.8473 21.0035 64.2533 21.0199 64.584 20.8343C64.5906 20.831 64.5955 20.8277 64.602 20.8244C65.0358 20.5813 65.1815 20.0178 64.9196 19.5907L64.8361 19.4543C64.5234 18.9417 64.309 18.3684 64.2435 17.7704C64.1911 17.2924 64.2288 16.7913 64.5316 16.5334C65.0211 16.1178 65.8544 16.3921 65.9739 16.4315C66.5845 16.6336 66.9675 17.0919 67.2033 17.5273C67.4554 17.9938 68.3017 17.4386 68.0676 16.8472V16.8439Z" fill="#656565"/>
<path d="M75.7635 4.636L84.5675 2.73035C86.1783 2.38208 87.6271 4.43394 87.0509 6.31659C86.658 7.59798 85.4237 8.97958 82.4606 10.1115C74.6553 13.0948 69.6951 14.3154 69.6951 14.3154L75.7635 4.636Z" fill="#202020"/>
<path d="M69.6952 14.6805C69.5806 14.6805 69.4693 14.6263 69.4005 14.5293C69.3138 14.4094 69.3088 14.2468 69.3874 14.1219L75.4559 4.44251C75.5083 4.35873 75.5918 4.30123 75.6867 4.27987L84.4907 2.37422C85.2666 2.20666 86.0622 2.49086 86.6696 3.1562C87.457 4.01703 87.7435 5.30006 87.398 6.42538C86.8922 8.07311 85.2748 9.42842 82.5901 10.4552C74.8535 13.4122 69.8311 14.6591 69.782 14.6722C69.7525 14.6788 69.7247 14.6821 69.6952 14.6821V14.6805ZM75.9896 4.96L70.4941 13.726C72.2522 13.243 76.5183 11.9928 82.3314 9.77177C84.7968 8.83044 86.2669 7.63119 86.7023 6.21017C86.9724 5.32798 86.7498 4.32259 86.1326 3.64904C85.7037 3.18084 85.1586 2.97549 84.6429 3.0872L75.9879 4.96H75.9896Z" fill="#656565"/>
<path d="M61.5453 17.6455C61.5453 17.6455 53.8218 9.94894 60.4436 4.2862C69.0102 -3.03906 74.211 1.56243 76.4619 4.73469C77.3525 5.99143 77.4311 7.58166 76.6437 8.90741L76.6191 8.94848C75.2587 11.2418 73.0766 13.0637 70.4295 14.1167L61.5453 17.6455Z" fill="#202020"/>
<path d="M61.5448 18.01C61.4498 18.01 61.3582 17.9738 61.2878 17.9032C61.1224 17.7389 57.2345 13.811 57.4015 9.39348C57.48 7.3449 58.423 5.53289 60.2057 4.00837C63.7089 1.01354 67.019 -0.313846 70.0393 0.0623561C73.261 0.4632 75.471 2.70891 76.7577 4.52257C77.735 5.90088 77.8103 7.65211 76.9558 9.09285L76.9312 9.13392C75.5365 11.4881 73.2741 13.3773 70.5632 14.4533L61.679 17.9821C61.6348 18.0001 61.5906 18.0083 61.5448 18.0083V18.01ZM69.0277 0.729334C66.4608 0.729334 63.6582 2.01565 60.6788 4.56364C59.0581 5.95016 58.2003 7.58311 58.1299 9.41812C57.9908 13.0224 60.9113 16.4247 61.6397 17.2149L70.2947 13.7765C72.8567 12.7579 74.993 10.9771 76.3059 8.761L76.3305 8.71993C77.036 7.53054 76.9722 6.08487 76.1651 4.94641C74.9635 3.25268 72.9091 1.15482 69.9493 0.786832C69.6465 0.749048 69.3387 0.730977 69.0277 0.730977V0.729334Z" fill="#656565"/>
<path d="M61.0129 17.8781L63.2982 16.9466C63.2245 16.715 62.9953 15.9462 62.8824 15.685C61.229 11.849 59.4364 12.5061 58.4509 13.2372C59.4119 15.6817 61.0112 17.8781 61.0112 17.8781H61.0129Z" fill="#656565"/>
<path d="M89.3457 68.9545L96.0935 63.1094L100.78 57.8245C101.416 57.1083 102.507 57.036 103.233 57.6636C103.973 58.3042 104.05 59.4279 103.403 60.1606L100.648 63.2852C100.265 63.7189 100.469 64.4056 101.026 64.5584C101.889 64.7966 102.784 64.8755 103.675 64.79C105.292 64.634 108.082 64.289 110.796 63.6072C112.069 63.2869 113.117 64.4845 112.31 65.5244L104.96 69.863C103.506 70.7206 101.83 71.0869 100.171 70.9423C99.4527 70.8799 98.6064 70.783 97.7027 70.6663C97.2509 70.6088 96.565 71.9806 95.0311 73.4427C92.9897 75.3878 89.9203 76.8137 89.9203 76.8137L89.3473 68.9578L89.3457 68.9545Z" fill="#202020"/>
<path d="M89.6467 77.8677C89.5092 77.8677 89.3766 77.7889 89.316 77.6542C89.2325 77.4702 89.3128 77.255 89.4961 77.1712C93.2596 75.4462 97.5568 70.3322 97.5994 70.2813C97.6862 70.1794 97.8204 70.1318 97.9514 70.158L99.6441 70.503C101.404 70.7971 103.229 70.457 104.775 69.5453L112.061 65.2444C112.339 64.8469 112.212 64.5232 112.107 64.3622C111.91 64.0583 111.455 63.8152 110.882 63.9581C108.085 64.6612 105.187 65.0062 103.707 65.1508C102.774 65.2411 101.839 65.159 100.927 64.9076C100.544 64.8025 100.246 64.5101 100.134 64.1273C100.021 63.7445 100.109 63.3388 100.373 63.0398L103.128 59.9152C103.375 59.6342 103.498 59.2728 103.473 58.8983C103.447 58.5237 103.277 58.182 102.993 57.9356C102.422 57.4411 101.551 57.4986 101.05 58.0637L95.4025 64.4329C95.2634 64.5725 92.3331 67.4688 89.5403 69.2594C89.3717 69.3679 89.1458 69.3186 89.0377 69.1477C88.9297 68.9785 88.9788 68.7518 89.1491 68.6434C91.8747 66.8954 94.8459 63.9597 94.8754 63.9302L100.507 57.5775C101.27 56.7166 102.599 56.6296 103.468 57.382C103.9 57.7565 104.161 58.2773 104.2 58.849C104.239 59.4207 104.053 59.9694 103.674 60.3982L100.919 63.5228C100.823 63.6328 100.79 63.7774 100.833 63.9187C100.875 64.06 100.98 64.1635 101.122 64.2029C101.949 64.4312 102.795 64.5052 103.64 64.423C105.099 64.2817 107.955 63.9417 110.707 63.2501C111.504 63.0496 112.311 63.3371 112.717 63.963C113.073 64.5101 113.025 65.1919 112.596 65.7455C112.568 65.7816 112.532 65.8128 112.493 65.8358L105.143 70.1745C103.45 71.1749 101.45 71.5462 99.5115 71.2209L98.0152 70.9154C97.2229 71.8386 93.3644 76.1986 89.7973 77.8349C89.7482 77.8579 89.6975 77.8677 89.6467 77.8677Z" fill="#656565"/>
</g>
<defs>
<clipPath id="clip0_190_1743">
<rect width="181" height="210.2" fill="white"/>
</clipPath>
</defs>
</svg>
