<svg width="433" height="231" viewBox="0 0 433 231" fill="none" xmlns="http://www.w3.org/2000/svg">
<g clip-path="url(#clip0_190_1270)">
<path d="M0.783203 223.905C19.9175 224.305 39.0536 224.702 54.3013 220.022C69.5489 215.343 80.91 205.585 92.7695 207.279C104.629 208.972 116.987 222.115 129.097 224.903C141.206 227.692 153.066 220.123 161.808 212.266C170.552 204.408 176.178 196.258 178.146 184.926C180.115 173.594 178.426 159.079 180.143 149.669C181.861 140.262 186.987 135.961 191.008 132.92C195.029 129.878 197.945 128.097 199.46 127.703C200.974 127.31 201.088 128.304 199.447 130.491C197.806 132.679 194.414 136.06 191.767 139.358C189.12 142.655 187.22 145.867 186.158 148.42C185.096 150.973 184.872 152.868 186.124 151.432C187.375 149.996 190.102 145.231 192.973 141.93C195.844 138.63 198.859 136.797 202.462 136.002C206.065 135.208 210.254 135.45 211.592 136.776C212.931 138.102 211.419 140.512 207.469 143.28C203.519 146.046 197.132 149.168 193.494 152.926C189.856 156.684 188.969 161.078 189.996 161.436C191.023 161.796 193.963 158.122 198.615 155.621C203.267 153.12 209.627 151.79 213.663 151.736C217.699 151.682 219.409 152.903 218.707 154.382C218.003 155.861 214.887 157.596 210.317 160.518C205.748 163.443 199.722 167.555 196.584 171.332C193.444 175.109 193.192 178.548 194.528 177.882C195.865 177.216 198.792 172.447 203.689 169.668C208.585 166.889 215.451 166.1 219.416 166.272C223.381 166.444 224.441 167.574 222 169.448C219.558 171.323 213.612 173.941 210.375 177.843C207.138 181.744 206.61 186.929 206.02 191.219C205.43 195.508 204.777 198.903 202.361 202.745C199.946 206.587 195.768 210.874 193.619 210.554C191.472 210.235 191.357 205.307 192.925 199.66C194.493 194.013 197.749 187.645 201.784 183.857C205.82 180.07 210.638 178.859 215.113 178.538C219.588 178.216 223.719 178.781 228.083 180.963C232.448 183.145 237.046 186.944 239.973 192.918C242.9 198.892 244.154 207.04 241.505 208.345C238.856 209.651 232.304 204.112 230.592 197.239C228.88 190.366 232.011 182.158 232.205 176.231C232.399 170.304 229.659 166.656 227.208 164C224.755 161.345 222.589 159.681 222.651 158.584C222.711 157.488 224.996 156.96 228.175 157.937C231.352 158.916 235.422 161.401 238.016 163.407C240.609 165.414 241.726 166.943 242.125 166.888C242.523 166.832 242.202 165.194 240.822 162.622C239.443 160.052 237.003 156.55 233.236 152.467C229.468 148.384 224.372 143.724 223.319 141.297C222.265 138.871 225.253 138.683 229.575 140.799C233.896 142.916 239.551 147.342 243.253 150.255C246.954 153.168 248.704 154.569 248.784 153.713C248.864 152.857 247.277 149.74 245.244 146.7C243.212 143.66 240.732 140.693 237.014 137.903C233.295 135.113 228.337 132.5 227.29 130.726C226.243 128.954 229.108 128.022 234.315 130.113C239.521 132.203 247.072 137.317 251.283 141.355C255.495 145.393 256.367 148.355 256.807 147.957C257.248 147.56 257.255 143.804 255.439 139.884C253.622 135.963 249.979 131.879 245.844 129.029C241.709 126.179 237.081 124.564 232.214 124.007C227.348 123.449 222.242 123.951 219.493 120.644C216.743 117.337 216.349 110.222 215.283 102.687C214.217 95.1525 212.479 87.1981 209.119 76.6495C205.759 66.1008 200.775 52.9579 206.955 39.7646C213.134 26.5713 230.475 13.3295 238.946 7.65421C247.417 1.9789 247.018 3.87005 247.393 11.513C247.766 19.1559 248.913 32.5469 241.414 42.7524C233.915 52.9579 217.77 59.9779 201.898 58.2098C186.027 56.4418 170.43 45.8875 163.872 35.0945C157.315 24.2997 159.799 13.2661 161.095 7.14319C162.39 1.02027 162.499 -0.193872 167.636 1.4399C172.773 3.07368 182.938 7.5535 189.092 16.9682C195.247 26.3829 197.392 40.7307 195.352 53.9146C193.311 67.1005 187.086 79.1244 176.098 83.8989C165.11 88.6734 149.358 86.1985 138.77 82.3229C128.184 78.4474 122.761 73.1693 119.272 69.5362C115.783 65.9012 114.23 63.9113 124.615 62.4677C134.999 61.0242 157.324 60.1271 171.476 61.7217C185.628 63.3144 191.607 67.397 196.126 75.6517C200.646 83.9063 203.703 96.3312 203.814 104.53C203.924 112.729 201.086 116.699 200.091 118.704C199.096 120.709 199.944 120.748 201.863 120.746C203.782 120.746 206.771 120.705 209.408 122.214C212.044 123.723 214.329 126.778 215.686 127.757C217.045 128.734 217.478 127.634 220.924 125.202C224.368 122.772 230.826 119.01 236.9 118.581C242.974 118.152 248.666 121.052 253.195 125.37C257.724 129.686 261.089 135.417 262.504 140.525C263.918 145.635 263.38 150.123 261.276 156.773C259.172 163.424 255.502 172.235 254.315 180.318C253.128 188.399 254.421 195.751 257.528 203.89C260.634 212.029 265.551 220.955 279.77 226.015C293.989 231.075 317.508 232.27 335.099 225.649C352.689 219.028 364.349 204.591 373.22 203.595C382.089 202.599 388.169 215.047 397.536 219.974C406.904 224.903 419.562 222.315 432.219 219.726" stroke="black" stroke-width="2" stroke-linecap="round" stroke-linejoin="round"/>
</g>
<defs>
<clipPath id="clip0_190_1270">
<rect width="433" height="231" fill="white"/>
</clipPath>
</defs>
</svg>
