<svg width="348" height="87" viewBox="0 0 348 87" fill="none" xmlns="http://www.w3.org/2000/svg">
<path d="M152 1.00007H1V68.2729V86.1162L18.8406 68.2729H152V1.00007Z" fill="#FFCD07" stroke="black" stroke-linecap="round" stroke-linejoin="round"/>
<path d="M101.838 48.1709H137.367" stroke="black" stroke-linecap="round" stroke-linejoin="round"/>
<path d="M52.0737 48.1709H92.6897" stroke="black" stroke-linecap="round" stroke-linejoin="round"/>
<path d="M21.6116 48.1709H44.9752" stroke="black" stroke-linecap="round" stroke-linejoin="round"/>
<path d="M85.5912 36.9905H137.367" stroke="black" stroke-linecap="round" stroke-linejoin="round"/>
<path d="M21.6116 36.9905H76.443" stroke="black" stroke-linecap="round" stroke-linejoin="round"/>
<path d="M127.213 25.8289H137.367" stroke="black" stroke-linecap="round" stroke-linejoin="round"/>
<path d="M70.3508 25.8289H119.09" stroke="black" stroke-linecap="round" stroke-linejoin="round"/>
<path d="M21.6116 25.8289H62.2274" stroke="black" stroke-linecap="round" stroke-linejoin="round"/>
<g clip-path="url(#clip0_190_1227)">
<path d="M182.796 32.7882C182.039 32.9044 181.736 33.8257 182.267 34.3694L188.967 41.2369L187.384 50.9457C187.257 51.7169 188.081 52.2957 188.762 51.9169L197 47.3644L205.237 51.9182C205.912 52.2932 206.744 51.7257 206.616 50.9469L205.032 41.2382L211.732 34.3707M182.796 32.7882L182.872 33.2824L182.872 33.2824M182.796 32.7882L192.019 31.3794L196.151 22.5744C196.46 21.9169 197.539 21.9169 197.847 22.5744M182.796 32.7882L182.872 33.2824M182.872 33.2824C182.519 33.3365 182.377 33.7656 182.625 34.02L182.625 34.0203L189.325 40.8878L189.502 41.0684L189.461 41.3174L187.877 51.0262L187.877 51.0264C187.818 51.3857 188.204 51.6552 188.519 51.4799L188.521 51.4793L196.758 46.9268L197 46.7931L197.242 46.9268L205.479 51.4806L205.48 51.4811C205.796 51.6566 206.182 51.3867 206.123 51.0277L206.123 51.0274L204.539 41.3187L204.498 41.0696L204.675 40.889L211.374 34.0217L211.732 34.3707M182.872 33.2824L192.094 31.8737L192.358 31.8334L192.471 31.5919L196.604 22.7869L196.151 22.5745L196.604 22.7869C196.656 22.6763 196.794 22.5813 196.999 22.5813C197.204 22.5813 197.343 22.6763 197.395 22.7869L197.847 22.5744M211.732 34.3707L211.375 34.0215C211.624 33.7658 211.479 33.3365 211.128 33.2824L211.128 33.2824L211.204 32.7882M211.732 34.3707C212.264 33.8257 211.96 32.9044 211.204 32.7882M211.204 32.7882L201.981 31.3794L197.847 22.5744M211.204 32.7882L211.128 33.2824L201.906 31.8737L201.642 31.8334L201.529 31.5919L197.395 22.7869L197.847 22.5744" fill="#FFCD07" stroke="black"/>
</g>
<g clip-path="url(#clip1_190_1227)">
<path d="M216.796 32.7882C216.039 32.9044 215.736 33.8257 216.267 34.3694L222.967 41.2369L221.384 50.9457C221.257 51.7169 222.081 52.2957 222.762 51.9169L231 47.3644L239.237 51.9182C239.912 52.2932 240.744 51.7257 240.616 50.9469L239.032 41.2382L245.732 34.3707M216.796 32.7882L216.872 33.2824L216.872 33.2824M216.796 32.7882L226.019 31.3794L230.151 22.5744C230.46 21.9169 231.539 21.9169 231.847 22.5744M216.796 32.7882L216.872 33.2824M216.872 33.2824C216.519 33.3365 216.377 33.7656 216.625 34.02L216.625 34.0203L223.325 40.8878L223.502 41.0684L223.461 41.3174L221.877 51.0262L221.877 51.0264C221.818 51.3857 222.204 51.6552 222.519 51.4799L222.521 51.4793L230.758 46.9268L231 46.7931L231.242 46.9268L239.479 51.4806L239.48 51.4811C239.796 51.6566 240.182 51.3867 240.123 51.0277L240.123 51.0274L238.539 41.3187L238.498 41.0696L238.675 40.889L245.374 34.0217L245.732 34.3707M216.872 33.2824L226.094 31.8737L226.358 31.8334L226.471 31.5919L230.604 22.7869L230.151 22.5745L230.604 22.7869C230.656 22.6763 230.794 22.5813 230.999 22.5813C231.204 22.5813 231.343 22.6763 231.395 22.7869L231.847 22.5744M245.732 34.3707L245.375 34.0215C245.624 33.7658 245.479 33.3365 245.128 33.2824L245.128 33.2824L245.204 32.7882M245.732 34.3707C246.264 33.8257 245.96 32.9044 245.204 32.7882M245.204 32.7882L235.981 31.3794L231.847 22.5744M245.204 32.7882L245.128 33.2824L235.906 31.8737L235.642 31.8334L235.529 31.5919L231.395 22.7869L231.847 22.5744" fill="#FFCD07" stroke="black"/>
</g>
<g clip-path="url(#clip2_190_1227)">
<path d="M250.796 32.7882C250.039 32.9044 249.736 33.8257 250.267 34.3694L256.967 41.2369L255.384 50.9457C255.257 51.7169 256.081 52.2957 256.762 51.9169L265 47.3644L273.237 51.9182C273.912 52.2932 274.744 51.7257 274.616 50.9469L273.032 41.2382L279.732 34.3707M250.796 32.7882L250.872 33.2824L250.872 33.2824M250.796 32.7882L260.019 31.3794L264.151 22.5744C264.46 21.9169 265.539 21.9169 265.847 22.5744M250.796 32.7882L250.872 33.2824M250.872 33.2824C250.519 33.3365 250.377 33.7656 250.625 34.02L250.625 34.0203L257.325 40.8878L257.502 41.0684L257.461 41.3174L255.877 51.0262L255.877 51.0264C255.818 51.3857 256.204 51.6552 256.519 51.4799L256.521 51.4793L264.758 46.9268L265 46.7931L265.242 46.9268L273.479 51.4806L273.48 51.4811C273.796 51.6566 274.182 51.3867 274.123 51.0277L274.123 51.0274L272.539 41.3187L272.498 41.0696L272.675 40.889L279.374 34.0217L279.732 34.3707M250.872 33.2824L260.094 31.8737L260.358 31.8334L260.471 31.5919L264.604 22.7869L264.151 22.5745L264.604 22.7869C264.656 22.6763 264.794 22.5813 264.999 22.5813C265.204 22.5813 265.343 22.6763 265.395 22.7869L265.847 22.5744M279.732 34.3707L279.375 34.0215C279.624 33.7658 279.479 33.3365 279.128 33.2824L279.128 33.2824L279.204 32.7882M279.732 34.3707C280.264 33.8257 279.96 32.9044 279.204 32.7882M279.204 32.7882L269.981 31.3794L265.847 22.5744M279.204 32.7882L279.128 33.2824L269.906 31.8737L269.642 31.8334L269.529 31.5919L265.395 22.7869L265.847 22.5744" fill="#FFCD07" stroke="black"/>
</g>
<g clip-path="url(#clip3_190_1227)">
<path d="M284.796 32.7882C284.039 32.9044 283.736 33.8257 284.267 34.3694L290.967 41.2369L289.384 50.9457C289.257 51.7169 290.081 52.2957 290.762 51.9169L299 47.3644L307.237 51.9182C307.912 52.2932 308.744 51.7257 308.616 50.9469L307.032 41.2382L313.732 34.3707M284.796 32.7882L284.872 33.2824L284.872 33.2824M284.796 32.7882L294.019 31.3794L298.151 22.5744C298.46 21.9169 299.539 21.9169 299.847 22.5744M284.796 32.7882L284.872 33.2824M284.872 33.2824C284.519 33.3365 284.377 33.7656 284.625 34.02L284.625 34.0203L291.325 40.8878L291.502 41.0684L291.461 41.3174L289.877 51.0262L289.877 51.0264C289.818 51.3857 290.204 51.6552 290.519 51.4799L290.521 51.4793L298.758 46.9268L299 46.7931L299.242 46.9268L307.479 51.4806L307.48 51.4811C307.796 51.6566 308.182 51.3867 308.123 51.0277L308.123 51.0274L306.539 41.3187L306.498 41.0696L306.675 40.889L313.374 34.0217L313.732 34.3707M284.872 33.2824L294.094 31.8737L294.358 31.8334L294.471 31.5919L298.604 22.7869L298.151 22.5745L298.604 22.7869C298.656 22.6763 298.794 22.5813 298.999 22.5813C299.204 22.5813 299.343 22.6763 299.395 22.7869L299.847 22.5744M313.732 34.3707L313.375 34.0215C313.624 33.7658 313.479 33.3365 313.128 33.2824L313.128 33.2824L313.204 32.7882M313.732 34.3707C314.264 33.8257 313.96 32.9044 313.204 32.7882M313.204 32.7882L303.981 31.3794L299.847 22.5744M313.204 32.7882L313.128 33.2824L303.906 31.8737L303.642 31.8334L303.529 31.5919L299.395 22.7869L299.847 22.5744" fill="#FFCD07" stroke="black"/>
</g>
<g clip-path="url(#clip4_190_1227)">
<path d="M318.796 32.7882C318.039 32.9044 317.736 33.8257 318.267 34.3694L324.967 41.2369L323.384 50.9457C323.257 51.7169 324.081 52.2957 324.762 51.9169L333 47.3644L341.237 51.9182C341.912 52.2932 342.744 51.7257 342.616 50.9469L341.032 41.2382L347.732 34.3707M318.796 32.7882L318.872 33.2824L318.872 33.2824M318.796 32.7882L328.019 31.3794L332.151 22.5744C332.46 21.9169 333.539 21.9169 333.847 22.5744M318.796 32.7882L318.872 33.2824M318.872 33.2824C318.519 33.3365 318.377 33.7656 318.625 34.02L318.625 34.0203L325.325 40.8878L325.502 41.0684L325.461 41.3174L323.877 51.0262L323.877 51.0264C323.818 51.3857 324.204 51.6552 324.519 51.4799L324.521 51.4793L332.758 46.9268L333 46.7931L333.242 46.9268L341.479 51.4806L341.48 51.4811C341.796 51.6566 342.182 51.3867 342.123 51.0277L342.123 51.0274L340.539 41.3187L340.498 41.0696L340.675 40.889L347.374 34.0217L347.732 34.3707M318.872 33.2824L328.094 31.8737L328.358 31.8334L328.471 31.5919L332.604 22.7869L332.151 22.5745L332.604 22.7869C332.656 22.6763 332.794 22.5813 332.999 22.5813C333.204 22.5813 333.343 22.6763 333.395 22.7869L333.847 22.5744M347.732 34.3707L347.375 34.0215C347.624 33.7658 347.479 33.3365 347.128 33.2824L347.128 33.2824L347.204 32.7882M347.732 34.3707C348.264 33.8257 347.96 32.9044 347.204 32.7882M347.204 32.7882L337.981 31.3794L333.847 22.5744M347.204 32.7882L347.128 33.2824L337.906 31.8737L337.642 31.8334L337.529 31.5919L333.395 22.7869L333.847 22.5744" fill="#FFCD07" stroke="black"/>
</g>
<defs>
<clipPath id="clip0_190_1227">
<rect width="30" height="30" fill="white" transform="translate(182 22.0581)"/>
</clipPath>
<clipPath id="clip1_190_1227">
<rect width="30" height="30" fill="white" transform="translate(216 22.0581)"/>
</clipPath>
<clipPath id="clip2_190_1227">
<rect width="30" height="30" fill="white" transform="translate(250 22.0581)"/>
</clipPath>
<clipPath id="clip3_190_1227">
<rect width="30" height="30" fill="white" transform="translate(284 22.0581)"/>
</clipPath>
<clipPath id="clip4_190_1227">
<rect width="30" height="30" fill="white" transform="translate(318 22.0581)"/>
</clipPath>
</defs>
</svg>
