<svg width="120" height="94" viewBox="0 0 120 94" fill="none" xmlns="http://www.w3.org/2000/svg">
<path d="M119.003 26.2132H0.519531V78.9992V93L14.5183 78.9992H119.003V26.2132Z" fill="#FFCD07" stroke="black" stroke-width="1.04852" stroke-linecap="round" stroke-linejoin="round"/>
<path d="M79.6445 63.2261H107.523" stroke="black" stroke-width="1.04852" stroke-linecap="round" stroke-linejoin="round"/>
<path d="M40.5977 63.2261H72.4672" stroke="black" stroke-width="1.04852" stroke-linecap="round" stroke-linejoin="round"/>
<path d="M16.6953 63.2261H35.0277" stroke="black" stroke-width="1.04852" stroke-linecap="round" stroke-linejoin="round"/>
<path d="M66.8945 54.4536H107.521" stroke="black" stroke-width="1.04852" stroke-linecap="round" stroke-linejoin="round"/>
<path d="M16.6953 54.4536H59.7191" stroke="black" stroke-width="1.04852" stroke-linecap="round" stroke-linejoin="round"/>
<path d="M99.5586 45.6958H107.526" stroke="black" stroke-width="1.04852" stroke-linecap="round" stroke-linejoin="round"/>
<path d="M54.9375 45.6958H93.1809" stroke="black" stroke-width="1.04852" stroke-linecap="round" stroke-linejoin="round"/>
<path d="M16.6953 45.6958H48.5648" stroke="black" stroke-width="1.04852" stroke-linecap="round" stroke-linejoin="round"/>
<g clip-path="url(#clip0_4008_24)">
<path d="M13.0145 16.0606L8.58377 13.6112L4.15307 16.0599C3.78665 16.2636 3.34358 15.9523 3.41148 15.5375L4.26333 10.3154L0.659605 6.62162C0.373862 6.32915 0.536568 5.83364 0.944004 5.77111M13.0145 16.0606L0.984613 6.03696M13.0145 16.0606C13.3775 16.2623 13.8246 15.957 13.7561 15.5382L13.0145 16.0606ZM0.944004 5.77111L0.984613 6.03696M0.944004 5.77111L5.90451 5.01339L0.944004 5.77111ZM0.984613 6.03696C0.794973 6.06621 0.718326 6.29689 0.851969 6.43368L0.852104 6.43382L4.45583 10.1276L4.55061 10.2248L4.52876 10.3587L3.67691 15.5808L3.67688 15.5809C3.64525 15.7742 3.8528 15.9191 4.02239 15.8248L4.02299 15.8245L8.45369 13.3759L8.58379 13.304L8.71389 13.3759L13.1446 15.8252L13.1451 15.8255C13.315 15.9199 13.5223 15.7747 13.4907 15.5816L13.4906 15.5815L12.6388 10.3594L12.6169 10.2255L12.7117 10.1283L16.3154 6.43457M0.984613 6.03696C0.984675 6.03695 0.984737 6.03694 0.984799 6.03693L5.94512 5.27924L6.08699 5.25757L6.14796 5.12765L8.37069 0.391755C8.3707 0.391739 8.3707 0.391722 8.37071 0.391706C8.39866 0.332239 8.47313 0.281142 8.58344 0.281142C8.69377 0.281142 8.76825 0.332267 8.79619 0.391755L11.0196 5.12768L11.0806 5.25757L11.2224 5.27924L16.1827 6.03692C16.1828 6.03694 16.1828 6.03695 16.1829 6.03696C16.3719 6.06618 16.4493 6.29699 16.3154 6.43449M16.3154 6.43457L16.5068 6.62121L16.3154 6.43449M16.3154 6.43457L16.3154 6.43449M16.3154 6.43457L16.3154 6.43449" fill="#FFCD07" stroke="black" stroke-width="0.53787"/>
</g>
<g clip-path="url(#clip1_4008_24)">
<path d="M31.3021 16.0606L26.8714 13.6112L22.4407 16.0599C22.0742 16.2636 21.6312 15.9523 21.6991 15.5375L22.5509 10.3154L18.9472 6.62162C18.6615 6.32915 18.8242 5.83364 19.2316 5.77111M31.3021 16.0606L19.2722 6.03696M31.3021 16.0606C31.6651 16.2623 32.1122 15.957 32.0437 15.5382L31.3021 16.0606ZM19.2316 5.77111L19.2722 6.03696M19.2316 5.77111L24.1921 5.01339L19.2316 5.77111ZM19.2722 6.03696C19.0826 6.06621 19.0059 6.29689 19.1396 6.43368L19.1397 6.43382L22.7434 10.1276L22.8382 10.2248L22.8164 10.3587L21.9645 15.5808L21.9645 15.5809C21.9328 15.7742 22.1404 15.9191 22.31 15.8248L22.3106 15.8245L26.7413 13.3759L26.8714 13.304L27.0015 13.3759L31.4322 15.8252L31.4327 15.8255C31.6026 15.9199 31.8099 15.7747 31.7783 15.5816L31.7782 15.5815L30.9264 10.3594L30.9045 10.2255L30.9993 10.1283L34.603 6.43457M19.2722 6.03696C19.2723 6.03695 19.2723 6.03694 19.2724 6.03693L24.2327 5.27924L24.3746 5.25757L24.4356 5.12765L26.6583 0.391755C26.6583 0.391739 26.6583 0.391722 26.6583 0.391706C26.6863 0.332239 26.7607 0.281142 26.871 0.281142C26.9814 0.281142 27.0559 0.332267 27.0838 0.391755L29.3072 5.12768L29.3682 5.25757L29.51 5.27924L34.4703 6.03692C34.4704 6.03694 34.4704 6.03695 34.4705 6.03696C34.6595 6.06618 34.7369 6.29699 34.603 6.43449M34.603 6.43457L34.7944 6.62121L34.603 6.43449M34.603 6.43457L34.603 6.43449M34.603 6.43457L34.603 6.43449" fill="#FFCD07" stroke="black" stroke-width="0.53787"/>
</g>
<g clip-path="url(#clip2_4008_24)">
<path d="M49.5897 16.0606L45.159 13.6112L40.7283 16.0599C40.3618 16.2636 39.9188 15.9523 39.9867 15.5375L40.8385 10.3154L37.2348 6.62162C36.9491 6.32915 37.1118 5.83364 37.5192 5.77111M49.5897 16.0606L37.5598 6.03696M49.5897 16.0606C49.9527 16.2623 50.3998 15.957 50.3313 15.5382L49.5897 16.0606ZM37.5192 5.77111L37.5598 6.03696M37.5192 5.77111L42.4797 5.01339L37.5192 5.77111ZM37.5598 6.03696C37.3702 6.06621 37.2935 6.29689 37.4272 6.43368L37.4273 6.43382L41.031 10.1276L41.1258 10.2248L41.104 10.3587L40.2521 15.5808L40.2521 15.5809C40.2204 15.7742 40.428 15.9191 40.5976 15.8248L40.5982 15.8245L45.0289 13.3759L45.159 13.304L45.2891 13.3759L49.7198 15.8252L49.7203 15.8255C49.8902 15.9199 50.0975 15.7747 50.0659 15.5816L50.0658 15.5815L49.214 10.3594L49.1921 10.2255L49.2869 10.1283L52.8906 6.43457M37.5598 6.03696C37.5599 6.03695 37.5599 6.03694 37.56 6.03693L42.5203 5.27924L42.6622 5.25757L42.7232 5.12765L44.9459 0.391755C44.9459 0.391739 44.9459 0.391722 44.9459 0.391706C44.9739 0.332239 45.0483 0.281142 45.1586 0.281142C45.269 0.281142 45.3434 0.332267 45.3714 0.391755L47.5948 5.12768L47.6558 5.25757L47.7976 5.27924L52.7579 6.03692C52.758 6.03694 52.758 6.03695 52.7581 6.03696C52.9471 6.06618 53.0245 6.29699 52.8906 6.43449M52.8906 6.43457L53.082 6.62121L52.8906 6.43449M52.8906 6.43457L52.8906 6.43449M52.8906 6.43457L52.8906 6.43449" fill="#FFCD07" stroke="black" stroke-width="0.53787"/>
</g>
<g clip-path="url(#clip3_4008_24)">
<path d="M67.8773 16.0606L63.4466 13.6112L59.0159 16.0599C58.6494 16.2636 58.2064 15.9523 58.2743 15.5375L59.1261 10.3154L55.5224 6.62162C55.2367 6.32915 55.3994 5.83364 55.8068 5.77111M67.8773 16.0606L55.8474 6.03696M67.8773 16.0606C68.2403 16.2623 68.6874 15.957 68.6189 15.5382L67.8773 16.0606ZM55.8068 5.77111L55.8474 6.03696M55.8068 5.77111L60.7673 5.01339L55.8068 5.77111ZM55.8474 6.03696C55.6578 6.06621 55.5811 6.29689 55.7148 6.43368L55.7149 6.43382L59.3186 10.1276L59.4134 10.2248L59.3916 10.3587L58.5397 15.5808L58.5397 15.5809C58.508 15.7742 58.7156 15.9191 58.8852 15.8248L58.8858 15.8245L63.3165 13.3759L63.4466 13.304L63.5767 13.3759L68.0074 15.8252L68.0079 15.8255C68.1778 15.9199 68.3851 15.7747 68.3535 15.5816L68.3534 15.5815L67.5016 10.3594L67.4797 10.2255L67.5745 10.1283L71.1782 6.43457M55.8474 6.03696C55.8475 6.03695 55.8475 6.03694 55.8476 6.03693L60.8079 5.27924L60.9498 5.25757L61.0108 5.12765L63.2335 0.391755C63.2335 0.391739 63.2335 0.391722 63.2335 0.391706C63.2615 0.332239 63.3359 0.281142 63.4462 0.281142C63.5566 0.281142 63.631 0.332267 63.659 0.391755L65.8824 5.12768L65.9434 5.25757L66.0852 5.27924L71.0455 6.03692C71.0455 6.03694 71.0456 6.03695 71.0457 6.03696C71.2347 6.06618 71.3121 6.29699 71.1782 6.43449M71.1782 6.43457L71.3696 6.62121L71.1782 6.43449M71.1782 6.43457L71.1782 6.43449M71.1782 6.43457L71.1782 6.43449" fill="#FFCD07" stroke="black" stroke-width="0.53787"/>
</g>
<g clip-path="url(#clip4_4008_24)">
<path d="M86.1646 16.0606L81.7339 13.6112L77.3032 16.0599C76.9368 16.2636 76.4937 15.9523 76.5616 15.5375L77.4135 10.3154L73.8098 6.62162C73.524 6.32915 73.6867 5.83364 74.0942 5.77111M86.1646 16.0606L74.1348 6.03696M86.1646 16.0606C86.5277 16.2623 86.9748 15.957 86.9062 15.5382L86.1646 16.0606ZM74.0942 5.77111L74.1348 6.03696M74.0942 5.77111L79.0547 5.01339L74.0942 5.77111ZM74.1348 6.03696C73.9451 6.06621 73.8685 6.29689 74.0021 6.43368L74.0023 6.43382L77.606 10.1276L77.7008 10.2248L77.6789 10.3587L76.8271 15.5808L76.827 15.5809C76.7954 15.7742 77.0029 15.9191 77.1725 15.8248L77.1731 15.8245L81.6038 13.3759L81.7339 13.304L81.864 13.3759L86.2947 15.8252L86.2952 15.8255C86.4652 15.9199 86.6724 15.7747 86.6408 15.5816L86.6408 15.5815L85.7889 10.3594L85.7671 10.2255L85.8619 10.1283L89.4655 6.43457M74.1348 6.03696C74.1348 6.03695 74.1349 6.03694 74.1349 6.03693L79.0953 5.27924L79.2371 5.25757L79.2981 5.12765L81.5208 0.391755C81.5208 0.391739 81.5209 0.391722 81.5209 0.391706C81.5488 0.332239 81.6233 0.281142 81.7336 0.281142C81.8439 0.281142 81.9184 0.332267 81.9463 0.391755L84.1697 5.12768L84.2307 5.25757L84.3726 5.27924L89.3328 6.03692C89.3329 6.03694 89.333 6.03695 89.333 6.03696C89.522 6.06618 89.5995 6.29699 89.4656 6.43449M89.4655 6.43457L89.657 6.62121L89.4656 6.43449M89.4655 6.43457L89.4656 6.43449M89.4655 6.43457L89.4656 6.43449" fill="#FFCD07" stroke="black" stroke-width="0.53787"/>
</g>
<defs>
<clipPath id="clip0_4008_24">
<rect width="16.1361" height="16.1361" fill="white" transform="translate(0.515625)"/>
</clipPath>
<clipPath id="clip1_4008_24">
<rect width="16.1361" height="16.1361" fill="white" transform="translate(18.8032)"/>
</clipPath>
<clipPath id="clip2_4008_24">
<rect width="16.1361" height="16.1361" fill="white" transform="translate(37.0908)"/>
</clipPath>
<clipPath id="clip3_4008_24">
<rect width="16.1361" height="16.1361" fill="white" transform="translate(55.3784)"/>
</clipPath>
<clipPath id="clip4_4008_24">
<rect width="16.1361" height="16.1361" fill="white" transform="translate(73.666)"/>
</clipPath>
</defs>
</svg>
