<svg width="32" height="32" viewBox="0 0 32 32" fill="none" xmlns="http://www.w3.org/2000/svg">
<path d="M16.0007 0C10.1192 0 5.33398 4.78519 5.33398 10.6667C5.33398 12.4323 5.77542 14.1829 6.61461 15.7357L15.4174 31.6562C15.5345 31.8685 15.7579 32 16.0007 32C16.2435 32 16.4668 31.8685 16.584 31.6562L25.39 15.7304C26.2259 14.1829 26.6674 12.4323 26.6674 10.6666C26.6674 4.78519 21.8822 0 16.0007 0ZM16.0007 16C13.0599 16 10.6674 13.6074 10.6674 10.6667C10.6674 7.72594 13.0599 5.33337 16.0007 5.33337C18.9414 5.33337 21.334 7.72594 21.334 10.6667C21.334 13.6074 18.9414 16 16.0007 16Z" fill="black"/>
</svg>
