<svg width="18" height="20" viewBox="0 0 18 20" fill="none" xmlns="http://www.w3.org/2000/svg">
<path fill-rule="evenodd" clip-rule="evenodd" d="M4.75 2C4.94891 2 5.13968 2.07902 5.28033 2.21967C5.42098 2.36032 5.5 2.55109 5.5 2.75V4H12.5V2.75C12.5 2.55109 12.579 2.36032 12.7197 2.21967C12.8603 2.07902 13.0511 2 13.25 2C13.4489 2 13.6397 2.07902 13.7803 2.21967C13.921 2.36032 14 2.55109 14 2.75V4H14.25C14.9793 4 15.6788 4.28973 16.1945 4.80546C16.7103 5.32118 17 6.02065 17 6.75V15.25C17 15.9793 16.7103 16.6788 16.1945 17.1945C15.6788 17.7103 14.9793 18 14.25 18H3.75C3.02065 18 2.32118 17.7103 1.80546 17.1945C1.28973 16.6788 1 15.9793 1 15.25V6.75C1 6.02065 1.28973 5.32118 1.80546 4.80546C2.32118 4.28973 3.02065 4 3.75 4H4V2.75C4 2.55109 4.07902 2.36032 4.21967 2.21967C4.36032 2.07902 4.55109 2 4.75 2ZM3.75 7.5C3.06 7.5 2.5 8.06 2.5 8.75V15.25C2.5 15.94 3.06 16.5 3.75 16.5H14.25C14.94 16.5 15.5 15.94 15.5 15.25V8.75C15.5 8.06 14.94 7.5 14.25 7.5H3.75Z"/>
</svg>
