<svg width="25" height="24" viewBox="0 0 25 24" fill="none" xmlns="http://www.w3.org/2000/svg">
<path d="M8 7.5H7.25C6.65326 7.5 6.08097 7.73705 5.65901 8.15901C5.23705 8.58097 5 9.15326 5 9.75V17.25C5 17.8467 5.23705 18.419 5.65901 18.841C6.08097 19.2629 6.65326 19.5 7.25 19.5H14.75C15.3467 19.5 15.919 19.2629 16.341 18.841C16.7629 18.419 17 17.8467 17 17.25V9.75C17 9.15326 16.7629 8.58097 16.341 8.15901C15.919 7.73705 15.3467 7.5 14.75 7.5H14M8 11.25L11 14.25M11 14.25L14 11.25M11 14.25V1.5M17 10.5H17.75C18.3467 10.5 18.919 10.7371 19.341 11.159C19.7629 11.581 20 12.1533 20 12.75V20.25C20 20.8467 19.7629 21.419 19.341 21.841C18.919 22.2629 18.3467 22.5 17.75 22.5H10.25C9.65326 22.5 9.08097 22.2629 8.65901 21.841C8.23705 21.419 8 20.8467 8 20.25V19.5" stroke-width="1.5" stroke-linecap="round" stroke-linejoin="round"/>
</svg>
