<svg width="460" height="367" viewBox="0 0 460 367" fill="none" xmlns="http://www.w3.org/2000/svg">
<g clip-path="url(#clip0_190_1283)">
<path d="M63.2694 365.8V256.56" stroke="black" stroke-linecap="round" stroke-linejoin="round"/>
<path d="M72.1327 365.799V311.63" stroke="black" stroke-linecap="round" stroke-linejoin="round"/>
<path d="M60.4981 274.478C60.4981 274.478 69.4317 273.452 73.0652 266.385C76.6988 259.319 77.0766 241.091 63.1627 220.937C49.2488 200.784 41.9526 200.522 39.5303 217.007C37.1079 233.492 37.4568 257.431 43.1444 266.501C48.8418 275.572 60.4884 274.478 60.4884 274.478H60.4981Z" fill="white" stroke="black" stroke-linecap="round" stroke-linejoin="round"/>
<path d="M57.328 236.416C55.6808 230.802 53.7138 225.749 51.4271 222.332" stroke="black" stroke-linecap="round" stroke-linejoin="round"/>
<path d="M64.2186 273.21C64.2186 273.21 62.3777 255.583 58.3856 240.22" stroke="black" stroke-linecap="round" stroke-linejoin="round"/>
<path d="M55.1747 309.936C55.1747 309.936 60.9108 305.493 60.4457 299.104C59.9903 292.715 52.6167 279.986 34.5751 271.913C16.5334 263.84 11.3981 266.705 16.64 279.086C21.882 291.467 32.143 307.826 39.8752 311.698C47.6073 315.57 55.1747 309.946 55.1747 309.946V309.936Z" fill="white" stroke="black" stroke-linecap="round" stroke-linejoin="round"/>
<path d="M37.0468 285.02C33.5586 281.835 30.0898 279.173 27.0764 277.779" stroke="black" stroke-linecap="round" stroke-linejoin="round"/>
<path d="M39.3731 287.208C48.5683 296.133 57.2209 307.507 57.2209 307.507C57.2209 307.507 61.8427 313.711 63.2186 326.063" stroke="black" stroke-linecap="round" stroke-linejoin="round"/>
<path d="M58.4632 346.875C58.4632 346.875 61.7867 344.3 61.5154 340.603C61.2538 336.905 56.9807 329.529 46.5259 324.843C36.0711 320.168 33.0965 321.823 36.1292 328.996C39.162 336.169 45.1113 345.646 49.5878 347.892C54.0642 350.137 58.4535 346.875 58.4535 346.875H58.4632Z" fill="white" stroke="black" stroke-linecap="round" stroke-linejoin="round"/>
<path d="M47.9608 332.442C45.9357 330.603 43.93 329.054 42.186 328.241" stroke="black" stroke-linecap="round" stroke-linejoin="round"/>
<path d="M49.3058 333.71C54.635 338.88 59.6443 345.472 59.6443 345.472C59.6443 345.472 62.3186 349.073 63.1132 356.226" stroke="black" stroke-linecap="round" stroke-linejoin="round"/>
<path d="M71.3777 295.164C71.3777 295.164 65.6415 290.721 66.1066 284.332C66.562 277.943 73.9356 265.214 91.9773 257.141C110.019 249.068 115.154 251.933 109.912 264.314C104.67 276.695 94.4093 293.054 86.6772 296.926C78.945 300.798 71.3777 295.174 71.3777 295.174V295.164Z" fill="white" stroke="black" stroke-linecap="round" stroke-linejoin="round"/>
<path d="M89.5061 270.248C92.9942 267.063 96.463 264.401 99.4764 263.007" stroke="black" stroke-linecap="round" stroke-linejoin="round"/>
<path d="M87.1874 272.435C77.9922 281.36 69.3396 292.734 69.3396 292.734C69.3396 292.734 64.7177 298.939 63.3418 311.291" stroke="black" stroke-linecap="round" stroke-linejoin="round"/>
<path d="M74.1879 344.504C74.1879 344.504 68.384 344.687 65.4772 341.193C62.5703 337.698 60.8263 327.951 68.0933 315.986C75.3506 304.031 80.0015 303.295 82.8987 311.94C85.8055 320.584 87.5496 333.468 84.6427 338.802C81.7359 344.136 74.1879 344.504 74.1879 344.504Z" fill="white" stroke="black" stroke-linecap="round" stroke-linejoin="round"/>
<path d="M73.2889 335.617C73.2017 336.808 73.1436 337.989 73.1145 339.17" stroke="black" stroke-linecap="round" stroke-linejoin="round"/>
<path d="M77.7343 311.407C77.7343 311.407 74.6918 321.707 73.5291 332.829" stroke="black" stroke-linecap="round" stroke-linejoin="round"/>
<path d="M449.031 273.945H314.921V0.483887" stroke="black" stroke-linecap="round" stroke-linejoin="round"/>
<path d="M172.592 273.945H306.703V0.483887" stroke="black" stroke-linecap="round" stroke-linejoin="round"/>
<path d="M251.969 273.945H117.858V0.483887" stroke="black" stroke-linecap="round" stroke-linejoin="round"/>
<path d="M145.226 64.6919L192.094 116.441" stroke="black" stroke-linecap="round" stroke-linejoin="round"/>
<path d="M171.223 104.729L184.227 119.084" stroke="black" stroke-linecap="round" stroke-linejoin="round"/>
<path d="M274.545 51.1011L299.863 79.0474" stroke="black" stroke-linecap="round" stroke-linejoin="round"/>
<path d="M267.703 44.2959L250.601 25.4102" stroke="black" stroke-linecap="round" stroke-linejoin="round"/>
<path d="M320.391 217.289L336.805 235.419" stroke="black" stroke-linecap="round" stroke-linejoin="round"/>
<path d="M325.868 193.117L356.312 226.726" stroke="black" stroke-linecap="round" stroke-linejoin="round"/>
<path d="M341.02 141.037C331.068 116.166 343.181 87.9448 368.075 78.0024C392.97 68.0599 421.218 80.1615 431.17 105.032C441.122 129.902 429.009 158.124 404.115 168.066C379.22 178.009 350.972 165.907 341.02 141.037Z" stroke="black" stroke-linecap="round" stroke-linejoin="round"/>
<path d="M386.088 165.37C362.687 165.37 343.716 146.418 343.716 123.039C343.716 99.6607 362.687 80.7085 386.088 80.7085C409.489 80.7085 428.46 99.6607 428.46 123.039C428.46 146.418 409.489 165.37 386.088 165.37Z" stroke="black" stroke-linecap="round" stroke-linejoin="round"/>
<path d="M386.086 125.934C384.486 125.934 383.189 124.638 383.189 123.039C383.189 121.441 384.486 120.145 386.086 120.145C387.686 120.145 388.983 121.441 388.983 123.039C388.983 124.638 387.686 125.934 386.086 125.934Z" stroke="black" stroke-linecap="round" stroke-linejoin="round"/>
<path d="M386.085 125.934V140.154" stroke="black" stroke-linecap="round" stroke-linejoin="round"/>
<path d="M388.98 123.039H423.522" stroke="black" stroke-linecap="round" stroke-linejoin="round"/>
<path d="M158.032 162.429L142.064 137.677C148.866 126.699 152.81 113.767 152.81 99.905C152.81 60.2265 120.612 28.0693 80.9049 28.0693C41.1978 28.0693 9 60.2168 9 99.8954C9 139.574 41.1978 171.731 80.9049 171.731C101.892 171.731 120.777 162.748 133.925 148.412L158.042 162.419L158.032 162.429Z" fill="black" stroke="black" stroke-linecap="round" stroke-linejoin="round"/>
<path d="M159.554 156.359L143.586 131.607C150.388 120.63 154.331 107.698 154.331 93.8357C154.331 54.1572 122.133 22 82.4263 22C42.7192 22 10.5117 54.1475 10.5117 93.826C10.5117 133.505 42.7095 165.662 82.4166 165.662C103.404 165.662 122.288 156.669 135.437 142.342L159.554 156.35V156.359Z" fill="#FFCD07" stroke="black" stroke-linecap="round" stroke-linejoin="round"/>
<path d="M31.9425 104.174V97.4655L42.9787 80.5254C43.812 79.2767 44.5968 78.0667 45.3429 76.8857C46.0793 75.7144 46.6898 74.5141 47.1645 73.3041C47.6393 72.0941 47.8719 70.826 47.8719 69.4998C47.8719 68.1737 47.6102 67.1863 47.0773 66.5474C46.5444 65.8989 45.8274 65.5794 44.9166 65.5794C43.8895 65.5794 43.095 65.8601 42.5233 66.4313C41.9516 67.0024 41.5641 67.7574 41.3606 68.7061C41.1474 69.6547 41.0505 70.7195 41.0505 71.8908V74.1656H31.8359V71.7166C31.8359 68.9868 32.272 66.5571 33.144 64.4081C34.016 62.2688 35.4016 60.5845 37.3007 59.3455C39.1999 58.1161 41.6803 57.4966 44.7519 57.4966C48.8892 57.4966 52.0092 58.5711 54.1118 60.7104C56.2144 62.8497 57.2706 65.8408 57.2706 69.6644C57.2706 71.523 56.9799 73.246 56.3888 74.8336C55.7978 76.4211 55.0226 77.9699 54.0537 79.4703C53.0847 80.9707 52.048 82.5292 50.9531 84.1651L42.533 96.7299H56.0206V104.174H31.9522H31.9425Z" fill="black" stroke="black" stroke-linecap="round" stroke-linejoin="round"/>
<path d="M73.5409 104.174V93.826H59.375V86.837L71.3801 58.126H82.4163V86.779H86.6797V93.826H82.4163V104.174H73.5409ZM66.5936 86.779H73.5409V67.6221L66.5936 86.779Z" fill="black" stroke="black" stroke-linecap="round" stroke-linejoin="round"/>
<path d="M90.2148 104.174L104.332 58.126H109.342L95.1758 104.174H90.2245H90.2148Z" fill="black" stroke="black" stroke-linecap="round" stroke-linejoin="round"/>
<path d="M115.488 104.174L125.507 65.3468H112.93V58.1255H134.779V64.6595L124.76 104.174H115.488Z" fill="black" stroke="black" stroke-linecap="round" stroke-linejoin="round"/>
<path d="M40.8946 133.64C39.5962 133.64 38.5207 133.369 37.668 132.827C36.8154 132.285 36.1662 131.53 35.7398 130.562C35.3038 129.594 35.0422 128.461 34.9453 127.164L36.9219 126.573C37.0188 127.551 37.1932 128.442 37.4549 129.235C37.7068 130.029 38.1137 130.658 38.666 131.113C39.2183 131.578 39.9741 131.801 40.9333 131.801C41.9895 131.801 42.8228 131.53 43.4041 130.978C43.9952 130.426 44.2859 129.555 44.2859 128.355C44.2859 127.319 44.0243 126.409 43.501 125.635C42.9778 124.86 42.2705 124.047 41.3694 123.205L37.1545 119.178C36.4084 118.452 35.8561 117.707 35.5073 116.922C35.1585 116.148 34.9744 115.296 34.9744 114.377C34.9744 112.731 35.4685 111.463 36.4472 110.582C37.4258 109.701 38.7339 109.256 40.3617 109.256C41.2046 109.256 41.9701 109.362 42.6484 109.575C43.3266 109.788 43.908 110.137 44.3828 110.621C44.8672 111.105 45.2451 111.724 45.5164 112.489C45.7877 113.254 45.9815 114.183 46.0784 115.287L44.1599 115.79C44.0824 114.793 43.9177 113.931 43.6754 113.215C43.4332 112.499 43.0456 111.957 42.5224 111.579C41.9992 111.211 41.2822 111.018 40.3617 111.018C39.383 111.018 38.5788 111.269 37.949 111.782C37.3192 112.295 37.0092 113.089 37.0092 114.164C37.0092 114.812 37.1351 115.403 37.3773 115.925C37.6196 116.458 38.0556 117.019 38.6854 117.629L42.9003 121.598C43.8402 122.479 44.6541 123.466 45.342 124.541C46.03 125.615 46.3691 126.835 46.3691 128.19C46.3691 129.39 46.1365 130.387 45.6811 131.191C45.2161 131.994 44.5766 132.594 43.753 133.001C42.9294 133.398 41.9798 133.601 40.8946 133.601V133.64Z" fill="black" stroke="black" stroke-linecap="round" stroke-linejoin="round"/>
<path d="M49.3516 133.34V109.508H57.9848V111.241H51.6189V120.185H56.8027V121.831H51.6189V131.656H58.0429V133.33H49.3516V133.34Z" fill="black" stroke="black" stroke-linecap="round" stroke-linejoin="round"/>
<path d="M61.0977 133.34V109.507H66.4849C67.9771 109.507 69.1495 109.749 70.0022 110.224C70.8549 110.708 71.4653 111.405 71.8432 112.315C72.2114 113.224 72.4052 114.309 72.4052 115.567C72.4052 116.448 72.3083 117.28 72.1145 118.064C71.9207 118.849 71.5816 119.516 71.1165 120.068C70.6417 120.62 69.9731 120.978 69.1108 121.152L72.7637 133.33H70.5836L67.076 121.617H63.3359V133.33H61.0977V133.34ZM63.3359 119.981H66.3687C67.3667 119.981 68.1418 119.817 68.6941 119.478C69.2464 119.149 69.634 118.655 69.8762 118.006C70.1185 117.358 70.225 116.545 70.225 115.567C70.225 114.096 69.9731 113.002 69.4596 112.276C68.946 111.55 67.9384 111.192 66.4268 111.192H63.3359V119.991V119.981Z" fill="black" stroke="black" stroke-linecap="round" stroke-linejoin="round"/>
<path d="M76.2423 133.34V109.508H78.4806V133.34H76.2423Z" fill="black" stroke="black" stroke-linecap="round" stroke-linejoin="round"/>
<path d="M86.9306 133.34L81.3398 109.507H83.4909L87.9964 129.255L92.2404 109.507H94.3624L88.9751 133.34H86.9403H86.9306Z" fill="black" stroke="black" stroke-linecap="round" stroke-linejoin="round"/>
<path d="M97.1797 133.34V109.507H99.4179V133.34H97.1797Z" fill="black" stroke="black" stroke-linecap="round" stroke-linejoin="round"/>
<path d="M109.193 133.64C107.584 133.64 106.344 133.311 105.472 132.643C104.6 131.975 103.99 131.075 103.66 129.952C103.331 128.819 103.156 127.571 103.156 126.196V116.719C103.156 115.248 103.331 113.951 103.67 112.838C104.009 111.715 104.629 110.844 105.511 110.214C106.393 109.585 107.623 109.275 109.193 109.275C110.627 109.275 111.751 109.546 112.565 110.098C113.379 110.65 113.96 111.424 114.318 112.441C114.667 113.447 114.851 114.648 114.851 116.042V117.484H112.729V116.1C112.729 115.064 112.642 114.164 112.477 113.418C112.313 112.673 111.974 112.092 111.46 111.686C110.947 111.269 110.191 111.066 109.193 111.066C108.137 111.066 107.332 111.289 106.79 111.724C106.247 112.17 105.889 112.789 105.705 113.593C105.52 114.396 105.424 115.325 105.424 116.39V126.545C105.424 127.726 105.54 128.703 105.763 129.487C105.986 130.271 106.373 130.862 106.925 131.249C107.478 131.646 108.233 131.84 109.193 131.84C110.152 131.84 110.947 131.627 111.46 131.191C111.974 130.755 112.313 130.155 112.477 129.381C112.642 128.606 112.729 127.697 112.729 126.661V125.102H114.851V126.516C114.851 127.909 114.687 129.149 114.367 130.223C114.047 131.298 113.475 132.14 112.662 132.74C111.848 133.34 110.695 133.64 109.202 133.64H109.193Z" fill="black" stroke="black" stroke-linecap="round" stroke-linejoin="round"/>
<path d="M118.32 133.34V109.508H126.954V111.241H120.588V120.185H125.771V121.831H120.588V131.656H127.012V133.33H118.32V133.34Z" fill="black" stroke="black" stroke-linecap="round" stroke-linejoin="round"/>
<path d="M152.744 266.657H100.838C100.838 266.657 128.898 335.685 123.637 366.516H176.25C176.25 366.516 166.425 287.682 152.753 266.657H152.744Z" fill="black" stroke="black" stroke-linecap="round" stroke-linejoin="round"/>
<path d="M197.643 167.562C197.643 167.562 197.12 176.903 179.718 182.363C162.306 187.813 144.642 182.363 134.769 190.155C124.895 197.948 125.157 209.883 128.529 215.856C131.901 221.829 137.365 227.801 121.252 234.81C105.139 241.818 114.76 262.33 121.514 269.851C128.267 277.382 139.962 281.012 152.956 278.418C165.949 275.824 181.278 244.412 197.905 227.801C214.532 211.19 216.566 180.524 205.956 171.734C195.356 162.945 197.643 167.582 197.643 167.582V167.562Z" fill="black" stroke="black" stroke-linecap="round" stroke-linejoin="round"/>
<path d="M200.327 133.972C200.327 133.972 193.157 130.846 191.316 136.915C189.475 142.984 188.922 159.508 188.922 159.508L192.789 158.589C192.789 158.589 191.868 139.848 196.102 136.915C200.327 133.972 203.641 140.593 203.641 140.593L200.327 133.982V133.972Z" fill="#A6A6A6" stroke="black" stroke-linecap="round" stroke-linejoin="round"/>
<path d="M280.805 335.589L256.31 322.501C256.31 322.501 258.006 296.82 257.763 295.852C257.521 294.884 251.388 244.635 251.388 244.635L268.199 294.4L280.805 335.589Z" fill="black" stroke="black" stroke-linecap="round" stroke-linejoin="round"/>
<path d="M172.527 218.828C172.527 218.828 148.342 232.002 145.048 233.377C141.753 234.751 143.672 251.498 143.672 262.475C143.672 273.452 160.163 366.245 160.163 366.245H282.172C282.172 366.245 261.563 334.679 261.01 326.441C260.458 318.203 264.033 311.621 264.586 303.654C265.138 295.687 253.317 247.103 251.398 244.625C249.47 242.157 241.234 235.835 241.234 235.835L212.108 210.299L198.64 207.279L172.537 218.808L172.527 218.828Z" fill="#FFCD07" stroke="black" stroke-linecap="round" stroke-linejoin="round"/>
<path d="M253.368 335.366L257.438 343.739" stroke="black" stroke-linecap="round" stroke-linejoin="round"/>
<path d="M249.47 311.35C249.47 311.35 255.516 315.464 252.493 317.661C249.47 319.858 248.094 324.524 248.094 324.524L251.96 332.065" stroke="black" stroke-linecap="round" stroke-linejoin="round"/>
<path d="M220.984 331.319C219.347 331.445 217.622 331.532 215.82 331.59" stroke="black" stroke-linecap="round" stroke-linejoin="round"/>
<path d="M247 324.524C247 324.524 240.431 328.919 226.09 330.797" stroke="black" stroke-linecap="round" stroke-linejoin="round"/>
<path d="M263.396 149.034C263.396 149.034 267.078 150.506 267.078 155.278C267.078 160.05 263.212 169.421 263.212 169.421L261.003 168.685C261.003 168.685 265.043 158.947 264.501 155.462C263.948 151.967 260.635 151.057 260.635 151.057L261.371 148.667L263.396 149.034Z" fill="#A6A6A6" stroke="black" stroke-linecap="round" stroke-linejoin="round"/>
<path d="M253.929 173.631C252.989 178.462 254.617 182.837 257.562 183.408C260.508 183.979 263.647 180.523 264.578 175.693C265.517 170.863 263.89 166.487 260.944 165.916C257.998 165.345 254.859 168.801 253.929 173.631Z" fill="white" stroke="black" stroke-linecap="round" stroke-linejoin="round"/>
<path d="M244.985 172.073C243.153 178.249 245.295 184.328 249.771 185.664C254.248 186.99 259.364 183.06 261.205 176.884C263.036 170.708 260.895 164.629 256.418 163.293C251.942 161.967 246.826 165.897 244.985 172.073Z" fill="black" stroke="black" stroke-linecap="round" stroke-linejoin="round"/>
<path d="M228.386 205.74L224.035 219.873L238.346 237.878L240.72 251.788C240.72 251.788 243.094 291.486 241.738 297.594C240.381 303.702 240.381 305.396 240.381 305.396C240.381 305.396 210.838 271.129 196.236 250.094C181.634 229.059 178.233 216.165 178.233 216.165L192.496 208.363L199.288 176.806L228.386 205.74Z" fill="#FFF7D0" stroke="black" stroke-linecap="round" stroke-linejoin="round"/>
<path d="M205.835 192.062L224.032 219.873L229.109 203.504L205.835 192.062Z" fill="black" stroke="black" stroke-linecap="round" stroke-linejoin="round"/>
<path d="M240.585 250.995L240.72 251.788C240.72 251.788 243.094 291.486 241.738 297.594C240.381 303.703 240.381 305.397 240.381 305.397C240.381 305.397 210.838 271.129 196.236 250.094C195.093 248.449 194.027 246.852 193.01 245.303C211.294 251.556 229.936 251.663 240.585 250.995Z" fill="white" stroke="black" stroke-linecap="round" stroke-linejoin="round"/>
<path d="M247.764 119.084C247.764 119.084 261.368 127.351 262.841 139.838C264.314 152.325 259.159 165.742 257.143 171.066C255.118 176.39 248.132 197.154 244.46 201.19C240.788 205.227 228.831 211.296 226.806 212.4C224.781 213.503 221.109 213.136 217.979 210.929C214.849 208.721 201.982 193.108 199.957 189.439C197.932 185.76 197.563 177.678 197.563 177.678C197.563 177.678 197.932 161.512 198.668 151.038C199.404 140.564 198.852 130.458 207.495 121.649C216.138 112.831 239.305 112.647 247.764 119.074V119.084Z" fill="#FFF7D0" stroke="black" stroke-linecap="round" stroke-linejoin="round"/>
<path d="M198.669 151.048C199.405 140.574 198.853 130.478 207.496 121.659C216.139 112.841 239.306 112.657 247.765 119.084C247.765 119.084 261.369 127.351 262.842 139.839C263.694 147.099 262.318 154.649 260.613 160.767C257.483 158.87 246.932 152.374 235.072 144.069C220.916 134.147 216.313 118.717 216.313 118.717C216.313 118.717 214.656 117.797 215.025 119.82C215.393 121.843 220.906 133.779 222.931 135.618L224.956 137.457C224.956 137.457 223.299 137.089 215.761 146.092C208.223 155.094 203.988 158.763 201.789 159.867C201.101 160.205 199.744 160.447 198.136 160.583C198.281 157.282 198.456 153.952 198.659 151.048H198.669Z" fill="black" stroke="black" stroke-linecap="round" stroke-linejoin="round"/>
<path d="M221.305 170.533C221.063 171.879 221.567 173.099 222.41 173.244C223.262 173.389 224.144 172.421 224.377 171.075C224.619 169.73 224.115 168.51 223.272 168.365C222.429 168.22 221.538 169.188 221.305 170.533Z" fill="black" stroke="black" stroke-linecap="round" stroke-linejoin="round"/>
<path d="M241.903 173.467C241.661 174.812 242.164 176.032 243.007 176.177C243.86 176.322 244.742 175.354 244.974 174.009C245.217 172.663 244.713 171.444 243.87 171.298C243.017 171.153 242.135 172.121 241.903 173.467Z" fill="black" stroke="black" stroke-linecap="round" stroke-linejoin="round"/>
<path d="M229.742 162.257C229.742 162.257 223.677 157.485 218.154 161.338" stroke="black" stroke-linecap="round" stroke-linejoin="round"/>
<path d="M242.066 164.832C242.066 164.832 249.236 161.338 254.207 167.591" stroke="black" stroke-linecap="round" stroke-linejoin="round"/>
<path d="M240.777 165.016C240.777 165.016 235.816 167.407 235.448 171.995" stroke="black" stroke-linecap="round" stroke-linejoin="round"/>
<path d="M235.258 184.667C235.258 184.667 233.233 186.138 229.745 185.034" stroke="black" stroke-linecap="round" stroke-linejoin="round"/>
<path d="M236.727 192.382C236.727 192.382 231.213 192.382 224.77 189.623C218.336 186.864 215.759 183.011 215.759 183.011" stroke="black" stroke-linecap="round" stroke-linejoin="round"/>
<path d="M233.608 192.197C233.608 192.197 231.582 194.221 228.278 194.221C224.974 194.221 222.029 188.345 222.029 188.345C222.029 188.345 230.488 192.023 233.617 192.207L233.608 192.197Z" stroke="black" stroke-linecap="round" stroke-linejoin="round"/>
<path d="M195.354 178.607C190.682 178.607 186.895 173.384 186.895 166.942C186.895 160.5 190.682 155.278 195.354 155.278C200.025 155.278 203.812 160.5 203.812 166.942C203.812 173.384 200.025 178.607 195.354 178.607Z" fill="black" stroke="black" stroke-linecap="round" stroke-linejoin="round"/>
<path d="M191.769 173.825C188.773 173.825 186.343 169.838 186.343 164.919C186.343 160.001 188.773 156.014 191.769 156.014C194.766 156.014 197.195 160.001 197.195 164.919C197.195 169.838 194.766 173.825 191.769 173.825Z" fill="white" stroke="black" stroke-linecap="round" stroke-linejoin="round"/>
<path d="M257.562 179.391C257.562 179.391 257.514 198.471 252.543 200.126C247.582 201.781 233.969 198.47 233.969 198.47" stroke="black" stroke-width="2" stroke-linecap="round" stroke-linejoin="round"/>
<path d="M226.982 198.383C226.982 199.855 228.794 201.045 231.032 201.045C233.27 201.045 235.082 199.855 235.082 198.383C235.082 196.912 233.27 195.721 231.032 195.721C228.794 195.721 226.982 196.912 226.982 198.383Z" fill="black" stroke="black" stroke-linecap="round" stroke-linejoin="round"/>
<path d="M225.836 220.754C225.836 220.754 231.611 230.908 235.729 261.11C239.847 291.312 237.105 297.352 237.105 297.352L242.88 300.924C242.88 300.924 254.972 299.55 250.844 271.003C246.726 242.447 244.527 237.781 244.527 237.781L225.836 220.764V220.754Z" fill="#FFCD07" stroke="black" stroke-linecap="round" stroke-linejoin="round"/>
<path d="M189.01 210.319C189.01 210.319 202.197 241.614 215.937 261.11C229.676 280.606 248.367 308.6 248.367 308.6C248.367 308.6 238.474 303.935 217.594 288.282C196.713 272.629 175.552 236.668 173.352 233.096C171.153 229.524 167.858 221.286 167.858 221.286L189.02 210.309L189.01 210.319Z" fill="#FFCD07" stroke="black" stroke-linecap="round" stroke-linejoin="round"/>
<path d="M303.159 349.392C303.159 349.392 307.093 351.918 313.275 354.445C319.457 356.971 320.028 356.516 318.052 358.656C316.075 360.795 305.688 356.971 302.878 355.849C300.068 354.726 294.729 353.041 294.729 353.041C294.729 353.041 288.267 356.691 284.333 357.814C280.399 358.937 275.622 357.252 275.622 357.252C275.622 357.252 275.341 352.761 278.713 350.234C282.085 347.708 289.391 341.812 291.92 342.093C294.448 342.374 303.159 349.392 303.159 349.392Z" fill="#FFF7D0" stroke="black" stroke-linecap="round" stroke-linejoin="round"/>
<path d="M304.845 342.655C304.845 342.655 308.217 341.812 310.465 343.497C312.713 345.181 315.242 350.515 315.523 351.918C315.804 353.322 315.242 354.164 312.994 352.199C310.746 350.234 306.812 347.427 306.812 347.427L303.44 346.304L304.845 342.655Z" fill="#FFF7D0" stroke="black" stroke-linecap="round" stroke-linejoin="round"/>
<path d="M296.135 340.128C296.135 340.128 302.879 337.882 304.284 339.847C305.689 341.812 310.466 353.041 309.061 353.883C307.656 354.726 305.689 353.041 303.16 349.392C300.631 345.743 299.226 343.777 299.226 343.777L295.854 343.216L296.135 340.128Z" fill="#FFF7D0" stroke="black" stroke-linecap="round" stroke-linejoin="round"/>
<path d="M284.091 342.645C284.091 342.645 292.888 335.782 295.078 337.427C297.278 339.073 304.419 349.779 305.242 351.977C306.066 354.174 302.219 353.07 299.196 350.331C296.173 347.582 292.598 344.562 292.598 344.562L285.728 348.134L284.081 342.645H284.091Z" fill="#FFF7D0" stroke="black" stroke-linecap="round" stroke-linejoin="round"/>
<path d="M252.492 347.862C252.492 347.862 264.032 347.311 268.703 345.665C273.373 344.02 282.714 340.448 285.465 340.728C288.217 340.999 298.653 351.163 300.852 353.361C303.052 355.558 302.829 356.149 300.629 356.42C298.43 356.691 293.159 353.08 290.678 351.163C288.207 349.237 285.737 348.143 285.737 348.143C285.737 348.143 281.89 353.632 279.138 356.1C276.386 358.569 269.798 360.495 267.317 360.214C264.846 359.943 262.647 359.391 262.647 359.391L253.306 359.12L252.483 347.862H252.492Z" fill="#FFF7D0" stroke="black" stroke-linecap="round" stroke-linejoin="round"/>
<path d="M172.248 268.506C172.248 268.506 182.413 280.315 181.87 284.429C181.318 288.543 181.046 292.667 181.046 292.667L188.468 337.418C188.468 337.418 194.786 334.398 194.786 336.866V339.335L254.143 345.375L254.695 366.235L160.166 366.506C160.166 366.506 155.495 361.289 154.943 359.372C154.391 357.446 143.955 324.234 141.204 289.366C138.452 254.499 139.828 238.856 141.204 236.106C142.58 233.357 158.79 228.149 158.79 228.149" fill="#FFCD07"/>
<path d="M172.248 268.506C172.248 268.506 182.413 280.315 181.87 284.429C181.318 288.543 181.046 292.667 181.046 292.667L188.468 337.418C188.468 337.418 194.786 334.398 194.786 336.866V339.335L254.143 345.375L254.695 366.235L160.166 366.506C160.166 366.506 155.495 361.289 154.943 359.372C154.391 357.446 143.955 324.234 141.204 289.366C138.452 254.499 139.828 238.856 141.204 236.106C142.58 233.357 158.79 228.149 158.79 228.149" stroke="black" stroke-linecap="round" stroke-linejoin="round"/>
<path d="M186.266 337.147C186.266 337.147 177.468 342.916 172.255 344.281L186.266 337.147Z" fill="white"/>
<path d="M186.266 337.147C186.266 337.147 177.468 342.916 172.255 344.281" stroke="black" stroke-linecap="round" stroke-linejoin="round"/>
<path d="M268.684 281.467L261.902 259.755C261.902 259.755 257.599 255.67 254.741 250.762C251.883 245.854 251.873 236.658 252.29 235.022C252.697 233.386 246.36 226.029 244.509 223.367C242.668 220.705 241.641 216.011 244.102 212.535C246.554 209.06 247.784 214.781 249.422 217.443C251.059 220.105 256.786 222.758 256.786 222.758L262.929 227.665C262.929 227.665 272.957 236.455 273.568 237.684C274.178 238.914 275.409 242.795 275.409 242.795L274.595 254.653L279.914 275.301L268.694 281.477L268.684 281.467Z" fill="#FFF7D0" stroke="black" stroke-linecap="round" stroke-linejoin="round"/>
<path d="M267.016 220.502C267.016 220.502 262.103 212.729 260.669 210.28C259.235 207.831 256.987 198.015 255.553 198.625C254.119 199.235 252.685 202.507 253.102 206.805C253.509 211.103 258.625 220.909 258.625 220.909L267.016 220.502Z" fill="#FFF7D0" stroke="black" stroke-linecap="round" stroke-linejoin="round"/>
<path d="M278.887 269.154L274.585 254.634L276.426 231.324L270.699 220.279L254.944 218.237C254.944 218.237 245.323 223.348 244.509 223.348C243.695 223.348 244.509 225.593 246.35 226.01C248.191 226.416 251.669 225.4 251.669 225.4L245.739 229.282C245.739 229.282 246.146 231.121 247.58 231.527C249.014 231.934 251.882 231.934 251.882 231.934C251.882 231.934 246.766 235.206 247.997 235.816C249.228 236.425 250.662 236.629 251.882 236.629H255.768L258.839 236.222L263.548 238.061C263.548 238.061 260.273 246.444 260.477 250.529C260.68 254.614 265.796 257.276 265.796 257.276" fill="#FFF7D0"/>
<path d="M278.887 269.154L274.585 254.634L276.426 231.324L270.699 220.279L254.944 218.237C254.944 218.237 245.323 223.348 244.509 223.348C243.695 223.348 244.509 225.593 246.35 226.01C248.191 226.416 251.669 225.4 251.669 225.4L245.739 229.282C245.739 229.282 246.146 231.121 247.58 231.527C249.014 231.934 251.882 231.934 251.882 231.934C251.882 231.934 246.766 235.206 247.997 235.816C249.228 236.425 250.662 236.629 251.882 236.629H255.768L258.839 236.222L263.548 238.061C263.548 238.061 260.273 246.444 260.477 250.529C260.68 254.614 265.796 257.276 265.796 257.276" stroke="black" stroke-linecap="round" stroke-linejoin="round"/>
<path d="M251.667 225.41C251.667 225.41 254.942 222.748 256.783 222.748C258.624 222.748 269.883 224.79 269.883 224.79" stroke="black" stroke-linecap="round" stroke-linejoin="round"/>
<path d="M251.876 231.944C251.876 231.944 257.196 229.078 258.833 229.078C260.471 229.078 273.367 232.35 273.367 232.35" stroke="black" stroke-linecap="round" stroke-linejoin="round"/>
<path d="M278.629 264.595L262.012 275.776C262.012 275.776 269.405 315.474 270.141 318.862C270.868 322.25 276.207 331.213 278.871 333.885C281.536 336.547 284.695 336.063 291.971 334.127C299.248 332.191 305.556 326.373 305.314 318.862C305.071 311.35 278.639 264.595 278.639 264.595H278.629Z" fill="#FFCD07" stroke="black" stroke-linecap="round" stroke-linejoin="round"/>
<path d="M364.511 360.795H369.336V362.276H364.511V360.795Z" fill="white" stroke="black" stroke-linecap="round" stroke-linejoin="round"/>
<path d="M357.823 360.795H362.648V362.276H357.823V360.795Z" fill="white" stroke="black" stroke-linecap="round" stroke-linejoin="round"/>
<path d="M351.143 360.795H355.969V362.276H351.143V360.795Z" fill="white" stroke="black" stroke-linecap="round" stroke-linejoin="round"/>
<path d="M344.456 360.795H349.281V362.276H344.456V360.795Z" fill="white" stroke="black" stroke-linecap="round" stroke-linejoin="round"/>
<path d="M337.768 360.795H342.594V362.276H337.768V360.795Z" fill="white" stroke="black" stroke-linecap="round" stroke-linejoin="round"/>
<path d="M331.081 360.795H335.906V362.276H331.081V360.795Z" fill="white" stroke="black" stroke-linecap="round" stroke-linejoin="round"/>
<path d="M324.386 360.795H329.211V362.276H324.386V360.795Z" fill="white" stroke="black" stroke-linecap="round" stroke-linejoin="round"/>
<path d="M317.698 360.795H322.523V362.276H317.698V360.795Z" fill="white" stroke="black" stroke-linecap="round" stroke-linejoin="round"/>
<path d="M311.015 360.795H315.84V362.276H311.015V360.795Z" fill="white" stroke="black" stroke-linecap="round" stroke-linejoin="round"/>
<path d="M304.331 360.795H309.156V362.276H304.331V360.795Z" fill="white" stroke="black" stroke-linecap="round" stroke-linejoin="round"/>
<path d="M297.647 360.795H302.473V362.276H297.647V360.795Z" fill="white" stroke="black" stroke-linecap="round" stroke-linejoin="round"/>
<path d="M290.96 360.795H295.785V362.276H290.96V360.795Z" fill="white" stroke="black" stroke-linecap="round" stroke-linejoin="round"/>
<path d="M284.261 360.795H289.086V362.276H284.261V360.795Z" fill="white" stroke="black" stroke-linecap="round" stroke-linejoin="round"/>
<path d="M277.581 360.795H282.406V362.276H277.581V360.795Z" fill="white" stroke="black" stroke-linecap="round" stroke-linejoin="round"/>
<path d="M270.893 360.795H275.719V362.276H270.893V360.795Z" fill="white" stroke="black" stroke-linecap="round" stroke-linejoin="round"/>
<path d="M264.206 360.795H269.031V362.276H264.206V360.795Z" fill="white" stroke="black" stroke-linecap="round" stroke-linejoin="round"/>
<path d="M252.56 361.967H372.117V366.168H252.56V361.967Z" fill="white" stroke="black" stroke-linecap="round" stroke-linejoin="round"/>
<path d="M252.56 361.967H298.391V366.168H252.56V361.967Z" fill="white" stroke="black" stroke-linecap="round" stroke-linejoin="round"/>
<path d="M334.802 325.172H428.799L447.684 225.313H353.687L334.802 325.172Z" fill="black" stroke="white" stroke-linecap="round" stroke-linejoin="round"/>
<path d="M337.671 322.636H428.848L446.773 227.839H355.587L337.671 322.636Z" fill="black" stroke="white" stroke-linecap="round" stroke-linejoin="round"/>
<path d="M355.226 315.095H423.013L436.336 244.615H368.549L355.226 315.095Z" fill="black" stroke="white" stroke-linecap="round" stroke-linejoin="round"/>
<path d="M436.338 244.615L446.773 227.839" stroke="black" stroke-linecap="round" stroke-linejoin="round"/>
<path d="M368.551 244.615L355.586 227.839" stroke="white" stroke-linecap="round" stroke-linejoin="round"/>
<path d="M355.227 315.096L337.669 322.636" stroke="white" stroke-linecap="round" stroke-linejoin="round"/>
<path d="M423.011 315.096L428.844 322.636" stroke="black" stroke-linecap="round" stroke-linejoin="round"/>
<path d="M395.448 293.983H410.883L401.058 285.223H385.632L395.448 293.983Z" fill="black" stroke="white" stroke-linecap="round" stroke-linejoin="round"/>
<path d="M344.241 360.911H400.711V366.516H344.241V360.911Z" fill="black" stroke="white" stroke-linecap="round" stroke-linejoin="round"/>
<path d="M376.515 366.516H391.94L410.883 345.017H395.448L376.515 366.516Z" fill="black" stroke="white" stroke-linecap="round" stroke-linejoin="round"/>
<path d="M395.448 294.332H410.883V344.784H395.448V294.332Z" fill="black" stroke="white" stroke-linecap="round" stroke-linejoin="round"/>
<path d="M169.465 356.913C169.465 356.913 166.713 362.682 159.843 366.245L169.465 356.913Z" fill="white"/>
<path d="M169.465 356.913C169.465 356.913 166.713 362.682 159.843 366.245" stroke="black" stroke-linecap="round" stroke-linejoin="round"/>
<path d="M459.516 366.516H17.4862" stroke="black" stroke-linecap="round" stroke-linejoin="round"/>
</g>
<defs>
<clipPath id="clip0_190_1283">
<rect width="460" height="367" fill="white" transform="matrix(-1 0 0 1 460 0)"/>
</clipPath>
</defs>
</svg>
