<svg width="416" height="451" viewBox="0 0 416 451" fill="none" xmlns="http://www.w3.org/2000/svg">
<circle cx="42" cy="183" r="39" fill="#EF5040"/>
<circle cx="104.5" cy="69.5" r="30.5" fill="#EF5040"/>
<path d="M95.4252 69.6616C95.1639 67.388 96.1735 65.9952 98.3471 65.7333C100.521 65.4834 101.827 66.6023 102.1 68.8759L102.944 76.1254C103.205 78.399 102.195 79.7917 100.022 80.0536C97.8482 80.3036 96.5417 79.1847 96.2685 76.911L95.4252 69.6616ZM98.4896 76.8158C98.6084 77.7919 99.0597 78.1609 99.7843 78.0657C100.473 77.9824 100.865 77.5181 100.758 76.542L99.8793 68.9712C99.7605 67.9951 99.2735 67.6379 98.5846 67.7213C97.8601 67.8046 97.5038 68.2688 97.6107 69.245L98.4896 76.8158ZM107.041 64.8763L109.084 64.6382L102.979 87.7316L100.936 87.9697L107.041 64.8763ZM107.279 76.4587C107.018 74.1851 108.027 72.7923 110.201 72.5304C112.374 72.2804 113.681 73.3994 113.954 75.673L114.798 82.9225C115.059 85.1961 114.049 86.5888 111.876 86.8507C109.702 87.1007 108.395 85.9817 108.122 83.7081L107.279 76.4587ZM110.343 83.6129C110.462 84.589 110.914 84.958 111.638 84.8628C112.327 84.7794 112.719 84.3152 112.612 83.3391L111.733 75.7683C111.614 74.7921 111.127 74.435 110.438 74.5184C109.714 74.6017 109.358 75.0659 109.464 76.042L110.343 83.6129Z" fill="white"/>
<path d="M119.964 91.8146L94.2493 94.8382C93.0259 94.9811 91.9332 94.1121 91.7907 92.886L88.6788 66.269C88.56 65.2691 88.9163 64.2573 89.629 63.555L100.366 52.9487C101.435 51.8892 103.074 51.6988 104.357 52.4844L117.244 60.3171C118.111 60.8409 118.681 61.7337 118.8 62.7455L121.912 89.3625C122.055 90.5885 121.188 91.6837 119.964 91.8265V91.8146Z" stroke="white" stroke-linecap="round" stroke-linejoin="round"/>
<path d="M104.393 55.9008C104.5 56.8054 103.847 57.6268 102.944 57.7339C102.041 57.8411 101.222 57.1864 101.115 56.2817C101.008 55.377 101.661 54.5556 102.564 54.4485C103.467 54.3414 104.286 54.9961 104.393 55.9008Z" stroke="white" stroke-linecap="round" stroke-linejoin="round"/>
<path d="M102.754 37.2593C102.754 37.2593 107.778 56.6506 102.754 56.0911" stroke="white" stroke-linecap="round" stroke-linejoin="round"/>
<path d="M101.471 52.2104C102.457 46.818 107.386 37.7354 107.386 37.7354" stroke="white" stroke-linecap="round" stroke-linejoin="round"/>
<path d="M102.754 56.091C102.089 56.0196 101.685 55.6386 101.471 55.0435" stroke="white" stroke-linecap="round" stroke-linejoin="round"/>
<path d="M125.189 44.4487C129.62 48.0318 133.136 52.7814 135.214 58.3167" stroke="black" stroke-linecap="round" stroke-linejoin="round"/>
<path d="M73.1309 61.6619C76.3378 49.3414 86.6119 39.5089 99.9742 37.5447C108.015 36.3663 115.795 38.2352 122.161 42.2706" stroke="black" stroke-linecap="round" stroke-linejoin="round"/>
<path d="M83.2856 94.5165C77.62 89.5764 73.6173 82.6484 72.4414 74.6133" stroke="black" stroke-linecap="round" stroke-linejoin="round"/>
<path d="M103.431 102.54C97.3493 102.302 91.5887 100.373 86.707 97.1353" stroke="black" stroke-linecap="round" stroke-linejoin="round"/>
<path d="M136.972 65.1377C139.585 82.9934 127.256 99.5993 109.428 102.218" stroke="black" stroke-linecap="round" stroke-linejoin="round"/>
<path d="M22.5058 174.303L63.5359 182.229L58.8082 206.81C58.6037 207.874 57.572 208.583 56.499 208.376L19.3294 201.196C18.2681 200.991 17.5597 199.957 17.7665 198.882L22.4941 174.3L22.5058 174.303Z" stroke="white" stroke-linecap="round" stroke-linejoin="round"/>
<path d="M64.5625 182.439L21.4565 174.112L22.7041 167.625C22.9087 166.561 23.9403 165.852 25.0133 166.059L64.2473 173.638C65.3086 173.843 66.017 174.877 65.8102 175.952L64.5625 182.439Z" stroke="white" stroke-linecap="round" stroke-linejoin="round"/>
<path d="M47.5715 170.427L41.7051 169.293L34.988 204.219L40.8544 205.352L47.5715 170.427Z" stroke="white" stroke-linecap="round" stroke-linejoin="round"/>
<path d="M44.6367 169.856C44.6367 169.856 54.8039 162.416 59.5074 164.666C64.211 166.915 61.8948 173.189 59.5193 172.724" stroke="white" stroke-linecap="round" stroke-linejoin="round"/>
<path d="M48.6621 170.629C48.6621 170.629 56.9408 166.498 58.1404 168.367C59.34 170.236 55.7649 171.998 53.0212 171.474" stroke="white" stroke-linecap="round" stroke-linejoin="round"/>
<path d="M44.9102 169.344C44.9102 169.344 49.2098 161.523 48.6397 159.023H51.5022C51.5022 159.023 52.4405 161.987 49.0911 167.058" stroke="white" stroke-linecap="round" stroke-linejoin="round"/>
<path d="M44.6362 169.855C44.6362 169.855 37.9491 159.166 32.7467 159.499C27.5444 159.832 27.3781 166.522 29.7417 166.974" stroke="white" stroke-linecap="round" stroke-linejoin="round"/>
<path d="M40.6206 169.07C40.6206 169.07 34.468 162.154 32.6626 163.439C30.8572 164.725 33.5178 167.701 36.2615 168.224" stroke="white" stroke-linecap="round" stroke-linejoin="round"/>
<path d="M44.5764 169.284C44.5764 169.284 43.4955 160.416 44.9327 158.309L42.2721 157.237C42.2721 157.237 40.3005 159.642 41.5357 165.594" stroke="white" stroke-linecap="round" stroke-linejoin="round"/>
<path d="M74.9238 157.321C79.4373 163.047 82.4661 169.951 83.4994 177.438" stroke="black" stroke-linecap="round" stroke-linejoin="round"/>
<path d="M5.23828 164.023C12.6974 149.583 28.2689 140.251 45.4676 141.584C55.813 142.393 64.9825 146.917 71.7645 153.75" stroke="black" stroke-linecap="round" stroke-linejoin="round"/>
<path d="M8.62375 207.817C2.95815 200.056 -0.070628 190.306 0.725169 179.962" stroke="black" stroke-linecap="round" stroke-linejoin="round"/>
<path d="M31.4397 223.506C23.9212 221.494 17.3054 217.447 12.1387 212.042" stroke="black" stroke-linecap="round" stroke-linejoin="round"/>
<path d="M83.7604 186.414C81.9787 209.4 61.9532 226.577 39.0176 224.791" stroke="black" stroke-linecap="round" stroke-linejoin="round"/>
<circle cx="239.5" cy="54.5" r="51.5" fill="#EF5040"/>
<path d="M248.49 75.2802L244.998 73.4946C245.628 71.9471 245.616 70.0068 245.509 68.7212C246.649 69.245 247.801 69.7925 248.882 70.3044C248.823 71.7448 248.704 73.447 248.49 75.2802Z" stroke="white" stroke-linecap="round" stroke-linejoin="round"/>
<path d="M253.574 72.6138C254.702 73.1971 255.89 73.5781 257.09 73.7923C257.921 78.3872 258.277 86.0294 254.227 93.9574C253.324 95.7192 243.858 90.8624 244.749 89.1006C246.91 84.8629 247.968 79.6847 248.478 75.2922C248.692 73.459 248.811 71.7568 248.87 70.3164C250.842 71.2568 252.588 72.1139 253.562 72.6257L253.574 72.6138Z" stroke="white" stroke-linecap="round" stroke-linejoin="round"/>
<path d="M264.857 50.5083C267.898 52.0677 270.024 54.7222 270.986 57.7458C271.972 60.7575 271.793 64.162 270.238 67.2093C268.682 70.2686 266.033 72.3875 263.016 73.3755C261.127 73.9945 259.096 74.1493 257.089 73.8041C255.889 73.5898 254.714 73.2089 253.573 72.6256C252.599 72.1256 250.853 71.2685 248.882 70.3162C247.801 69.7925 246.649 69.2568 245.508 68.733C242.777 67.4712 240.128 66.3047 238.762 65.8642L250.723 42.4375C253.253 44.2945 262.054 49.0798 264.857 50.5202V50.5083Z" stroke="white" stroke-linecap="round" stroke-linejoin="round"/>
<path d="M239.131 31.3668C242.504 35.5689 246.4 39.2948 250.735 42.4255L238.775 65.8522C233.703 64.1618 228.417 63.1738 223.037 62.9L218.393 62.662L236.221 27.748L239.131 31.3787V31.3668Z" stroke="white" stroke-linecap="round" stroke-linejoin="round"/>
<path d="M213 63.6381L233.869 22.7604C234.202 22.1176 234.986 21.8557 235.627 22.189L237.171 22.9747C237.813 23.308 238.074 24.0936 237.741 24.7365L236.221 27.7124L218.393 62.6263L216.873 65.6023C216.54 66.2451 215.756 66.507 215.115 66.1736L213.571 65.388C212.929 65.0547 212.668 64.269 213 63.6262V63.6381Z" stroke="white" stroke-linecap="round" stroke-linejoin="round"/>
<path d="M213.617 38.1758L205.576 34.0571" stroke="white" stroke-linecap="round" stroke-linejoin="round"/>
<path d="M223.037 25.2481L217.965 16.356" stroke="white" stroke-linecap="round" stroke-linejoin="round"/>
<path d="M208.665 53.3887L198.51 54.4719" stroke="white" stroke-linecap="round" stroke-linejoin="round"/>
<path d="M275.879 14.9153C268.978 8.52295 260.403 3.91618 250.889 1.83301" stroke="black" stroke-linecap="round" stroke-linejoin="round"/>
<path d="M260.309 104.194C279.622 96.0042 293.162 76.8509 293.162 54.5074C293.162 41.0799 288.257 28.7952 280.156 19.3555" stroke="black" stroke-linecap="round" stroke-linejoin="round"/>
<path d="M204.354 95.4565C213.761 103.551 225.994 108.432 239.369 108.432" stroke="black" stroke-linecap="round" stroke-linejoin="round"/>
<path d="M186.477 64.4116C188.306 74.3156 192.843 83.2673 199.281 90.4691" stroke="black" stroke-linecap="round" stroke-linejoin="round"/>
<path d="M239.368 0.595215C209.65 0.595215 185.562 24.7362 185.562 54.5195" stroke="black" stroke-linecap="round" stroke-linejoin="round"/>
<path d="M144.087 141.322C139.573 137.275 134.893 139.049 132.494 140.477C132.007 137.727 130.309 133.013 124.299 132.204C117.778 131.335 112.457 137.703 114.203 146.572C115.462 152.952 119.536 158.797 121.709 161.559C121.971 161.892 122.208 162.178 122.41 162.416C122.719 162.416 123.099 162.416 123.515 162.392C127.03 162.249 134.098 161.547 139.751 158.357C147.614 153.928 148.968 145.715 144.075 141.322H144.087Z" fill="#EF5040" stroke="black" stroke-linecap="round" stroke-linejoin="round"/>
<path d="M118.729 166.558C118.729 166.558 118.408 167.153 117.98 168.177" stroke="black" stroke-linecap="round" stroke-linejoin="round"/>
<path d="M116.804 171.475C115.07 177.343 114.037 187.104 123.361 193.056C146.783 208.019 154.67 172.725 136.735 175.891C124.442 178.069 137.364 210.567 156.594 204.27" stroke="black" stroke-linecap="round" stroke-linejoin="round"/>
<path d="M158.221 203.639C158.755 203.413 159.29 203.151 159.824 202.853" stroke="black" stroke-linecap="round" stroke-linejoin="round"/>
<path d="M129.441 419.324C129.441 419.324 116.221 428.335 110.9 427.74C110.235 427.668 109.724 427.466 109.332 427.073C105.852 423.478 103.072 417.181 103.072 417.181C103.072 417.181 104.723 414.884 109.831 420.978L113.073 417.991L106.374 411.241C106.374 411.241 110.14 408.241 116.542 412.063C116.328 411.598 112.194 402.599 115.306 390.338L99.6992 375.268L113.513 363.209L114.582 362.281C114.582 362.281 115.449 363.138 116.862 364.471C118.228 365.769 120.093 367.495 122.136 369.28C127.006 373.566 132.897 378.22 135.451 378.172C140.178 378.077 129.441 419.312 129.441 419.312V419.324Z" fill="#FFF7D0"/>
<mask id="mask0_190_1437" style="mask-type:luminance" maskUnits="userSpaceOnUse" x="99" y="362" width="38" height="66">
<path d="M129.441 419.324C129.441 419.324 116.221 428.335 110.9 427.74C110.235 427.668 109.724 427.466 109.332 427.073C105.852 423.478 103.072 417.181 103.072 417.181C103.072 417.181 104.723 414.884 109.831 420.978L113.073 417.991L106.374 411.241C106.374 411.241 110.14 408.241 116.542 412.063C116.328 411.598 112.194 402.599 115.306 390.338L99.6992 375.268L113.513 363.209L114.582 362.281C114.582 362.281 115.449 363.138 116.862 364.471C118.228 365.769 120.093 367.495 122.136 369.28C127.006 373.566 132.897 378.22 135.451 378.172C140.178 378.077 129.441 419.312 129.441 419.312V419.324Z" fill="white"/>
</mask>
<g mask="url(#mask0_190_1437)">
<path opacity="0.4" d="M119.226 413.42C119.226 413.42 111.696 421.205 110.9 427.74C110.235 427.669 109.724 427.466 109.332 427.073C105.852 423.479 103.072 417.181 103.072 417.181C103.072 417.181 104.723 414.884 109.831 420.979L113.073 417.991L106.374 411.241C106.374 411.241 110.14 408.242 116.542 412.063C116.328 411.599 112.194 402.599 115.306 390.338L99.6992 375.268L113.513 363.209L116.85 364.471C118.216 365.769 120.081 367.495 122.124 369.28C119.202 373.578 112.943 382.458 112.943 382.458L118.347 389.815C118.347 389.815 115.069 408.361 119.214 413.408L119.226 413.42Z" fill="#FADD4B"/>
</g>
<path d="M129.441 419.324C129.441 419.324 116.221 428.335 110.9 427.74C110.235 427.668 109.724 427.466 109.332 427.073C105.852 423.478 103.072 417.181 103.072 417.181C103.072 417.181 104.723 414.884 109.831 420.978L113.073 417.991L106.374 411.241C106.374 411.241 110.14 408.241 116.542 412.063C116.328 411.598 112.194 402.599 115.306 390.338L99.6992 375.268L113.513 363.209L114.582 362.281C114.582 362.281 115.449 363.138 116.862 364.471C118.228 365.769 120.093 367.495 122.136 369.28C127.006 373.566 132.897 378.22 135.451 378.172C140.178 378.077 129.441 419.312 129.441 419.312V419.324Z" stroke="black" stroke-linecap="round" stroke-linejoin="round"/>
<path d="M113.074 418.003C113.074 418.003 114.226 414.384 116.554 412.086" stroke="black" stroke-linecap="round" stroke-linejoin="round"/>
<path d="M359.771 314.356C357.894 317.213 355.341 319.903 352.288 322.439C352.288 322.439 352.288 322.439 352.276 322.439C327.963 342.616 271.913 352.579 271.913 352.579C271.913 352.579 270.036 355.4 267.15 359.412C261.971 366.626 253.479 377.696 246.554 383.243C243.632 385.6 240.983 386.957 238.988 386.588L249.5 425.514L254.203 439.382C254.203 439.382 205.366 439.382 123.193 439.382C123.193 439.382 122.255 428.573 122.956 426.264C122.992 426.157 123.027 426.038 123.063 425.931C123.835 424.074 126.305 421.848 126.305 421.848C126.305 421.848 125.842 414.896 125.605 407.813C125.415 402.313 125.367 396.742 125.771 394.266C126.353 390.695 128.966 382.065 130.272 377.827C130.736 376.327 131.045 375.375 131.045 375.375L126.935 336.759L125.747 325.641C125.747 325.641 125.723 325.439 125.688 325.058C125.688 324.974 125.688 324.891 125.664 324.784L125.011 318.82L103.75 325.331C103.75 325.331 104.878 327.819 106.399 331.331C109.19 337.735 113.299 347.496 114.214 351.353C114.285 351.675 114.38 351.972 114.487 352.282C116.459 357.912 123.954 363.019 123.954 363.019L103.821 386.6L97.8705 382.434C97.8705 382.434 97.0034 383.113 95.4712 383.946C91.5516 386.077 83.3442 389.207 74.3767 384.422C71.0984 382.672 67.7252 379.875 64.4233 375.601C48.5548 355.008 41.7371 338.235 43.9701 318.499C46.2031 298.75 134.655 238.029 152.198 238.66L178.305 244.445C178.864 243.981 180.396 242.766 181.572 242.826C186.323 243.064 186.442 248.599 186.442 248.599L244.939 258.122C244.939 258.122 250.996 255.075 252.053 255.135C254.643 255.265 255.747 257.491 255.747 257.491C255.747 257.491 270.903 248.397 275.785 250.516C291.807 257.444 371.613 296.31 359.771 314.344V314.356Z" fill="#FFCD07"/>
<path d="M123.193 439.405C123.193 439.405 122.267 428.597 122.956 426.287C123.538 424.359 126.305 421.871 126.305 421.871C126.305 421.871 124.856 399.956 125.783 394.302C126.578 389.457 131.056 375.399 131.056 375.399L125.023 318.855L103.762 325.367C103.762 325.367 112.812 345.413 114.214 351.389C115.615 357.364 123.954 363.066 123.954 363.066L103.809 386.648L97.8585 382.493C97.8585 382.493 80.2916 396.266 64.4113 375.66C48.5429 355.055 41.7251 338.294 43.9581 318.546C46.1911 298.798 134.643 238.076 152.198 238.707L178.305 244.492C178.875 244.028 180.396 242.814 181.572 242.873C186.323 243.111 186.441 248.647 186.441 248.647L244.938 258.158C244.938 258.158 251.008 255.122 252.065 255.17C254.654 255.301 255.759 257.515 255.759 257.515C255.759 257.515 270.915 248.421 275.796 250.539C291.819 257.467 371.613 296.333 359.771 314.368C342.964 339.973 271.912 352.603 271.912 352.603C271.912 352.603 248.276 388.326 238.976 386.624L253.285 438.882" stroke="black" stroke-linecap="round" stroke-linejoin="round"/>
<path d="M297.948 318.261C324.791 336.033 346.432 332.747 363.369 309.88C363.369 309.88 377.468 291.667 376.47 272.002C375.473 252.337 370.793 188.235 309.671 204.627C299.611 207.329 276.141 238.838 274.157 247.492C273.254 251.444 263.823 271.598 254.678 292.441" fill="#FFCD07"/>
<path d="M297.948 318.261C324.791 336.033 346.432 332.747 363.369 309.88C363.369 309.88 377.468 291.667 376.47 272.002C375.473 252.337 370.793 188.235 309.671 204.627C299.611 207.329 276.141 238.838 274.157 247.492C273.254 251.444 263.823 271.598 254.678 292.441" stroke="black" stroke-linecap="round" stroke-linejoin="round"/>
<path d="M225.317 129.978C225.317 129.978 242.409 127.383 254.298 138.037C269.323 151.512 286.189 187.842 262.161 248.052C262.161 248.052 226.683 224.435 166.119 240.231C166.119 240.231 171.333 226.101 162.176 181.652C158.042 161.547 168.447 115.205 225.317 129.978Z" fill="black"/>
<path d="M199.387 281.073C224.698 285.18 251.601 257.099 251.601 257.099C251.601 257.099 237.835 255.397 236.612 248.921C232.668 228.494 248.548 203.258 248.548 203.258C248.548 203.258 187.094 204.96 197.831 218.899C200.088 221.828 201.632 224.625 202.689 227.256C206.419 236.434 203.829 243.35 201.846 245.04C201.703 245.159 201.537 245.266 201.395 245.338C197.677 247.04 182.402 244.505 182.402 244.505C182.402 244.505 176.297 277.311 199.387 281.061V281.073Z" fill="#FFF7D0" stroke="black" stroke-linecap="round" stroke-linejoin="round"/>
<path d="M242.882 264.872C242.882 264.872 231.206 269.55 214.115 268.158L206.418 271.943" stroke="black" stroke-linecap="round" stroke-linejoin="round"/>
<path d="M198.746 271.324L198.176 266.253C198.176 266.253 185.574 262.301 181.666 254.777" stroke="black" stroke-linecap="round" stroke-linejoin="round"/>
<path d="M201.846 245.04C220.672 249.968 229.509 225.78 229.509 225.78C229.509 225.78 214.448 221.28 202.689 227.256C206.419 236.434 203.829 243.35 201.846 245.04Z" fill="black"/>
<path d="M249.619 190.532C254.204 164.772 249.108 133.858 209.995 136.418C182.048 138.251 182.273 168.963 184.126 178.129C187.238 193.544 182.784 199.615 187.571 212.566C191.015 221.875 199.021 232.279 208.44 236.183C214.236 238.588 237.694 222.089 239.428 214.542" fill="#FFF7D0"/>
<path d="M249.619 190.532C254.204 164.772 249.108 133.858 209.995 136.418C182.048 138.251 182.273 168.963 184.126 178.129C187.238 193.544 182.784 199.615 187.571 212.566C191.015 221.875 199.021 232.279 208.44 236.183C214.236 238.588 237.694 222.089 239.428 214.542" stroke="black" stroke-linecap="round" stroke-linejoin="round"/>
<path d="M200.469 182.938C200.231 185.831 199.899 192.997 193.782 198.282C189.826 201.698 198.901 205.198 198.901 205.198" stroke="black" stroke-linecap="round" stroke-linejoin="round"/>
<path d="M193.971 172.724C193.971 172.724 185.336 168.51 179.504 175.462" stroke="black" stroke-linecap="round" stroke-linejoin="round"/>
<path d="M208.451 172.177C208.451 172.177 216.789 169.177 226.909 172.903" stroke="black" stroke-linecap="round" stroke-linejoin="round"/>
<path d="M217.419 184.331C217.692 186.819 219.355 188.676 221.148 188.473C222.942 188.283 224.177 186.104 223.904 183.617C223.631 181.129 221.968 179.272 220.174 179.474C218.381 179.665 217.146 181.843 217.419 184.331Z" fill="black"/>
<path d="M199.328 213.34C210.184 212.019 218.629 206.27 218.629 206.27C218.629 206.27 219.437 217.078 210.41 219.328C203.485 221.054 200.801 213.126 200.801 213.126" stroke="black" stroke-linecap="round" stroke-linejoin="round"/>
<path d="M224.723 146.238C224.723 146.238 222.252 176.76 249.131 187.854L261.721 158.511L242.67 137.358L213.962 129.049C171.072 131.728 152.602 158.44 176.417 229.613C176.417 229.613 169.753 144.858 224.723 146.25V146.238Z" fill="black"/>
<path d="M243.252 189.152C242.884 185.723 251.542 176.986 254.464 182.593C259.453 192.152 255.818 200.484 250.652 203.746C248.335 205.21 245.402 207.948 243.347 205.365" fill="#FFF7D0"/>
<path d="M243.252 189.152C242.884 185.723 251.542 176.986 254.464 182.593C259.453 192.152 255.818 200.484 250.652 203.746C248.335 205.21 245.402 207.948 243.347 205.365" stroke="black" stroke-linecap="round" stroke-linejoin="round"/>
<path d="M191.239 185.473C191.512 187.961 193.175 189.818 194.969 189.616C196.762 189.425 197.997 187.247 197.724 184.759C197.451 182.271 195.788 180.414 193.995 180.617C192.201 180.807 190.966 182.986 191.239 185.473Z" fill="black"/>
<g opacity="0.2">
<path d="M172.616 180.462C172.296 182.533 172.07 184.616 171.951 186.711" stroke="#FFF7D0" stroke-linecap="round" stroke-linejoin="round"/>
<path d="M220.269 140.691C198.545 140.12 178.353 154 173.543 175.796" stroke="#FFF7D0" stroke-linecap="round" stroke-linejoin="round"/>
<path d="M216.385 134.466C216.385 134.466 185.052 127.085 173.305 147.905" stroke="#FFF7D0" stroke-linecap="round" stroke-linejoin="round"/>
<path d="M241.803 170.749C243.715 173.415 245.948 175.879 248.561 177.891" stroke="#FFF7D0" stroke-linecap="round" stroke-linejoin="round"/>
<path d="M229.379 138.537C231.054 148.357 234.284 158.321 239.32 166.915" stroke="#FFF7D0" stroke-linecap="round" stroke-linejoin="round"/>
<path d="M260.866 233.005C260.308 235.505 259.654 237.981 258.918 240.433" stroke="#FFF7D0" stroke-linecap="round" stroke-linejoin="round"/>
<path d="M259.049 191.509C264.132 202.817 263.788 216.888 261.698 228.792" stroke="#FFF7D0" stroke-linecap="round" stroke-linejoin="round"/>
<path d="M255.319 211.198C255.319 211.198 256.875 223.816 246.482 234.47" stroke="#FFF7D0" stroke-linecap="round" stroke-linejoin="round"/>
<path d="M240.865 142.179C246.198 149.405 250.153 157.154 256.33 163.749C262.839 170.701 269.336 178.653 270.559 188.437" stroke="#FFF7D0" stroke-linecap="round" stroke-linejoin="round"/>
<path d="M233.357 134.668C234.89 135.668 236.279 136.858 237.538 138.18" stroke="#FFF7D0" stroke-linecap="round" stroke-linejoin="round"/>
</g>
<path d="M340.553 302.274C339.935 302.416 339.306 302.524 338.664 302.607C321.846 305.011 302.984 291.048 296.618 274.252C291.593 261.003 295.988 245.968 298.387 239.529C299.148 237.517 299.694 236.338 299.694 236.338C309.837 221.816 368.81 250.218 369.487 265.872C370.175 281.513 357.823 298.464 340.541 302.262L340.553 302.274Z" fill="black" stroke="black" stroke-linecap="round" stroke-linejoin="round"/>
<path d="M358.999 268.014C358.999 268.014 355.649 292.881 338.664 302.619C321.846 305.023 302.984 291.06 296.618 274.264C291.593 261.015 295.988 245.98 298.387 239.54C298.387 239.529 298.399 239.54 298.399 239.54C318.27 228.172 358.999 268.014 358.999 268.014Z" fill="white"/>
<mask id="mask1_190_1437" style="mask-type:luminance" maskUnits="userSpaceOnUse" x="294" y="237" width="65" height="66">
<path d="M358.999 268.014C358.999 268.014 355.649 292.881 338.664 302.619C321.846 305.023 302.984 291.06 296.618 274.264C291.593 261.015 295.988 245.98 298.387 239.54C298.387 239.529 298.399 239.54 298.399 239.54C318.27 228.172 358.999 268.014 358.999 268.014Z" fill="white"/>
</mask>
<g mask="url(#mask1_190_1437)">
<path opacity="0.4" d="M358.999 268.014C358.999 268.014 355.649 292.881 338.664 302.619C321.846 305.023 302.984 291.06 296.618 274.264C291.593 261.015 295.988 245.98 298.387 239.54C298.387 239.529 298.399 239.54 298.399 239.54C318.27 228.172 358.999 268.014 358.999 268.014Z" fill="#FADD4B"/>
</g>
<path d="M358.999 268.014C358.999 268.014 355.649 292.881 338.664 302.619C321.846 305.023 302.984 291.06 296.618 274.264C291.593 261.015 295.988 245.98 298.387 239.54C298.387 239.529 298.399 239.54 298.399 239.54C318.27 228.172 358.999 268.014 358.999 268.014Z" stroke="black" stroke-linecap="round" stroke-linejoin="round"/>
<path d="M289.467 281.108C289.467 281.108 308.613 308.654 330.979 310.951C353.332 313.249 367.633 294.369 368.571 280.132" stroke="black" stroke-linecap="round" stroke-linejoin="round"/>
<path d="M278.694 156.773C280.38 152.047 292.46 153.631 296.284 168.356C300.109 183.081 315.229 218.828 315.229 218.828C315.229 218.828 375.246 130.311 386.008 126.906C396.769 123.49 392.505 138.834 378.133 160.118C378.133 160.118 391.602 157.737 395.13 160.118C398.669 162.499 396.947 176.795 398.823 181.807C401.983 190.199 394.963 191.973 394.963 191.973C394.963 191.973 400.486 191.925 404.335 195.544C408.195 199.163 406.259 214.138 407.352 218.375C408.456 222.613 401.092 226.184 401.092 226.184C401.092 226.184 418.79 235.862 414.787 238.279C408.052 242.362 404.204 238.183 404.204 238.183C404.204 238.183 377.016 272.407 356.516 280.025C336.015 287.644 296.082 257.36 291.795 240.862C287.507 224.363 292.626 225.387 289.372 197.925C286.117 170.474 278.67 156.761 278.67 156.761L278.694 156.773Z" fill="#FFF7D0" stroke="black" stroke-linecap="round" stroke-linejoin="round"/>
<path d="M366.259 102.393L287.184 123.051C284.378 123.784 282.696 126.657 283.428 129.469L320.809 273.191C321.54 276.003 324.407 277.688 327.213 276.955L406.288 256.297C409.094 255.564 410.775 252.69 410.044 249.879L372.663 106.157C371.932 103.345 369.065 101.66 366.259 102.393Z" fill="white" stroke="black" stroke-linecap="round" stroke-linejoin="round"/>
<path d="M320.953 118.895C321.132 119.586 320.716 120.288 320.039 120.467C319.35 120.645 318.649 120.229 318.471 119.55C318.293 118.86 318.709 118.157 319.386 117.979C320.074 117.8 320.775 118.217 320.953 118.895Z" fill="#FADD4B" stroke="black" stroke-linecap="round" stroke-linejoin="round"/>
<path d="M337.237 114.646C337.344 115.074 337.095 115.515 336.655 115.634C336.227 115.741 335.788 115.491 335.669 115.05C335.562 114.622 335.812 114.181 336.251 114.062C336.679 113.955 337.118 114.205 337.237 114.646Z" fill="#FADD4B" stroke="black" stroke-linecap="round" stroke-linejoin="round"/>
<path d="M332.764 115.323L323.282 117.8C323.079 117.853 322.957 118.061 323.01 118.265L323.049 118.414C323.102 118.618 323.309 118.74 323.513 118.687L332.995 116.21C333.198 116.157 333.32 115.949 333.267 115.745L333.228 115.595C333.175 115.392 332.967 115.27 332.764 115.323Z" fill="#FADD4B" stroke="black" stroke-linecap="round" stroke-linejoin="round"/>
<path d="M370.282 107.634L407.352 250.171C407.78 251.837 406.794 253.539 405.131 253.968L327.072 274.359C325.409 274.788 323.71 273.8 323.283 272.133L286.213 129.597C285.785 127.93 286.771 126.228 288.434 125.799L304.457 121.609C305.514 121.336 306.631 121.74 307.248 122.633L308.4 124.288C309.03 125.18 310.146 125.597 311.192 125.311L346.373 116.122C347.43 115.848 348.202 114.943 348.309 113.86L348.511 111.848C348.618 110.765 349.39 109.86 350.447 109.586L366.47 105.396C368.133 104.968 369.831 105.956 370.259 107.622L370.282 107.634Z" fill="#FFCD07" stroke="black" stroke-linecap="round" stroke-linejoin="round"/>
<path d="M372.993 187.628C380.246 170.887 372.584 151.424 355.881 144.156C339.177 136.887 319.757 144.566 312.505 161.306C305.252 178.046 312.914 197.509 329.617 204.778C346.321 212.046 365.741 204.368 372.993 187.628Z" fill="white" stroke="black" stroke-linecap="round" stroke-linejoin="round"/>
<path d="M329.138 193.449C329.685 194.83 331.252 195.508 332.678 195.091L343.51 191.949C343.534 192.175 343.581 192.413 343.653 192.639C344.342 195.032 346.836 196.401 349.211 195.71C351.599 195.02 352.965 192.52 352.276 190.139C352.205 189.913 352.121 189.687 352.026 189.485L362.859 186.342C364.284 185.925 365.258 184.521 364.985 183.057C364.676 181.378 363.001 180.378 361.41 180.843L360.495 180.295C358.523 179.105 357.074 177.224 356.433 175.01L354.366 167.855C352.585 161.689 346.563 157.928 340.398 158.832C341.206 157.975 341.55 156.737 341.206 155.523C340.683 153.702 338.771 152.642 336.954 153.166C335.136 153.69 334.079 155.606 334.602 157.428C334.946 158.642 335.908 159.499 337.049 159.797C331.359 162.332 328.259 168.736 330.029 174.903L332.108 182.128C332.844 184.676 332.428 187.425 330.979 189.651C329.388 190.116 328.509 191.854 329.126 193.437L329.138 193.449ZM339.828 155.928C340.137 156.999 339.519 158.106 338.462 158.416C337.393 158.725 336.289 158.106 335.98 157.047C335.671 155.987 336.289 154.868 337.346 154.559C338.415 154.249 339.519 154.868 339.828 155.928Z" fill="#FADD4B" stroke="black" stroke-linecap="round" stroke-linejoin="round"/>
<path d="M350.054 189.663L345.268 191.044" stroke="black" stroke-linecap="round" stroke-linejoin="round"/>
<path d="M357.121 181.997L335.207 188.342" stroke="black" stroke-linecap="round" stroke-linejoin="round"/>
<path d="M380.034 226.387L335.541 238.005C330.207 239.398 324.756 236.196 323.366 230.851C321.976 225.506 325.171 220.042 330.504 218.649L374.998 207.031C380.331 205.639 385.783 208.841 387.172 214.185C388.562 219.53 385.367 224.994 380.034 226.387Z" fill="black"/>
<path d="M330.634 224.089C330.883 223.601 331.37 223.256 332.071 223.077C332.772 222.899 333.354 222.958 333.817 223.256C334.28 223.566 334.613 224.089 334.803 224.839L334.874 225.125L333.508 225.482L333.413 225.101C333.33 224.78 333.211 224.565 333.045 224.458C332.89 224.351 332.689 224.315 332.451 224.387C332.213 224.446 332.059 224.565 331.964 224.744C331.881 224.923 331.881 225.161 331.964 225.482C332.059 225.875 332.261 226.184 332.534 226.422C332.819 226.661 333.211 226.911 333.722 227.172C334.15 227.399 334.494 227.601 334.767 227.791C335.04 227.982 335.29 228.22 335.539 228.529C335.777 228.827 335.955 229.208 336.062 229.648C336.252 230.398 336.216 231.017 335.955 231.505C335.694 232.005 335.207 232.339 334.506 232.517C333.805 232.696 333.223 232.636 332.748 232.339C332.273 232.041 331.94 231.505 331.75 230.767L331.608 230.196L332.974 229.839L333.14 230.494C333.294 231.089 333.627 231.327 334.126 231.196C334.625 231.065 334.803 230.696 334.636 230.101C334.541 229.72 334.34 229.41 334.066 229.172C333.781 228.934 333.389 228.684 332.879 228.422C332.451 228.196 332.107 227.994 331.833 227.803C331.56 227.613 331.299 227.375 331.061 227.065C330.824 226.768 330.646 226.387 330.539 225.946C330.349 225.196 330.372 224.577 330.634 224.089Z" fill="white"/>
<path d="M338.294 229.149C338.448 229.744 338.781 229.982 339.28 229.851C339.779 229.72 339.957 229.363 339.802 228.756L337.95 221.649L339.315 221.292L341.145 228.315C341.335 229.065 341.299 229.684 341.038 230.172C340.776 230.672 340.289 231.006 339.589 231.196C338.888 231.375 338.306 231.315 337.831 231.017C337.356 230.72 337.023 230.196 336.833 229.446L335.004 222.423L336.453 222.042L338.306 229.149H338.294Z" fill="white"/>
<path d="M344.234 220.554C344.662 220.816 344.971 221.304 345.161 222.018L345.244 222.351C345.363 222.828 345.387 223.232 345.315 223.589C345.244 223.935 345.066 224.22 344.793 224.458C345.588 224.554 346.111 225.113 346.384 226.149L346.574 226.899C346.764 227.613 346.717 228.196 346.444 228.672C346.17 229.149 345.672 229.47 344.959 229.66L342.69 230.256L340.291 221.042L342.476 220.471C343.225 220.28 343.807 220.304 344.246 220.566L344.234 220.554ZM342.714 224.399L343.272 224.256C343.557 224.185 343.759 224.054 343.866 223.863C343.973 223.673 343.973 223.411 343.89 223.054L343.759 222.542C343.676 222.209 343.545 221.982 343.391 221.863C343.237 221.744 343.023 221.721 342.773 221.78L342.073 221.959L342.702 224.399H342.714ZM343.795 228.541L344.626 228.327C344.876 228.256 345.054 228.149 345.137 227.982C345.22 227.815 345.22 227.565 345.137 227.232L344.923 226.434C344.816 226.018 344.662 225.744 344.484 225.613C344.294 225.494 344.032 225.47 343.7 225.554L343.058 225.72L343.795 228.553V228.541Z" fill="white"/>
<path d="M346.11 220.042C346.36 219.554 346.847 219.209 347.548 219.03C348.248 218.851 348.83 218.911 349.294 219.22C349.757 219.53 350.089 220.054 350.28 220.804L350.351 221.089L348.985 221.446L348.89 221.066C348.807 220.744 348.688 220.53 348.522 220.423C348.367 220.316 348.165 220.28 347.928 220.351C347.69 220.411 347.536 220.53 347.441 220.708C347.358 220.887 347.358 221.137 347.441 221.446C347.536 221.827 347.726 222.149 348.011 222.375C348.296 222.613 348.688 222.863 349.199 223.125C349.626 223.351 349.971 223.553 350.244 223.744C350.517 223.934 350.778 224.172 351.016 224.482C351.253 224.78 351.432 225.16 351.539 225.601C351.729 226.351 351.693 226.97 351.432 227.458C351.17 227.958 350.683 228.291 349.983 228.47C349.282 228.648 348.7 228.589 348.225 228.291C347.75 227.994 347.417 227.47 347.227 226.72L347.084 226.148L348.45 225.791L348.617 226.446C348.771 227.041 349.104 227.279 349.602 227.148C350.101 227.017 350.279 226.648 350.113 226.053C350.018 225.66 349.816 225.351 349.543 225.125C349.258 224.887 348.866 224.637 348.355 224.375C347.928 224.149 347.583 223.946 347.31 223.756C347.037 223.565 346.776 223.327 346.538 223.018C346.301 222.72 346.122 222.339 346.004 221.899C345.814 221.149 345.837 220.53 346.099 220.042H346.11Z" fill="white"/>
<path d="M356.55 224.268C356.74 225.018 356.704 225.637 356.443 226.137C356.182 226.637 355.695 226.97 354.994 227.149C354.293 227.327 353.711 227.268 353.236 226.97C352.761 226.673 352.428 226.137 352.238 225.399L350.991 220.602C350.801 219.852 350.837 219.233 351.098 218.745C351.359 218.245 351.846 217.911 352.547 217.733C353.248 217.554 353.83 217.614 354.305 217.911C354.78 218.209 355.113 218.745 355.303 219.483L355.54 220.375L354.174 220.733L353.913 219.745C353.759 219.137 353.426 218.899 352.927 219.03C352.428 219.161 352.262 219.53 352.416 220.137L353.711 225.113C353.865 225.708 354.198 225.946 354.697 225.815C355.196 225.685 355.374 225.315 355.22 224.72L354.875 223.399L356.241 223.042L356.562 224.268H356.55Z" fill="white"/>
<path d="M360.814 225.065C360.767 224.934 360.695 224.708 360.6 224.363L360.22 222.911C360.113 222.494 359.959 222.208 359.757 222.066C359.567 221.923 359.294 221.899 358.961 221.982L358.462 222.113L359.436 225.863L357.987 226.244L355.588 217.03L357.773 216.459C358.522 216.268 359.104 216.292 359.543 216.554C359.971 216.816 360.28 217.304 360.47 218.018L360.66 218.744C360.909 219.697 360.755 220.399 360.196 220.863C360.576 220.911 360.885 221.09 361.111 221.375C361.349 221.661 361.527 222.066 361.657 222.578L362.026 224.006C362.097 224.268 362.156 224.482 362.216 224.637C362.275 224.792 362.358 224.946 362.477 225.089L361.004 225.47C360.909 225.339 360.838 225.208 360.79 225.077L360.814 225.065ZM358.13 220.804L358.688 220.661C358.973 220.59 359.175 220.459 359.282 220.268C359.389 220.078 359.389 219.816 359.306 219.459L359.068 218.554C358.985 218.221 358.854 217.995 358.7 217.875C358.545 217.756 358.343 217.733 358.082 217.792L357.381 217.971L358.118 220.804H358.13Z" fill="white"/>
<path d="M362.336 215.269L364.735 224.482L363.286 224.863L360.887 215.649L362.336 215.269Z" fill="white"/>
<path d="M367.336 214.518C367.763 214.78 368.072 215.268 368.262 215.983L368.345 216.316C368.464 216.792 368.488 217.197 368.417 217.554C368.345 217.899 368.167 218.197 367.894 218.423C368.69 218.518 369.212 219.078 369.486 220.113L369.688 220.863C369.878 221.577 369.83 222.161 369.557 222.637C369.284 223.113 368.785 223.434 368.072 223.625L365.804 224.22L363.404 215.006L365.59 214.435C366.338 214.245 366.92 214.268 367.36 214.53L367.336 214.518ZM365.815 218.363L366.374 218.22C366.659 218.149 366.861 218.018 366.968 217.828C367.074 217.637 367.086 217.375 366.991 217.018L366.861 216.506C366.778 216.173 366.647 215.947 366.492 215.828C366.338 215.709 366.136 215.685 365.875 215.744L365.174 215.923L365.804 218.363H365.815ZM366.896 222.506L367.728 222.292C367.977 222.22 368.155 222.113 368.238 221.946C368.322 221.78 368.322 221.53 368.238 221.196L368.025 220.399C367.918 219.982 367.763 219.708 367.585 219.577C367.395 219.458 367.146 219.435 366.801 219.518L366.16 219.685L366.896 222.518V222.506Z" fill="white"/>
<path d="M373.167 216.59L373.511 217.911L371.528 218.435L372.229 221.137L374.723 220.483L375.067 221.804L371.124 222.828L368.725 213.614L372.668 212.59L373.012 213.912L370.518 214.566L371.183 217.138L373.167 216.614V216.59Z" fill="white"/>
<path d="M375.839 211.745C376.552 211.554 377.146 211.614 377.609 211.9C378.072 212.197 378.393 212.709 378.595 213.459L379.806 218.125C379.996 218.875 379.972 219.482 379.711 219.97C379.45 220.447 378.963 220.78 378.25 220.97L375.958 221.566L373.559 212.352L375.839 211.757V211.745ZM377.051 219.863L377.87 219.649C378.108 219.59 378.274 219.471 378.357 219.292C378.452 219.113 378.452 218.875 378.369 218.554L377.122 213.757C377.039 213.435 376.92 213.233 376.754 213.126C376.587 213.019 376.385 212.995 376.16 213.054L375.34 213.269L377.051 219.851V219.863Z" fill="white"/>
<path d="M271.913 352.591C271.913 352.591 258.409 321.105 265.298 282.918" stroke="black" stroke-linecap="round" stroke-linejoin="round"/>
<path d="M238.977 386.612C238.977 386.612 211.682 394.981 208.915 401.266C206.147 407.563 221.16 402.266 221.16 402.266" stroke="black" stroke-linecap="round" stroke-linejoin="round"/>
<path d="M255.758 257.492C255.758 257.492 230.625 282.454 213.807 289.12" stroke="black" stroke-linecap="round" stroke-linejoin="round"/>
<path d="M173.4 250.79C173.4 250.79 168.827 284.489 185.907 290.858" stroke="black" stroke-linecap="round" stroke-linejoin="round"/>
<path d="M125.022 318.844C125.022 318.844 124.879 274.657 133.645 260.991" stroke="black" stroke-linecap="round" stroke-linejoin="round"/>
<path d="M121.756 273.824C121.756 273.824 119.297 301.262 124.808 310.214" stroke="black" stroke-linecap="round" stroke-linejoin="round"/>
<path d="M103.762 325.355C103.762 325.355 84.6507 318.76 80.6836 326.938C76.7165 335.116 92.086 327.867 92.086 327.867" stroke="black" stroke-linecap="round" stroke-linejoin="round"/>
<path d="M115.26 354.008C115.26 354.008 96.4935 364.602 95.5195 370.673" stroke="black" stroke-linecap="round" stroke-linejoin="round"/>
<path d="M145.916 324.7C145.916 324.7 181.846 379.124 201.681 374.125" stroke="black" stroke-linecap="round" stroke-linejoin="round"/>
<path d="M170.467 401.028C170.467 401.028 142.293 421.729 138.195 419.979" stroke="black" stroke-linecap="round" stroke-linejoin="round"/>
<path opacity="0.2" d="M367.812 312.714C369.713 311.154 370.972 310.118 371.376 309.785C370.948 310.154 369.725 311.226 367.812 312.714Z" fill="black"/>
</svg>
