<svg width="20" height="20" viewBox="0 0 20 20" fill="none" xmlns="http://www.w3.org/2000/svg">
<path d="M2.92933 7.09331C6.14082 4.43199 11.7621 4.18166 15.213 8.35445C19.5266 13.5704 10.8455 21.9748 4.2403 17.9379C-2.36488 13.9011 7.85186 10.5365 12.2103 8.8589C16.5688 7.18129 23.8656 5.16355 14.3054 12.4735C2.28445 21.6652 5.79662 10.2855 9.20766 3.56212C11.5413 -1.03759 -0.0733361 1.29643 3.09 4.77375C6.25333 8.25108 11.5219 8.90508 10.5725 11.8856C9.62316 14.8662 3.11553 15.169 1.56452 12.3901C0.497485 10.4783 0.938028 8.74348 2.92933 7.09331Z" stroke="black" stroke-opacity="0.1" stroke-width="1.5" stroke-linecap="round"/>
<path d="M8.53895 3.22279C8.35154 3.59218 8.49907 4.04356 8.86846 4.23097C9.23785 4.41837 9.68923 4.27084 9.87664 3.90145L8.53895 3.22279ZM9.87664 3.90145C10.2135 3.23752 10.3591 2.58264 10.2148 1.97708C10.065 1.34846 9.63886 0.919877 9.14038 0.65799C8.20253 0.165269 6.86098 0.169615 5.69076 0.403606C4.50808 0.640089 3.25474 1.15975 2.49736 1.95251C2.10759 2.36049 1.8074 2.8875 1.79076 3.51476C1.77396 4.14764 2.04931 4.74417 2.53535 5.27844L3.64492 4.26906C3.34011 3.934 3.28645 3.69693 3.29023 3.55456C3.29416 3.40656 3.36415 3.21666 3.58194 2.9887C4.03968 2.50958 4.95102 2.08121 5.98487 1.87449C7.03118 1.66527 7.95803 1.73123 8.44274 1.98588C8.65554 2.09768 8.72926 2.21423 8.75561 2.32479C8.78745 2.45843 8.78551 2.73679 8.53895 3.22279L9.87664 3.90145ZM2.53535 5.27844C4.21208 7.12161 6.46917 8.23423 7.98352 9.15653C8.78001 9.64163 9.33737 10.0496 9.65356 10.4622C9.92572 10.8173 10.0153 11.1641 9.85802 11.658L11.2873 12.1133C11.6046 11.1169 11.3917 10.2642 10.8441 9.54977C10.3406 8.89278 9.56115 8.36107 8.76376 7.87543C7.09035 6.85626 5.13151 5.90321 3.64492 4.26906L2.53535 5.27844Z" fill="url(#paint0_angular_2002_6016)"/>
<path d="M15.2134 8.35592L14.6354 8.83389L15.2134 8.35592ZM4.63176 17.2994C4.27833 17.0834 3.81671 17.1948 3.60071 17.5483C3.3847 17.9017 3.49611 18.3633 3.84954 18.5793L4.63176 17.2994ZM3.40824 7.67226C6.3422 5.24093 11.4818 5.02066 14.6354 8.83389L15.7913 7.87794C12.0431 3.3456 5.94016 3.62599 2.45113 6.5173L3.40824 7.67226ZM14.6354 8.83389C15.5547 9.9455 15.7812 11.2101 15.514 12.4653C15.2423 13.7416 14.4525 15.0233 13.3152 16.0642C11.0253 18.16 7.56669 19.0932 4.63176 17.2994L3.84954 18.5793C7.51979 20.8224 11.7044 19.5719 14.3279 17.1707C15.6473 15.9632 16.6319 14.418 16.9811 12.7777C17.3348 11.1162 17.0288 9.37433 15.7913 7.87794L14.6354 8.83389Z" fill="url(#paint1_angular_2002_6016)"/>
<path d="M2.92933 7.09375C0.938028 8.74392 0.497485 10.4787 1.56452 12.3905C3.11553 15.1695 9.62316 14.8666 10.5725 11.8861" stroke="url(#paint2_angular_2002_6016)" stroke-width="1.5"/>
<defs>
<radialGradient id="paint0_angular_2002_6016" cx="0" cy="0" r="1" gradientUnits="userSpaceOnUse" gradientTransform="translate(7.75012 4.5) rotate(79.0459) scale(7.89383)">
<stop stop-color="#0D7768" stop-opacity="0.3"/>
<stop offset="0.486581" stop-color="#0D7768" stop-opacity="0"/>
<stop offset="0.812827" stop-color="#0D7768" stop-opacity="0"/>
<stop offset="0.903262" stop-color="#0D7768" stop-opacity="0.3"/>
</radialGradient>
<radialGradient id="paint1_angular_2002_6016" cx="0" cy="0" r="1" gradientUnits="userSpaceOnUse" gradientTransform="translate(9.29338 11.3346) rotate(135) scale(10.1355)">
<stop stop-color="#0D7768" stop-opacity="0.6"/>
<stop offset="0.264212" stop-color="#0D7768" stop-opacity="0.6"/>
<stop offset="1" stop-color="#0D7768"/>
</radialGradient>
<radialGradient id="paint2_angular_2002_6016" cx="0" cy="0" r="1" gradientUnits="userSpaceOnUse" gradientTransform="translate(5.53283 10.3156) rotate(-120.911) scale(5.90375)">
<stop stop-color="#0D7768" stop-opacity="0.6"/>
<stop offset="0.463542" stop-color="#0D7768" stop-opacity="0.3"/>
</radialGradient>
</defs>
</svg>
