<svg width="11" height="16" viewBox="0 0 11 16" fill="none" xmlns="http://www.w3.org/2000/svg">
<path d="M5.50033 12.6668C8.03163 12.6668 10.0837 10.5775 10.0837 8.00016C10.0837 5.42283 8.03163 3.3335 5.50033 3.3335C2.96902 3.3335 0.916992 5.42283 0.916992 8.00016C0.916992 10.5775 2.96902 12.6668 5.50033 12.6668Z" stroke-width="1.5" stroke-linecap="round" stroke-linejoin="round"/>
<path d="M5.5 6V8L6.48214 9" stroke-width="1.5" stroke-linecap="round" stroke-linejoin="round"/>
<path d="M8.45352 11.5665L8.22435 14.1198C8.19485 14.4523 8.04396 14.7614 7.8015 14.986C7.55904 15.2107 7.24264 15.3345 6.91482 15.3332H4.07971C3.75189 15.3345 3.43549 15.2107 3.19303 14.986C2.95057 14.7614 2.79968 14.4523 2.77018 14.1198L2.54102 11.5665M2.54756 4.43318L2.77673 1.87985C2.80613 1.54857 2.95609 1.24044 3.19716 1.01595C3.43824 0.791462 3.75301 0.666828 4.07971 0.666515H6.92792C7.25574 0.665161 7.57214 0.789047 7.8146 1.0137C8.05706 1.23835 8.20794 1.54742 8.23744 1.87985L8.46661 4.43318" stroke-width="1.5" stroke-linecap="round" stroke-linejoin="round"/>
</svg>
