<svg width="120" height="40" viewBox="0 0 120 40" fill="none" xmlns="http://www.w3.org/2000/svg">
<rect x="0.5" y="0.5" width="119" height="39" rx="7.5" fill="black"/>
<rect x="0.5" y="0.5" width="119" height="39" rx="7.5" stroke="#A6A6A6"/>
<path d="M24.77 20.3012C24.7807 19.4666 25.0024 18.6482 25.4145 17.9222C25.8265 17.1963 26.4154 16.5863 27.1265 16.1492C26.6748 15.504 26.0788 14.9731 25.386 14.5985C24.6932 14.224 23.9226 14.0161 23.1354 13.9915C21.4561 13.8152 19.8282 14.9963 18.9725 14.9963C18.1002 14.9963 16.7827 14.009 15.364 14.0382C14.4463 14.0678 13.5519 14.3347 12.7681 14.8127C11.9842 15.2908 11.3375 15.9638 10.891 16.7661C8.95705 20.1145 10.3996 25.0355 12.2522 27.7421C13.1791 29.0675 14.2624 30.5479 15.6799 30.4954C17.0669 30.4379 17.585 29.611 19.2593 29.611C20.918 29.611 21.4041 30.4954 22.8503 30.4621C24.3387 30.4379 25.2764 29.1308 26.1708 27.7929C26.8368 26.8486 27.3492 25.8048 27.6892 24.7004C26.8245 24.3347 26.0866 23.7225 25.5675 22.9402C25.0483 22.1579 24.771 21.2401 24.77 20.3012Z" fill="white"/>
<path d="M22.0383 12.2114C22.8499 11.2372 23.2497 9.98506 23.1529 8.72083C21.913 8.85105 20.7678 9.4436 19.9453 10.3804C19.5431 10.8381 19.2351 11.3705 19.0389 11.9473C18.8427 12.5241 18.762 13.1339 18.8016 13.7418C19.4217 13.7482 20.0352 13.6138 20.5959 13.3487C21.1565 13.0836 21.6497 12.6948 22.0383 12.2114Z" fill="white"/>
<path d="M42.3025 27.1402H37.5691L36.4324 30.4966H34.4275L38.9109 18.0786H40.9939L45.4773 30.4966H43.4382L42.3025 27.1402ZM38.0593 25.5913H41.8113L39.9617 20.1441H39.91L38.0593 25.5913Z" fill="white"/>
<path d="M55.1599 25.9702C55.1599 28.7837 53.6541 30.5913 51.3816 30.5913C50.8059 30.6214 50.2334 30.4888 49.7296 30.2087C49.2259 29.9286 48.8111 29.5122 48.533 29.0073H48.49V33.4917H46.6316V21.4429H48.4304V22.9487H48.4646C48.7556 22.4463 49.1773 22.0321 49.6849 21.7502C50.1925 21.4684 50.7671 21.3294 51.3474 21.3482C53.6452 21.3482 55.1599 23.1646 55.1599 25.9702ZM53.2498 25.9702C53.2498 24.1372 52.3025 22.9321 50.8572 22.9321C49.4373 22.9321 48.4822 24.1626 48.4822 25.9702C48.4822 27.7945 49.4373 29.0161 50.8572 29.0161C52.3025 29.0161 53.2498 27.8198 53.2498 25.9702Z" fill="white"/>
<path d="M65.1248 25.9702C65.1248 28.7837 63.6189 30.5913 61.3464 30.5913C60.7708 30.6214 60.1983 30.4888 59.6945 30.2087C59.1907 29.9286 58.776 29.5122 58.4978 29.0073H58.4548V33.4917H56.5964V21.4429H58.3952V22.9487H58.4294C58.7204 22.4463 59.1421 22.0321 59.6497 21.7502C60.1574 21.4684 60.7319 21.3294 61.3122 21.3482C63.6101 21.3482 65.1248 23.1646 65.1248 25.9702ZM63.2146 25.9702C63.2146 24.1372 62.2673 22.9321 60.822 22.9321C59.4021 22.9321 58.447 24.1626 58.447 25.9702C58.447 27.7945 59.4021 29.0161 60.822 29.0161C62.2673 29.0161 63.2146 27.8198 63.2146 25.9702Z" fill="white"/>
<path d="M71.7107 27.0366C71.8484 28.2681 73.0447 29.0766 74.6795 29.0766C76.2459 29.0766 77.3728 28.268 77.3728 27.1577C77.3728 26.1938 76.6931 25.6167 75.0837 25.2212L73.4744 24.8335C71.1941 24.2827 70.1355 23.2163 70.1355 21.4858C70.1355 19.3432 72.0027 17.8715 74.6541 17.8715C77.2781 17.8715 79.0769 19.3432 79.1375 21.4858H77.2615C77.1492 20.2465 76.1247 19.4985 74.6277 19.4985C73.1306 19.4985 72.1062 20.2553 72.1062 21.3569C72.1062 22.2348 72.7605 22.7514 74.3611 23.1469L75.7292 23.4828C78.2771 24.0854 79.3357 25.1088 79.3357 26.9252C79.3357 29.2485 77.4851 30.7035 74.5417 30.7035C71.7878 30.7035 69.9284 29.2826 69.8083 27.0365L71.7107 27.0366Z" fill="white"/>
<path d="M83.3464 19.3003V21.4429H85.0681V22.9146H83.3464V27.9058C83.3464 28.6812 83.6912 29.0425 84.448 29.0425C84.6524 29.0389 84.8564 29.0246 85.0593 28.9995V30.4624C84.7191 30.526 84.3732 30.5548 84.0271 30.5483C82.1941 30.5483 81.4792 29.8598 81.4792 28.104V22.9146H80.1628V21.4429H81.4792V19.3003H83.3464Z" fill="white"/>
<path d="M86.0652 25.9702C86.0652 23.1216 87.743 21.3316 90.3592 21.3316C92.9842 21.3316 94.6541 23.1216 94.6541 25.9702C94.6541 28.8267 92.993 30.6089 90.3592 30.6089C87.7263 30.6089 86.0652 28.8267 86.0652 25.9702ZM92.7605 25.9702C92.7605 24.0161 91.865 22.8628 90.3592 22.8628C88.8533 22.8628 87.9588 24.0249 87.9588 25.9702C87.9588 27.9321 88.8533 29.0767 90.3592 29.0767C91.865 29.0767 92.7605 27.9321 92.7605 25.9702Z" fill="white"/>
<path d="M96.1863 21.4429H97.9587V22.9839H98.0017C98.1217 22.5026 98.4036 22.0773 98.8002 21.7794C99.1968 21.4815 99.6838 21.3292 100.179 21.3481C100.394 21.3474 100.607 21.3707 100.816 21.4175V23.1558C100.546 23.0731 100.264 23.0352 99.9812 23.0435C99.7112 23.0325 99.4421 23.0801 99.1922 23.183C98.9424 23.2859 98.7178 23.4416 98.5338 23.6395C98.3498 23.8374 98.2108 24.0728 98.1264 24.3294C98.042 24.5861 98.0141 24.858 98.0447 25.1265V30.4966H96.1863L96.1863 21.4429Z" fill="white"/>
<path d="M109.385 27.8374C109.135 29.481 107.534 30.6089 105.486 30.6089C102.852 30.6089 101.218 28.8442 101.218 26.0132C101.218 23.1733 102.861 21.3316 105.408 21.3316C107.913 21.3316 109.488 23.0522 109.488 25.7974V26.4341H103.094V26.5464C103.064 26.8796 103.106 27.2153 103.216 27.5311C103.326 27.8469 103.502 28.1357 103.733 28.3783C103.963 28.6208 104.242 28.8116 104.552 28.9379C104.862 29.0642 105.195 29.1231 105.529 29.1108C105.968 29.152 106.409 29.0503 106.786 28.8208C107.162 28.5914 107.455 28.2465 107.62 27.8374L109.385 27.8374ZM103.102 25.1353H107.629C107.645 24.8357 107.6 24.5359 107.495 24.2546C107.391 23.9734 107.229 23.7169 107.02 23.5011C106.812 23.2854 106.561 23.115 106.284 23.0008C106.006 22.8866 105.708 22.831 105.408 22.8374C105.105 22.8356 104.805 22.8937 104.525 23.0085C104.245 23.1232 103.991 23.2923 103.776 23.5059C103.562 23.7196 103.392 23.9735 103.276 24.2532C103.161 24.5328 103.102 24.8326 103.102 25.1353Z" fill="white"/>
<path d="M37.8264 8.7315C38.216 8.70354 38.607 8.7624 38.9711 8.90383C39.3352 9.04527 39.6634 9.26575 39.932 9.54937C40.2006 9.833 40.4029 10.1727 40.5243 10.544C40.6457 10.9152 40.6832 11.3088 40.634 11.6963C40.634 13.6026 39.6038 14.6983 37.8264 14.6983H35.6711V8.7315H37.8264ZM36.5979 13.8545H37.7229C38.0013 13.8711 38.2799 13.8255 38.5385 13.7209C38.797 13.6163 39.029 13.4553 39.2174 13.2498C39.4059 13.0442 39.5462 12.7992 39.6281 12.5326C39.7099 12.2659 39.7313 11.9844 39.6907 11.7085C39.7284 11.4337 39.7048 11.1539 39.6217 10.8892C39.5386 10.6246 39.398 10.3816 39.2099 10.1776C39.0218 9.9737 38.791 9.81389 38.5339 9.70966C38.2768 9.60542 37.9999 9.55934 37.7229 9.57471H36.5979V13.8545Z" fill="white"/>
<path d="M41.6809 12.4448C41.6526 12.1489 41.6865 11.8504 41.7803 11.5683C41.8741 11.2862 42.0259 11.0269 42.2258 10.8069C42.4258 10.5869 42.6695 10.4111 42.9413 10.2909C43.2132 10.1706 43.5072 10.1085 43.8044 10.1085C44.1017 10.1085 44.3957 10.1706 44.6675 10.2909C44.9394 10.4111 45.1831 10.5869 45.3831 10.8069C45.583 11.0269 45.7348 11.2862 45.8286 11.5683C45.9224 11.8504 45.9563 12.1489 45.928 12.4448C45.9568 12.7411 45.9234 13.04 45.8298 13.3226C45.7362 13.6051 45.5845 13.8649 45.3845 14.0853C45.1845 14.3057 44.9406 14.4819 44.6685 14.6024C44.3964 14.7229 44.1021 14.7852 43.8044 14.7852C43.5068 14.7852 43.2125 14.7229 42.9404 14.6024C42.6682 14.4819 42.4243 14.3057 42.2243 14.0853C42.0244 13.8649 41.8727 13.6051 41.7791 13.3226C41.6855 13.04 41.6521 12.7411 41.6809 12.4448ZM45.0139 12.4448C45.0139 11.4688 44.5754 10.898 43.8059 10.898C43.0334 10.898 42.5989 11.4688 42.5989 12.4448C42.5989 13.4287 43.0335 13.9951 43.8059 13.9951C44.5754 13.9951 45.0139 13.4248 45.0139 12.4448Z" fill="white"/>
<path d="M51.5735 14.6982H50.6516L49.721 11.3818H49.6506L48.7239 14.6982H47.8108L46.5696 10.1953H47.471L48.2776 13.6313H48.344L49.2698 10.1953H50.1223L51.0481 13.6313H51.1184L51.9211 10.1953H52.8098L51.5735 14.6982Z" fill="white"/>
<path d="M53.8538 10.1953H54.7092V10.9106H54.7756C54.8883 10.6537 55.0783 10.4384 55.3192 10.2946C55.56 10.1507 55.8398 10.0857 56.1194 10.1084C56.3385 10.0919 56.5585 10.125 56.7631 10.2051C56.9677 10.2852 57.1516 10.4103 57.3013 10.5711C57.451 10.7319 57.5626 10.9244 57.6278 11.1342C57.693 11.344 57.7101 11.5658 57.678 11.7832V14.6982H56.7893V12.0064C56.7893 11.2827 56.4749 10.9229 55.8176 10.9229C55.6689 10.9159 55.5204 10.9412 55.3823 10.9971C55.2443 11.0529 55.1199 11.1379 55.0178 11.2463C54.9157 11.3547 54.8382 11.4839 54.7906 11.625C54.7431 11.7661 54.7267 11.9159 54.7424 12.064V14.6982H53.8538L53.8538 10.1953Z" fill="white"/>
<path d="M59.094 8.4375H59.9827V14.6982H59.094V8.4375Z" fill="white"/>
<path d="M61.218 12.4448C61.1897 12.1489 61.2236 11.8503 61.3175 11.5682C61.4113 11.2862 61.5631 11.0268 61.7631 10.8068C61.963 10.5868 62.2068 10.4111 62.4786 10.2908C62.7505 10.1705 63.0445 10.1084 63.3418 10.1084C63.6391 10.1084 63.9331 10.1705 64.205 10.2908C64.4768 10.4111 64.7206 10.5868 64.9205 10.8068C65.1205 11.0268 65.2723 11.2862 65.3661 11.5682C65.46 11.8503 65.4939 12.1489 65.4656 12.4448C65.4944 12.7411 65.4609 13.0401 65.3673 13.3226C65.2737 13.6051 65.122 13.8649 64.922 14.0853C64.7219 14.3057 64.478 14.4819 64.2059 14.6024C63.9338 14.7229 63.6394 14.7852 63.3418 14.7852C63.0442 14.7852 62.7498 14.7229 62.4777 14.6024C62.2056 14.4819 61.9616 14.3057 61.7616 14.0853C61.5616 13.8649 61.4099 13.6051 61.3163 13.3226C61.2227 13.0401 61.1892 12.7411 61.218 12.4448ZM64.551 12.4448C64.551 11.4688 64.1125 10.898 63.343 10.898C62.5706 10.898 62.136 11.4688 62.136 12.4448C62.136 13.4287 62.5706 13.9951 63.343 13.9951C64.1125 13.9951 64.551 13.4248 64.551 12.4448Z" fill="white"/>
<path d="M66.4011 13.4248C66.4011 12.6143 67.0046 12.147 68.0759 12.0806L69.2957 12.0103V11.6216C69.2957 11.146 68.9812 10.8775 68.3738 10.8775C67.8777 10.8775 67.5339 11.0596 67.4353 11.3779H66.575C66.6658 10.6045 67.3933 10.1084 68.4148 10.1084C69.5437 10.1084 70.1804 10.6704 70.1804 11.6216V14.6983H69.325V14.0654H69.2546C69.1119 14.2924 68.9115 14.4775 68.6739 14.6017C68.4363 14.7259 68.1699 14.7848 67.9021 14.7724C67.7131 14.7921 67.522 14.7719 67.3413 14.7132C67.1605 14.6545 66.994 14.5586 66.8526 14.4317C66.7112 14.3047 66.598 14.1495 66.5202 13.9761C66.4424 13.8027 66.4019 13.6149 66.4011 13.4248ZM69.2957 13.04V12.6636L68.196 12.7339C67.5759 12.7754 67.2947 12.9863 67.2947 13.3833C67.2947 13.7886 67.6462 14.0244 68.1297 14.0244C68.2713 14.0388 68.4144 14.0245 68.5504 13.9824C68.6864 13.9403 68.8126 13.8713 68.9213 13.7794C69.0301 13.6876 69.1193 13.5748 69.1836 13.4478C69.2479 13.3207 69.286 13.1821 69.2957 13.04Z" fill="white"/>
<path d="M71.3484 12.4448C71.3484 11.022 72.0798 10.1206 73.2175 10.1206C73.4989 10.1077 73.7782 10.1751 74.0228 10.315C74.2673 10.4548 74.4669 10.6615 74.5984 10.9106H74.6648V8.4375H75.5535V14.6982H74.7019V13.9868H74.6316C74.49 14.2343 74.2834 14.4383 74.0341 14.5768C73.7849 14.7153 73.5025 14.783 73.2175 14.7724C72.072 14.7725 71.3484 13.8711 71.3484 12.4448ZM72.2664 12.4448C72.2664 13.3999 72.7166 13.9746 73.4695 13.9746C74.2185 13.9746 74.6814 13.3916 74.6814 12.4487C74.6814 11.5103 74.2137 10.919 73.4695 10.919C72.7214 10.919 72.2664 11.4976 72.2664 12.4448Z" fill="white"/>
<path d="M79.2302 12.4448C79.2019 12.1489 79.2358 11.8504 79.3296 11.5683C79.4234 11.2862 79.5752 11.0269 79.7751 10.8069C79.9751 10.5869 80.2188 10.4111 80.4906 10.2909C80.7625 10.1706 81.0565 10.1085 81.3538 10.1085C81.651 10.1085 81.945 10.1706 82.2169 10.2909C82.4887 10.4111 82.7324 10.5869 82.9324 10.8069C83.1323 11.0269 83.2841 11.2862 83.3779 11.5683C83.4717 11.8504 83.5056 12.1489 83.4773 12.4448C83.5061 12.7411 83.4727 13.04 83.3791 13.3226C83.2855 13.6051 83.1338 13.8649 82.9338 14.0853C82.7339 14.3057 82.49 14.4819 82.2178 14.6024C81.9457 14.7229 81.6514 14.7852 81.3538 14.7852C81.0561 14.7852 80.7618 14.7229 80.4897 14.6024C80.2176 14.4819 79.9737 14.3057 79.7737 14.0853C79.5737 13.8649 79.422 13.6051 79.3284 13.3226C79.2348 13.04 79.2014 12.7411 79.2302 12.4448ZM82.5632 12.4448C82.5632 11.4688 82.1247 10.898 81.3552 10.898C80.5828 10.898 80.1482 11.4688 80.1482 12.4448C80.1482 13.4287 80.5828 13.9951 81.3552 13.9951C82.1248 13.9951 82.5632 13.4248 82.5632 12.4448Z" fill="white"/>
<path d="M84.6697 10.1953H85.5251V10.9106H85.5916C85.7042 10.6537 85.8942 10.4384 86.1351 10.2946C86.376 10.1507 86.6557 10.0857 86.9353 10.1084C87.1544 10.0919 87.3744 10.125 87.579 10.2051C87.7836 10.2852 87.9676 10.4103 88.1172 10.5711C88.2669 10.7319 88.3785 10.9244 88.4437 11.1342C88.5089 11.344 88.5261 11.5658 88.4939 11.7832V14.6982H87.6052V12.0064C87.6052 11.2827 87.2908 10.9229 86.6336 10.9229C86.4848 10.9159 86.3363 10.9412 86.1982 10.9971C86.0602 11.0529 85.9358 11.1379 85.8337 11.2463C85.7316 11.3547 85.6541 11.4839 85.6066 11.625C85.559 11.7661 85.5426 11.9159 85.5583 12.064V14.6982H84.6697V10.1953Z" fill="white"/>
<path d="M93.5154 9.07423V10.2158H94.491V10.9644H93.5154V13.2798C93.5154 13.7515 93.7097 13.958 94.1521 13.958C94.2654 13.9577 94.3785 13.9508 94.491 13.9375V14.6777C94.3314 14.7063 94.1697 14.7215 94.0076 14.7231C93.0193 14.7231 92.6257 14.3755 92.6257 13.5073V10.9643H91.9109V10.2158H92.6257V9.07423H93.5154Z" fill="white"/>
<path d="M95.7048 8.4375H96.5857V10.919H96.656C96.7741 10.6596 96.9694 10.443 97.2151 10.2987C97.4608 10.1543 97.745 10.0893 98.029 10.1123C98.247 10.1004 98.4649 10.1368 98.6671 10.2189C98.8694 10.3009 99.0511 10.4266 99.1992 10.5869C99.3473 10.7473 99.4583 10.9383 99.524 11.1465C99.5898 11.3546 99.6088 11.5747 99.5798 11.791V14.6982H98.6902V12.0103C98.6902 11.291 98.3552 10.9268 97.7273 10.9268C97.5746 10.9142 97.421 10.9352 97.2772 10.9883C97.1334 11.0413 97.003 11.1252 96.895 11.2339C96.787 11.3426 96.704 11.4737 96.652 11.6178C96.5999 11.7619 96.58 11.9157 96.5936 12.0683V14.6982H95.7049L95.7048 8.4375Z" fill="white"/>
<path d="M104.761 13.4824C104.641 13.894 104.379 14.25 104.022 14.4881C103.666 14.7263 103.237 14.8314 102.81 14.7852C102.514 14.793 102.219 14.7362 101.946 14.6186C101.674 14.5011 101.43 14.3257 101.232 14.1046C101.034 13.8834 100.887 13.6219 100.8 13.338C100.714 13.0542 100.69 12.7549 100.73 12.4609C100.691 12.1661 100.715 11.8661 100.802 11.5815C100.888 11.2968 101.035 11.034 101.232 10.8109C101.428 10.5879 101.671 10.4097 101.943 10.2885C102.214 10.1673 102.509 10.1059 102.806 10.1084C104.059 10.1084 104.815 10.9644 104.815 12.3784V12.6885H101.635V12.7383C101.622 12.9035 101.642 13.0699 101.696 13.2266C101.751 13.3834 101.837 13.5271 101.95 13.6485C102.063 13.77 102.2 13.8665 102.352 13.9319C102.505 13.9973 102.669 14.0301 102.835 14.0283C103.047 14.0538 103.263 14.0155 103.453 13.9183C103.644 13.8211 103.802 13.6694 103.906 13.4824L104.761 13.4824ZM101.635 12.0313H103.91C103.921 11.8801 103.901 11.7283 103.85 11.5856C103.799 11.4429 103.718 11.3124 103.614 11.2026C103.51 11.0927 103.383 11.0059 103.243 10.9477C103.104 10.8895 102.953 10.8613 102.801 10.8648C102.648 10.8628 102.495 10.8917 102.353 10.9496C102.211 11.0076 102.081 11.0934 101.973 11.2021C101.864 11.3109 101.778 11.4402 101.72 11.5826C101.662 11.725 101.633 11.8776 101.635 12.0313Z" fill="white"/>
</svg>
