<svg width="397" height="273" viewBox="0 0 397 273" fill="none" xmlns="http://www.w3.org/2000/svg">
<rect x="172.695" y="39.3047" width="153.193" height="153.193" rx="76.5963" transform="rotate(11.1766 172.695 39.3047)" fill="url(#paint0_linear_83_4946)"/>
<path fill-rule="evenodd" clip-rule="evenodd" d="M194.655 237.097C186.578 239.309 179.096 244.422 174.215 251.227C162.711 267.268 142.524 276.011 121.896 271.935C111.855 269.952 103.066 265.199 96.1661 258.627C89.2556 252.046 79.5939 248.101 70.0526 247.922C67.0282 247.865 63.9668 247.542 60.8956 246.935C32.745 241.373 14.4332 214.044 19.9953 185.893C25.5573 157.743 52.8869 139.431 81.0375 144.993C93.8714 147.529 104.66 154.589 112.074 164.188C115.089 168.091 120.022 170.145 124.907 169.475C129.223 168.884 133.119 166.219 135.178 162.38C145.689 142.789 168.09 131.459 191.038 135.993C209.238 139.589 223.326 152.284 229.508 168.417C232.617 176.532 239.117 183.425 245.509 189.311C252.51 195.758 256.089 205.587 254.109 215.608C251.083 230.925 236.213 240.888 220.896 237.862C220.814 237.846 220.733 237.83 220.653 237.813C212.195 236.066 202.984 234.816 194.655 237.097Z" fill="#29A590"/>
<path fill-rule="evenodd" clip-rule="evenodd" d="M150.332 92.3604C141.732 112.57 122.584 132.038 106.561 147.06C97.9114 155.169 86.4552 160.376 73.6869 161.026C45.0291 162.486 20.6141 140.438 19.1544 111.78C17.6947 83.1222 39.7431 58.7072 68.4009 57.2475C76.9611 56.8115 85.3812 52.9705 92.1297 47.6861C100.505 41.1282 111.579 38.1171 122.833 40.3407C143.352 44.3949 156.699 64.3156 152.645 84.8348C152.125 87.4687 151.343 89.9845 150.332 92.3604Z" fill="#2BB3FF"/>
<g filter="url(#filter0_b_83_4946)">
<path d="M71.2576 81.7333C33.874 81.7333 40.3172 183.676 99.6185 200.448C158.92 217.22 159.777 213.354 226.383 177.221C292.989 141.088 261.619 111.412 261.619 111.412C274.512 83.4509 266.072 64.5176 234.549 64.5254C240.566 52.4791 239.508 44.5881 226.383 34.4196C212.204 -12.0395 146.888 -9.46448 132.706 30.1183C110.363 32.269 98.1535 45.7137 99.6185 62.3777C84.5799 57.6463 71.2576 67.9693 71.2576 81.7333Z" fill="url(#paint1_linear_83_4946)" fill-opacity="0.7"/>
<path d="M71.2576 82.2333H71.7576V81.7333C71.7576 68.323 84.7366 58.2198 99.4684 62.8546L100.182 63.0792L100.117 62.3339C99.3965 54.1437 102.034 46.7627 107.589 41.1575C113.151 35.5459 121.67 31.6829 132.754 30.616L133.07 30.5856L133.177 30.287C140.18 10.7409 159.827 0.289193 179.54 0.503218C199.235 0.717049 218.889 11.5791 225.905 34.5655L225.951 34.7175L226.077 34.8148C232.607 39.8739 236.045 44.3008 237.158 48.8863C238.27 53.4649 237.091 58.3176 234.101 64.302L233.74 65.0256L234.549 65.0254C250.232 65.0216 259.989 69.7274 264.3 77.7178C268.626 85.7359 267.589 97.2709 261.165 111.203L261.015 111.528L261.275 111.775L261.276 111.775L261.276 111.775L261.279 111.778L261.293 111.792C261.307 111.805 261.327 111.825 261.354 111.852C261.408 111.906 261.488 111.988 261.592 112.097C261.798 112.316 262.095 112.644 262.451 113.076C263.164 113.94 264.112 115.216 265.045 116.86C266.913 120.149 268.716 124.895 268.479 130.746C268.006 142.419 259.389 158.747 226.145 176.781C221.834 179.12 217.799 181.323 214.008 183.393C203.145 189.324 194.274 194.168 186.592 198.005C176.232 203.18 168.072 206.505 160.157 208.185C144.344 211.542 129.422 208.357 99.7545 199.967C70.3706 191.656 54.0105 162.209 49.6751 134.723C47.509 120.99 48.3592 107.816 52.046 98.1013C55.7313 88.3906 62.198 82.2333 71.2576 82.2333Z" stroke="white" stroke-opacity="0.2"/>
</g>
<g filter="url(#filter1_b_83_4946)">
<path d="M330.428 182.531C346.597 186.863 355.618 142.052 331.911 127.929C308.205 113.807 307.387 115.379 274.393 123.278C241.4 131.177 251.531 147.64 251.531 147.64C242.716 158.232 244.173 167.394 257.809 171.044C253.811 175.554 253.355 179.088 257.854 185.004C258.606 206.729 287.154 213.186 297.873 197.72C307.786 199.38 314.624 194.983 315.92 187.61C321.876 191.398 328.834 188.48 330.428 182.531Z" fill="url(#paint2_linear_83_4946)" fill-opacity="0.8"/>
<path d="M330.558 182.048L330.075 181.918L329.945 182.401C328.443 188.009 321.874 190.804 316.188 187.188L315.557 186.787L315.427 187.524C314.804 191.07 312.855 193.883 309.876 195.62C306.888 197.362 302.825 198.042 297.955 197.227L297.642 197.174L297.462 197.435C292.251 204.954 282.676 207.18 274.26 204.827C265.862 202.479 258.721 195.595 258.354 184.987L258.348 184.828L258.252 184.701C256.027 181.776 255.098 179.526 255.145 177.508C255.192 175.498 256.213 173.598 258.183 171.376L258.72 170.771L257.938 170.561C251.196 168.757 247.642 165.639 246.738 161.83C245.826 157.991 247.542 153.215 251.915 147.96L252.145 147.684L251.957 147.379L251.957 147.379L251.957 147.378L251.957 147.378L251.953 147.372L251.936 147.343C251.92 147.315 251.896 147.273 251.865 147.216C251.804 147.102 251.716 146.932 251.615 146.71C251.412 146.266 251.156 145.619 250.947 144.819C250.53 143.216 250.306 141.01 251.067 138.57C252.58 133.718 258.078 127.698 274.51 123.764C276.648 123.252 278.65 122.767 280.53 122.312C285.913 121.007 290.304 119.943 294.066 119.176C299.138 118.142 303.026 117.656 306.609 117.845C313.759 118.222 319.787 121.289 331.655 128.359C343.271 135.278 346.929 149.768 345.626 162.098C344.976 168.253 343.093 173.799 340.409 177.52C337.728 181.239 334.324 183.057 330.558 182.048Z" stroke="white" stroke-opacity="0.2"/>
</g>
<g filter="url(#filter2_b_83_4946)">
<path d="M173 212.805C123.559 253.029 68.1165 253.569 38.0794 199.584C-2.90989 195.084 -24.9098 117.084 46.5794 103.084C56.7334 90.4936 63.255 84.1477 84.5794 81.5837C83.0898 64.0859 95.5898 52.5859 120.579 57.0837C138.09 43.5853 173.297 39.2763 190.579 86.5837C226.225 92.3974 239.264 101.197 235.579 137.584C256.59 130.584 275.09 133.084 282.579 170.084C292.006 153.638 299.512 155.45 312.579 157.084C345.09 143.084 352.784 161.39 362.079 182.084C385.59 172.084 404.159 199.863 392.579 221.584C381 243.305 362.079 248.805 333 230.305C318 250.805 294.5 244.305 284 232.611C261.277 248.951 229.346 255.47 194 224.305C185 226.805 176.5 222.805 173 212.805Z" fill="url(#paint3_linear_83_4946)" fill-opacity="0.8"/>
<path d="M173.472 212.64L173.237 211.968L172.684 212.417C148.026 232.478 121.926 242.598 98.2964 241.024C74.6931 239.451 53.4642 226.206 38.5163 199.341L38.3907 199.115L38.1339 199.087C17.9448 196.87 2.32311 176.504 0.648458 154.858C-0.18696 144.059 2.45807 132.984 9.72073 123.744C16.9824 114.505 28.8955 107.056 46.6755 103.574L46.8542 103.539L46.9686 103.398C52.0446 97.1038 56.1683 92.4299 61.6556 88.9978C67.1362 85.57 74.0182 83.3571 84.6391 82.0801L85.1185 82.0225L85.0776 81.5413C84.344 72.9239 87.0546 65.8611 92.9477 61.4869C98.8584 57.0995 108.072 55.3405 120.491 57.5758L120.709 57.6151L120.885 57.4797C129.546 50.8027 142.574 46.4111 155.549 49.5178C168.495 52.6176 181.51 63.2138 190.11 86.7553L190.21 87.0301L190.499 87.0772C208.33 89.9854 220.342 93.6237 227.47 100.967C234.565 108.278 236.92 119.38 235.082 137.533L235.004 138.302L235.737 138.058C246.207 134.57 255.914 133.5 263.914 137.775C271.907 142.046 278.356 151.74 282.089 170.183L282.353 171.484L283.013 170.332C287.698 162.16 291.846 158.629 296.357 157.283C300.507 156.045 305.029 156.624 310.77 157.358C311.34 157.431 311.922 157.505 312.517 157.58L312.652 157.597L312.777 157.543C328.95 150.578 338.787 151.713 345.733 156.972C349.232 159.622 352.042 163.349 354.562 167.728C356.95 171.878 359.062 176.583 361.257 181.472C361.379 181.744 361.501 182.016 361.623 182.289L361.824 182.736L362.275 182.544C373.788 177.647 384.069 181.985 390.084 190.233C396.113 198.499 397.831 210.669 392.138 221.348C386.392 232.127 378.875 238.794 369.263 240.535C359.629 242.28 347.761 239.103 333.268 229.883L332.873 229.631L332.596 230.009C325.198 240.12 315.737 243.546 306.841 243.031C297.918 242.515 289.539 238.031 284.372 232.277L284.072 231.943L283.708 232.205C272.409 240.33 258.848 245.994 243.741 245.772C228.64 245.551 211.932 239.449 194.331 223.93L194.127 223.75L193.866 223.823C189.473 225.043 185.231 224.671 181.67 222.8C178.11 220.929 175.186 217.537 173.472 212.64Z" stroke="white" stroke-opacity="0.2"/>
</g>
<defs>
<filter id="filter0_b_83_4946" x="-32" y="-80" width="381" height="370" filterUnits="userSpaceOnUse" color-interpolation-filters="sRGB">
<feFlood flood-opacity="0" result="BackgroundImageFix"/>
<feGaussianBlur in="BackgroundImageFix" stdDeviation="40"/>
<feComposite in2="SourceAlpha" operator="in" result="effect1_backgroundBlur_83_4946"/>
<feBlend mode="normal" in="SourceGraphic" in2="effect1_backgroundBlur_83_4946" result="shape"/>
</filter>
<filter id="filter1_b_83_4946" x="166" y="37.3047" width="260.376" height="248.917" filterUnits="userSpaceOnUse" color-interpolation-filters="sRGB">
<feFlood flood-opacity="0" result="BackgroundImageFix"/>
<feGaussianBlur in="BackgroundImageFix" stdDeviation="40"/>
<feComposite in2="SourceAlpha" operator="in" result="effect1_backgroundBlur_83_4946"/>
<feBlend mode="normal" in="SourceGraphic" in2="effect1_backgroundBlur_83_4946" result="shape"/>
</filter>
<filter id="filter2_b_83_4946" x="-80" y="-32" width="556.119" height="358.279" filterUnits="userSpaceOnUse" color-interpolation-filters="sRGB">
<feFlood flood-opacity="0" result="BackgroundImageFix"/>
<feGaussianBlur in="BackgroundImageFix" stdDeviation="40"/>
<feComposite in2="SourceAlpha" operator="in" result="effect1_backgroundBlur_83_4946"/>
<feBlend mode="normal" in="SourceGraphic" in2="effect1_backgroundBlur_83_4946" result="shape"/>
</filter>
<linearGradient id="paint0_linear_83_4946" x1="249.292" y1="39.3047" x2="249.292" y2="192.497" gradientUnits="userSpaceOnUse">
<stop stop-color="#F18A5E"/>
<stop offset="0.0001" stop-color="#FF753A"/>
</linearGradient>
<linearGradient id="paint1_linear_83_4946" x1="143.827" y1="0" x2="143.827" y2="210" gradientUnits="userSpaceOnUse">
<stop stop-color="white"/>
<stop offset="1" stop-color="#F5F5F5"/>
</linearGradient>
<linearGradient id="paint2_linear_83_4946" x1="289.575" y1="209.449" x2="313.897" y2="118.676" gradientUnits="userSpaceOnUse">
<stop stop-color="white"/>
<stop offset="1" stop-color="white"/>
</linearGradient>
<linearGradient id="paint3_linear_83_4946" x1="171.05" y1="48" x2="171.05" y2="243.265" gradientUnits="userSpaceOnUse">
<stop stop-color="#FCFCFC"/>
<stop offset="1" stop-color="#F5F5F5"/>
</linearGradient>
</defs>
</svg>
