<svg width="1320" height="144" viewBox="0 0 1320 144" fill="none" xmlns="http://www.w3.org/2000/svg">
<path opacity="0.3" d="M-56 187.5L-169.309 213.913C-189.626 218.649 -204 236.76 -204 257.621C-204 282.407 -183.907 302.5 -159.121 302.5H1430.18C1481.45 302.5 1523 260.945 1523 209.685C1523 162.344 1487.37 122.589 1440.31 117.424L941.662 62.6892C889.592 56.9738 836.906 63.3668 787.714 81.3696L621.254 142.289C574.972 159.227 525.56 165.901 476.442 161.848L240.604 142.387C209.352 139.808 177.893 141.565 147.122 147.608L-56 187.5Z" fill="#1E2F0A"/>
<mask id="mask0_4737_16242" style="mask-type:alpha" maskUnits="userSpaceOnUse" x="-1503" y="-754" width="2651" height="1107">
<path d="M-1003 352.237C-1279.14 352.237 -1503 128.38 -1503 -147.763V-699.71C-1503 -726.006 -1483.84 -748.381 -1457.85 -752.423C-1439.56 -755.268 -1421.11 -748.429 -1409.09 -734.354L-1399.95 -723.652C-1387.13 -708.644 -1369.13 -699.011 -1349.54 -696.667L-1312.67 -692.257C-1282.83 -688.687 -1254.42 -677.432 -1230.23 -659.592L-1155.9 -604.763C-1128.98 -584.902 -1092.8 -583.017 -1063.96 -599.971C-1031.26 -619.188 -989.729 -613.98 -962.794 -587.285L-604.11 -231.808C-572.471 -200.452 -528.872 -184.221 -484.431 -187.255C-448.49 -189.708 -412.817 -179.568 -383.541 -158.575L-310.64 -106.302C-262.147 -71.5316 -206.564 -47.9185 -147.872 -37.1556L-127.032 -33.334C-84.2147 -25.4821 -42.6824 -11.7714 -3.60571 7.41174C30.3429 24.0774 66.1633 36.6218 103.092 44.7775L227.934 72.3488C268.685 81.3486 310.401 85.2111 352.111 83.8464L593.115 75.961C618.628 75.1263 643.844 81.6353 665.765 94.7143C684.831 106.09 706.436 112.522 728.619 113.428L796.323 116.192C851.245 118.434 905.117 131.965 954.58 155.942L1111.98 232.241C1118.87 235.578 1125.09 240.139 1130.34 245.7C1168.4 285.977 1139.84 352.237 1084.43 352.237H-1003Z" fill="url(#paint0_linear_4737_16242)"/>
<path d="M288.469 148.313L161.995 193L-311 3V-33L-23.7935 0.991749C60.1106 10.922 140.13 41.9521 208.793 91.1848L288.469 148.313Z" fill="url(#paint1_linear_4737_16242)"/>
<path d="M1054.77 227.363L888.746 345.527L46.0039 224.5L383.384 116.163C421.987 103.767 461.955 96.1125 502.407 93.3679L565.942 89.0573C606.42 86.311 646.917 94.1225 683.469 111.727C710.654 124.82 740.439 131.619 770.612 131.619H876.868L1054.77 227.363Z" fill="url(#paint2_linear_4737_16242)"/>
</mask>
<g mask="url(#mask0_4737_16242)">
<path d="M-1003 352.237C-1279.14 352.237 -1503 128.38 -1503 -147.763V-699.71C-1503 -726.006 -1483.84 -748.381 -1457.85 -752.423C-1439.56 -755.268 -1421.11 -748.429 -1409.09 -734.354L-1399.95 -723.652C-1387.13 -708.644 -1369.13 -699.011 -1349.54 -696.667L-1312.67 -692.257C-1282.83 -688.687 -1254.42 -677.432 -1230.23 -659.592L-1155.9 -604.763C-1128.98 -584.902 -1092.8 -583.017 -1063.96 -599.971C-1031.26 -619.188 -989.729 -613.98 -962.794 -587.285L-604.11 -231.808C-572.471 -200.452 -528.872 -184.221 -484.431 -187.255C-448.49 -189.708 -412.817 -179.568 -383.541 -158.575L-310.64 -106.302C-262.147 -71.5316 -206.564 -47.9185 -147.872 -37.1556L-127.032 -33.334C-84.2147 -25.4821 -42.6824 -11.7714 -3.60571 7.41174C30.3429 24.0774 66.1633 36.6218 103.092 44.7775L227.934 72.3488C268.685 81.3486 310.401 85.2111 352.111 83.8464L593.115 75.961C618.628 75.1263 643.844 81.6353 665.765 94.7143C684.831 106.09 706.436 112.522 728.619 113.428L796.323 116.192C851.245 118.434 905.117 131.965 954.58 155.942L1111.98 232.241C1118.87 235.578 1125.09 240.139 1130.34 245.7C1168.4 285.977 1139.84 352.237 1084.43 352.237H-1003Z" fill="url(#paint3_linear_4737_16242)"/>
<path d="M288.469 148.313L161.995 193L-311 3V-33L-23.7935 0.991749C60.1106 10.922 140.13 41.9521 208.793 91.1848L288.469 148.313Z" fill="url(#paint4_linear_4737_16242)"/>
<path d="M1054.77 227.363L888.746 345.527L46.0039 224.5L383.384 116.163C421.987 103.767 461.955 96.1125 502.407 93.3679L565.942 89.0573C606.42 86.311 646.917 94.1225 683.469 111.727C710.654 124.82 740.439 131.619 770.612 131.619H876.868L1054.77 227.363Z" fill="url(#paint5_linear_4737_16242)"/>
<g style="mix-blend-mode:multiply">
<rect width="1379" height="397" transform="matrix(-1 0 0 1 1096 -196)" fill="url(#paint6_linear_4737_16242)"/>
</g>
</g>
<defs>
<linearGradient id="paint0_linear_4737_16242" x1="110.461" y1="-1557.44" x2="-388.022" y2="490.822" gradientUnits="userSpaceOnUse">
<stop stop-color="#E5E5E5"/>
<stop offset="0.15" stop-color="#DCDCDC"/>
<stop offset="0.39" stop-color="#D0D0D0"/>
<stop offset="0.52" stop-color="#CCCCCC"/>
<stop offset="0.84" stop-color="#9E9E9E"/>
<stop offset="1" stop-color="#878787"/>
</linearGradient>
<linearGradient id="paint1_linear_4737_16242" x1="-26.3862" y1="-272.799" x2="-26.3862" y2="337.823" gradientUnits="userSpaceOnUse">
<stop stop-color="#BEBEBE"/>
<stop offset="0.13" stop-color="#DCDCDC"/>
<stop offset="0.32" stop-color="#D0D0D0"/>
<stop offset="0.43" stop-color="#CCCCCC"/>
<stop offset="0.96" stop-color="#9E9E9E"/>
<stop offset="1" stop-color="#9B9B9B"/>
</linearGradient>
<linearGradient id="paint2_linear_4737_16242" x1="647.124" y1="-47.5448" x2="647.124" y2="501.859" gradientUnits="userSpaceOnUse">
<stop stop-color="#BEBEBE"/>
<stop offset="0.13" stop-color="#DCDCDC"/>
<stop offset="0.32" stop-color="#D0D0D0"/>
<stop offset="0.43" stop-color="#CCCCCC"/>
<stop offset="0.96" stop-color="#9E9E9E"/>
<stop offset="1" stop-color="#9B9B9B"/>
</linearGradient>
<linearGradient id="paint3_linear_4737_16242" x1="110.461" y1="-1557.44" x2="-388.022" y2="490.822" gradientUnits="userSpaceOnUse">
<stop stop-color="#E5E5E5"/>
<stop offset="0.15" stop-color="#DCDCDC"/>
<stop offset="0.39" stop-color="#D0D0D0"/>
<stop offset="0.52" stop-color="#CCCCCC"/>
<stop offset="0.84" stop-color="#9E9E9E"/>
<stop offset="1" stop-color="#878787"/>
</linearGradient>
<linearGradient id="paint4_linear_4737_16242" x1="-26.3862" y1="-272.799" x2="-26.3862" y2="337.823" gradientUnits="userSpaceOnUse">
<stop stop-color="#BEBEBE"/>
<stop offset="0.13" stop-color="#DCDCDC"/>
<stop offset="0.32" stop-color="#D0D0D0"/>
<stop offset="0.43" stop-color="#CCCCCC"/>
<stop offset="0.96" stop-color="#9E9E9E"/>
<stop offset="1" stop-color="#9B9B9B"/>
</linearGradient>
<linearGradient id="paint5_linear_4737_16242" x1="647.124" y1="-47.5448" x2="647.124" y2="501.859" gradientUnits="userSpaceOnUse">
<stop stop-color="#BEBEBE"/>
<stop offset="0.13" stop-color="#DCDCDC"/>
<stop offset="0.32" stop-color="#D0D0D0"/>
<stop offset="0.43" stop-color="#CCCCCC"/>
<stop offset="0.96" stop-color="#9E9E9E"/>
<stop offset="1" stop-color="#9B9B9B"/>
</linearGradient>
<linearGradient id="paint6_linear_4737_16242" x1="772" y1="-262" x2="872.974" y2="614.786" gradientUnits="userSpaceOnUse">
<stop stop-color="#385316"/>
<stop offset="1" stop-color="#6FBD17"/>
</linearGradient>
</defs>
</svg>
