<svg width="11" height="9" viewBox="0 0 11 9" fill="none" xmlns="http://www.w3.org/2000/svg">
<path d="M10.1213 4.07968L6.40678 0.172739C6.30074 0.0612149 6.15942 0 6.00873 0C5.85787 0 5.71664 0.0613029 5.6106 0.172739L5.27335 0.527539C5.1674 0.638887 5.10903 0.787614 5.10903 0.946193C5.10903 1.10468 5.1674 1.25842 5.27335 1.36977L7.44036 3.65399H0.555675C0.245266 3.65399 0 3.90958 0 4.23614V4.73774C0 5.0643 0.245266 5.34566 0.555675 5.34566H7.46494L5.27343 7.64263C5.16748 7.75415 5.10911 7.89884 5.10911 8.05741C5.10911 8.21582 5.16748 8.36261 5.27343 8.47404L5.61069 8.8277C5.71672 8.93923 5.85796 9 6.00881 9C6.1595 9 6.30083 8.93843 6.40686 8.82691L10.1214 4.92006C10.2277 4.80819 10.2861 4.65884 10.2857 4.50009C10.286 4.34081 10.2277 4.19138 10.1213 4.07968Z"/>
</svg>
