 <svg width="520" height="475" viewBox="0 0 520 475" fill="none" xmlns="http://www.w3.org/2000/svg">
                <g clip-path="url(#clip0_190_657)">
                <path d="M152.6 125.983L152.45 125.783H152.2H55.8715C49.7025 125.783 44.6953 120.775 44.6953 114.605V78.403C44.6953 72.2329 49.7025 67.2251 55.8715 67.2251H152.784C158.953 67.2251 163.96 72.2329 163.96 78.403V141.131L152.6 125.983Z" fill="#C1DA6A" stroke="black"/>
                <path d="M69.7522 93.9231V84.929H72.3018V106.082H69.7522V97.0878V96.5878H69.2522H65.294H64.794V97.0878V106.082H62.3145V84.929H64.794V93.9231V94.4231H65.294H69.2522H69.7522V93.9231Z" fill="black" stroke="black"/>
                <path d="M75.8242 84.929H78.3037V106.082H75.8242V84.929Z" fill="black" stroke="black"/>
                <path d="M88.8559 87.0937H85.7129V84.929H95.4783V87.0937H92.3354H91.8354V87.5937V106.082H89.3559V87.5937V87.0937H88.8559Z" fill="black" stroke="black"/>
                <path d="M105.446 93.9231V84.929H107.995V106.082H105.446V97.0878V96.5878H104.946H100.987H100.487V97.0878V106.082H98.0078V84.929H100.487V93.9231V94.4231H100.987H104.946H105.446V93.9231Z" fill="black" stroke="black"/>
                <path d="M113.997 93.7714V94.2714H114.497H118.773V96.4361H114.497H113.997V96.9361V103.429V103.929H114.497H120.01V106.094H111.518V84.9407H120.01V87.1054H114.497H113.997V87.6054V93.7714Z" fill="black" stroke="black"/>
                <path d="M132.61 103.896C132.61 104.699 132.628 105.397 132.801 106.082H130.301C130.261 105.942 130.229 105.798 130.202 105.61C130.151 105.261 130.119 104.752 130.119 103.861V100.381C130.119 99.3185 129.943 98.4671 129.456 97.883C128.949 97.275 128.204 97.0666 127.342 97.0666H126.14H125.64V97.5666V106.082H123.16V84.929H127.914C129.65 84.929 130.785 85.3341 131.493 86.048C132.201 86.7626 132.575 87.8811 132.575 89.5205V91.2605C132.575 92.3504 132.401 93.2066 132.072 93.8623C131.748 94.5081 131.262 94.9837 130.584 95.3047L129.568 95.7861L130.606 96.2182C132.053 96.8204 132.61 98.2164 132.61 100.474V103.896ZM125.64 94.4019V94.9019H126.14H127.506C128.217 94.9019 128.897 94.7461 129.392 94.2475C129.884 93.7508 130.096 93.0111 130.096 92.0663V89.8825C130.096 89.0568 129.959 88.3504 129.568 87.8461C129.153 87.3125 128.536 87.1053 127.821 87.1053H126.14V87.5937H125.64V87.6053V88.1053V94.4019Z" fill="black" stroke="black"/>
                <path d="M138.355 93.7714V94.2714H138.855H143.13V96.4361H138.855H138.355V96.9361V103.429V103.929H138.855H144.368V106.094H135.875V84.9407H144.368V87.1054H138.855H138.355V87.6054V93.7714Z" fill="black" stroke="black"/>
                <path d="M149.579 101.177H147.933L147.516 93.6524V84.929H149.995V93.6524L149.579 101.177ZM149.937 103.73V106.082H147.586V103.73H149.937Z" fill="black" stroke="black"/>
                <path d="M316.261 61.8932C316.261 61.8932 311.941 60.3634 310.96 64.2638C309.98 68.1759 315.701 69.5656 316.402 69.5656C317.102 69.5656 318.211 68.5846 317.522 66.3541C316.822 64.1236 316.261 61.8932 316.261 61.8932Z" fill="black" stroke="black" stroke-linecap="round" stroke-linejoin="round"/>
                <path d="M340.816 52.4106C340.816 52.4106 340.395 57.9927 340.395 60.2232C340.395 62.4537 342.766 63.2945 343.887 63.2945C345.007 63.2945 345.556 65.9454 344.867 68.7364C344.167 71.5274 341.797 73.1974 336.075 73.1974C330.354 73.1974 326.874 70.6866 326.734 68.8765C326.594 67.0665 327.995 59.2539 330.366 57.1519C332.736 55.0499 340.827 52.4106 340.827 52.4106H340.816Z" fill="black" stroke="black" stroke-linecap="round" stroke-linejoin="round"/>
                <path d="M319.893 69.5772V71.6793C319.893 72.3683 320.301 72.9989 320.932 73.2908C321.597 73.5944 322.613 73.9214 324.084 74.0499C326.268 74.2484 329.012 73.2441 330.413 72.6602C330.973 72.4267 331.335 71.8661 331.335 71.2589V69.005C331.335 68.3744 330.681 67.9774 330.121 68.2576L329.666 68.4912C329.666 68.4912 322.835 69.4721 319.904 69.6123L319.893 69.5772Z" stroke="black" stroke-linecap="round" stroke-linejoin="round"/>
                <path d="M316.823 51.2896C316.823 51.2896 315.702 55.4704 315.293 60.632C314.873 65.7936 315.293 70.5349 317.383 70.675C319.473 70.8152 321.423 69.5539 321.423 69.5539C321.423 69.5539 326.304 70.1145 327.973 69.2737L329.643 68.4329L330.904 60.1999C330.904 60.1999 331.044 47.506 328.674 46.6652C326.304 45.8244 316.823 51.2663 316.823 51.2663V51.2896Z" fill="white" stroke="black" stroke-linecap="round" stroke-linejoin="round"/>
                <path d="M320.593 57.012L319.472 59.9431C319.472 59.9431 317.242 60.5037 317.522 61.6131C317.803 62.7341 319.274 62.5473 319.274 62.5473" stroke="black" stroke-linecap="round" stroke-linejoin="round"/>
                <path d="M324.179 58.2847C323.945 58.9037 323.501 59.3007 323.174 59.1723C322.847 59.0555 322.777 58.4599 322.999 57.841C323.221 57.222 323.676 56.825 324.003 56.9535C324.33 57.0702 324.4 57.6658 324.179 58.2847Z" fill="black"/>
                <path d="M318.913 56.8718C318.68 57.4907 318.236 57.8878 317.909 57.7593C317.582 57.6425 317.512 57.0469 317.734 56.428C317.967 55.8091 318.411 55.412 318.738 55.5405C319.065 55.6573 319.135 56.2528 318.913 56.8718Z" fill="black"/>
                <path d="M323.104 54.3609C323.104 54.3609 325.754 53.6602 326.034 56.171" stroke="black" stroke-linecap="round" stroke-linejoin="round"/>
                <path d="M319.614 53.672C319.614 53.672 317.244 52.8312 316.543 54.7931" stroke="black" stroke-linecap="round" stroke-linejoin="round"/>
                <path d="M321.424 69.5774L325.195 68.0359" stroke="black" stroke-linecap="round" stroke-linejoin="round"/>
                <path d="M318.632 44.8784C318.632 44.8784 314.171 39.5767 310.82 43.4888C307.469 47.4009 308.45 53.2515 314.451 53.5318C320.453 53.8121 327.144 47.9497 327.144 47.9497C327.144 47.9497 326.443 55.6221 328.124 58.273C329.806 60.9239 331.055 62.734 331.055 62.734C331.055 62.734 333.425 64.2638 337.337 61.2042C341.248 58.1329 342.218 50.7408 339.427 45.7193C336.636 40.6977 331.756 37.9067 325.894 39.8569C320.033 41.8071 318.643 44.8784 318.643 44.8784H318.632Z" fill="black" stroke="black" stroke-linecap="round" stroke-linejoin="round"/>
                <path d="M328.264 62.5938C328.264 62.5938 333.284 57.9927 333.284 60.6436C333.284 63.2944 330.914 65.6651 329.104 65.1045" fill="white"/>
                <path d="M328.264 62.5938C328.264 62.5938 333.284 57.9927 333.284 60.6436C333.284 63.2944 330.914 65.6651 329.104 65.1045" stroke="black" stroke-linecap="round" stroke-linejoin="round"/>
                <path d="M317.51 64.7075C317.51 64.7075 319.717 66.3891 322.052 64.7075" stroke="black" stroke-linecap="round" stroke-linejoin="round"/>
                <path d="M343.426 73.547C352.342 64.0577 351.878 49.1364 342.39 40.2191C332.903 31.3019 317.983 31.7656 309.068 41.2548C300.152 50.7441 300.615 65.6655 310.103 74.5827C319.591 83.5 334.51 83.0362 343.426 73.547Z" stroke="black" stroke-linecap="round" stroke-linejoin="round"/>
                <path d="M486.679 249.198C500.079 246.064 508.402 232.66 505.269 219.258C502.135 205.856 488.733 197.532 475.333 200.665C461.933 203.799 453.61 217.204 456.743 230.605C459.876 244.007 473.279 252.331 486.679 249.198Z" stroke="black" stroke-linecap="round" stroke-linejoin="round"/>
                <path d="M489.514 232.274C489.514 236.852 485.801 240.565 481.224 240.565C476.647 240.565 472.934 236.852 472.934 232.274C472.934 227.696 476.647 223.983 481.224 223.983C485.801 223.983 489.514 227.696 489.514 232.274Z" stroke="black" stroke-linecap="round" stroke-linejoin="round"/>
                <path d="M493.075 237.798C495.142 235.205 496.391 231.924 496.391 228.339C496.391 219.966 489.608 213.169 481.224 213.169C472.841 213.169 466.057 219.954 466.057 228.339C466.057 231.912 467.294 235.205 469.373 237.798H493.075Z" fill="#FFF7D0" stroke="black" stroke-linecap="round" stroke-linejoin="round"/>
                <path d="M487.145 233.5H474.92C471.919 233.5 469.479 231.06 469.479 228.058C469.479 225.057 471.919 222.617 474.92 222.617H487.145C490.146 222.617 492.586 225.057 492.586 228.058C492.586 231.06 490.146 233.5 487.145 233.5Z" stroke="black" stroke-linecap="round" stroke-linejoin="round"/>
                <path d="M471.977 227.615C472.491 226.19 473.857 225.162 475.456 225.162C477.056 225.162 478.294 226.096 478.866 227.416" stroke="black" stroke-width="2" stroke-linecap="round" stroke-linejoin="round"/>
                <path d="M483.397 227.615C483.91 226.19 485.277 225.162 486.876 225.162C488.476 225.162 489.714 226.096 490.286 227.416" stroke="black" stroke-width="2" stroke-linecap="round" stroke-linejoin="round"/>
                <path d="M479.215 230.137C479.344 231.165 480.231 231.971 481.293 231.971C482.356 231.971 483.243 231.176 483.372 230.137H479.215Z" fill="#FFF7D0" stroke="black" stroke-linecap="round" stroke-linejoin="round"/>
                <path d="M500.84 231.001C499.964 231.001 499.252 230.289 499.252 229.413V225.805C499.252 224.929 499.964 224.216 500.84 224.216C501.716 224.216 502.428 224.929 502.428 225.805V229.413C502.428 230.289 501.716 231.001 500.84 231.001Z" fill="black" stroke="black" stroke-linecap="round" stroke-linejoin="round"/>
                <path d="M461.164 231.001C460.289 231.001 459.576 230.289 459.576 229.413V225.805C459.576 224.929 460.289 224.216 461.164 224.216C462.04 224.216 462.752 224.929 462.752 225.805V229.413C462.752 230.289 462.04 231.001 461.164 231.001Z" fill="black" stroke="black" stroke-linecap="round" stroke-linejoin="round"/>
                <path d="M464.107 226.026C463.185 226.026 462.438 225.279 462.438 224.357V221.741C462.438 218.891 463.278 216.135 464.866 213.788C465.38 213.029 466.419 212.819 467.178 213.344C467.937 213.858 468.147 214.897 467.622 215.656C466.408 217.455 465.765 219.569 465.765 221.741V224.357C465.765 225.279 465.018 226.026 464.096 226.026H464.107Z" fill="black"/>
                <path d="M496.357 215.563C496.088 215.563 495.831 215.435 495.668 215.201C493.484 211.955 489.841 210.016 485.941 210.016H476.67C472.771 210.016 469.139 211.955 466.944 215.189C466.687 215.575 466.174 215.668 465.788 215.411C465.403 215.154 465.31 214.64 465.566 214.255C468.065 210.553 472.21 208.346 476.67 208.346H485.941C490.402 208.346 494.558 210.553 497.057 214.267C497.314 214.652 497.209 215.166 496.835 215.423C496.695 215.516 496.532 215.563 496.368 215.563H496.357Z" fill="black"/>
                <path d="M498.493 226.026C497.571 226.026 496.823 225.279 496.823 224.356V221.741C496.823 219.557 496.181 217.455 494.967 215.656C494.453 214.897 494.651 213.858 495.422 213.344C496.181 212.83 497.22 213.029 497.734 213.8C499.322 216.147 500.163 218.903 500.163 221.741V224.356C500.163 225.279 499.415 226.026 498.493 226.026Z" fill="black"/>
                <path d="M464.305 233.36C462.483 233.36 461.012 231.889 461.012 230.067V224.824C461.012 223.002 462.483 221.53 464.305 221.53C466.126 221.53 467.597 223.002 467.597 224.824V230.067C467.597 231.889 466.126 233.36 464.305 233.36Z" fill="#FFF7D0" stroke="black" stroke-linecap="round" stroke-linejoin="round"/>
                <path d="M464.642 221.542H463.965V233.36H464.642V221.542Z" fill="#FADD4B" stroke="black" stroke-linecap="round" stroke-linejoin="round"/>
                <path d="M497.887 221.542C499.708 221.542 501.179 223.014 501.179 224.835V230.079C501.179 231.9 499.708 233.372 497.887 233.372C496.065 233.372 494.594 231.9 494.594 230.079V224.835C494.594 223.014 496.065 221.542 497.887 221.542Z" fill="#FFF7D0" stroke="black" stroke-linecap="round" stroke-linejoin="round"/>
                <path d="M498.224 221.542H497.547V233.36H498.224V221.542Z" fill="#FADD4B" stroke="black" stroke-linecap="round" stroke-linejoin="round"/>
                <path d="M481.271 220.468C483.63 220.468 485.825 219.277 487.11 217.291L488.546 215.073C486.374 213.87 483.875 213.181 481.213 213.181C478.551 213.181 475.9 213.916 473.682 215.189L475.842 217.875C477.161 219.522 479.158 220.479 481.26 220.479L481.271 220.468Z" stroke="black" stroke-linecap="round" stroke-linejoin="round"/>
                <path d="M481.388 234.843C481.523 234.843 481.633 234.734 481.633 234.598C481.633 234.463 481.523 234.353 481.388 234.353C481.253 234.353 481.143 234.463 481.143 234.598C481.143 234.734 481.253 234.843 481.388 234.843Z" fill="black"/>
                <path d="M481.633 235.462C481.633 235.322 481.528 235.217 481.388 235.217C481.248 235.217 481.143 235.322 481.143 235.462C481.143 235.603 481.248 235.708 481.388 235.708C481.528 235.708 481.633 235.603 481.633 235.462Z" fill="black"/>
                <path d="M480.664 235.322C480.793 235.287 480.863 235.147 480.828 235.019C480.793 234.89 480.653 234.82 480.524 234.855C480.396 234.89 480.326 235.03 480.361 235.159C480.396 235.287 480.536 235.357 480.664 235.322Z" fill="black"/>
                <path d="M482.194 235.322C482.322 235.287 482.392 235.147 482.357 235.019C482.322 234.89 482.182 234.82 482.054 234.855C481.925 234.89 481.855 235.03 481.89 235.159C481.925 235.287 482.065 235.357 482.194 235.322Z" fill="black"/>
                <path d="M450.386 97.5926H357.49V56.206V45.217L368.466 56.206H450.386V97.5926Z" fill="#D6D6D6" stroke="black" stroke-linecap="round" stroke-linejoin="round"/>
                <path d="M419.525 70.4414H441.383" stroke="black" stroke-linecap="round" stroke-linejoin="round"/>
                <path d="M388.91 70.4414H413.898" stroke="black" stroke-linecap="round" stroke-linejoin="round"/>
                <path d="M370.17 70.4414H384.544" stroke="black" stroke-linecap="round" stroke-linejoin="round"/>
                <path d="M409.531 77.3198H441.384" stroke="black" stroke-linecap="round" stroke-linejoin="round"/>
                <path d="M370.17 77.3197H403.903" stroke="black" stroke-linecap="round" stroke-linejoin="round"/>
                <path d="M435.137 84.1863H441.384" stroke="black" stroke-linecap="round" stroke-linejoin="round"/>
                <path d="M400.155 84.1863H430.139" stroke="black" stroke-linecap="round" stroke-linejoin="round"/>
                <path d="M370.17 84.1863H395.157" stroke="black" stroke-linecap="round" stroke-linejoin="round"/>
                <path d="M450.386 157.559H357.49V116.172V105.195L368.466 116.172H450.386V157.559Z" fill="#D6D6D6" stroke="black" stroke-linecap="round" stroke-linejoin="round"/>
                <path d="M419.525 128.539H441.383" stroke="black" stroke-linecap="round" stroke-linejoin="round"/>
                <path d="M388.91 128.539H413.898" stroke="black" stroke-linecap="round" stroke-linejoin="round"/>
                <path d="M370.17 128.539H384.544" stroke="black" stroke-linecap="round" stroke-linejoin="round"/>
                <path d="M409.531 135.418H441.384" stroke="black" stroke-linecap="round" stroke-linejoin="round"/>
                <path d="M370.17 135.417H403.903" stroke="black" stroke-linecap="round" stroke-linejoin="round"/>
                <path d="M435.137 142.284H441.384" stroke="black" stroke-linecap="round" stroke-linejoin="round"/>
                <path d="M400.155 142.284H430.139" stroke="black" stroke-linecap="round" stroke-linejoin="round"/>
                <path d="M370.17 142.284H395.157" stroke="black" stroke-linecap="round" stroke-linejoin="round"/>
                <path d="M357.49 326.2H450.386V226.085V215.108L439.411 226.085H357.49V326.2Z" stroke="black" stroke-linecap="round" stroke-linejoin="round"/>
                <path d="M419.525 239.748H441.383" stroke="black" stroke-linecap="round" stroke-linejoin="round"/>
                <path d="M388.91 239.748H413.898" stroke="black" stroke-linecap="round" stroke-linejoin="round"/>
                <path d="M370.17 239.748H384.544" stroke="black" stroke-linecap="round" stroke-linejoin="round"/>
                <path d="M409.531 246.615H441.384" stroke="black" stroke-linecap="round" stroke-linejoin="round"/>
                <path d="M370.17 246.615H403.903" stroke="black" stroke-linecap="round" stroke-linejoin="round"/>
                <path d="M435.137 253.493H441.384" stroke="black" stroke-linecap="round" stroke-linejoin="round"/>
                <path d="M400.155 253.493H430.139" stroke="black" stroke-linecap="round" stroke-linejoin="round"/>
                <path d="M370.17 253.493H395.157" stroke="black" stroke-linecap="round" stroke-linejoin="round"/>
                <path d="M419.525 259.11H441.383" stroke="black" stroke-linecap="round" stroke-linejoin="round"/>
                <path d="M388.91 259.11H413.898" stroke="black" stroke-linecap="round" stroke-linejoin="round"/>
                <path d="M370.17 259.11H384.544" stroke="black" stroke-linecap="round" stroke-linejoin="round"/>
                <path d="M409.531 265.988H441.384" stroke="black" stroke-linecap="round" stroke-linejoin="round"/>
                <path d="M370.17 265.988H403.903" stroke="black" stroke-linecap="round" stroke-linejoin="round"/>
                <path d="M435.137 272.855H441.384" stroke="black" stroke-linecap="round" stroke-linejoin="round"/>
                <path d="M400.155 272.855H430.139" stroke="black" stroke-linecap="round" stroke-linejoin="round"/>
                <path d="M370.17 272.855H395.157" stroke="black" stroke-linecap="round" stroke-linejoin="round"/>
                <path d="M419.525 278.484H441.383" stroke="black" stroke-linecap="round" stroke-linejoin="round"/>
                <path d="M388.91 278.484H413.898" stroke="black" stroke-linecap="round" stroke-linejoin="round"/>
                <path d="M370.17 278.484H384.544" stroke="black" stroke-linecap="round" stroke-linejoin="round"/>
                <path d="M409.531 285.35H441.384" stroke="black" stroke-linecap="round" stroke-linejoin="round"/>
                <path d="M370.17 285.35H403.903" stroke="black" stroke-linecap="round" stroke-linejoin="round"/>
                <path d="M435.137 292.229H441.384" stroke="black" stroke-linecap="round" stroke-linejoin="round"/>
                <path d="M400.155 292.229H430.139" stroke="black" stroke-linecap="round" stroke-linejoin="round"/>
                <path d="M370.17 292.229H395.157" stroke="black" stroke-linecap="round" stroke-linejoin="round"/>
                <path d="M419.525 297.846H441.383" stroke="black" stroke-linecap="round" stroke-linejoin="round"/>
                <path d="M388.91 297.846H413.898" stroke="black" stroke-linecap="round" stroke-linejoin="round"/>
                <path d="M370.17 297.846H384.544" stroke="black" stroke-linecap="round" stroke-linejoin="round"/>
                <path d="M409.531 304.724H441.384" stroke="black" stroke-linecap="round" stroke-linejoin="round"/>
                <path d="M370.17 304.724H403.903" stroke="black" stroke-linecap="round" stroke-linejoin="round"/>
                <path d="M435.137 311.591H441.384" stroke="black" stroke-linecap="round" stroke-linejoin="round"/>
                <path d="M400.155 311.591H430.139" stroke="black" stroke-linecap="round" stroke-linejoin="round"/>
                <path d="M370.17 311.591H395.157" stroke="black" stroke-linecap="round" stroke-linejoin="round"/>
                <path d="M481.001 381.868C494.762 381.868 505.918 370.711 505.918 356.948C505.918 343.184 494.762 332.027 481.001 332.027C467.24 332.027 456.084 343.184 456.084 356.948C456.084 370.711 467.24 381.868 481.001 381.868Z" stroke="black" stroke-linecap="round" stroke-linejoin="round"/>
                <path d="M489.512 364.305C489.512 368.883 485.799 372.596 481.222 372.596C476.645 372.596 472.932 368.883 472.932 364.305C472.932 359.727 476.645 356.014 481.222 356.014C485.799 356.014 489.512 359.727 489.512 364.305Z" stroke="black" stroke-linecap="round" stroke-linejoin="round"/>
                <path d="M493.073 369.817C495.14 367.224 496.389 363.943 496.389 360.358C496.389 351.985 489.605 345.188 481.222 345.188C472.838 345.188 466.054 351.973 466.054 360.358C466.054 363.931 467.292 367.224 469.37 369.817H493.073Z" fill="#FFF7D0" stroke="black" stroke-linecap="round" stroke-linejoin="round"/>
                <path d="M487.143 365.519H474.918C471.917 365.519 469.477 363.079 469.477 360.077C469.477 357.076 471.917 354.635 474.918 354.635H487.143C490.143 354.635 492.584 357.076 492.584 360.077C492.584 363.079 490.143 365.519 487.143 365.519Z" stroke="black" stroke-linecap="round" stroke-linejoin="round"/>
                <path d="M471.975 359.634C472.488 358.209 473.854 357.181 475.454 357.181C477.054 357.181 478.291 358.116 478.864 359.435" stroke="black" stroke-width="2" stroke-linecap="round" stroke-linejoin="round"/>
                <path d="M483.395 359.634C483.908 358.209 485.274 357.181 486.874 357.181C488.474 357.181 489.711 358.116 490.283 359.435" stroke="black" stroke-width="2" stroke-linecap="round" stroke-linejoin="round"/>
                <path d="M479.213 362.168C479.341 363.196 480.229 364.001 481.291 364.001C482.354 364.001 483.241 363.207 483.37 362.168H479.213Z" fill="#FFF7D0" stroke="black" stroke-linecap="round" stroke-linejoin="round"/>
                <path d="M500.838 363.02C499.962 363.02 499.25 362.308 499.25 361.432V357.824C499.25 356.948 499.962 356.236 500.838 356.236C501.714 356.236 502.426 356.948 502.426 357.824V361.432C502.426 362.308 501.714 363.02 500.838 363.02Z" fill="black" stroke="black" stroke-linecap="round" stroke-linejoin="round"/>
                <path d="M461.162 363.02C460.286 363.02 459.574 362.308 459.574 361.432V357.824C459.574 356.948 460.286 356.236 461.162 356.236C462.038 356.236 462.75 356.948 462.75 357.824V361.432C462.75 362.308 462.038 363.02 461.162 363.02Z" fill="black" stroke="black" stroke-linecap="round" stroke-linejoin="round"/>
                <path d="M464.105 358.057C463.183 358.057 462.436 357.31 462.436 356.387V353.771C462.436 350.922 463.276 348.166 464.864 345.819C465.378 345.06 466.417 344.849 467.176 345.375C467.935 345.889 468.145 346.928 467.62 347.687C466.405 349.486 465.763 351.588 465.763 353.771V356.387C465.763 357.31 465.016 358.057 464.094 358.057H464.105Z" fill="black"/>
                <path d="M496.354 347.582C496.086 347.582 495.829 347.454 495.665 347.208C493.482 343.962 489.839 342.023 485.939 342.023H476.668C472.768 342.023 469.137 343.962 466.942 347.197C466.685 347.582 466.171 347.676 465.786 347.419C465.401 347.162 465.307 346.648 465.564 346.263C468.063 342.561 472.208 340.354 476.668 340.354H485.939C490.399 340.354 494.556 342.561 497.055 346.274C497.312 346.66 497.207 347.173 496.833 347.43C496.693 347.524 496.529 347.57 496.366 347.57L496.354 347.582Z" fill="black"/>
                <path d="M498.491 358.057C497.568 358.057 496.821 357.31 496.821 356.387V353.771C496.821 351.588 496.179 349.486 494.965 347.687C494.451 346.928 494.649 345.889 495.42 345.375C496.179 344.861 497.218 345.06 497.732 345.83C499.32 348.178 500.16 350.934 500.16 353.771V356.387C500.16 357.31 499.413 358.057 498.491 358.057Z" fill="black"/>
                <path d="M464.302 365.391C462.481 365.391 461.01 363.92 461.01 362.098V356.854C461.01 355.033 462.481 353.561 464.302 353.561C466.124 353.561 467.595 355.033 467.595 356.854V362.098C467.595 363.92 466.124 365.391 464.302 365.391Z" fill="#FFF7D0" stroke="black" stroke-linecap="round" stroke-linejoin="round"/>
                <path d="M464.64 353.561H463.963V365.379H464.64V353.561Z" fill="#FADD4B" stroke="black" stroke-linecap="round" stroke-linejoin="round"/>
                <path d="M497.884 353.561C499.706 353.561 501.177 355.033 501.177 356.854V362.098C501.177 363.92 499.706 365.391 497.884 365.391C496.063 365.391 494.592 363.92 494.592 362.098V356.854C494.592 355.033 496.063 353.561 497.884 353.561Z" fill="#FFF7D0" stroke="black" stroke-linecap="round" stroke-linejoin="round"/>
                <path d="M498.222 353.561H497.545V365.379H498.222V353.561Z" fill="#FADD4B" stroke="black" stroke-linecap="round" stroke-linejoin="round"/>
                <path d="M481.269 352.487C483.628 352.487 485.823 351.296 487.107 349.311L488.544 347.092C486.372 345.889 483.873 345.2 481.211 345.2C478.549 345.2 475.898 345.936 473.68 347.209L475.84 349.894C477.159 351.541 479.156 352.499 481.258 352.499L481.269 352.487Z" stroke="black" stroke-linecap="round" stroke-linejoin="round"/>
                <path d="M481.386 366.863C481.521 366.863 481.631 366.753 481.631 366.617C481.631 366.482 481.521 366.372 481.386 366.372C481.25 366.372 481.141 366.482 481.141 366.617C481.141 366.753 481.25 366.863 481.386 366.863Z" fill="black"/>
                <path d="M481.386 367.727C481.521 367.727 481.631 367.617 481.631 367.482C481.631 367.346 481.521 367.236 481.386 367.236C481.25 367.236 481.141 367.346 481.141 367.482C481.141 367.617 481.25 367.727 481.386 367.727Z" fill="black"/>
                <path d="M480.662 367.341C480.791 367.306 480.861 367.166 480.826 367.038C480.791 366.909 480.651 366.839 480.522 366.874C480.394 366.909 480.324 367.049 480.359 367.178C480.394 367.306 480.534 367.376 480.662 367.341Z" fill="black"/>
                <path d="M482.191 367.341C482.32 367.306 482.39 367.166 482.355 367.038C482.32 366.909 482.18 366.839 482.051 366.874C481.923 366.909 481.853 367.049 481.888 367.178C481.923 367.306 482.063 367.376 482.191 367.341Z" fill="black"/>
                <path d="M357.49 417.194H450.386V358.104V347.127L439.411 358.104H357.49V417.194Z" stroke="black" stroke-linecap="round" stroke-linejoin="round"/>
                <path d="M419.525 371.767H441.383" stroke="black" stroke-linecap="round" stroke-linejoin="round"/>
                <path d="M388.91 371.767H413.898" stroke="black" stroke-linecap="round" stroke-linejoin="round"/>
                <path d="M370.17 371.767H384.544" stroke="black" stroke-linecap="round" stroke-linejoin="round"/>
                <path d="M409.531 378.645H441.384" stroke="black" stroke-linecap="round" stroke-linejoin="round"/>
                <path d="M370.17 378.645H403.903" stroke="black" stroke-linecap="round" stroke-linejoin="round"/>
                <path d="M435.137 385.512H441.384" stroke="black" stroke-linecap="round" stroke-linejoin="round"/>
                <path d="M400.155 385.512H430.139" stroke="black" stroke-linecap="round" stroke-linejoin="round"/>
                <path d="M370.17 385.512H395.157" stroke="black" stroke-linecap="round" stroke-linejoin="round"/>
                <path d="M419.525 391.141H441.383" stroke="black" stroke-linecap="round" stroke-linejoin="round"/>
                <path d="M388.91 391.141H413.898" stroke="black" stroke-linecap="round" stroke-linejoin="round"/>
                <path d="M370.17 391.141H384.544" stroke="black" stroke-linecap="round" stroke-linejoin="round"/>
                <path d="M409.531 398.008H441.384" stroke="black" stroke-linecap="round" stroke-linejoin="round"/>
                <path d="M370.17 398.008H403.903" stroke="black" stroke-linecap="round" stroke-linejoin="round"/>
                <path d="M435.137 404.886H441.384" stroke="black" stroke-linecap="round" stroke-linejoin="round"/>
                <path d="M400.155 404.886H430.139" stroke="black" stroke-linecap="round" stroke-linejoin="round"/>
                <path d="M370.17 404.886H395.157" stroke="black" stroke-linecap="round" stroke-linejoin="round"/>
                <path d="M497.173 1.16785H449.032C448.016 6.57473 443.287 10.6737 437.577 10.6737H368.583C362.873 10.6737 358.144 6.57473 357.128 1.16785H308.987C300.592 1.16785 293.797 7.97608 293.797 16.3608V423.921C293.797 432.317 300.604 439.114 308.987 439.114H497.185C505.58 439.114 512.375 432.306 512.375 423.921V16.3608C512.375 7.96441 505.568 1.16785 497.185 1.16785H497.173Z" stroke="black" stroke-width="2" stroke-linecap="round" stroke-linejoin="round"/>
                <path d="M512.364 28.6811V16.3726C512.364 7.97612 505.556 1.17957 497.173 1.17957H449.032C448.016 6.58645 443.287 10.6854 437.577 10.6854H368.583C362.873 10.6854 358.144 6.58645 357.128 1.17957H308.987C300.592 1.17957 293.797 7.9878 293.797 16.3726V28.6811H512.375H512.364Z" stroke="black" stroke-width="2" stroke-linecap="round" stroke-linejoin="round"/>
                <path d="M313.821 12.1685C313.821 15.158 310.47 16.2324 310.447 18.5096V18.6614H313.705V19.6657H309.361V18.8132C309.361 15.6135 312.712 14.9945 312.712 12.2035C312.712 11.1875 312.374 10.6503 311.556 10.6503C310.739 10.6503 310.4 11.2342 310.4 12.1101V12.9859H309.373V12.1801C309.373 10.662 310.062 9.65771 311.591 9.65771C313.121 9.65771 313.833 10.6503 313.833 12.1685H313.821Z" fill="black"/>
                <path d="M319.251 12.1569V12.4138C319.251 13.4298 318.842 14.1538 318.048 14.4574C318.877 14.7727 319.251 15.5201 319.251 16.5127V17.2718C319.251 18.7899 318.539 19.7826 317.009 19.7826C315.48 19.7826 314.791 18.7899 314.791 17.2718V16.5945H315.818V17.3419C315.818 18.2294 316.192 18.7666 316.974 18.7666C317.757 18.7666 318.13 18.2411 318.13 17.2368V16.4777C318.13 15.4968 317.722 15.0296 316.881 15.0063H316.285V14.0137H316.939C317.675 13.9903 318.13 13.5232 318.13 12.659V12.2036C318.13 11.1876 317.78 10.6621 316.974 10.6621C316.169 10.6621 315.818 11.211 315.818 12.1102V12.624H314.791V12.1686C314.791 10.6504 315.503 9.68115 317.009 9.68115C318.515 9.68115 319.251 10.6621 319.251 12.1686V12.1569Z" fill="black"/>
                <path d="M321.388 12.9043V14.2823H320.326V12.9043H321.388ZM321.388 18.2995V19.6775H320.326V18.2995H321.388Z" fill="black"/>
                <path d="M323.619 13.7918C323.934 13.2546 324.424 12.9743 325.09 12.9743C326.363 12.9743 326.935 13.9086 326.935 15.3216V17.2601C326.935 18.7783 326.211 19.7709 324.705 19.7709C323.198 19.7709 322.486 18.7783 322.486 17.2601V16.5945H323.514V17.3302C323.514 18.2177 323.887 18.7549 324.67 18.7549C325.452 18.7549 325.825 18.2177 325.825 17.3302V15.4033C325.825 14.5158 325.452 13.9786 324.67 13.9786C324.062 13.9786 323.654 14.3173 323.549 15.0413V15.2632H322.521L322.79 9.75122H326.701V10.7438H323.782L323.63 13.7918H323.619Z" fill="black"/>
                <path d="M332.444 12.1452V12.332H331.417V12.0751C331.417 11.1876 331.043 10.6621 330.237 10.6621C329.432 10.6621 329.035 11.1992 329.035 12.2619V14.4807C329.303 13.8034 329.841 13.4181 330.634 13.4181C331.907 13.4181 332.479 14.3406 332.479 15.7653V17.2718C332.479 18.7899 331.732 19.7825 330.214 19.7825C328.696 19.7825 327.937 18.7899 327.937 17.2718V12.2152C327.937 10.6387 328.65 9.66943 330.214 9.66943C331.779 9.66943 332.456 10.627 332.456 12.1452H332.444ZM329.035 15.8587V17.3418C329.035 18.2294 329.408 18.7665 330.214 18.7665C331.02 18.7665 331.393 18.2294 331.393 17.3418V15.8587C331.393 14.9712 331.008 14.434 330.214 14.434C329.42 14.434 329.035 14.9712 329.035 15.8587Z" fill="black"/>
                <path d="M454.824 12.5773H452.021V19.5724H454.824V12.5773Z" fill="black"/>
                <path d="M458.548 11.1759H455.746V19.5723H458.548V11.1759Z" fill="black"/>
                <path d="M462.285 10.1832H459.482V19.5723H462.285V10.1832Z" fill="black"/>
                <path d="M466.009 8.44324H463.207V19.5723H466.009V8.44324Z" fill="black"/>
                <path d="M500.642 19.3854H483.851V9.12048H500.642V19.3854ZM484.785 18.4512H499.708V10.0547H484.785V18.4512Z" fill="black"/>
                <path d="M495.038 11.0707H486.176V17.4352H495.038V11.0707Z" fill="black"/>
                <path d="M502.172 13.0443H500.058V15.4616H502.172V13.0443Z" fill="black"/>
                <path d="M477.696 17.1432C477.591 17.1432 477.474 17.1199 477.381 17.0498C473.96 15.0179 471.706 16.9097 471.613 16.9798C471.356 17.2016 470.959 17.1783 470.726 16.9214C470.504 16.6645 470.527 16.2674 470.784 16.0455C470.901 15.9404 473.796 13.4647 478.023 15.9755C478.315 16.1506 478.42 16.536 478.245 16.8396C478.128 17.0381 477.918 17.1432 477.708 17.1432H477.696Z" fill="black"/>
                <path d="M478.958 15.0412C478.852 15.0412 478.736 15.0179 478.642 14.9478C473.703 12.005 470.387 14.8544 470.352 14.8777C470.095 15.1113 469.698 15.0762 469.465 14.8193C469.231 14.5624 469.255 14.1654 469.523 13.9318C469.558 13.8968 473.563 10.4635 479.284 13.8617C479.576 14.0369 479.681 14.4223 479.506 14.7259C479.39 14.9244 479.179 15.0295 478.969 15.0295L478.958 15.0412Z" fill="black"/>
                <path d="M480.103 12.6006C479.998 12.6006 479.882 12.5773 479.788 12.5072C473.53 8.78194 469.373 12.2853 469.198 12.4371C468.941 12.659 468.544 12.6357 468.31 12.3787C468.077 12.1218 468.112 11.7248 468.369 11.4912C468.416 11.4445 473.355 7.2171 480.43 11.4212C480.722 11.5963 480.827 11.9817 480.652 12.2853C480.535 12.4838 480.325 12.5889 480.115 12.5889L480.103 12.6006Z" fill="black"/>
                <path d="M475.807 18.1943C475.807 19.0585 475.106 19.7708 474.23 19.7708C473.355 19.7708 472.654 19.0702 472.654 18.1943C472.654 17.3185 473.355 16.6178 474.23 16.6178C475.106 16.6178 475.807 17.3185 475.807 18.1943Z" fill="black"/>
                <path d="M494.896 457.693H519.416" stroke="black" stroke-linecap="round" stroke-linejoin="round"/>
                <path d="M32.5173 457.693H486.722" stroke="black" stroke-linecap="round" stroke-linejoin="round"/>
                <path d="M0.58374 457.693H17.3391" stroke="black" stroke-linecap="round" stroke-linejoin="round"/>
                <path d="M168.767 300.427H150.926V455.509H168.767V300.427Z" fill="black" stroke="black" stroke-linecap="round" stroke-linejoin="round"/>
                <path d="M27.2874 356.586V367.493H98.3955V356.586H27.2874Z" fill="black" stroke="black" stroke-linecap="round" stroke-linejoin="round"/>
               
               <path d="M39.1498 362.763C39.1498 368.275 34.6778 372.76 29.155 372.76C28.8281 372.76 28.5011 372.736 28.1742 372.713C23.1067 372.211 19.1602 367.948 19.1602 362.763C19.1602 357.251 23.6321 352.767 29.155 352.767C33.8138 352.767 37.7253 355.967 38.8346 360.276C39.0447 361.07 39.1498 361.911 39.1498 362.763Z" fill="#FFF7D0" stroke="black" stroke-linecap="round" stroke-linejoin="round"/>
            
                <path d="M135.596 363.08C138.57 350.369 130.678 337.654 117.969 334.68C105.261 331.706 92.5477 339.598 89.5739 352.309C86.6002 365.02 94.4918 377.735 107.201 380.709C119.909 383.683 132.622 375.79 135.596 363.08Z" fill="#FADD4B" stroke="black" stroke-linecap="round" stroke-linejoin="round"/>
                <path d="M116.978 368.26C122.817 365.825 125.576 359.116 123.141 353.277C120.705 347.437 113.998 344.678 108.16 347.114C102.321 349.549 99.562 356.257 101.997 362.097C104.432 367.936 111.139 370.696 116.978 368.26Z" fill="black" stroke="black" stroke-linecap="round" stroke-linejoin="round"/>
                <path d="M108.519 457.693H213.371L214.889 450.593C216.15 444.696 212.425 438.904 206.541 437.584C191.665 434.244 159.497 433.03 159.497 433.03C151.744 433.275 130.166 434.232 115.303 437.596C109.453 438.915 105.763 444.719 107.013 450.593L108.53 457.693H108.519Z" fill="#FADD4B" stroke="black" stroke-linecap="round" stroke-linejoin="round"/>
                <path d="M186.189 434.781C172.761 433.543 159.485 433.041 159.485 433.041C154.605 433.193 144.236 433.637 133.518 434.781C136.647 445.467 147.249 453.338 159.847 453.338C172.446 453.338 183.048 445.467 186.177 434.793L186.189 434.781Z" fill="#FADD4B" stroke="black" stroke-linecap="round" stroke-linejoin="round"/>
                <path d="M269.367 407.619L275.889 398.878L218.898 356.346L212.376 365.087L269.367 407.619Z" fill="black" stroke="black" stroke-linecap="round" stroke-linejoin="round"/>
                <path d="M241.002 433.42L249.742 439.943L275.837 404.967L267.097 398.444L241.002 433.42Z" fill="black" stroke="black" stroke-linecap="round" stroke-linejoin="round"/>
                <path d="M263.555 395.59C266.859 391.164 273.118 390.253 277.543 393.558C277.811 393.757 278.057 393.967 278.302 394.177C282.062 397.599 282.68 403.391 279.575 407.548C276.27 411.974 270.012 412.885 265.586 409.58C261.85 406.789 260.624 401.885 262.317 397.774C262.632 397.015 263.041 396.279 263.555 395.59Z" fill="#FFF7D0" stroke="black" stroke-linecap="round" stroke-linejoin="round"/>
                <path d="M240.752 423.524C243.834 418.946 250.046 417.732 254.623 420.803C254.892 420.99 255.16 421.188 255.406 421.387C259.329 424.622 260.228 430.367 257.332 434.676C254.25 439.254 248.038 440.469 243.461 437.397C239.596 434.793 238.125 429.958 239.619 425.766C239.888 424.995 240.273 424.236 240.752 423.524Z" fill="#FFF7D0" stroke="black" stroke-linecap="round" stroke-linejoin="round"/>
                <path d="M210.756 436.038L227.187 437.652L227.808 431.33L211.377 429.716L210.756 436.038Z" fill="black" stroke="black" stroke-linecap="round" stroke-linejoin="round"/>
                <path d="M209.74 427.845L217.843 428.639L216.897 438.238L208.794 437.444C206.144 437.187 204.205 434.828 204.462 432.177C204.719 429.526 207.078 427.588 209.728 427.845H209.74Z" fill="#FFF7D0" stroke="black" stroke-linecap="round" stroke-linejoin="round"/>
                <path d="M225.982 432.002C231.376 423.968 242.282 421.831 250.315 427.238C250.794 427.564 251.249 427.903 251.693 428.253C258.57 433.929 260.158 444.019 255.079 451.563C249.685 459.597 238.779 461.734 230.746 456.327C223.962 451.773 221.393 443.283 223.997 435.914C224.476 434.56 225.141 433.24 225.982 431.99V432.002Z" fill="#FFF7D0" stroke="black" stroke-linecap="round" stroke-linejoin="round"/>
                <path d="M207.1 450.185L228.829 433.952L232.32 438.6L210.591 454.833L207.1 450.185Z" fill="black" stroke="black" stroke-linecap="round" stroke-linejoin="round"/>
                <path d="M204.859 449.939L210.825 445.467L216.126 452.532L210.16 457.005C208.21 458.464 205.443 458.079 203.983 456.117C202.523 454.167 202.909 451.399 204.87 449.939H204.859Z" fill="#FFF7D0" stroke="black" stroke-linecap="round" stroke-linejoin="round"/>
                <path d="M235.147 438.951C235.882 435.599 233.769 432.294 230.418 431.547C227.067 430.811 223.763 432.925 223.015 436.276C222.28 439.628 224.393 442.933 227.744 443.68C231.095 444.416 234.4 442.302 235.147 438.951Z" fill="#FFF7D0" stroke="black" stroke-linecap="round" stroke-linejoin="round"/>
                <path d="M246.672 466.51L249.883 444.229L254.659 444.906L251.448 467.188L246.672 466.51Z" fill="black" stroke="black" stroke-linecap="round" stroke-linejoin="round"/>
                <path d="M245.201 467.69L246.077 461.559L253.339 462.598L252.463 468.729C252.183 470.738 250.327 472.127 248.318 471.835C246.31 471.555 244.921 469.698 245.213 467.69H245.201Z" fill="#FFF7D0" stroke="black" stroke-linecap="round" stroke-linejoin="round"/>
                <path d="M256.528 443.446C254.998 441.052 251.81 440.34 249.405 441.882C247.011 443.411 246.299 446.599 247.84 449.005C249.37 451.399 252.558 452.111 254.963 450.57C257.357 449.04 258.069 445.852 256.528 443.446Z" fill="#FFF7D0" stroke="black" stroke-linecap="round" stroke-linejoin="round"/>
                <path d="M225.176 463.544L239.643 440.609L244.57 443.704L230.092 466.639L225.176 463.544Z" fill="black" stroke="black" stroke-linecap="round" stroke-linejoin="round"/>
                <path d="M222.98 464.117L226.95 457.811L234.423 462.505L230.453 468.811C229.157 470.878 226.425 471.497 224.37 470.201C222.303 468.905 221.684 466.172 222.98 464.117Z" fill="#FFF7D0" stroke="black" stroke-linecap="round" stroke-linejoin="round"/>
                <path d="M247.336 443.015C246.822 439.628 243.67 437.292 240.272 437.794C236.886 438.308 234.55 441.461 235.053 444.86C235.566 448.246 238.719 450.582 242.117 450.08C245.503 449.566 247.838 446.413 247.336 443.015Z" fill="#FFF7D0" stroke="black" stroke-linecap="round" stroke-linejoin="round"/>
                <path d="M220.537 377.981C231.511 370.915 234.681 356.289 227.617 345.313C220.552 334.337 205.928 331.166 194.954 338.232C183.979 345.298 180.809 359.923 187.874 370.9C194.938 381.876 209.562 385.046 220.537 377.981Z" fill="#FADD4B" stroke="black" stroke-linecap="round" stroke-linejoin="round"/>
                <path d="M218.168 362.892C220.806 357.141 218.283 350.341 212.532 347.703C206.782 345.065 199.983 347.589 197.346 353.34C194.708 359.091 197.231 365.891 202.981 368.529C208.732 371.167 215.531 368.643 218.168 362.892Z" fill="black" stroke="black" stroke-linecap="round" stroke-linejoin="round"/>
                <path d="M159.848 311.264C180.812 311.264 197.807 294.266 197.807 273.299C197.807 252.331 180.812 235.334 159.848 235.334C138.884 235.334 121.889 252.331 121.889 273.299C121.889 294.266 138.884 311.264 159.848 311.264Z" fill="#FFF7D0" stroke="black" stroke-linecap="round" stroke-linejoin="round"/>
                <path d="M214.106 298.581C223.599 286.705 229.285 271.652 229.285 255.268C229.285 216.906 198.191 185.808 159.835 185.808C121.479 185.808 90.3848 216.906 90.3848 255.268C90.3848 271.652 96.0711 286.705 105.564 298.581H214.094H214.106Z" fill="#FFF7D0" stroke="black" stroke-linecap="round" stroke-linejoin="round"/>
                <path d="M202.313 229.051H115.606C110.331 229.051 106.055 233.328 106.055 238.604V269.34C106.055 274.616 110.331 278.892 115.606 278.892H202.313C207.588 278.892 211.865 274.616 211.865 269.34V238.604C211.865 233.328 207.588 229.051 202.313 229.051Z" stroke="black" stroke-linecap="round" stroke-linejoin="round"/>
                <path d="M117.51 251.952C119.857 245.412 126.103 240.741 133.436 240.741C140.769 240.741 146.455 245.003 149.024 251.076" stroke="black" stroke-width="5" stroke-linecap="round" stroke-linejoin="round"/>
                <path d="M169.795 251.952C172.142 245.412 178.389 240.741 185.721 240.741C193.054 240.741 198.74 245.003 201.309 251.076" stroke="black" stroke-width="5" stroke-linecap="round" stroke-linejoin="round"/>
                <path d="M150.681 263.513C151.289 268.231 155.305 271.886 160.197 271.886C165.09 271.886 169.106 268.231 169.714 263.513H150.681Z" fill="#FFF7D0" stroke="black" stroke-linecap="round" stroke-linejoin="round"/>
                <path d="M249.696 267.448C245.68 267.448 242.434 264.19 242.434 260.184V243.66C242.434 239.643 245.691 236.396 249.696 236.396C253.713 236.396 256.959 239.655 256.959 243.66V260.184C256.959 264.202 253.701 267.448 249.696 267.448Z" fill="black" stroke="black" stroke-linecap="round" stroke-linejoin="round"/>
                <path d="M67.9911 267.448C63.9745 267.448 60.7285 264.19 60.7285 260.184V243.66C60.7285 239.643 63.9862 236.396 67.9911 236.396C72.0077 236.396 75.2537 239.655 75.2537 243.66V260.184C75.2537 264.202 71.9961 267.448 67.9911 267.448Z" fill="black" stroke="black" stroke-linecap="round" stroke-linejoin="round"/>
                <path d="M91.2728 192.885C85.0727 202.063 81.4531 213.134 81.4531 225.046V237.039" stroke="black" stroke-width="14" stroke-linecap="round" stroke-linejoin="round"/>
                <path d="M229.146 192.931C218.813 177.598 201.298 167.52 181.414 167.52H138.971C119.121 167.52 101.607 177.586 91.2734 192.884" stroke="black" stroke-width="7" stroke-linecap="round" stroke-linejoin="round"/>
                <path d="M238.941 237.05V225.057C238.941 213.157 235.333 202.11 229.145 192.931" stroke="black" stroke-width="14" stroke-linecap="round" stroke-linejoin="round"/>
                <path d="M87.2457 224.123H77.5077C71.8717 224.123 67.3027 228.693 67.3027 234.33V268.067C67.3027 273.704 71.8717 278.274 77.5077 278.274H87.2457C92.8818 278.274 97.4507 273.704 97.4507 268.067V234.33C97.4507 228.693 92.8818 224.123 87.2457 224.123Z" fill="#FFCD07" stroke="black" stroke-linecap="round" stroke-linejoin="round"/>
                <path d="M83.9068 224.123H80.8359V278.274H83.9068V224.123Z" stroke="black" stroke-linecap="round" stroke-linejoin="round"/>
                <path d="M241.045 224.123H231.307C225.671 224.123 221.102 228.693 221.102 234.33V268.067C221.102 273.704 225.671 278.274 231.307 278.274H241.045C246.681 278.274 251.25 273.704 251.25 268.067V234.33C251.25 228.693 246.681 224.123 241.045 224.123Z" fill="#FFCD07" stroke="black" stroke-linecap="round" stroke-linejoin="round"/>
                <path d="M237.706 224.123H234.635V278.274H237.706V224.123Z" stroke="black" stroke-linecap="round" stroke-linejoin="round"/>
                <path d="M160.092 219.207C170.904 219.207 180.969 213.73 186.842 204.656L193.428 194.473C183.48 188.961 172.025 185.819 159.847 185.819C147.669 185.819 135.525 189.171 125.367 194.998L135.257 207.307C141.305 214.839 150.436 219.218 160.092 219.218V219.207Z" stroke="black" stroke-linecap="round" stroke-linejoin="round"/>
                <path d="M161.726 283.937C161.726 283.318 161.224 282.816 160.606 282.816C159.987 282.816 159.485 283.318 159.485 283.937C159.485 284.556 159.987 285.058 160.606 285.058C161.224 285.058 161.726 284.556 161.726 283.937Z" fill="black"/>
                <path d="M161.726 287.861C161.726 287.242 161.224 286.74 160.606 286.74C159.987 286.74 159.485 287.242 159.485 287.861C159.485 288.48 159.987 288.982 160.606 288.982C161.224 288.982 161.726 288.48 161.726 287.861Z" fill="black"/>
                <path d="M157.29 287.254C157.886 287.079 158.213 286.448 158.038 285.853C157.862 285.257 157.232 284.93 156.636 285.105C156.041 285.28 155.714 285.911 155.889 286.506C156.064 287.102 156.695 287.429 157.29 287.254Z" fill="black"/>
                <path d="M164.296 287.254C164.891 287.079 165.218 286.448 165.043 285.853C164.868 285.257 164.238 284.93 163.642 285.105C163.047 285.28 162.72 285.911 162.895 286.506C163.07 287.102 163.7 287.429 164.296 287.254Z" fill="black"/>
                <path d="M206.541 327.753C191.665 324.413 159.497 323.199 159.497 323.199C151.744 323.444 130.166 324.401 115.303 327.765C109.453 329.084 105.763 334.888 107.013 340.762L120.779 405.178C122.157 411.624 127.843 416.225 134.44 416.225H187.473C194.059 416.225 199.757 411.624 201.134 405.178L214.901 340.762C216.162 334.865 212.437 329.073 206.552 327.753H206.541Z" fill="#FADD4B" stroke="black" stroke-linecap="round" stroke-linejoin="round"/>
                <path d="M199.733 326.515C183.608 324.098 159.496 323.198 159.496 323.198C153.191 323.397 137.755 324.074 124.211 326.118L139.81 416.225H182.207L199.733 326.515Z" stroke="black" stroke-linecap="round" stroke-linejoin="round"/>
                <path d="M173.404 342.782H147.577C142.302 342.782 138.025 347.059 138.025 352.335V364.947C138.025 370.223 142.302 374.5 147.577 374.5H173.404C178.679 374.5 182.955 370.223 182.955 364.947V352.335C182.955 347.059 178.679 342.782 173.404 342.782Z" fill="#FADD4B" stroke="black" stroke-linecap="round" stroke-linejoin="round"/>
                <path d="M152.948 355.85H145.674V363.125H152.948V355.85Z" fill="#FADD4B" stroke="black" stroke-linecap="round" stroke-linejoin="round"/>
                <path d="M164.134 355.85H156.859V363.125H164.134V355.85Z" fill="#FADD4B" stroke="black" stroke-linecap="round" stroke-linejoin="round"/>
                <path d="M175.319 355.85H168.045V363.125H175.319V355.85Z" fill="#FADD4B" stroke="black" stroke-linecap="round" stroke-linejoin="round"/>
                <path d="M58.2873 395.859H187.706C190.929 395.859 193.545 398.474 193.545 401.698V474.416H52.4492V401.698C52.4492 398.474 55.0647 395.859 58.2873 395.859Z" fill="#FADD4B" stroke="black" stroke-linecap="round" stroke-linejoin="round"/>
                <path d="M193.545 421.994C175.82 426.502 157.629 437.934 123.721 454.062C91.0157 469.605 64.2655 469.348 52.4492 468.133V474.428H193.545V421.994Z" fill="black" stroke="black" stroke-linecap="round" stroke-linejoin="round"/>
                <path d="M193.545 470.06H52.4492V474.428H193.545V470.06Z" fill="#FADD4B" stroke="black" stroke-linecap="round" stroke-linejoin="round"/>
                <path d="M130.271 435.143C130.271 439.16 127.014 442.419 122.997 442.419C118.98 442.419 115.723 439.16 115.723 435.143C115.723 431.126 118.98 427.868 122.997 427.868C127.014 427.868 130.271 431.126 130.271 435.143Z" fill="#FADD4B" stroke="black" stroke-linecap="round" stroke-linejoin="round"/>
                </g>
                <defs>
                <clipPath id="clip0_190_657">
                <rect width="520" height="475" fill="white"/>
                </clipPath>
                </defs>
              </svg>