  <svg width="354" height="309" viewBox="0 0 354 309" fill="none" xmlns="http://www.w3.org/2000/svg">
              <path d="M108.405 76.4626L108.255 76.2625H108.005H11.6762C5.50715 76.2625 0.5 71.2548 0.5 65.0846V28.883C0.5 22.7129 5.50715 17.7051 11.6762 17.7051H108.589C114.758 17.7051 119.765 22.7129 119.765 28.883V91.6115L108.405 76.4626Z" fill="#C1DA6A" stroke="black"/>
              <path d="M25.5549 44.4033V35.4092H28.1045V56.5622H25.5549V47.5681V47.0681H25.0549H21.0967H20.5967V47.5681V56.5622H18.1172V35.4092H20.5967V44.4033V44.9033H21.0967H25.0549H25.5549V44.4033Z" fill="black" stroke="black"/>
              <path d="M31.625 35.4092H34.1045V56.5622H31.625V35.4092Z" fill="black" stroke="black"/>
              <path d="M44.6586 37.5739H41.5156V35.4092H51.2811V37.5739H48.1381H47.6381V38.0739V56.5622H45.1586V38.0739V37.5739H44.6586Z" fill="black" stroke="black"/>
              <path d="M61.2502 44.4033V35.4092H63.7998V56.5622H61.2502V47.5681V47.0681H60.7502H56.792H56.292V47.5681V56.5622H53.8125V35.4092H56.292V44.4033V44.9033H56.792H60.7502H61.2502V44.4033Z" fill="black" stroke="black"/>
              <path d="M69.7998 44.2516V44.7516H70.2998H74.5754V46.9163H70.2998H69.7998V47.4163V53.9092V54.4092H70.2998H75.8131V56.5739H67.3203V35.4209H75.8131V37.5856H70.2998H69.7998V38.0856V44.2516Z" fill="black" stroke="black"/>
              <path d="M88.4111 54.3763C88.4111 55.1789 88.4285 55.8768 88.6016 56.5622H86.1021C86.0623 56.4222 86.0296 56.2784 86.0024 56.0901C85.9521 55.7417 85.92 55.2326 85.92 54.3413V50.8612C85.92 49.7987 85.7434 48.9473 85.2568 48.3632C84.7502 47.7552 84.0045 47.5469 83.1431 47.5469H81.9404H81.4404V48.0469V56.5622H78.9609V35.4092H83.7152C85.4512 35.4092 86.5859 35.8144 87.2935 36.5282C88.0019 37.2428 88.3761 38.3613 88.3761 40.0008V41.7408C88.3761 42.8307 88.2022 43.6868 87.8732 44.3425C87.5491 44.9883 87.0628 45.4639 86.3852 45.7849L85.369 46.2663L86.4071 46.6984C87.8541 47.3006 88.4111 48.6966 88.4111 50.9547V54.3763ZM81.4404 44.8821V45.3821H81.9404H83.3066C84.0174 45.3821 84.6981 45.2263 85.1926 44.7277C85.6852 44.231 85.8966 43.4913 85.8966 42.5465V40.3628C85.8966 39.5371 85.7598 38.8306 85.3683 38.3264C84.954 37.7927 84.3372 37.5856 83.6218 37.5856H81.9404V38.0739H81.4404V38.0856V38.5856V44.8821Z" fill="black" stroke="black"/>
              <path d="M94.1592 44.2516V44.7516H94.6592H98.9348V46.9163H94.6592H94.1592V47.4163V53.9092V54.4092H94.6592H100.172V56.5739H91.6797V35.4209H100.172V37.5856H94.6592H94.1592V38.0856V44.2516Z" fill="black" stroke="black"/>
              <path d="M105.383 51.6575H103.737L103.32 44.1326V35.4092H105.8V44.1326L105.383 51.6575ZM105.741 54.2107V56.5622H103.39V54.2107H105.741Z" fill="black" stroke="black"/>
              <path d="M239.896 136.906H222.055V291.989H239.896V136.906Z" fill="black" stroke="black" stroke-linecap="round" stroke-linejoin="round"/>
              <path d="M98.4143 193.066V203.973H169.522V193.066H98.4143Z" fill="black" stroke="black" stroke-linecap="round" stroke-linejoin="round"/>

              <path d="M110.279 199.244C110.279 204.756 105.807 209.24 100.284 209.24C99.957 209.24 99.63 209.217 99.3031 209.193C94.2356 208.691 90.2891 204.429 90.2891 199.244C90.2891 193.732 94.7611 189.247 100.284 189.247C104.943 189.247 108.854 192.447 109.963 196.756C110.174 197.55 110.279 198.391 110.279 199.244Z" fill="#FFF7D0" stroke="black" stroke-linecap="round" stroke-linejoin="round"/>
              <path d="M206.723 199.56C209.697 186.849 201.805 174.134 189.096 171.16C176.388 168.186 163.675 176.079 160.701 188.789C157.727 201.5 165.619 214.215 178.327 217.189C191.036 220.163 203.749 212.27 206.723 199.56Z" fill="#FADD4B" stroke="black" stroke-linecap="round" stroke-linejoin="round"/>
              <path d="M188.105 204.74C193.944 202.304 196.703 195.596 194.268 189.757C191.832 183.917 185.125 181.158 179.287 183.593C173.448 186.029 170.689 192.737 173.124 198.576C175.559 204.416 182.266 207.175 188.105 204.74Z" fill="black" stroke="black" stroke-linecap="round" stroke-linejoin="round"/>
              <path d="M179.644 294.174H284.496L286.014 287.073C287.275 281.176 283.55 275.384 277.666 274.064C262.79 270.724 230.622 269.51 230.622 269.51C222.869 269.755 201.291 270.713 186.428 274.076C180.578 275.395 176.888 281.199 178.138 287.073L179.655 294.174H179.644Z" fill="#FADD4B" stroke="black" stroke-linecap="round" stroke-linejoin="round"/>
              <path d="M257.312 271.261C243.884 270.024 230.609 269.521 230.609 269.521C225.728 269.673 215.359 270.117 204.641 271.261C207.77 281.947 218.372 289.818 230.97 289.818C243.569 289.818 254.171 281.947 257.3 271.273L257.312 271.261Z" fill="#FADD4B" stroke="black" stroke-linecap="round" stroke-linejoin="round"/>
              <path d="M340.494 244.099L347.016 235.357L290.025 192.825L283.503 201.567L340.494 244.099Z" fill="black" stroke="black" stroke-linecap="round" stroke-linejoin="round"/>
              <path d="M312.127 269.9L320.867 276.423L346.962 241.447L338.222 234.924L312.127 269.9Z" fill="black" stroke="black" stroke-linecap="round" stroke-linejoin="round"/>
              <path d="M334.68 232.07C337.984 227.644 344.243 226.733 348.668 230.038C348.936 230.237 349.182 230.447 349.427 230.657C353.187 234.079 353.805 239.871 350.7 244.028C347.395 248.454 341.137 249.365 336.711 246.06C332.975 243.269 331.749 238.365 333.442 234.254C333.757 233.495 334.166 232.759 334.68 232.07Z" fill="#FFF7D0" stroke="black" stroke-linecap="round" stroke-linejoin="round"/>
              <path d="M311.879 260.004C314.961 255.426 321.173 254.211 325.75 257.283C326.019 257.47 326.287 257.668 326.532 257.867C330.456 261.101 331.355 266.847 328.459 271.156C325.377 275.734 319.165 276.948 314.588 273.877C310.723 271.273 309.252 266.438 310.746 262.246C311.015 261.475 311.4 260.716 311.879 260.004Z" fill="#FFF7D0" stroke="black" stroke-linecap="round" stroke-linejoin="round"/>
              <path d="M281.881 272.518L298.312 274.132L298.933 267.809L282.502 266.195L281.881 272.518Z" fill="black" stroke="black" stroke-linecap="round" stroke-linejoin="round"/>
              <path d="M280.867 264.325L288.97 265.119L288.024 274.718L279.921 273.924C277.271 273.667 275.332 271.308 275.589 268.657C275.846 266.006 278.205 264.068 280.855 264.325H280.867Z" fill="#FFF7D0" stroke="black" stroke-linecap="round" stroke-linejoin="round"/>
              <path d="M297.109 268.482C302.503 260.448 313.409 258.311 321.442 263.717C321.921 264.044 322.376 264.383 322.82 264.733C329.697 270.409 331.285 280.499 326.206 288.043C320.812 296.077 309.906 298.214 301.873 292.807C295.089 288.253 292.52 279.763 295.124 272.394C295.603 271.04 296.268 269.72 297.109 268.47V268.482Z" fill="#FFF7D0" stroke="black" stroke-linecap="round" stroke-linejoin="round"/>
              <path d="M278.227 286.664L299.956 270.432L303.447 275.08L281.718 291.312L278.227 286.664Z" fill="black" stroke="black" stroke-linecap="round" stroke-linejoin="round"/>
              <path d="M275.986 286.419L281.952 281.947L287.253 289.012L281.287 293.484C279.337 294.944 276.569 294.559 275.11 292.597C273.65 290.647 274.036 287.879 275.997 286.419H275.986Z" fill="#FFF7D0" stroke="black" stroke-linecap="round" stroke-linejoin="round"/>
              <path d="M306.274 275.43C307.009 272.079 304.896 268.774 301.545 268.027C298.194 267.291 294.889 269.404 294.142 272.756C293.407 276.108 295.52 279.412 298.871 280.16C302.222 280.896 305.527 278.782 306.274 275.43Z" fill="#FFF7D0" stroke="black" stroke-linecap="round" stroke-linejoin="round"/>
              <path d="M317.801 302.99L321.012 280.708L325.787 281.386L322.576 303.667L317.801 302.99Z" fill="black" stroke="black" stroke-linecap="round" stroke-linejoin="round"/>
              <path d="M316.328 304.169L317.204 298.038L324.466 299.078L323.59 305.209C323.31 307.217 321.454 308.607 319.445 308.315C317.437 308.035 316.048 306.178 316.34 304.169H316.328Z" fill="#FFF7D0" stroke="black" stroke-linecap="round" stroke-linejoin="round"/>
              <path d="M327.655 279.926C326.125 277.532 322.937 276.82 320.532 278.361C318.138 279.891 317.426 283.079 318.967 285.485C320.497 287.879 323.685 288.591 326.09 287.049C328.484 285.52 329.196 282.332 327.655 279.926Z" fill="#FFF7D0" stroke="black" stroke-linecap="round" stroke-linejoin="round"/>
              <path d="M296.305 300.024L310.772 277.089L315.699 280.183L301.221 303.119L296.305 300.024Z" fill="black" stroke="black" stroke-linecap="round" stroke-linejoin="round"/>
              <path d="M294.107 300.596L298.077 294.29L305.55 298.985L301.58 305.291C300.284 307.358 297.552 307.977 295.497 306.681C293.43 305.384 292.811 302.652 294.107 300.596Z" fill="#FFF7D0" stroke="black" stroke-linecap="round" stroke-linejoin="round"/>
              <path d="M318.461 279.494C317.947 276.108 314.795 273.772 311.397 274.274C308.011 274.788 305.675 277.941 306.178 281.339C306.691 284.726 309.844 287.062 313.242 286.559C316.628 286.046 318.963 282.893 318.461 279.494Z" fill="#FFF7D0" stroke="black" stroke-linecap="round" stroke-linejoin="round"/>
              <path d="M291.666 214.461C302.64 207.395 305.81 192.769 298.746 181.793C291.681 170.816 277.057 167.646 266.082 174.712C255.108 181.778 251.938 196.403 259.003 207.38C266.067 218.356 280.691 221.526 291.666 214.461Z" fill="#FADD4B" stroke="black" stroke-linecap="round" stroke-linejoin="round"/>
              <path d="M289.297 199.372C291.935 193.621 289.411 186.821 283.661 184.183C277.911 181.545 271.112 184.069 268.474 189.82C265.837 195.571 268.36 202.371 274.11 205.009C279.86 207.647 286.66 205.123 289.297 199.372Z" fill="black" stroke="black" stroke-linecap="round" stroke-linejoin="round"/>
              <path d="M230.975 147.743C251.939 147.743 268.934 130.746 268.934 109.778C268.934 88.811 251.939 71.8135 230.975 71.8135C210.011 71.8135 193.016 88.811 193.016 109.778C193.016 130.746 210.011 147.743 230.975 147.743Z" fill="#FFF7D0" stroke="black" stroke-linecap="round" stroke-linejoin="round"/>
              <path d="M285.233 135.061C294.726 123.185 300.412 108.132 300.412 91.7479C300.412 53.3859 269.318 22.2876 230.962 22.2876C192.605 22.2876 161.512 53.3859 161.512 91.7479C161.512 108.132 167.198 123.185 176.691 135.061H285.221H285.233Z" fill="#FFF7D0" stroke="black" stroke-linecap="round" stroke-linejoin="round"/>
              <path d="M273.438 65.5312H186.731C181.456 65.5312 177.18 69.8081 177.18 75.0838V105.82C177.18 111.096 181.456 115.373 186.731 115.373H273.438C278.713 115.373 282.99 111.096 282.99 105.82V75.0838C282.99 69.8081 278.713 65.5312 273.438 65.5312Z" stroke="black" stroke-linecap="round" stroke-linejoin="round"/>
              <path d="M188.637 88.4315C190.984 81.8919 197.23 77.2207 204.563 77.2207C211.896 77.2207 217.582 81.4832 220.151 87.5557" stroke="black" stroke-width="5" stroke-linecap="round" stroke-linejoin="round"/>
              <path d="M240.922 88.4315C243.269 81.8919 249.516 77.2207 256.848 77.2207C264.181 77.2207 269.867 81.4832 272.436 87.5557" stroke="black" stroke-width="5" stroke-linecap="round" stroke-linejoin="round"/>
              <path d="M221.808 99.9927C222.416 104.711 226.432 108.366 231.324 108.366C236.217 108.366 240.233 104.711 240.841 99.9927H221.808Z" fill="#FFF7D0" stroke="black" stroke-linecap="round" stroke-linejoin="round"/>
              <path d="M320.825 103.928C316.808 103.928 313.562 100.67 313.562 96.6644V80.1401C313.562 76.1229 316.82 72.8765 320.825 72.8765C324.842 72.8765 328.088 76.1346 328.088 80.1401V96.6644C328.088 100.682 324.83 103.928 320.825 103.928Z" fill="black" stroke="black" stroke-linecap="round" stroke-linejoin="round"/>
              <path d="M139.118 103.928C135.101 103.928 131.855 100.67 131.855 96.6644V80.1401C131.855 76.1229 135.113 72.8765 139.118 72.8765C143.135 72.8765 146.381 76.1346 146.381 80.1401V96.6644C146.381 100.682 143.123 103.928 139.118 103.928Z" fill="black" stroke="black" stroke-linecap="round" stroke-linejoin="round"/>
              <path d="M162.398 29.3645C156.198 38.5434 152.578 49.614 152.578 61.5255V73.5188" stroke="black" stroke-width="14" stroke-linecap="round" stroke-linejoin="round"/>
              <path d="M300.271 29.4112C289.938 14.0781 272.423 4 252.539 4H210.096C190.246 4 172.732 14.0664 162.398 29.3645" stroke="black" stroke-width="7" stroke-linecap="round" stroke-linejoin="round"/>
              <path d="M310.066 73.5304V61.5371C310.066 49.6373 306.458 38.59 300.27 29.4111" stroke="black" stroke-width="14" stroke-linecap="round" stroke-linejoin="round"/>
              <path d="M158.373 60.603H148.635C142.999 60.603 138.43 65.1726 138.43 70.8095V104.547C138.43 110.184 142.999 114.754 148.635 114.754H158.373C164.009 114.754 168.578 110.184 168.578 104.547V70.8095C168.578 65.1726 164.009 60.603 158.373 60.603Z" fill="#FFCD07" stroke="black" stroke-linecap="round" stroke-linejoin="round"/>
              <path d="M155.032 60.603H151.961V114.754H155.032V60.603Z" stroke="black" stroke-linecap="round" stroke-linejoin="round"/>
              <path d="M312.17 60.603H302.432C296.796 60.603 292.227 65.1726 292.227 70.8095V104.547C292.227 110.184 296.796 114.754 302.432 114.754H312.17C317.806 114.754 322.375 110.184 322.375 104.547V70.8095C322.375 65.1726 317.806 60.603 312.17 60.603Z" fill="#FFCD07" stroke="black" stroke-linecap="round" stroke-linejoin="round"/>
              <path d="M308.829 60.603H305.758V114.754H308.829V60.603Z" stroke="black" stroke-linecap="round" stroke-linejoin="round"/>
              <path d="M231.217 55.6865C242.029 55.6865 252.094 50.2096 257.967 41.1358L264.553 30.9527C254.605 25.4407 243.15 22.2993 230.972 22.2993C218.794 22.2993 206.65 25.6509 196.492 31.4782L206.382 43.7867C212.43 51.319 221.561 55.6982 231.217 55.6982V55.6865Z" stroke="black" stroke-linecap="round" stroke-linejoin="round"/>
              <path d="M232.851 120.417C232.851 119.798 232.349 119.296 231.731 119.296C231.112 119.296 230.61 119.798 230.61 120.417C230.61 121.036 231.112 121.538 231.731 121.538C232.349 121.538 232.851 121.036 232.851 120.417Z" fill="black"/>
              <path d="M232.851 124.341C232.851 123.722 232.349 123.22 231.731 123.22C231.112 123.22 230.61 123.722 230.61 124.341C230.61 124.96 231.112 125.462 231.731 125.462C232.349 125.462 232.851 124.96 232.851 124.341Z" fill="black"/>
              <path d="M228.417 123.734C229.013 123.559 229.34 122.928 229.165 122.332C228.989 121.737 228.359 121.41 227.763 121.585C227.168 121.76 226.841 122.391 227.016 122.986C227.191 123.582 227.822 123.909 228.417 123.734Z" fill="black"/>
              <path d="M235.421 123.734C236.017 123.559 236.344 122.928 236.168 122.332C235.993 121.737 235.363 121.41 234.767 121.585C234.172 121.76 233.845 122.391 234.02 122.986C234.195 123.582 234.826 123.909 235.421 123.734Z" fill="black"/>
              <path d="M277.666 164.233C262.79 160.893 230.622 159.679 230.622 159.679C222.869 159.924 201.291 160.882 186.428 164.245C180.578 165.564 176.888 171.368 178.138 177.242L191.904 241.658C193.282 248.104 198.968 252.705 205.565 252.705H258.598C265.184 252.705 270.882 248.104 272.259 241.658L286.026 177.242C287.287 171.345 283.562 165.553 277.677 164.233H277.666Z" fill="#FADD4B" stroke="black" stroke-linecap="round" stroke-linejoin="round"/>
              <path d="M270.858 162.995C254.733 160.578 230.621 159.679 230.621 159.679C224.316 159.877 208.88 160.555 195.336 162.598L210.935 252.705H253.332L270.858 162.995Z" stroke="black" stroke-linecap="round" stroke-linejoin="round"/>
              <path d="M244.531 179.263H218.703C213.429 179.263 209.152 183.54 209.152 188.815V201.427C209.152 206.703 213.429 210.98 218.703 210.98H244.531C249.806 210.98 254.082 206.703 254.082 201.427V188.815C254.082 183.54 249.806 179.263 244.531 179.263Z" fill="#FADD4B" stroke="black" stroke-linecap="round" stroke-linejoin="round"/>
              <path d="M224.075 192.33H216.801V199.605H224.075V192.33Z" fill="#FADD4B" stroke="black" stroke-linecap="round" stroke-linejoin="round"/>
              <path d="M235.259 192.33H227.984V199.605H235.259V192.33Z" fill="#FADD4B" stroke="black" stroke-linecap="round" stroke-linejoin="round"/>
              <path d="M246.446 192.33H239.172V199.606H246.446V192.33Z" fill="#FADD4B" stroke="black" stroke-linecap="round" stroke-linejoin="round"/>
            </svg>