<svg width="18" height="18" viewBox="0 0 18 18" fill="none" xmlns="http://www.w3.org/2000/svg">
<path d="M7.0667 10.0468C7.00625 10.0468 5.67634 10.0468 5.07183 10.0468C4.74943 10.0468 4.64868 9.92592 4.64868 9.62367C4.64868 8.81766 4.64868 7.9915 4.64868 7.1855C4.64868 6.8631 4.76958 6.76235 5.07183 6.76235H7.0667C7.0667 6.7019 7.0667 5.53319 7.0667 4.98913C7.0667 4.18313 7.20775 3.41742 7.61075 2.71217C8.0339 1.98676 8.63841 1.50316 9.40411 1.22106C9.90787 1.03971 10.4116 0.959106 10.9557 0.959106H12.9304C13.2125 0.959106 13.3334 1.08001 13.3334 1.36211V3.65922C13.3334 3.94133 13.2125 4.06223 12.9304 4.06223C12.3863 4.06223 11.8423 4.06223 11.2982 4.08238C10.7542 4.08238 10.4721 4.34433 10.4721 4.90853C10.4519 5.51304 10.4721 6.09739 10.4721 6.72205H12.8095C13.1319 6.72205 13.2528 6.84295 13.2528 7.16535V9.60352C13.2528 9.92592 13.152 10.0267 12.8095 10.0267C12.0841 10.0267 10.5325 10.0267 10.4721 10.0267V16.5956C10.4721 16.9382 10.3713 17.0591 10.0086 17.0591C9.16231 17.0591 8.33616 17.0591 7.48985 17.0591C7.1876 17.0591 7.0667 16.9382 7.0667 16.6359C7.0667 14.5202 7.0667 10.1073 7.0667 10.0468Z" fill="black"/>
</svg>
