<svg width="119" height="37" viewBox="0 0 119 37" fill="none" xmlns="http://www.w3.org/2000/svg">
<g clip-path="url(#clip0_190_1651)">
<path d="M14.875 13.1781V17.1407H24.4342C24.1544 19.3524 23.4083 20.9651 22.2426 22.1171C20.8437 23.4994 18.652 25.0199 14.875 25.0199C8.99961 25.0199 4.38323 20.32 4.38323 14.5143C4.38323 8.70859 8.95298 3.96264 14.875 3.96264C18.0458 3.96264 20.3774 5.20672 22.1027 6.77335L24.9005 4.00872C22.5223 1.75093 19.3049 0 14.875 0C6.80799 0 0 6.49689 0 14.4682C0 22.4396 6.80799 28.9365 14.875 28.9365C19.2582 28.9365 22.5223 27.5081 25.087 24.8817C27.7449 22.2553 28.5376 18.6152 28.5376 15.6202C28.5376 14.6986 28.491 13.8692 28.3045 13.132H14.875V13.1781Z" fill="#4285F4"/>
<path d="M40.5204 9.95264C35.2978 9.95264 31.0078 13.8692 31.0078 19.3063C31.0078 24.6973 35.2512 28.66 40.5204 28.66C45.7896 28.66 50.0329 24.6973 50.0329 19.3063C49.9863 13.8692 45.7429 9.95264 40.5204 9.95264ZM40.5204 24.9738C37.6759 24.9738 35.2045 22.6239 35.2045 19.3063C35.2045 15.9427 37.6759 13.6388 40.5204 13.6388C43.3648 13.6388 45.8362 15.9427 45.8362 19.3063C45.8362 22.6239 43.3648 24.9738 40.5204 24.9738Z" fill="#EA4335"/>
<path d="M87.0125 12.0261H86.8726C85.94 10.9203 84.168 9.95264 81.8832 9.95264C77.1735 9.95264 73.0234 14.0074 73.0234 19.3063C73.0234 24.5591 77.1269 28.66 81.8832 28.66C84.168 28.66 85.94 27.6463 86.8726 26.5404H87.0125V27.8306C87.0125 31.3785 85.054 33.3138 81.9764 33.3138C79.4584 33.3138 77.873 31.5168 77.2201 29.9962L73.6296 31.4707C74.6555 33.9589 77.4067 37 82.023 37C86.8726 37 91.0226 34.1892 91.0226 27.2777V10.4595H87.1057V12.0261H87.0125ZM82.2562 24.9738C79.4118 24.9738 77.2201 22.5778 77.2201 19.3063C77.2201 15.9888 79.4118 13.6388 82.2562 13.6388C85.1006 13.6388 87.2922 16.0348 87.2922 19.3524C87.3389 22.5778 85.1006 24.9738 82.2562 24.9738Z" fill="#4285F4"/>
<path d="M61.6922 9.95264C56.4697 9.95264 52.1797 13.8692 52.1797 19.3063C52.1797 24.6973 56.423 28.66 61.6922 28.66C66.9614 28.66 71.2048 24.6973 71.2048 19.3063C71.1581 13.8692 66.9148 9.95264 61.6922 9.95264ZM61.6922 24.9738C58.8478 24.9738 56.3764 22.6239 56.3764 19.3063C56.3764 15.9427 58.8478 13.6388 61.6922 13.6388C64.5367 13.6388 67.0081 15.9427 67.0081 19.3063C67.0081 22.6239 64.5367 24.9738 61.6922 24.9738Z" fill="#FBBC05"/>
<path d="M94.2383 0.368652H98.3417V28.614H94.2383V0.368652Z" fill="#34A853"/>
<path d="M110.934 24.9741C108.835 24.9741 107.343 24.0065 106.364 22.1634L119.001 17.0028L118.581 15.943C117.788 13.8695 115.41 9.99902 110.514 9.99902C105.664 9.99902 101.608 13.7774 101.608 19.3527C101.608 24.6055 105.618 28.7064 110.98 28.7064C115.317 28.7064 117.835 26.08 118.861 24.5594L115.643 22.4399C114.524 23.9143 113.032 24.9741 110.934 24.9741ZM110.654 13.4548C112.333 13.4548 113.778 14.3303 114.244 15.5283L105.711 19.0302C105.664 15.0675 108.509 13.4548 110.654 13.4548Z" fill="#EA4335"/>
</g>
<defs>
<clipPath id="clip0_190_1651">
<rect width="119" height="37" fill="white"/>
</clipPath>
</defs>
</svg>
