<svg width="38" height="38" viewBox="0 0 38 38" fill="none" xmlns="http://www.w3.org/2000/svg">
<path d="M26.9654 3.58007C26.9116 3.34692 26.7676 3.14458 26.5649 3.01736C26.3622 2.89013 26.1174 2.84836 25.884 2.9012C23.6986 3.39845 21.4092 3.14006 19.3897 2.16821C19.268 2.10893 19.1345 2.07812 18.9991 2.07812C18.8638 2.07812 18.7303 2.10893 18.6086 2.16821C17.945 2.48367 17.2504 2.72931 16.536 2.90118C15.0806 3.2316 13.5696 3.2316 12.1142 2.90118C11.8808 2.84838 11.636 2.89016 11.4334 3.01739C11.2307 3.14462 11.0867 3.34694 11.0328 3.58008C9.43916 11.3619 11.9109 19.0292 18.999 20.8285C26.0877 19.0296 28.5586 11.3617 26.9654 3.58007ZM22.3575 10.2727L18.7288 13.9074C18.5584 14.0734 18.3299 14.1664 18.092 14.1664C17.854 14.1664 17.6255 14.0734 17.4551 13.9074L15.6408 12.087C15.5566 12.0037 15.4897 11.9046 15.4441 11.7953C15.3984 11.686 15.3749 11.5687 15.3749 11.4502C15.3749 11.3318 15.3984 11.2145 15.4441 11.1052C15.4897 10.9959 15.5566 10.8967 15.6408 10.8134C15.8104 10.6459 16.0392 10.5521 16.2776 10.5521C16.516 10.5521 16.7448 10.6459 16.9145 10.8134L18.092 11.9909L21.0838 8.99903C21.2535 8.83394 21.4814 8.74229 21.7181 8.74392C21.9548 8.74555 22.1814 8.84031 22.3488 9.00772C22.5162 9.17513 22.611 9.40171 22.6126 9.63845C22.6142 9.87519 22.5226 10.103 22.3575 10.2727Z" fill="#FFCD07"/>
<path d="M35.0615 27.9512C35.246 28.3452 35.271 28.7952 35.1315 29.2073C34.992 29.6193 34.6986 29.9616 34.3127 30.1624L24.9578 35.0315C23.486 35.8032 21.8061 36.0843 20.1633 35.8338L6.0449 33.686L2.77905 28.026L11.2754 23.1178C11.9787 22.7136 12.7568 22.4565 13.5625 22.3621C14.3682 22.2676 15.1847 22.3377 15.9625 22.5682L24.004 26.0046C24.3977 26.1792 24.7166 26.4878 24.9041 26.8755C25.0915 27.2632 25.1353 27.7049 25.0276 28.1219C24.92 28.5388 24.6678 28.9041 24.3161 29.1526C23.9644 29.4011 23.5359 29.5167 23.1069 29.4789L17.5607 28.9231C17.3127 28.9001 17.0656 28.9759 16.873 29.134C16.6805 29.2921 16.5581 29.5197 16.5323 29.7675C16.5066 30.0153 16.5795 30.2632 16.7354 30.4575C16.8913 30.6519 17.1175 30.7769 17.3649 30.8055L22.9175 31.3677C23.746 31.4528 24.579 31.2559 25.2817 30.8088C25.9845 30.3618 26.5158 29.6906 26.7897 28.9041L33.0547 27.0484C33.4418 26.9337 33.8573 26.9618 34.2256 27.1274C34.5938 27.2931 34.8904 27.5854 35.0615 27.9512Z" fill="#FFCD07"/>
</svg>
