<svg width="454" height="478" viewBox="0 0 454 478" fill="none" xmlns="http://www.w3.org/2000/svg">
<g clip-path="url(#clip0_190_444)">
<path d="M437.085 123.119C432.277 123.119 428.369 119.205 428.369 114.391C428.369 109.577 432.277 105.664 437.085 105.664C441.892 105.664 445.807 109.577 445.807 114.391C445.807 119.205 441.892 123.119 437.085 123.119ZM437.085 106.828C432.919 106.828 429.532 110.22 429.532 114.391C429.532 118.563 432.919 121.954 437.085 121.954C441.251 121.954 444.638 118.563 444.638 114.391C444.638 110.22 441.251 106.828 437.085 106.828Z" fill="#656565"/>
<path d="M437.084 103.449C436.977 103.449 436.893 103.365 436.893 103.257V99.3674C436.893 99.2593 436.977 99.1753 437.084 99.1753C437.192 99.1753 437.276 99.2593 437.276 99.3674V103.257C437.276 103.365 437.192 103.449 437.084 103.449Z" fill="#656565"/>
<path d="M431.528 104.944C431.462 104.944 431.396 104.908 431.36 104.848L429.418 101.474C429.364 101.378 429.394 101.264 429.489 101.21C429.579 101.156 429.699 101.186 429.753 101.282L431.695 104.655C431.749 104.752 431.719 104.866 431.623 104.92C431.593 104.938 431.557 104.944 431.528 104.944Z" fill="#656565"/>
<path d="M427.458 109.013C427.422 109.013 427.392 109.007 427.362 108.989L423.999 107.044C423.903 106.99 423.873 106.87 423.927 106.78C423.981 106.684 424.101 106.654 424.191 106.708L427.554 108.653C427.649 108.707 427.679 108.827 427.626 108.917C427.59 108.977 427.524 109.013 427.458 109.013Z" fill="#656565"/>
<path d="M446.71 109.013C446.644 109.013 446.578 108.977 446.542 108.917C446.488 108.821 446.518 108.707 446.614 108.653L449.983 106.708C450.073 106.654 450.193 106.684 450.247 106.78C450.301 106.876 450.271 106.99 450.175 107.044L446.806 108.989C446.776 109.007 446.74 109.013 446.71 109.013Z" fill="#656565"/>
<path d="M442.642 104.938C442.606 104.938 442.576 104.932 442.546 104.914C442.45 104.859 442.42 104.739 442.474 104.649L444.416 101.282C444.47 101.186 444.59 101.156 444.68 101.21C444.776 101.264 444.806 101.384 444.752 101.474L442.81 104.841C442.774 104.902 442.708 104.938 442.642 104.938Z" fill="#656565"/>
<path d="M438.907 122.729H435.262C435.154 122.729 435.07 122.645 435.07 122.537V106.246C435.07 106.138 435.154 106.054 435.262 106.054H438.907C439.015 106.054 439.098 106.138 439.098 106.246V122.537C439.098 122.645 439.015 122.729 438.907 122.729ZM435.46 122.339H438.715V106.438H435.46V122.339Z" fill="#656565"/>
<path d="M437.085 152.885C432.277 152.885 428.369 148.971 428.369 144.157C428.369 139.343 432.277 135.424 437.085 135.424C441.892 135.424 445.807 139.337 445.807 144.157C445.807 148.977 441.892 152.885 437.085 152.885ZM437.085 136.594C432.919 136.594 429.532 139.986 429.532 144.157C429.532 148.329 432.919 151.72 437.085 151.72C441.251 151.72 444.638 148.329 444.638 144.157C444.638 139.986 441.251 136.594 437.085 136.594Z" fill="#656565"/>
<path d="M437.084 133.215C436.977 133.215 436.893 133.131 436.893 133.023V129.133C436.893 129.025 436.977 128.941 437.084 128.941C437.192 128.941 437.276 129.025 437.276 129.133V133.023C437.276 133.131 437.192 133.215 437.084 133.215Z" fill="#656565"/>
<path d="M431.528 134.71C431.462 134.71 431.396 134.673 431.36 134.613L429.418 131.24C429.364 131.144 429.394 131.03 429.489 130.976C429.579 130.922 429.699 130.952 429.753 131.048L431.695 134.421C431.749 134.517 431.719 134.631 431.623 134.686C431.593 134.704 431.557 134.71 431.528 134.71Z" fill="#656565"/>
<path d="M427.458 138.785C427.422 138.785 427.392 138.779 427.362 138.761L423.999 136.816C423.903 136.762 423.873 136.642 423.927 136.552C423.981 136.456 424.101 136.426 424.191 136.48L427.554 138.425C427.649 138.479 427.679 138.599 427.626 138.689C427.59 138.749 427.524 138.785 427.458 138.785Z" fill="#656565"/>
<path d="M446.71 138.785C446.644 138.785 446.578 138.749 446.542 138.689C446.488 138.593 446.518 138.479 446.614 138.425L449.983 136.48C450.073 136.426 450.193 136.456 450.247 136.552C450.301 136.648 450.271 136.762 450.175 136.816L446.806 138.761C446.776 138.779 446.74 138.785 446.71 138.785Z" fill="#656565"/>
<path d="M442.642 134.709C442.606 134.709 442.576 134.703 442.546 134.685C442.45 134.631 442.42 134.511 442.474 134.421L444.416 131.054C444.47 130.958 444.59 130.928 444.68 130.982C444.776 131.036 444.806 131.156 444.752 131.246L442.81 134.613C442.774 134.673 442.708 134.709 442.642 134.709Z" fill="#656565"/>
<path d="M445.224 146.174H428.955C428.848 146.174 428.764 146.09 428.764 145.982V142.333C428.764 142.225 428.848 142.141 428.955 142.141H445.224C445.332 142.141 445.416 142.225 445.416 142.333V145.982C445.416 146.09 445.332 146.174 445.224 146.174ZM429.147 145.784H445.026V142.525H429.147V145.784Z" fill="#656565"/>
<path d="M453.419 177.267H305.581C305.258 177.267 305 177.002 305 176.684V76.5822C305 76.2641 305.264 76 305.581 76H453.419C453.742 76 454 76.2641 454 76.5822V176.684C454 177.008 453.736 177.267 453.419 177.267ZM306.169 176.096H452.837V77.1705H306.169V176.102V176.096Z" fill="#656565"/>
<path d="M325.279 181H314.753C314.43 181 314.172 180.736 314.172 180.418V176.69C314.172 176.366 314.436 176.108 314.753 176.108H325.279C325.603 176.108 325.861 176.372 325.861 176.69V180.418C325.861 180.742 325.597 181 325.279 181ZM315.335 179.83H324.692V177.267H315.335V179.83Z" fill="#656565"/>
<path d="M444.248 181H433.722C433.398 181 433.141 180.736 433.141 180.418V176.69C433.141 176.366 433.404 176.108 433.722 176.108H444.248C444.572 176.108 444.829 176.372 444.829 176.69V180.418C444.829 180.742 444.566 181 444.248 181ZM434.304 179.83H443.661V177.267H434.304V179.83Z" fill="#656565"/>
<path d="M419.982 177.267C419.658 177.267 419.4 177.002 419.4 176.684V76.5822C419.4 76.2581 419.664 76 419.982 76C420.3 76 420.563 76.2641 420.563 76.5822V176.684C420.563 177.008 420.3 177.267 419.982 177.267Z" fill="#656565"/>
<path d="M419.982 160.496H320.015C319.691 160.496 319.434 160.232 319.434 159.914V92.5127C319.434 92.1885 319.697 91.9304 320.015 91.9304H419.982C420.305 91.9304 420.563 92.1945 420.563 92.5127V159.908C420.563 160.232 420.299 160.49 419.982 160.49V160.496ZM320.602 159.325H419.4V93.1009H320.602V159.325Z" fill="#656565"/>
<path d="M410.722 86.4982H403.391V167.327H410.722V86.4982Z" fill="#202020"/>
<path d="M410.721 167.915H403.39C403.067 167.915 402.809 167.651 402.809 167.333V86.4982C402.809 86.1741 403.073 85.916 403.39 85.916H410.721C411.045 85.916 411.303 86.1801 411.303 86.4982V167.327C411.303 167.651 411.039 167.909 410.721 167.909V167.915ZM403.978 166.744H410.14V87.0864H403.978V166.75V166.744Z" fill="#656565"/>
<path d="M403.407 104.049C403.359 104.049 403.305 104.031 403.269 103.995C403.191 103.917 403.191 103.797 403.269 103.719L410.582 96.3962C410.66 96.3181 410.78 96.3181 410.858 96.3962C410.936 96.4742 410.936 96.5942 410.858 96.6723L403.545 103.995C403.509 104.031 403.455 104.049 403.407 104.049Z" fill="#656565"/>
<path d="M403.858 152.963C403.81 152.963 403.757 152.945 403.721 152.909C403.643 152.831 403.643 152.711 403.721 152.633L410.584 145.76C410.662 145.682 410.782 145.682 410.86 145.76C410.938 145.838 410.938 145.958 410.86 146.036L403.996 152.909C403.96 152.945 403.906 152.963 403.858 152.963Z" fill="#656565"/>
<path d="M393.818 149.559H329.205C329.098 149.559 329.014 149.475 329.014 149.367V102.068C329.014 101.96 329.098 101.876 329.205 101.876H393.818C393.926 101.876 394.01 101.96 394.01 102.068V149.367C394.01 149.475 393.926 149.559 393.818 149.559ZM329.397 149.169H393.62V102.26H329.397V149.169Z" fill="#656565"/>
<path d="M351.804 149.595C351.756 149.595 351.702 149.577 351.666 149.541C351.588 149.463 351.588 149.343 351.666 149.265L393.32 107.555C393.398 107.477 393.518 107.477 393.596 107.555C393.674 107.633 393.674 107.753 393.596 107.831L351.942 149.541C351.906 149.577 351.852 149.595 351.804 149.595Z" fill="#656565"/>
<path d="M329.204 144.355C329.156 144.355 329.102 144.337 329.066 144.301C328.988 144.223 328.988 144.103 329.066 144.025L370.481 102.549C370.559 102.471 370.679 102.471 370.757 102.549C370.834 102.627 370.834 102.747 370.757 102.825L329.342 144.295C329.306 144.331 329.252 144.349 329.204 144.349V144.355Z" fill="#656565"/>
<path d="M370.619 168.179H352.396C352.072 168.179 351.814 167.915 351.814 167.597C351.814 167.279 352.078 167.014 352.396 167.014H370.619C370.942 167.014 371.2 167.279 371.2 167.597C371.2 167.915 370.936 168.179 370.619 168.179Z" fill="#656565"/>
<path d="M446.711 160.886H427.457C427.349 160.886 427.265 160.802 427.265 160.694C427.265 160.586 427.349 160.502 427.457 160.502H446.711C446.819 160.502 446.903 160.586 446.903 160.694C446.903 160.802 446.819 160.886 446.711 160.886Z" fill="#656565"/>
<path d="M446.711 165.202H427.457C427.349 165.202 427.265 165.118 427.265 165.01C427.265 164.902 427.349 164.818 427.457 164.818H446.711C446.819 164.818 446.903 164.902 446.903 165.01C446.903 165.118 446.819 165.202 446.711 165.202Z" fill="#656565"/>
<path d="M446.711 169.517H427.457C427.349 169.517 427.265 169.433 427.265 169.325C427.265 169.217 427.349 169.133 427.457 169.133H446.711C446.819 169.133 446.903 169.217 446.903 169.325C446.903 169.433 446.819 169.517 446.711 169.517Z" fill="#656565"/>
</g>
<g clip-path="url(#clip1_190_444)">
<path d="M82.8562 307C81.4871 307 80.1822 306.549 78.9842 305.712C78.15 305.132 77.3585 304.337 76.6953 303.414C76.353 302.941 75.5187 301.631 74.8556 299.591C74.3208 297.938 74.0213 296.155 73.9785 294.308V120.514C73.9999 118.13 74.4705 115.811 75.3048 113.857C75.6685 112.998 76.1605 112.139 76.6739 111.452C76.9306 111.087 77.6793 110.163 78.7917 109.347C80.0325 108.445 81.4229 107.951 82.899 107.865H107.5V104.021H166.306V107.865H190.629V104H249.436V107.844H274.101C274.101 107.844 275.449 107.844 277.01 108.639C277.459 108.853 277.887 109.132 278.294 109.433C278.722 109.755 279.492 110.335 280.262 111.43C280.647 111.967 280.904 112.461 281.053 112.783C281.353 113.363 281.631 114.007 281.845 114.608C282.208 115.618 282.38 116.455 282.508 117.121C282.722 118.238 282.872 119.397 282.936 120.557V294.33C282.936 296.091 282.679 297.766 282.208 299.312C281.888 300.407 281.481 301.245 281.224 301.782C280.925 302.361 280.583 302.898 280.219 303.414C279.855 303.929 279.042 304.895 277.866 305.69C276.689 306.506 275.384 306.936 274.037 307H82.8562ZM75.0481 295.146C75.0909 296.714 75.3262 298.174 75.7541 299.527C76.3102 301.331 77.0376 302.469 77.2515 302.769C77.7863 303.564 78.4922 304.273 79.2196 304.81C80.61 305.819 81.9577 306.034 82.8562 306.034H274.079C275.406 305.969 276.625 305.54 277.716 304.767C278.829 303.972 279.556 303.006 279.748 302.727C280.026 302.319 280.326 301.846 280.561 301.331C280.861 300.708 281.16 299.978 281.353 299.269C281.716 298.002 281.909 296.628 281.93 295.167V275.497H75.0481V295.103V295.146ZM75.0481 274.487H281.93V145.596H75.0481V274.487ZM82.8562 110.12C81.4657 110.228 80.1822 110.679 79.0484 111.516C78.0216 112.246 77.4012 113.084 77.2301 113.299C76.6739 114.072 76.2889 114.866 76.1177 115.253C75.262 117.207 75.0695 119.183 75.0695 120.514V144.694H281.952V120.707C281.888 119.677 281.759 118.753 281.588 117.873C281.481 117.293 281.353 116.627 281.053 115.833C280.968 115.618 280.754 115.038 280.411 114.372C280.262 114.093 280.069 113.707 279.77 113.277C279.149 112.397 278.508 111.903 278.123 111.602C277.737 111.323 277.352 111.065 276.946 110.872C275.598 110.206 274.422 110.12 274.186 110.12H82.899H82.8562Z" fill="#656565"/>
<path d="M106.794 260.464C105.745 260.464 104.697 260.228 103.777 259.777C103.136 259.477 102.558 259.069 102.087 258.618C101.895 258.446 101.253 257.78 100.761 256.728C100.376 255.933 100.183 255.053 100.141 254.172V165.052C100.141 163.893 100.483 162.798 101.082 161.831C101.274 161.531 101.595 161.08 102.066 160.629C102.216 160.478 102.772 159.984 103.649 159.555C104.612 159.082 105.681 158.825 106.836 158.76H250.227C250.227 158.76 251.297 158.76 252.516 159.19C252.858 159.297 253.179 159.448 253.5 159.598C253.821 159.77 254.398 160.049 254.955 160.607C255.233 160.865 255.404 161.101 255.511 161.251C255.746 161.574 255.96 161.874 256.11 162.175C256.367 162.669 256.473 163.077 256.559 163.377C256.73 163.957 256.837 164.516 256.88 165.095V254.172C256.88 255.01 256.709 255.826 256.367 256.577C256.131 257.114 255.853 257.522 255.661 257.78C255.447 258.081 255.19 258.338 254.933 258.596C254.655 258.854 254.056 259.348 253.179 259.756C252.259 260.185 251.275 260.421 250.206 260.443H106.794V260.464ZM106.794 159.34C105.874 159.383 105.018 159.598 104.248 159.984C103.499 160.35 103.007 160.779 102.879 160.908C102.558 161.208 102.237 161.595 102.002 161.982C101.274 163.12 101.125 164.279 101.103 165.052V254.172C101.146 255.096 101.339 255.89 101.702 256.663C102.13 257.587 102.686 258.188 102.9 258.381C103.307 258.768 103.841 259.133 104.355 259.391C105.082 259.756 105.916 259.928 106.772 259.928H250.141C251.019 259.906 251.831 259.713 252.58 259.369C253.372 259.004 253.928 258.51 254.078 258.381C254.313 258.167 254.527 257.909 254.719 257.651C254.955 257.329 255.19 256.943 255.361 256.556C255.682 255.847 255.832 255.053 255.853 254.237V165.181C255.789 164.516 255.703 164 255.554 163.485C255.425 163.055 255.318 162.712 255.104 162.325C255.019 162.175 254.848 161.874 254.57 161.509C254.42 161.316 254.27 161.123 254.035 160.908C253.564 160.457 253.094 160.199 252.815 160.07C252.537 159.941 252.259 159.813 251.981 159.705C250.976 159.362 250.141 159.362 250.12 159.362H106.794V159.34Z" fill="#656565"/>
<path d="M120.142 181.717C119.179 181.717 118.217 181.695 117.382 181.631C116.634 181.588 116.12 181.524 115.799 181.502C115.521 181.459 114.987 181.395 114.537 181.266C114.003 181.116 113.746 180.944 113.682 180.665V180.6V171.194C113.682 171.065 113.874 170.786 114.88 170.571C115.136 170.529 115.479 170.464 115.821 170.421C116.227 170.378 116.741 170.335 117.297 170.292C118.174 170.249 119.137 170.206 120.163 170.206H236.878C236.878 170.206 237.862 170.206 238.975 170.249C239.36 170.249 239.681 170.292 239.873 170.292C240.13 170.292 240.686 170.335 241.242 170.421L241.777 170.507C242.077 170.55 242.269 170.593 242.355 170.614C242.59 170.679 242.718 170.722 242.847 170.786C243.125 170.915 243.253 171.044 243.296 171.13L243.381 171.237V180.686C243.381 180.686 243.339 181.03 242.611 181.244C242.419 181.309 242.183 181.352 241.927 181.395C241.649 181.438 241.392 181.481 241.242 181.481C240.986 181.502 240.429 181.567 239.616 181.609C238.782 181.652 237.862 181.695 236.9 181.695H120.142V181.717ZM120.185 171.323C119.543 171.323 118.923 171.345 118.388 171.388C118.131 171.388 117.917 171.43 117.746 171.43L116.591 171.538V180.428L117.746 180.536C117.96 180.536 118.217 180.579 118.473 180.6C118.987 180.622 119.543 180.643 120.142 180.643H236.793C237.392 180.643 237.969 180.643 238.483 180.6C238.782 180.6 240.387 180.45 240.387 180.45V171.538L238.654 171.388H238.076C237.392 171.323 236.814 171.323 236.814 171.323H120.185Z" fill="#656565"/>
<path d="M92.5468 135.933C92.4399 135.933 92.2687 135.933 92.0976 135.847C91.9692 135.783 91.8837 135.74 91.8623 135.697C91.8623 135.697 91.7553 135.611 91.6911 135.482C91.6483 135.396 91.627 135.31 91.627 135.203V118.345C91.627 118.345 91.627 118.152 91.7339 118.023C91.8623 117.873 91.9478 117.808 92.0762 117.765C92.2687 117.679 92.4612 117.658 92.5682 117.658H122.881C122.881 117.658 123.052 117.658 123.223 117.722C123.415 117.808 123.501 117.83 123.565 117.894L123.694 118.066L123.779 118.345V135.224C123.779 135.224 123.779 135.374 123.715 135.46L123.544 135.675C123.544 135.675 123.394 135.783 123.287 135.825C123.159 135.89 122.988 135.911 122.817 135.911H92.504L92.5468 135.933ZM92.9319 135.289H122.496V118.302H92.9319V135.289Z" fill="#656565"/>
<path d="M143.589 136.255C138.498 136.255 134.348 132.089 134.348 126.978C134.348 121.867 138.498 117.701 143.589 117.701C148.68 117.701 152.83 121.867 152.83 126.978C152.83 132.089 148.68 136.255 143.589 136.255ZM139.139 134.644L139.824 134.966C141.001 135.525 142.284 135.825 143.589 135.825C148.445 135.825 152.403 131.853 152.403 126.978C152.403 124.53 151.376 122.189 149.6 120.514L149.044 119.999L139.161 134.644H139.139ZM138.455 134.172C138.583 134.258 138.712 134.344 138.84 134.43L139.546 133.356L139.204 133.12L138.476 134.172H138.455ZM143.568 118.13C138.712 118.13 134.754 122.103 134.754 126.978C134.754 129.426 135.781 131.788 137.556 133.442L138.113 133.957L148.017 119.29L147.333 118.968C146.156 118.409 144.873 118.109 143.568 118.109V118.13Z" fill="#656565"/>
<path d="M166.862 136.255C161.771 136.255 157.621 132.089 157.621 126.978C157.621 121.867 161.771 117.701 166.862 117.701C171.954 117.701 176.104 121.867 176.104 126.978C176.104 132.089 171.954 136.255 166.862 136.255ZM162.434 134.644L163.119 134.966C164.295 135.525 165.558 135.825 166.884 135.825C171.74 135.825 175.697 131.853 175.697 126.978C175.697 124.53 174.671 122.189 172.895 120.514L172.339 119.999L162.456 134.644H162.434ZM161.75 134.172C161.878 134.258 162.006 134.344 162.113 134.43L162.819 133.356L162.477 133.12L161.75 134.172ZM166.862 118.13C162.006 118.13 158.049 122.103 158.049 126.978C158.049 129.426 159.076 131.788 160.873 133.442L161.429 133.957L171.312 119.29L170.627 118.968C169.451 118.409 168.167 118.109 166.862 118.109V118.13Z" fill="#656565"/>
<path d="M190.138 136.255C185.047 136.255 180.896 132.089 180.896 126.978C180.896 121.867 185.047 117.701 190.138 117.701C195.229 117.701 199.379 121.867 199.379 126.978C199.379 132.089 195.229 136.255 190.138 136.255ZM185.71 134.644L186.394 134.966C187.571 135.525 188.833 135.825 190.159 135.825C195.015 135.825 198.973 131.853 198.973 126.978C198.973 124.53 197.946 122.189 196.17 120.514L195.614 119.999L185.731 134.644H185.71ZM185.025 134.172C185.153 134.258 185.26 134.344 185.389 134.43L186.095 133.356L185.752 133.12L185.025 134.172ZM190.138 118.13C185.282 118.13 181.324 122.103 181.324 126.978C181.324 129.426 182.351 131.788 184.148 133.442L184.704 133.957L194.587 119.29L193.903 118.968C192.726 118.409 191.443 118.109 190.138 118.109V118.13Z" fill="#656565"/>
<path d="M213.39 136.255C208.298 136.255 204.148 132.067 204.148 126.956C204.148 121.845 208.298 117.679 213.39 117.679C215.871 117.679 218.203 118.646 219.936 120.407C221.69 122.168 222.631 124.487 222.631 126.978C222.631 132.089 218.481 136.255 213.39 136.255ZM208.962 134.644L209.646 134.966C210.823 135.525 212.085 135.825 213.411 135.825C218.289 135.825 222.225 131.874 222.225 126.999C222.225 124.551 221.219 122.21 219.422 120.535L218.866 120.02L208.962 134.666V134.644ZM208.277 134.172L208.641 134.43L209.347 133.356L209.004 133.12L208.277 134.172ZM213.411 118.13C208.555 118.13 204.619 122.082 204.598 126.956C204.598 129.404 205.624 131.767 207.4 133.442L207.956 133.957L217.861 119.311L217.176 118.989C216 118.431 214.716 118.13 213.411 118.13Z" fill="#656565"/>
<path d="M276.39 135.611H230.59V136.255H276.39V135.611Z" fill="#656565"/>
<path d="M276.39 130.8H230.59V131.445H276.39V130.8Z" fill="#656565"/>
<path d="M276.39 118.474H230.59V119.118H276.39V118.474Z" fill="#656565"/>
<path d="M231.873 125.045C231.873 126.548 233.092 127.772 234.59 127.772C236.087 127.772 237.307 126.548 237.307 125.045C237.307 123.542 236.087 122.318 234.59 122.318C233.092 122.318 231.873 123.542 231.873 125.045Z" fill="#656565"/>
<path d="M244.645 125.045C244.645 126.548 245.864 127.772 247.361 127.772C248.859 127.772 250.078 126.548 250.078 125.045C250.078 123.542 248.859 122.318 247.361 122.318C245.864 122.318 244.645 123.542 244.645 125.045Z" fill="#656565"/>
<path d="M257.395 125.045C257.395 126.548 258.614 127.772 260.111 127.772C261.609 127.772 262.828 126.548 262.828 125.045C262.828 123.542 261.609 122.318 260.111 122.318C258.614 122.318 257.395 123.542 257.395 125.045Z" fill="#656565"/>
<path d="M270.164 125.045C270.164 126.548 271.383 127.772 272.881 127.772C274.378 127.772 275.598 126.548 275.598 125.045C275.598 123.542 274.378 122.318 272.881 122.318C271.383 122.318 270.164 123.542 270.164 125.045Z" fill="#656565"/>
</g>
<path d="M200.381 456.304H214.746C215.303 456.304 215.753 455.854 215.753 455.297V449.325H199.387V455.297C199.387 455.854 199.837 456.304 200.393 456.304" fill="#202020"/>
<path d="M376.368 456.304H390.732C391.289 456.304 391.739 455.854 391.739 455.297V449.325H375.373V455.297C375.373 455.854 375.823 456.304 376.38 456.304" fill="#202020"/>
<path d="M402.635 204.826C402.635 202.551 401.711 200.489 400.219 198.996C398.727 197.503 396.667 196.579 394.393 196.579H196.711C194.437 196.579 192.377 197.503 190.885 198.996C189.392 200.489 188.469 202.551 188.469 204.826V225.752H402.623V204.826H402.635Z" fill="#202020"/>
<path d="M402.635 212.279C402.635 210.81 401.711 209.495 400.219 208.523C398.727 207.563 396.667 206.971 394.393 206.971H196.711C194.437 206.971 192.377 207.563 190.885 208.523C189.392 209.483 188.469 210.81 188.469 212.279V225.752H402.623V212.279H402.635Z" fill="#202020"/>
<path d="M190.884 445.651C192.377 447.144 194.437 448.069 196.711 448.069H394.393C396.666 448.069 398.727 447.144 400.219 445.651C401.711 444.158 402.635 442.097 402.635 439.821V426.088H188.48V439.821C188.48 442.097 189.404 444.158 190.896 445.651" fill="#202020"/>
<path d="M402.623 234.2H188.469V418.908H402.623V234.2Z" fill="#202020"/>
<path d="M352.578 234.2C354.07 238.999 354.414 244.012 353.762 249.048C352.874 255.897 351.37 263.373 347.616 269.286C340.037 281.23 326.442 288.755 314.055 294.81C289.187 306.979 257.379 310.937 241.439 336.069C239.39 351.912 243.038 367.825 252.405 380.942C254.821 384.319 257.355 387.199 260.469 389.912C261.464 390.777 262.98 391.986 262.767 393.503C262.151 397.958 254.951 399.878 251.339 400.375C245.157 401.217 238.905 400.897 232.711 400.434C226.245 399.949 219.649 399.889 213.349 398.171C206.457 396.287 198.783 393.147 193.833 387.791C191.761 385.54 190.079 383.028 188.469 380.445V418.908H402.623V234.2H352.566H352.578Z" fill="#202020"/>
<path d="M402.623 227.008H188.469V232.921H402.623V227.008Z" fill="#202020"/>
<path d="M402.623 420.164H188.469V424.809H402.623V420.164Z" fill="#202020"/>
<path d="M394.392 195.311H196.71C191.464 195.311 187.201 199.565 187.201 204.826V439.821C187.201 445.071 191.453 449.336 196.71 449.336H198.428V455.308C198.428 456.387 199.304 457.264 200.382 457.264H214.746C215.824 457.264 216.7 456.387 216.7 455.308V449.336H374.415V455.308C374.415 456.387 375.291 457.264 376.369 457.264H390.733C391.811 457.264 392.687 456.387 392.687 455.308V449.336H394.404C399.65 449.336 403.913 445.083 403.913 439.821V204.826C403.913 199.577 399.662 195.311 394.404 195.311M188.48 420.163H402.635V424.808H188.48V420.163ZM188.48 234.2H402.635V418.907H188.48V234.2ZM402.635 232.932H188.48V227.02H402.635V232.932ZM188.48 204.826C188.48 202.551 189.404 200.489 190.896 198.996C192.388 197.503 194.449 196.579 196.722 196.579H394.404C396.678 196.579 398.738 197.503 400.231 198.996C401.723 200.489 402.646 202.551 402.646 204.826V225.752H188.492V204.826H188.48ZM215.753 455.297C215.753 455.854 215.303 456.304 214.746 456.304H200.382C199.825 456.304 199.375 455.854 199.375 455.297V449.325H215.741V455.297H215.753ZM391.74 455.297C391.74 455.854 391.29 456.304 390.733 456.304H376.369C375.812 456.304 375.362 455.854 375.362 455.297V449.325H391.728V455.297H391.74ZM402.646 439.821C402.646 442.096 401.723 444.158 400.231 445.651C398.738 447.144 396.678 448.069 394.404 448.069H196.722C194.449 448.069 192.388 447.144 190.896 445.651C189.404 444.158 188.48 442.096 188.48 439.821V426.088H402.635V439.821H402.646Z" fill="#656565"/>
<path d="M201.128 205.406L201.057 205.489V209.921L201.128 210.004H206.35L206.421 209.921V205.489L206.35 205.406H201.128Z" fill="#202020"/>
<path d="M206.35 204.139H201.127C200.381 204.139 199.789 204.755 199.789 205.489V209.921C199.789 210.656 200.381 211.272 201.127 211.272H206.35C207.096 211.272 207.688 210.656 207.688 209.921V205.489C207.688 204.755 207.096 204.139 206.35 204.139ZM206.421 209.921L206.35 210.004H201.127L201.056 209.921V205.489L201.127 205.407H206.35L206.421 205.489V209.921Z" fill="#656565"/>
<path d="M210.032 205.406L209.961 205.489V209.921L210.032 210.004H215.254L215.325 209.921V205.489L215.254 205.406H210.032Z" fill="#202020"/>
<path d="M215.256 204.139H210.045C209.299 204.139 208.707 204.755 208.707 205.489V209.921C208.707 210.656 209.299 211.272 210.045 211.272H215.256C216.002 211.272 216.594 210.656 216.594 209.921V205.489C216.594 204.755 216.002 204.139 215.256 204.139ZM215.327 209.921L215.256 210.004H210.045L209.974 209.921V205.489L210.045 205.407H215.256L215.327 205.489V209.921Z" fill="#656565"/>
<path d="M218.938 205.406L218.867 205.489V209.921L218.938 210.004H224.161L224.232 209.921V205.489L224.161 205.406H218.938Z" fill="#202020"/>
<path d="M224.16 204.139H218.938C218.192 204.139 217.6 204.755 217.6 205.489V209.921C217.6 210.656 218.192 211.272 218.938 211.272H224.16C224.906 211.272 225.498 210.656 225.498 209.921V205.489C225.498 204.755 224.906 204.139 224.16 204.139ZM224.231 209.921L224.16 210.004H218.938L218.867 209.921V205.489L218.938 205.407H224.16L224.231 205.489V209.921Z" fill="#656565"/>
<path d="M201.128 213.749L201.057 213.831V218.263L201.128 218.346H206.35L206.421 218.263V213.831L206.35 213.749H201.128Z" fill="#202020"/>
<path d="M206.35 212.481H201.127C200.381 212.481 199.789 213.097 199.789 213.832V218.263C199.789 218.998 200.381 219.614 201.127 219.614H206.35C207.096 219.614 207.688 218.998 207.688 218.263V213.832C207.688 213.085 207.096 212.481 206.35 212.481ZM206.421 218.263L206.35 218.346H201.127L201.056 218.263V213.832L201.127 213.749H206.35L206.421 213.832V218.263Z" fill="#656565"/>
<path d="M210.032 213.749L209.961 213.831V218.263L210.032 218.346H215.254L215.325 218.263V213.831L215.254 213.749H210.032Z" fill="#202020"/>
<path d="M215.256 212.481H210.045C209.299 212.481 208.707 213.097 208.707 213.832V218.263C208.707 218.998 209.299 219.614 210.045 219.614H215.256C216.002 219.614 216.594 218.998 216.594 218.263V213.832C216.594 213.085 216.002 212.481 215.256 212.481ZM215.327 218.263L215.256 218.346H210.045L209.974 218.263V213.832L210.045 213.749H215.256L215.327 213.832V218.263Z" fill="#656565"/>
<path d="M218.938 213.749L218.867 213.831V218.263L218.938 218.346H224.161L224.232 218.263V213.831L224.161 213.749H218.938Z" fill="#202020"/>
<path d="M224.16 212.481H218.938C218.192 212.481 217.6 213.097 217.6 213.832V218.263C217.6 218.998 218.192 219.614 218.938 219.614H224.16C224.906 219.614 225.498 218.998 225.498 218.263V213.832C225.498 213.085 224.906 212.481 224.16 212.481ZM224.231 218.263L224.16 218.346H218.938L218.867 218.263V213.832L218.938 213.749H224.16L224.231 213.832V218.263Z" fill="#656565"/>
<path d="M291.425 207.693C290.098 206.378 288.286 205.561 286.273 205.561C284.26 205.561 282.436 206.378 281.122 207.693C279.807 209.021 278.99 210.833 278.99 212.848C278.99 214.862 279.807 216.687 281.122 218.002C282.448 219.318 284.26 220.135 286.273 220.135C288.286 220.135 290.098 219.318 291.425 218.002C292.739 216.687 293.556 214.862 293.556 212.848C293.556 210.833 292.739 209.009 291.425 207.693ZM281.299 213.286H280.186C279.831 213.286 279.547 213.002 279.547 212.646C279.547 212.291 279.831 212.007 280.186 212.007H281.299C281.655 212.007 281.939 212.291 281.939 212.646C281.939 213.002 281.655 213.286 281.299 213.286Z" fill="#202020"/>
<path d="M286.273 204.293C281.548 204.293 277.723 208.12 277.723 212.848C277.723 217.576 281.548 221.403 286.273 221.403C290.998 221.403 294.823 217.576 294.823 212.848C294.823 208.12 290.998 204.293 286.273 204.293ZM286.273 220.147C284.26 220.147 282.436 219.33 281.121 218.014C279.807 216.687 278.99 214.874 278.99 212.86C278.99 210.845 279.807 209.021 281.121 207.705C282.448 206.39 284.26 205.572 286.273 205.572C288.286 205.572 290.098 206.39 291.424 207.705C292.739 209.032 293.556 210.845 293.556 212.86C293.556 214.874 292.739 216.687 291.424 218.014C290.098 219.33 288.286 220.147 286.273 220.147Z" fill="#656565"/>
<path d="M281.3 212.019H280.186C279.831 212.019 279.547 212.303 279.547 212.658C279.547 213.014 279.831 213.298 280.186 213.298H281.3C281.655 213.298 281.939 213.014 281.939 212.658C281.939 212.303 281.655 212.019 281.3 212.019Z" fill="#656565"/>
<path d="M302.746 212.848C302.746 215.502 304.203 218.062 306.725 219.341C307.791 219.886 308.916 220.147 310.029 220.147C312.682 220.147 315.24 218.701 316.519 216.178C317.063 215.111 317.324 213.985 317.324 212.872C317.324 210.217 315.867 207.658 313.357 206.366C312.291 205.821 311.166 205.561 310.041 205.561C307.388 205.561 304.83 207.018 303.551 209.542C303.007 210.608 302.746 211.734 302.746 212.848ZM304.143 209.613C304.297 209.305 304.688 209.175 304.996 209.34L305.979 209.85C306.287 210.016 306.417 210.395 306.251 210.703C306.097 211.011 305.707 211.142 305.399 210.976L304.416 210.466C304.108 210.312 303.978 209.921 304.143 209.613Z" fill="#202020"/>
<path d="M313.925 205.229C312.681 204.589 311.355 204.293 310.04 204.293C306.926 204.293 303.93 205.999 302.414 208.961C301.775 210.206 301.479 211.545 301.479 212.848C301.479 215.964 303.184 218.962 306.144 220.479C307.388 221.119 308.714 221.415 310.029 221.415C313.143 221.415 316.139 219.709 317.655 216.746C318.294 215.502 318.59 214.163 318.59 212.86C318.59 209.743 316.885 206.746 313.925 205.229ZM303.551 209.53C304.842 207.006 307.4 205.561 310.04 205.549C311.154 205.549 312.29 205.809 313.356 206.343C315.879 207.634 317.323 210.194 317.323 212.848C317.323 213.962 317.063 215.099 316.518 216.154C315.227 218.678 312.669 220.135 310.029 220.135C308.915 220.135 307.779 219.875 306.725 219.33C304.202 218.038 302.757 215.478 302.746 212.836C302.746 211.722 303.006 210.585 303.551 209.53Z" fill="#656565"/>
<path d="M304.415 210.478L305.398 210.988C305.706 211.142 306.097 211.023 306.25 210.715C306.404 210.407 306.286 210.016 305.978 209.862L304.995 209.352C304.687 209.198 304.308 209.317 304.143 209.625C303.977 209.933 304.107 210.324 304.415 210.478Z" fill="#656565"/>
<path d="M370.756 212.848C370.756 216.035 372.496 219.116 375.54 220.668C376.819 221.32 378.181 221.628 379.519 221.628C382.704 221.628 385.783 219.886 387.335 216.841C387.986 215.561 388.294 214.199 388.294 212.86C388.294 209.672 386.553 206.591 383.51 205.039C382.231 204.387 380.869 204.079 379.531 204.079C376.345 204.079 373.266 205.821 371.715 208.866C371.064 210.146 370.756 211.509 370.756 212.848ZM374.308 210.194C375.339 208.167 377.399 206.994 379.531 206.994C380.431 206.994 381.343 207.208 382.195 207.634C384.22 208.677 385.393 210.727 385.393 212.86C385.393 213.76 385.191 214.673 384.753 215.526C383.711 217.552 381.662 218.725 379.531 218.725C378.631 218.725 377.719 218.512 376.866 218.085C374.841 217.042 373.669 214.993 373.669 212.86C373.669 211.959 373.882 211.047 374.308 210.194Z" fill="#202020"/>
<path d="M384.078 203.914C382.621 203.167 381.058 202.812 379.519 202.812C375.871 202.812 372.354 204.814 370.578 208.286C369.832 209.743 369.476 211.307 369.476 212.848C369.476 216.497 371.478 220.017 374.947 221.794C376.404 222.541 377.967 222.896 379.507 222.896C383.154 222.896 386.671 220.894 388.448 217.422C389.194 215.964 389.549 214.4 389.549 212.86C389.549 209.21 387.548 205.691 384.078 203.914ZM371.703 208.867C373.254 205.833 376.333 204.079 379.519 204.079C380.857 204.079 382.219 204.387 383.497 205.039C386.529 206.591 388.282 209.66 388.282 212.86C388.282 214.199 387.974 215.561 387.323 216.841C385.771 219.875 382.704 221.628 379.507 221.628C378.168 221.628 376.807 221.32 375.528 220.668C372.496 219.116 370.743 216.047 370.743 212.848C370.743 211.509 371.051 210.146 371.703 208.867Z" fill="#656565"/>
<path d="M374.924 212.848C374.924 214.519 375.836 216.13 377.435 216.948C378.11 217.291 378.82 217.457 379.519 217.457C381.189 217.457 382.799 216.545 383.616 214.945C383.96 214.27 384.126 213.559 384.126 212.86C384.126 211.189 383.214 209.577 381.615 208.76C380.94 208.416 380.23 208.25 379.531 208.25C377.861 208.25 376.251 209.163 375.433 210.762C375.09 211.438 374.924 212.149 374.924 212.848Z" fill="#202020"/>
<path d="M376.853 218.073C377.706 218.512 378.618 218.713 379.518 218.713C381.65 218.713 383.71 217.54 384.74 215.514C385.178 214.661 385.38 213.748 385.38 212.848C385.38 210.715 384.207 208.653 382.182 207.622C381.33 207.184 380.418 206.982 379.518 206.982C377.386 206.982 375.326 208.156 374.295 210.182C373.857 211.035 373.656 211.947 373.656 212.848C373.656 214.981 374.828 217.042 376.853 218.073ZM375.432 210.762C376.238 209.175 377.86 208.262 379.53 208.25C380.228 208.25 380.951 208.416 381.614 208.76C383.201 209.577 384.125 211.189 384.125 212.86C384.125 213.559 383.959 214.27 383.615 214.945C382.798 216.533 381.188 217.445 379.518 217.457C378.819 217.457 378.109 217.291 377.434 216.948C375.847 216.13 374.935 214.519 374.923 212.848C374.923 212.149 375.089 211.426 375.432 210.762Z" fill="#656565"/>
<path d="M297.738 275.614C284.143 275.614 271.85 281.123 262.945 290.034C254.04 298.945 248.533 311.256 248.533 324.847C248.533 338.439 254.04 350.75 262.945 359.661C271.85 368.571 284.155 374.081 297.738 374.081C311.321 374.081 323.625 368.571 332.53 359.661C341.435 350.75 346.942 338.439 346.942 324.847C346.942 311.256 341.435 298.945 332.53 290.034C323.625 281.123 311.321 275.614 297.738 275.614ZM297.738 370.076C272.774 370.076 252.536 349.826 252.536 324.847C252.536 299.869 272.774 279.619 297.738 279.619C322.701 279.619 342.939 299.869 342.939 324.847C342.939 349.826 322.701 370.076 297.738 370.076Z" fill="#202020"/>
<path d="M297.737 264.203C280.992 264.203 265.846 270.992 254.88 281.965C243.914 292.949 237.129 308.104 237.129 324.847C237.129 341.591 243.914 356.758 254.88 367.73C265.846 378.703 281.004 385.492 297.737 385.492C314.47 385.492 329.628 378.703 340.594 367.73C348.812 359.507 354.686 348.925 357.102 337.1H353.881C353.076 337.1 352.424 336.448 352.424 335.642V316.991C352.424 316.186 353.076 315.534 353.881 315.534H357.635C355.634 302.511 349.487 290.852 340.594 281.941C329.616 270.969 314.47 264.179 297.737 264.179M297.737 375.337C269.861 375.337 247.266 352.729 247.266 324.836C247.266 296.942 269.861 274.334 297.737 274.334C325.614 274.334 348.209 296.942 348.209 324.836C348.209 352.729 325.614 375.337 297.737 375.337Z" fill="#202020"/>
<path d="M328.799 293.779C320.853 285.828 309.875 280.898 297.737 280.898C285.599 280.898 274.621 285.816 266.675 293.779C258.729 301.73 253.802 312.714 253.802 324.859C253.802 337.005 258.717 347.989 266.675 355.94C274.621 363.891 285.611 368.82 297.737 368.82C309.863 368.82 320.853 363.903 328.799 355.94C336.745 347.989 341.672 336.993 341.672 324.859C341.672 312.726 336.757 301.73 328.799 293.779Z" fill="#202020"/>
<path d="M299.218 368.785C303.659 364.957 307.768 360.739 311.474 356.189C315.986 350.655 319.468 344.387 323.956 338.877C328.207 333.652 333.607 329.635 338.202 324.753C339.339 323.544 340.464 322.288 341.483 320.961C341.127 316.861 340.204 312.927 338.794 309.23C337.136 309.87 335.55 310.83 334.377 311.541C331.938 313.022 329.475 314.657 327.414 316.648C320.83 323.023 315.24 330.275 308.241 336.258C302.818 340.903 297.607 346.84 291.272 350.217C285.599 353.239 279.429 353.25 273.591 350.525C268.523 348.155 263.478 343.972 263.786 337.858C264.129 331.234 272.04 325.724 276.824 322.205C284.143 316.814 291.852 312.015 299.076 306.493C306.785 300.604 314.234 294.395 321.363 287.818C314.53 283.446 306.43 280.898 297.726 280.898C285.587 280.898 274.61 285.816 266.663 293.779C258.717 301.73 253.791 312.714 253.791 324.859C253.791 337.005 258.706 347.989 266.663 355.94C274.61 363.891 285.599 368.82 297.726 368.82C298.223 368.82 298.72 368.797 299.218 368.785Z" fill="#202020"/>
<path d="M353.881 316.825L353.703 317.015V335.666L353.881 335.844H366.078L366.268 335.666V317.015L366.078 316.825H353.881Z" fill="#202020"/>
<path d="M297.737 279.631C272.773 279.631 252.535 299.881 252.535 324.859C252.535 349.838 272.773 370.088 297.737 370.088C322.7 370.088 342.939 349.838 342.939 324.859C342.939 299.881 322.7 279.631 297.737 279.631ZM328.799 355.94C320.853 363.891 309.875 368.82 297.737 368.82C285.599 368.82 274.621 363.903 266.675 355.94C258.729 347.989 253.802 337.005 253.802 324.859C253.802 312.714 258.717 301.73 266.675 293.779C274.621 285.828 285.61 280.899 297.737 280.899C309.863 280.899 320.853 285.816 328.799 293.779C336.745 301.73 341.671 312.714 341.671 324.859C341.671 337.005 336.757 347.989 328.799 355.94Z" fill="#656565"/>
<path d="M297.737 274.358C269.861 274.358 247.266 296.966 247.266 324.859C247.266 352.753 269.861 375.361 297.737 375.361C325.614 375.361 348.209 352.753 348.209 324.859C348.209 296.966 325.614 274.358 297.737 274.358ZM332.529 359.685C323.624 368.595 311.32 374.105 297.737 374.105C284.154 374.105 271.85 368.595 262.945 359.685C254.039 350.774 248.533 338.462 248.533 324.871C248.533 311.28 254.039 298.969 262.945 290.058C271.85 281.147 284.154 275.637 297.737 275.637C311.32 275.637 323.624 281.147 332.529 290.058C341.435 298.969 346.941 311.28 346.941 324.871C346.941 338.462 341.435 350.774 332.529 359.685Z" fill="#656565"/>
<path d="M366.078 315.558H358.914C354.426 285.768 328.752 262.935 297.725 262.935C263.549 262.935 235.85 290.65 235.838 324.847C235.838 359.045 263.549 386.772 297.725 386.772C327.71 386.772 352.709 365.431 358.393 337.112H366.078C366.884 337.112 367.535 336.46 367.535 335.654V317.003C367.535 316.197 366.884 315.546 366.078 315.546M340.594 367.73C329.616 378.703 314.47 385.492 297.737 385.492C281.004 385.492 265.846 378.703 254.88 367.73C243.914 356.758 237.129 341.591 237.129 324.847C237.129 308.093 243.914 292.937 254.88 281.953C265.846 270.981 281.004 264.191 297.737 264.191C314.47 264.191 329.628 270.981 340.594 281.953C349.488 290.864 355.634 302.512 357.635 315.546H353.881C353.076 315.546 352.424 316.197 352.424 317.003V335.654C352.424 336.46 353.076 337.112 353.881 337.112H357.102C354.674 348.937 348.812 359.519 340.594 367.742M366.268 335.654L366.078 335.844H353.881L353.692 335.654V317.003L353.881 316.825H366.078L366.268 317.003V335.654Z" fill="#656565"/>
<path d="M276.706 292.084C276.398 292.084 276.102 292.167 275.818 292.357C274.077 293.53 272.443 294.845 270.915 296.267C270.584 296.587 270.418 297.002 270.418 297.428C270.418 297.819 270.56 298.198 270.844 298.518C271.164 298.85 271.579 299.016 272.005 299.016C272.396 299.016 272.786 298.874 273.094 298.589C274.492 297.274 275.996 296.066 277.594 294.987C278.044 294.679 278.293 294.182 278.293 293.672C278.293 293.364 278.21 293.056 278.021 292.783C277.713 292.333 277.215 292.084 276.706 292.084Z" fill="#202020"/>
<path d="M272.016 300.272C272.715 300.272 273.413 300.011 273.97 299.502C275.32 298.234 276.777 297.073 278.316 296.03C279.133 295.485 279.571 294.572 279.571 293.66C279.571 293.115 279.417 292.558 279.086 292.072C278.541 291.255 277.629 290.816 276.717 290.816C276.173 290.816 275.616 290.97 275.119 291.302C273.331 292.511 271.637 293.861 270.062 295.343C269.47 295.9 269.162 296.67 269.162 297.428C269.162 298.127 269.411 298.826 269.932 299.383C270.488 299.976 271.258 300.284 272.016 300.284M278.304 293.672C278.304 294.181 278.056 294.679 277.606 294.987C276.007 296.065 274.503 297.274 273.106 298.589C272.798 298.874 272.407 299.016 272.016 299.016C271.59 299.016 271.175 298.85 270.856 298.518C270.571 298.21 270.429 297.819 270.429 297.428C270.429 297.002 270.595 296.587 270.927 296.267C272.454 294.833 274.088 293.53 275.829 292.357C276.102 292.167 276.41 292.084 276.717 292.084C277.227 292.084 277.724 292.333 278.032 292.783C278.221 293.056 278.304 293.364 278.304 293.672Z" fill="#656565"/>
<path d="M267.729 302.132C267.457 301.931 267.137 301.848 266.829 301.848C266.32 301.848 265.834 302.085 265.526 302.523C263.916 304.858 262.542 307.37 261.453 310.024C261.37 310.225 261.334 310.427 261.334 310.616C261.334 311.244 261.701 311.837 262.317 312.086C262.518 312.169 262.72 312.204 262.921 312.204C263.549 312.204 264.141 311.837 264.39 311.221C265.384 308.78 266.651 306.469 268.132 304.324C268.321 304.052 268.416 303.732 268.416 303.424C268.416 302.926 268.179 302.429 267.729 302.12" fill="#202020"/>
<path d="M265.561 311.707C266.52 309.349 267.74 307.121 269.173 305.059C269.516 304.561 269.682 303.993 269.682 303.436C269.682 302.535 269.256 301.647 268.462 301.09C267.965 300.746 267.397 300.58 266.84 300.58C265.94 300.58 265.052 301.007 264.495 301.801C262.826 304.206 261.416 306.801 260.291 309.55C260.149 309.905 260.078 310.273 260.078 310.628C260.078 311.754 260.741 312.82 261.854 313.271C262.21 313.413 262.577 313.484 262.932 313.484C264.057 313.484 265.123 312.82 265.573 311.707M268.427 303.436C268.427 303.744 268.332 304.064 268.143 304.336C266.662 306.481 265.395 308.792 264.401 311.233C264.152 311.849 263.56 312.216 262.932 312.216C262.731 312.216 262.529 312.181 262.328 312.098C261.712 311.849 261.345 311.256 261.345 310.628C261.345 310.427 261.381 310.225 261.464 310.036C262.553 307.382 263.927 304.87 265.537 302.535C265.845 302.097 266.343 301.86 266.84 301.86C267.148 301.86 267.468 301.943 267.74 302.144C268.178 302.452 268.415 302.938 268.427 303.448" fill="#656565"/>
<path d="M312.942 294.845C312.764 294.644 301.763 303.708 288.346 315.084C274.928 326.471 264.199 335.856 264.365 336.057C264.543 336.258 275.544 327.194 288.961 315.818C302.379 304.443 313.108 295.047 312.942 294.845Z" fill="#656565"/>
<path d="M306.928 334.007C294.683 344.517 284.889 353.191 285.067 353.392C285.244 353.594 295.31 345.24 307.555 334.742C319.8 324.231 329.594 315.558 329.416 315.356C329.25 315.155 319.172 323.508 306.928 334.007Z" fill="#656565"/>
<path d="M309.768 357.409C309.946 357.599 312.883 355.206 316.317 352.054C319.763 348.902 322.404 346.188 322.226 345.999C322.049 345.797 319.112 348.203 315.678 351.354C312.231 354.506 309.591 357.22 309.768 357.409Z" fill="#656565"/>
<path d="M351.038 466.506C350.517 466.684 350.138 467.122 350.031 467.656L349.143 471.981L349.107 472.289C349.107 472.727 349.297 473.154 349.628 473.45L352.956 476.353C353.24 476.602 353.596 476.732 353.963 476.732C354.129 476.732 354.294 476.708 354.448 476.649L358.711 475.215C359.233 475.038 359.611 474.611 359.718 474.066L360.606 469.729L360.642 469.421C360.642 468.983 360.452 468.556 360.121 468.272L356.793 465.369C356.509 465.12 356.154 464.99 355.786 464.99C355.621 464.99 355.455 465.013 355.301 465.072L351.038 466.506ZM355.443 467.028C355.704 467.028 355.952 467.122 356.165 467.3L358.261 469.137C358.498 469.35 358.629 469.646 358.629 469.966L358.605 470.18L358.048 472.917C357.965 473.296 357.693 473.604 357.326 473.734L354.661 474.635C354.543 474.67 354.425 474.694 354.306 474.694C354.046 474.694 353.797 474.599 353.584 474.422L351.488 472.585C351.251 472.372 351.109 472.075 351.109 471.755L351.132 471.53L351.689 468.805C351.76 468.426 352.044 468.118 352.411 467.987L355.076 467.087C355.194 467.051 355.313 467.028 355.431 467.028" fill="#202020"/>
<path d="M357.622 464.409C357.101 463.959 356.449 463.722 355.786 463.722C355.49 463.722 355.182 463.769 354.886 463.864L350.623 465.298C349.675 465.617 348.977 466.411 348.775 467.395L347.887 471.732C347.852 471.921 347.828 472.111 347.828 472.289C347.828 473.094 348.172 473.865 348.787 474.398L352.115 477.301C352.636 477.751 353.287 477.988 353.951 477.988C354.247 477.988 354.554 477.941 354.851 477.846L359.114 476.412C360.061 476.092 360.76 475.298 360.961 474.327L361.849 469.99C361.885 469.8 361.908 469.611 361.908 469.421C361.908 468.627 361.565 467.845 360.949 467.312L357.622 464.409ZM355.289 465.072C355.443 465.013 355.608 464.989 355.774 464.989C356.141 464.989 356.497 465.12 356.781 465.369L360.108 468.272C360.452 468.568 360.63 468.995 360.63 469.421L360.594 469.729L359.706 474.066C359.599 474.599 359.208 475.038 358.699 475.215L354.436 476.649C354.282 476.708 354.116 476.732 353.951 476.732C353.583 476.732 353.228 476.602 352.944 476.353L349.616 473.45C349.273 473.154 349.095 472.727 349.095 472.289L349.131 471.981L350.019 467.656C350.126 467.122 350.516 466.684 351.026 466.506L355.289 465.072Z" fill="#656565"/>
<path d="M352.424 467.987C352.057 468.106 351.784 468.426 351.701 468.805L351.145 471.53L351.121 471.755C351.121 472.064 351.263 472.372 351.5 472.585L353.596 474.422C353.797 474.599 354.046 474.694 354.319 474.694C354.437 474.694 354.555 474.67 354.674 474.635L357.338 473.734C357.705 473.616 357.978 473.296 358.061 472.929L358.617 470.191L358.641 469.978C358.641 469.67 358.511 469.362 358.274 469.16L356.178 467.324C355.976 467.146 355.716 467.051 355.455 467.051C355.337 467.051 355.218 467.075 355.1 467.111L352.436 468.011L352.424 467.987ZM355.408 468.319L357.35 470.014L356.829 472.549L354.342 473.391L352.4 471.696L352.921 469.16L355.408 468.319Z" fill="#656565"/>
<path d="M314.896 463.413C314.861 463.354 314.849 463.307 314.813 463.236C314.612 462.868 314.328 462.43 314.008 461.968C313.369 461.067 312.54 460.119 312.042 459.74C311.912 459.633 311.817 459.586 311.793 459.586C311.628 459.574 311.201 459.55 310.633 459.539C310.041 459.527 309.295 459.515 308.49 459.515C306.749 459.515 304.759 459.562 303.658 459.716C303.303 459.764 303.018 459.835 302.971 459.859C302.936 459.859 302.663 460.084 302.403 460.404C302.13 460.724 301.811 461.15 301.491 461.612C300.851 462.536 300.212 463.615 299.797 464.314C299.525 464.788 299.359 465.084 299.359 465.084C299.253 465.286 299.039 465.404 298.803 465.404H273.046C272.868 465.404 272.702 465.333 272.584 465.203C271.802 464.349 269.967 462.394 268.629 461.28C268.19 460.913 267.788 460.641 267.598 460.569L267.527 460.546C267.433 460.534 267.148 460.51 266.781 460.51C264.768 460.51 260.067 460.901 258.515 461.174C258.326 461.209 258.196 461.233 258.16 461.245L258.136 461.269L257.959 461.494C257.817 461.707 257.639 462.003 257.473 462.359C257.142 463.046 256.81 463.911 256.621 464.586C256.561 464.764 256.526 464.942 256.49 465.084C257.911 465.06 261.369 464.776 261.902 464.74H261.997L264.815 464.657H264.851C265.23 464.657 265.573 464.859 265.775 465.179L267.243 467.549C267.35 467.726 267.409 467.928 267.409 468.129C267.409 468.307 267.362 468.485 267.279 468.651L265.94 471.092C265.751 471.435 265.396 471.649 265.017 471.66L262.198 471.743H262.151C261.95 471.743 261.689 471.72 261.618 471.708C261.488 471.708 260.327 471.696 259.013 471.696C257.935 471.696 256.786 471.696 256.076 471.743C256.111 471.803 256.123 471.85 256.159 471.921C256.36 472.277 256.644 472.727 256.964 473.189C257.604 474.09 258.433 475.038 258.93 475.417C259.06 475.523 259.167 475.571 259.179 475.571C259.344 475.583 259.771 475.606 260.339 475.63C260.931 475.642 261.677 475.654 262.483 475.654C264.212 475.654 266.213 475.606 267.314 475.452C267.681 475.405 267.954 475.334 268.001 475.31C268.048 475.31 268.309 475.085 268.581 474.765C268.854 474.445 269.173 474.018 269.493 473.556C270.133 472.632 270.772 471.554 271.175 470.855C271.435 470.404 271.601 470.12 271.613 470.096C271.719 469.895 271.933 469.753 272.169 469.753H297.926C298.104 469.753 298.27 469.836 298.388 469.966C299.158 470.807 301.005 472.774 302.343 473.888C302.782 474.255 303.184 474.528 303.374 474.611L303.445 474.635C303.539 474.646 303.824 474.67 304.191 474.67C306.204 474.67 310.905 474.279 312.457 474.007C312.646 473.971 312.776 473.936 312.812 473.936L312.847 473.912L313.025 473.687C313.167 473.485 313.345 473.177 313.511 472.834C313.842 472.134 314.174 471.281 314.375 470.606C314.434 470.428 314.47 470.25 314.505 470.108C313.084 470.132 309.615 470.416 309.093 470.452H308.999L306.18 470.535H306.145C305.766 470.535 305.422 470.333 305.221 470.025L303.753 467.655C303.646 467.478 303.587 467.276 303.587 467.075C303.587 466.897 303.634 466.719 303.717 466.553L305.055 464.112C305.245 463.769 305.588 463.556 305.979 463.544L308.797 463.461H308.845C309.046 463.461 309.307 463.484 309.378 463.484C309.508 463.484 310.668 463.508 311.983 463.508C313.061 463.508 314.209 463.508 314.92 463.461" fill="#202020"/>
<path d="M316.175 463.129C315.832 462.335 315.098 461.245 314.316 460.285C313.925 459.811 313.523 459.361 313.155 459.017C312.966 458.84 312.788 458.697 312.599 458.579C312.409 458.46 312.232 458.354 311.959 458.318C311.711 458.295 311.272 458.271 310.657 458.259C310.053 458.247 309.295 458.235 308.478 458.235C307.305 458.235 306.015 458.259 304.925 458.318C304.38 458.354 303.883 458.389 303.468 458.449C303.042 458.508 302.722 458.567 302.426 458.697C302.154 458.828 301.953 459.006 301.74 459.219C301.005 459.953 300.164 461.245 299.454 462.371C299.004 463.105 298.625 463.757 298.412 464.136H273.295C272.691 463.485 271.72 462.454 270.713 461.494C270.168 460.973 269.612 460.475 269.114 460.084C268.866 459.882 268.629 459.716 268.404 459.586C268.179 459.456 267.966 459.349 267.705 459.302C267.456 459.254 267.148 459.254 266.746 459.254C265.514 459.254 263.477 459.385 261.63 459.551C260.706 459.634 259.842 459.717 259.155 459.811C258.812 459.859 258.515 459.894 258.267 459.942C258.018 459.989 257.84 460.025 257.663 460.084C257.39 460.19 257.237 460.345 257.094 460.522C256.846 460.818 256.621 461.198 256.396 461.636C256.064 462.288 255.756 463.058 255.519 463.757C255.401 464.113 255.306 464.444 255.235 464.729C255.164 465.025 255.117 465.274 255.117 465.511L255.14 465.748C255.164 465.831 255.188 465.949 255.294 466.08C255.401 466.21 255.496 466.245 255.555 466.281L255.768 466.34C255.922 466.364 256.076 466.364 256.277 466.364C257.047 466.364 258.433 466.269 259.676 466.186C260.292 466.139 260.872 466.091 261.298 466.068C261.512 466.056 261.689 466.032 261.819 466.02H261.973L262.021 466.008L264.733 465.937L266.094 468.13L264.851 470.393L262.139 470.464H261.855L261.689 470.44H261.63C261.63 470.44 260.387 470.428 258.989 470.428C258.113 470.428 257.189 470.428 256.467 470.452C256.1 470.452 255.792 470.476 255.555 470.499C255.436 470.499 255.33 470.523 255.235 470.535L255.058 470.582L254.915 470.653C254.856 470.701 254.738 470.772 254.655 470.962C254.608 471.092 254.596 471.199 254.596 471.305C254.596 471.578 254.679 471.791 254.773 472.016C255.117 472.81 255.851 473.9 256.633 474.86C257.023 475.346 257.426 475.784 257.793 476.128C257.983 476.306 258.16 476.448 258.338 476.566C258.527 476.685 258.705 476.791 258.977 476.827C259.214 476.851 259.664 476.874 260.28 476.886C260.884 476.898 261.642 476.91 262.459 476.91C263.631 476.91 264.922 476.886 266.012 476.827C266.556 476.791 267.042 476.756 267.468 476.697C267.894 476.637 268.214 476.578 268.51 476.448C268.783 476.317 268.984 476.14 269.197 475.938C269.931 475.192 270.772 473.912 271.483 472.774C271.945 472.04 272.323 471.376 272.537 470.997H297.63C298.222 471.637 299.205 472.68 300.212 473.639C300.768 474.173 301.313 474.67 301.811 475.061C302.059 475.263 302.296 475.429 302.521 475.559C302.746 475.689 302.959 475.796 303.232 475.843C303.48 475.879 303.788 475.891 304.179 475.891C305.411 475.891 307.447 475.76 309.283 475.595C310.207 475.512 311.071 475.417 311.758 475.334C312.101 475.287 312.409 475.251 312.646 475.204C312.895 475.156 313.072 475.121 313.25 475.061C313.522 474.955 313.676 474.801 313.819 474.623C314.067 474.327 314.292 473.948 314.517 473.509C314.849 472.857 315.157 472.087 315.394 471.376C315.512 471.033 315.607 470.701 315.678 470.405C315.749 470.108 315.796 469.86 315.796 469.623L315.773 469.386C315.749 469.303 315.725 469.184 315.619 469.054C315.512 468.923 315.417 468.888 315.358 468.864L315.145 468.805C314.991 468.781 314.837 468.781 314.636 468.781C313.866 468.781 312.48 468.876 311.237 468.959C310.621 469.006 310.041 469.054 309.615 469.077C309.401 469.089 309.224 469.113 309.094 469.113H308.94L308.904 469.125L306.192 469.196L304.83 467.004L306.074 464.741L308.786 464.67H309.07L309.236 464.693H309.283C309.283 464.693 310.526 464.717 311.924 464.717C312.8 464.717 313.724 464.717 314.446 464.693C314.813 464.693 315.121 464.67 315.358 464.646C315.476 464.634 315.583 464.622 315.678 464.61L315.855 464.563L316.009 464.492C316.069 464.444 316.175 464.373 316.258 464.184C316.305 464.053 316.317 463.947 316.317 463.84C316.317 463.568 316.234 463.366 316.14 463.117M311.924 463.437C310.609 463.437 309.449 463.425 309.319 463.425C309.247 463.425 308.999 463.39 308.786 463.39H308.738L305.92 463.473C305.529 463.485 305.186 463.698 304.996 464.042L303.658 466.482C303.563 466.648 303.528 466.826 303.528 467.004C303.528 467.205 303.575 467.407 303.693 467.584L305.162 469.954C305.363 470.274 305.707 470.464 306.086 470.476H306.121L308.94 470.393H309.034C309.567 470.345 313.025 470.061 314.446 470.037C314.411 470.179 314.375 470.357 314.316 470.535C314.115 471.21 313.795 472.075 313.451 472.763C313.286 473.106 313.12 473.414 312.966 473.616L312.788 473.841L312.765 473.865C312.765 473.865 312.599 473.912 312.409 473.936C310.87 474.208 306.157 474.599 304.143 474.599C303.776 474.599 303.492 474.587 303.397 474.564L303.326 474.54C303.137 474.457 302.734 474.185 302.296 473.817C300.958 472.703 299.111 470.748 298.341 469.895C298.222 469.765 298.057 469.694 297.879 469.694H272.134C271.885 469.694 271.684 469.836 271.577 470.037C271.566 470.061 271.4 470.345 271.139 470.796C270.737 471.495 270.085 472.573 269.458 473.497C269.138 473.959 268.818 474.386 268.546 474.706C268.273 475.026 268.013 475.239 267.966 475.251C267.918 475.275 267.646 475.346 267.279 475.393C266.166 475.547 264.176 475.595 262.447 475.595C261.642 475.595 260.896 475.595 260.304 475.571C259.735 475.559 259.297 475.535 259.143 475.512C259.131 475.512 259.025 475.452 258.894 475.358C258.397 474.978 257.568 474.03 256.929 473.13C256.609 472.68 256.313 472.229 256.123 471.862C256.088 471.791 256.064 471.744 256.04 471.684C256.751 471.649 257.912 471.637 258.977 471.637C260.28 471.637 261.452 471.649 261.583 471.649C261.654 471.649 261.902 471.684 262.115 471.684H262.163L264.981 471.601C265.372 471.601 265.727 471.376 265.905 471.033L267.243 468.592C267.338 468.426 267.373 468.248 267.373 468.07C267.373 467.869 267.314 467.667 267.208 467.49L265.739 465.12C265.538 464.8 265.194 464.598 264.816 464.598H264.78L261.962 464.681H261.867C261.334 464.729 257.876 465.013 256.455 465.037C256.49 464.883 256.526 464.717 256.585 464.539C256.787 463.864 257.106 462.999 257.438 462.312C257.604 461.968 257.781 461.66 257.923 461.447L258.101 461.221L258.125 461.198C258.125 461.198 258.29 461.15 258.48 461.127C260.031 460.854 264.733 460.463 266.746 460.463C267.101 460.463 267.397 460.475 267.492 460.499L267.563 460.522C267.752 460.605 268.155 460.866 268.593 461.233C269.92 462.335 271.767 464.29 272.548 465.143C272.667 465.274 272.833 465.345 273.01 465.345H298.767C299.004 465.345 299.205 465.215 299.324 465.013C299.324 465.013 299.489 464.705 299.762 464.243C300.165 463.544 300.816 462.466 301.455 461.541C301.775 461.079 302.095 460.653 302.367 460.333C302.64 460.013 302.9 459.799 302.936 459.788C302.983 459.764 303.267 459.693 303.622 459.645C304.736 459.491 306.725 459.444 308.454 459.444C309.247 459.444 309.994 459.444 310.597 459.468C311.166 459.48 311.604 459.503 311.758 459.515C311.77 459.515 311.876 459.574 312.007 459.669C312.504 460.048 313.333 460.996 313.973 461.897C314.304 462.347 314.588 462.797 314.778 463.165C314.813 463.236 314.837 463.283 314.861 463.342C314.15 463.378 312.99 463.39 311.924 463.39" fill="#656565"/>
<path d="M383.073 466.494L382.978 466.589C382.907 466.684 382.8 466.826 382.694 467.004C382.481 467.371 382.279 467.916 382.279 468.615C382.457 468.627 382.646 468.639 382.86 468.651C383.049 468.651 383.262 468.675 383.475 468.686C383.475 467.715 383.7 466.944 383.937 466.399C383.641 466.423 383.357 466.459 383.085 466.482H383.073V466.494Z" fill="#202020"/>
<path d="M387.05 466.719C387.05 466.719 386.991 466.826 386.967 466.885C386.777 467.324 386.576 467.975 386.576 468.817C386.849 468.817 387.121 468.84 387.381 468.852C387.156 468.307 387.026 467.715 387.026 467.087C387.026 466.968 387.05 466.85 387.062 466.731" fill="#202020"/>
<path d="M384.825 466.731C384.623 467.182 384.422 467.845 384.422 468.722C384.813 468.746 385.215 468.769 385.618 468.781C385.642 467.585 385.973 466.708 386.257 466.186C385.867 466.222 385.464 466.257 385.061 466.293C384.99 466.4 384.919 466.542 384.825 466.743" fill="#202020"/>
<path d="M381.485 466.66C381.449 466.85 381.426 467.146 381.426 467.43C381.426 467.525 381.426 467.62 381.426 467.715C381.521 467.276 381.663 466.909 381.828 466.613C381.828 466.613 381.805 466.613 381.793 466.613C381.674 466.625 381.568 466.636 381.473 466.66" fill="#202020"/>
<path d="M391.704 465.084C391.313 464.598 390.828 464.338 390.318 464.338C389.809 464.338 389.324 464.598 388.933 465.084C388.542 465.57 388.282 466.281 388.293 467.087C388.293 467.881 388.554 468.592 388.933 469.089C389.324 469.575 389.809 469.836 390.318 469.836C390.828 469.836 391.313 469.575 391.704 469.089C392.095 468.603 392.343 467.892 392.343 467.087C392.343 466.293 392.083 465.57 391.704 465.084Z" fill="#202020"/>
<path d="M392.699 464.302C392.131 463.568 391.278 463.07 390.319 463.07C389.359 463.07 388.507 463.568 387.938 464.302C387.82 464.444 387.725 464.622 387.619 464.788C386.956 464.847 386.162 464.918 385.369 464.989C384.338 465.084 383.308 465.179 382.491 465.274C382.088 465.321 381.733 465.357 381.473 465.392C381.342 465.416 381.224 465.428 381.129 465.44C381.023 465.463 380.975 465.463 380.845 465.511C380.525 465.653 380.454 465.854 380.383 465.985C380.288 466.21 380.253 466.423 380.217 466.66C380.182 466.897 380.17 467.17 380.17 467.43C380.17 467.857 380.205 468.295 380.288 468.686C380.336 468.888 380.383 469.066 380.49 469.243C380.584 469.409 380.727 469.646 381.07 469.753L381.354 469.8C382.088 469.883 384.196 469.978 386.174 470.073C386.908 470.096 387.607 470.132 388.211 470.156C388.767 470.724 389.502 471.104 390.319 471.104C391.278 471.104 392.131 470.606 392.699 469.871C393.279 469.137 393.611 468.153 393.611 467.087C393.611 466.02 393.267 465.037 392.699 464.302ZM386.257 466.174C385.973 466.696 385.641 467.584 385.617 468.769C385.215 468.757 384.812 468.734 384.421 468.722C384.421 467.845 384.623 467.182 384.824 466.731C384.907 466.542 384.99 466.399 385.061 466.281C385.463 466.245 385.866 466.21 386.257 466.174ZM381.496 466.66C381.591 466.648 381.686 466.625 381.816 466.613C381.816 466.613 381.84 466.613 381.852 466.613C381.698 466.909 381.544 467.276 381.449 467.715C381.449 467.62 381.449 467.525 381.449 467.43C381.449 467.134 381.473 466.85 381.508 466.66M382.302 468.603C382.302 467.904 382.515 467.359 382.716 466.992C382.823 466.814 382.929 466.672 383 466.577L383.095 466.482H383.107C383.379 466.447 383.663 466.411 383.959 466.388C383.723 466.933 383.509 467.703 383.498 468.675C383.284 468.675 383.083 468.651 382.882 468.639C382.669 468.627 382.479 468.615 382.302 468.603ZM386.577 468.805C386.577 467.964 386.778 467.312 386.967 466.873C386.991 466.814 387.027 466.767 387.05 466.708C387.05 466.826 387.015 466.945 387.015 467.063C387.015 467.691 387.145 468.295 387.37 468.829C387.109 468.829 386.849 468.805 386.565 468.793M391.704 469.054C391.313 469.54 390.828 469.8 390.319 469.8C389.809 469.8 389.324 469.54 388.933 469.054C388.542 468.568 388.282 467.857 388.294 467.051C388.294 466.257 388.554 465.546 388.933 465.049C389.324 464.563 389.809 464.302 390.319 464.302C390.828 464.302 391.313 464.563 391.704 465.049C392.095 465.534 392.344 466.245 392.344 467.051C392.344 467.845 392.083 468.556 391.704 469.054Z" fill="#656565"/>
<path d="M137.028 330.174C136.507 329.723 135.856 329.486 135.192 329.486C134.896 329.486 134.588 329.534 134.292 329.629L130.029 331.062C129.082 331.382 128.383 332.176 128.182 333.16L127.294 337.496C127.258 337.686 127.234 337.876 127.234 338.053C127.234 338.859 127.578 339.629 128.194 340.163L131.521 343.066C132.042 343.516 132.694 343.753 133.357 343.753C133.653 343.753 133.961 343.705 134.257 343.611L138.52 342.177C139.467 341.857 140.166 341.063 140.367 340.091L141.256 335.755C141.291 335.565 141.315 335.375 141.315 335.186C141.315 334.392 140.971 333.61 140.356 333.077L137.028 330.174ZM134.695 330.837C134.849 330.778 135.015 330.754 135.18 330.754C135.548 330.754 135.903 330.885 136.187 331.133L139.515 334.036C139.858 334.333 140.036 334.759 140.036 335.186L140 335.494L139.112 339.831C139.006 340.364 138.615 340.802 138.106 340.98L133.842 342.414C133.688 342.473 133.523 342.497 133.357 342.497C132.99 342.497 132.634 342.367 132.35 342.118L129.023 339.215C128.679 338.918 128.501 338.492 128.501 338.053L128.537 337.745L129.425 333.42C129.532 332.887 129.923 332.449 130.432 332.271L134.695 330.837Z" fill="#656565"/>
<path d="M131.83 333.752C131.463 333.87 131.19 334.19 131.108 334.57L130.551 337.295L130.527 337.52C130.527 337.828 130.669 338.136 130.906 338.35L133.002 340.186C133.204 340.364 133.452 340.459 133.725 340.459C133.843 340.459 133.962 340.435 134.08 340.399L136.745 339.499C137.112 339.38 137.384 339.06 137.467 338.693L138.023 335.956L138.047 335.743C138.047 335.435 137.917 335.127 137.68 334.925L135.584 333.088C135.383 332.911 135.122 332.816 134.862 332.816C134.743 332.816 134.625 332.84 134.506 332.875L131.842 333.776L131.83 333.752ZM134.814 334.084L136.756 335.778L136.235 338.314L133.748 339.155L131.806 337.461L132.327 334.925L134.814 334.084Z" fill="#656565"/>
<path d="M156.3 370.178C156.265 370.119 156.253 370.072 156.218 370C156.016 369.633 155.732 369.195 155.412 368.733C154.773 367.832 153.944 366.884 153.446 366.505C153.316 366.398 153.221 366.351 153.198 366.351C153.032 366.339 152.606 366.315 152.037 366.304C151.445 366.292 150.699 366.28 149.894 366.28C148.153 366.28 146.164 366.327 145.062 366.481C144.707 366.529 144.423 366.6 144.375 366.623C144.34 366.623 144.067 366.849 143.807 367.168C143.535 367.488 143.215 367.915 142.895 368.377C142.256 369.301 141.616 370.38 141.202 371.079C140.929 371.553 140.763 371.849 140.763 371.849C140.657 372.05 140.444 372.169 140.207 372.169H114.45C114.272 372.169 114.107 372.098 113.988 371.967C113.207 371.114 111.371 369.159 110.033 368.045C109.595 367.678 109.192 367.405 109.003 367.334L108.932 367.311C108.837 367.299 108.553 367.275 108.186 367.275C106.172 367.275 101.471 367.666 99.9197 367.939C99.7302 367.974 99.6 367.998 99.5644 368.01L99.5408 368.033L99.3631 368.259C99.221 368.472 99.0434 368.768 98.8776 369.124C98.546 369.811 98.2144 370.676 98.025 371.351C97.9657 371.529 97.9302 371.707 97.8947 371.849C99.3158 371.825 102.774 371.541 103.307 371.505H103.401L106.22 371.422H106.255C106.634 371.422 106.978 371.624 107.179 371.944L108.647 374.314C108.754 374.491 108.813 374.693 108.813 374.894C108.813 375.072 108.766 375.25 108.683 375.416L107.345 377.857C107.155 378.2 106.8 378.413 106.421 378.425L103.603 378.508H103.555C103.354 378.508 103.093 378.485 103.022 378.473C102.892 378.473 101.732 378.461 100.417 378.461C99.3394 378.461 98.1908 378.461 97.4802 378.508C97.5158 378.568 97.5276 378.615 97.5631 378.686C97.7644 379.041 98.0487 379.492 98.3684 379.954C99.0079 380.854 99.8368 381.802 100.334 382.182C100.464 382.288 100.571 382.336 100.583 382.336C100.749 382.347 101.175 382.371 101.743 382.395C102.336 382.407 103.082 382.419 103.887 382.419C105.616 382.419 107.617 382.371 108.718 382.217C109.086 382.17 109.358 382.099 109.405 382.075C109.453 382.075 109.713 381.85 109.986 381.53C110.258 381.21 110.578 380.783 110.897 380.321C111.537 379.397 112.176 378.319 112.579 377.62C112.84 377.169 113.005 376.885 113.017 376.861C113.124 376.66 113.337 376.518 113.574 376.518H139.331C139.508 376.518 139.674 376.601 139.792 376.731C140.562 377.572 142.41 379.539 143.748 380.653C144.186 381.02 144.588 381.293 144.778 381.376L144.849 381.4C144.944 381.411 145.228 381.435 145.595 381.435C147.608 381.435 152.31 381.044 153.861 380.772C154.05 380.736 154.181 380.7 154.216 380.7L154.252 380.677L154.429 380.452C154.571 380.25 154.749 379.942 154.915 379.598C155.246 378.899 155.578 378.046 155.779 377.371C155.839 377.193 155.874 377.015 155.91 376.873C154.489 376.897 151.019 377.181 150.498 377.217H150.403L147.585 377.3H147.549C147.17 377.3 146.827 377.098 146.625 376.79L145.157 374.42C145.05 374.243 144.991 374.041 144.991 373.84C144.991 373.662 145.039 373.484 145.121 373.318L146.46 370.877C146.649 370.534 146.992 370.32 147.383 370.309L150.202 370.226H150.249C150.45 370.226 150.711 370.249 150.782 370.249C150.912 370.249 152.073 370.273 153.387 370.273C154.465 370.273 155.614 370.273 156.324 370.226" fill="#202020"/>
<path d="M157.579 369.894C157.236 369.1 156.502 368.01 155.72 367.05C155.329 366.576 154.927 366.126 154.56 365.782C154.37 365.604 154.193 365.462 154.003 365.344C153.814 365.225 153.636 365.119 153.364 365.083C153.115 365.059 152.677 365.036 152.061 365.024C151.457 365.012 150.699 365 149.882 365C148.71 365 147.419 365.024 146.329 365.083C145.785 365.119 145.287 365.154 144.873 365.213C144.446 365.273 144.127 365.332 143.831 365.462C143.558 365.592 143.357 365.77 143.144 365.983C142.41 366.718 141.569 368.01 140.858 369.135C140.408 369.87 140.029 370.522 139.816 370.901H114.699C114.095 370.249 113.124 369.218 112.117 368.259C111.572 367.737 111.016 367.24 110.519 366.848C110.27 366.647 110.033 366.481 109.808 366.351C109.583 366.22 109.37 366.114 109.109 366.066C108.861 366.019 108.553 366.019 108.15 366.019C106.919 366.019 104.882 366.149 103.034 366.315C102.111 366.398 101.246 366.481 100.559 366.576C100.216 366.623 99.9198 366.659 99.6711 366.706C99.4224 366.754 99.2448 366.789 99.0671 366.848C98.7948 366.955 98.6408 367.109 98.4987 367.287C98.25 367.583 98.025 367.962 97.8 368.401C97.4684 369.052 97.1605 369.823 96.9237 370.522C96.8053 370.877 96.7105 371.209 96.6395 371.493C96.5684 371.79 96.521 372.038 96.521 372.275L96.5447 372.512C96.5684 372.595 96.5921 372.714 96.6987 372.844C96.8053 372.975 96.9 373.01 96.9592 373.046L97.1724 373.105C97.3263 373.129 97.4803 373.129 97.6816 373.129C98.4513 373.129 99.8369 373.034 101.08 372.951C101.696 372.903 102.276 372.856 102.703 372.832C102.916 372.821 103.093 372.797 103.224 372.785H103.378L103.425 372.773L106.137 372.702L107.499 374.894L106.255 377.157L103.543 377.229H103.259L103.093 377.205H103.034C103.034 377.205 101.791 377.193 100.393 377.193C99.5171 377.193 98.5934 377.193 97.8711 377.217C97.504 377.217 97.1961 377.24 96.9592 377.264C96.8408 377.264 96.7342 377.288 96.6395 377.3L96.4618 377.347L96.3197 377.418C96.2605 377.465 96.1421 377.537 96.0592 377.726C96.0118 377.856 96 377.963 96 378.07C96 378.342 96.0829 378.556 96.1776 378.781C96.521 379.575 97.2553 380.665 98.0369 381.625C98.4277 382.11 98.8303 382.549 99.1974 382.892C99.3869 383.07 99.5645 383.212 99.7421 383.331C99.9316 383.449 100.109 383.556 100.382 383.592C100.618 383.615 101.068 383.639 101.684 383.651C102.288 383.663 103.046 383.674 103.863 383.674C105.036 383.674 106.326 383.651 107.416 383.592C107.961 383.556 108.446 383.52 108.872 383.461C109.299 383.402 109.619 383.343 109.915 383.212C110.187 383.082 110.388 382.904 110.601 382.703C111.336 381.956 112.176 380.677 112.887 379.539C113.349 378.804 113.728 378.141 113.941 377.762H139.035C139.627 378.402 140.61 379.444 141.616 380.404C142.173 380.937 142.717 381.435 143.215 381.826C143.464 382.027 143.7 382.193 143.925 382.324C144.15 382.454 144.364 382.561 144.636 382.608C144.885 382.644 145.192 382.655 145.583 382.655C146.815 382.655 148.852 382.525 150.687 382.359C151.611 382.276 152.475 382.181 153.162 382.099C153.506 382.051 153.814 382.016 154.05 381.968C154.299 381.921 154.477 381.885 154.654 381.826C154.927 381.719 155.081 381.565 155.223 381.388C155.472 381.091 155.697 380.712 155.922 380.274C156.253 379.622 156.561 378.852 156.798 378.141C156.916 377.797 157.011 377.465 157.082 377.169C157.153 376.873 157.201 376.624 157.201 376.387L157.177 376.15C157.153 376.067 157.129 375.949 157.023 375.818C156.916 375.688 156.822 375.653 156.762 375.629L156.549 375.57C156.395 375.546 156.241 375.546 156.04 375.546C155.27 375.546 153.885 375.641 152.641 375.724C152.025 375.771 151.445 375.818 151.019 375.842C150.806 375.854 150.628 375.878 150.498 375.878H150.344L150.308 375.89L147.596 375.961L146.235 373.768L147.478 371.505L150.19 371.434H150.474L150.64 371.458H150.687C150.687 371.458 151.931 371.482 153.328 371.482C154.204 371.482 155.128 371.482 155.85 371.458C156.218 371.458 156.525 371.434 156.762 371.41C156.881 371.399 156.987 371.387 157.082 371.375L157.26 371.328L157.414 371.256C157.473 371.209 157.579 371.138 157.662 370.948C157.71 370.818 157.722 370.711 157.722 370.605C157.722 370.332 157.639 370.131 157.544 369.882M153.328 370.202C152.014 370.202 150.853 370.19 150.723 370.19C150.652 370.19 150.403 370.154 150.19 370.154H150.143L147.324 370.237C146.933 370.249 146.59 370.463 146.4 370.806L145.062 373.247C144.968 373.413 144.932 373.591 144.932 373.768C144.932 373.97 144.979 374.171 145.098 374.349L146.566 376.719C146.768 377.039 147.111 377.228 147.49 377.24H147.525L150.344 377.157H150.439C150.971 377.11 154.429 376.826 155.85 376.802C155.815 376.944 155.779 377.122 155.72 377.3C155.519 377.975 155.199 378.84 154.856 379.527C154.69 379.871 154.524 380.179 154.37 380.38L154.193 380.606L154.169 380.629C154.169 380.629 154.003 380.677 153.814 380.7C152.274 380.973 147.561 381.364 145.548 381.364C145.181 381.364 144.896 381.352 144.802 381.328L144.731 381.305C144.541 381.222 144.139 380.949 143.7 380.582C142.362 379.468 140.515 377.513 139.745 376.66C139.627 376.529 139.461 376.458 139.283 376.458H113.538C113.29 376.458 113.088 376.6 112.982 376.802C112.97 376.826 112.804 377.11 112.544 377.56C112.141 378.259 111.49 379.338 110.862 380.262C110.542 380.724 110.222 381.151 109.95 381.471C109.678 381.79 109.417 382.004 109.37 382.016C109.322 382.039 109.05 382.11 108.683 382.158C107.57 382.312 105.58 382.359 103.851 382.359C103.046 382.359 102.3 382.359 101.708 382.336C101.14 382.324 100.701 382.3 100.547 382.276C100.536 382.276 100.429 382.217 100.299 382.122C99.8013 381.743 98.9724 380.795 98.3329 379.895C98.0132 379.444 97.7171 378.994 97.5276 378.627C97.4921 378.556 97.4684 378.508 97.4448 378.449C98.1553 378.413 99.3158 378.402 100.382 378.402C101.684 378.402 102.857 378.413 102.987 378.413C103.058 378.413 103.307 378.449 103.52 378.449H103.567L106.386 378.366C106.776 378.366 107.132 378.141 107.309 377.797L108.647 375.356C108.742 375.19 108.778 375.013 108.778 374.835C108.778 374.633 108.719 374.432 108.612 374.254L107.143 371.884C106.942 371.565 106.599 371.363 106.22 371.363H106.184L103.366 371.446H103.271C102.738 371.493 99.2803 371.778 97.8592 371.801C97.8947 371.647 97.9303 371.482 97.9895 371.304C98.1908 370.628 98.5105 369.763 98.8421 369.076C99.0079 368.733 99.1855 368.424 99.3277 368.211L99.5053 367.986L99.529 367.962C99.529 367.962 99.6948 367.915 99.8842 367.891C101.436 367.619 106.137 367.228 108.15 367.228C108.505 367.228 108.801 367.24 108.896 367.263L108.967 367.287C109.157 367.37 109.559 367.631 109.997 367.998C111.324 369.1 113.171 371.055 113.953 371.908C114.071 372.038 114.237 372.11 114.415 372.11H140.171C140.408 372.11 140.61 371.979 140.728 371.778C140.728 371.778 140.894 371.47 141.166 371.008C141.569 370.309 142.22 369.23 142.86 368.306C143.179 367.844 143.499 367.417 143.771 367.097C144.044 366.777 144.304 366.564 144.34 366.552C144.387 366.529 144.671 366.457 145.027 366.41C146.14 366.256 148.129 366.209 149.858 366.209C150.652 366.209 151.398 366.209 152.002 366.232C152.57 366.244 153.008 366.268 153.162 366.28C153.174 366.28 153.281 366.339 153.411 366.434C153.908 366.813 154.737 367.761 155.377 368.661C155.708 369.112 155.993 369.562 156.182 369.929C156.218 370 156.241 370.048 156.265 370.107C155.554 370.143 154.394 370.154 153.328 370.154" fill="#656565"/>
<path d="M162.477 332.259L162.382 332.354C162.311 332.448 162.205 332.591 162.098 332.768C161.885 333.136 161.684 333.681 161.684 334.38C161.861 334.392 162.051 334.404 162.264 334.415C162.453 334.415 162.667 334.439 162.88 334.451C162.88 333.479 163.105 332.709 163.341 332.164C163.045 332.188 162.761 332.223 162.489 332.247H162.477V332.259Z" fill="#202020"/>
<path d="M166.454 332.484C166.454 332.484 166.395 332.591 166.371 332.65C166.182 333.088 165.98 333.74 165.98 334.581C166.253 334.581 166.525 334.605 166.786 334.617C166.561 334.072 166.43 333.479 166.43 332.851C166.43 332.733 166.454 332.614 166.466 332.496" fill="#202020"/>
<path d="M164.229 332.496C164.027 332.946 163.826 333.61 163.826 334.487C164.217 334.51 164.62 334.534 165.022 334.546C165.046 333.349 165.378 332.472 165.662 331.951C165.271 331.986 164.868 332.022 164.466 332.058C164.395 332.164 164.324 332.306 164.229 332.508" fill="#202020"/>
<path d="M160.889 332.425C160.854 332.614 160.83 332.911 160.83 333.195C160.83 333.29 160.83 333.385 160.83 333.479C160.925 333.041 161.067 332.674 161.233 332.377C161.233 332.377 161.209 332.377 161.197 332.377C161.079 332.389 160.972 332.401 160.877 332.425" fill="#202020"/>
<path d="M171.108 330.849C170.717 330.363 170.232 330.102 169.723 330.102C169.213 330.102 168.728 330.363 168.337 330.849C167.946 331.335 167.686 332.046 167.698 332.851C167.698 333.645 167.958 334.356 168.337 334.854C168.728 335.34 169.213 335.6 169.723 335.6C170.232 335.6 170.717 335.34 171.108 334.854C171.499 334.368 171.748 333.657 171.748 332.851C171.748 332.057 171.487 331.335 171.108 330.849Z" fill="#202020"/>
<path d="M172.103 330.067C171.535 329.332 170.682 328.834 169.723 328.834C168.764 328.834 167.911 329.332 167.343 330.067C167.224 330.209 167.13 330.387 167.023 330.553C166.36 330.612 165.566 330.683 164.773 330.754C163.743 330.849 162.712 330.944 161.895 331.038C161.493 331.086 161.137 331.121 160.877 331.157C160.747 331.181 160.628 331.192 160.533 331.204C160.427 331.228 160.379 331.228 160.249 331.275C159.929 331.418 159.858 331.619 159.787 331.749C159.693 331.975 159.657 332.188 159.622 332.425C159.586 332.662 159.574 332.934 159.574 333.195C159.574 333.622 159.61 334.06 159.693 334.451C159.74 334.653 159.787 334.83 159.894 335.008C159.989 335.174 160.131 335.411 160.474 335.518L160.758 335.565C161.493 335.648 163.601 335.743 165.578 335.837C166.312 335.861 167.011 335.897 167.615 335.92C168.172 336.489 168.906 336.868 169.723 336.868C170.682 336.868 171.535 336.371 172.103 335.636C172.684 334.901 173.015 333.918 173.015 332.851C173.015 331.785 172.672 330.801 172.103 330.067ZM165.661 331.939C165.377 332.46 165.045 333.349 165.022 334.534C164.619 334.522 164.216 334.498 163.826 334.487C163.826 333.61 164.027 332.946 164.228 332.496C164.311 332.306 164.394 332.164 164.465 332.046C164.868 332.01 165.27 331.975 165.661 331.939ZM160.901 332.425C160.995 332.413 161.09 332.389 161.22 332.377C161.22 332.377 161.244 332.377 161.256 332.377C161.102 332.674 160.948 333.041 160.853 333.479C160.853 333.385 160.853 333.29 160.853 333.195C160.853 332.899 160.877 332.614 160.912 332.425M161.706 334.368C161.706 333.669 161.919 333.124 162.12 332.757C162.227 332.579 162.333 332.437 162.405 332.342L162.499 332.247H162.511C162.783 332.212 163.068 332.176 163.364 332.152C163.127 332.697 162.914 333.468 162.902 334.439C162.689 334.439 162.487 334.416 162.286 334.404C162.073 334.392 161.883 334.38 161.706 334.368ZM165.981 334.57C165.981 333.728 166.182 333.077 166.372 332.638C166.395 332.579 166.431 332.531 166.455 332.472C166.455 332.591 166.419 332.709 166.419 332.828C166.419 333.456 166.549 334.06 166.774 334.593C166.514 334.593 166.253 334.57 165.969 334.558M171.109 334.818C170.718 335.304 170.232 335.565 169.723 335.565C169.214 335.565 168.728 335.304 168.337 334.818C167.947 334.333 167.686 333.622 167.698 332.816C167.698 332.022 167.958 331.311 168.337 330.813C168.728 330.328 169.214 330.067 169.723 330.067C170.232 330.067 170.718 330.328 171.109 330.813C171.499 331.299 171.748 332.01 171.748 332.816C171.748 333.61 171.487 334.321 171.109 334.818Z" fill="#656565"/>
<path d="M343.793 0.687244C343.272 0.23697 342.621 0 341.958 0C341.662 0 341.354 0.0473915 341.058 0.142186L336.795 1.57594C335.847 1.89587 335.149 2.68977 334.947 3.67326L334.059 8.01011C334.024 8.1997 334 8.38929 334 8.56703C334 9.37279 334.343 10.143 334.959 10.6762L338.287 13.5793C338.808 14.0296 339.459 14.2665 340.122 14.2665C340.418 14.2665 340.726 14.2192 341.022 14.1244L345.286 12.6906C346.233 12.3707 346.932 11.5768 347.133 10.6051L348.021 6.26826C348.057 6.07867 348.08 5.88911 348.08 5.69952C348.08 4.90561 347.737 4.12356 347.121 3.59034L343.793 0.687244ZM341.461 1.3508C341.615 1.29156 341.78 1.26785 341.946 1.26785C342.313 1.26785 342.668 1.3982 342.953 1.64704L346.28 4.55013C346.624 4.84637 346.801 5.27294 346.801 5.69952L346.766 6.00758L345.878 10.3444C345.771 10.8776 345.38 11.3161 344.871 11.4938L340.608 12.9276C340.454 12.9868 340.288 13.0105 340.122 13.0105C339.755 13.0105 339.4 12.8802 339.116 12.6313L335.788 9.72828C335.445 9.43204 335.267 9.00546 335.267 8.56703L335.303 8.25897L336.191 3.93395C336.297 3.40073 336.688 2.9623 337.197 2.78456L341.461 1.3508Z" fill="#656565"/>
<path d="M338.596 4.26566C338.229 4.38415 337.956 4.70409 337.873 5.08327L337.317 7.80863L337.293 8.03377C337.293 8.34185 337.435 8.64991 337.672 8.8632L339.768 10.6999C339.969 10.8776 340.218 10.9724 340.49 10.9724C340.609 10.9724 340.727 10.9487 340.846 10.9131L343.51 10.0126C343.877 9.89409 344.15 9.57417 344.232 9.20684L344.789 6.46965L344.813 6.25637C344.813 5.94829 344.683 5.6402 344.446 5.43877L342.35 3.6021C342.148 3.42436 341.888 3.32959 341.627 3.32959C341.509 3.32959 341.39 3.35327 341.272 3.38882L338.607 4.28938L338.596 4.26566ZM341.58 4.59744L343.522 6.29192L343.001 8.82765L340.514 9.66894L338.572 7.9745L339.093 5.43877L341.58 4.59744Z" fill="#656565"/>
<path d="M113.793 65.6872C113.272 65.237 112.621 65 111.958 65C111.662 65 111.354 65.0474 111.058 65.1422L106.795 66.5759C105.847 66.8959 105.149 67.6898 104.947 68.6733L104.059 73.0101C104.024 73.1997 104 73.3893 104 73.567C104 74.3728 104.343 75.143 104.959 75.6762L108.287 78.5793C108.808 79.0296 109.459 79.2665 110.122 79.2665C110.418 79.2665 110.726 79.2192 111.022 79.1244L115.286 77.6906C116.233 77.3707 116.932 76.5768 117.133 75.6051L118.021 71.2683C118.057 71.0787 118.08 70.8891 118.08 70.6995C118.08 69.9056 117.737 69.1236 117.121 68.5903L113.793 65.6872ZM111.461 66.3508C111.615 66.2916 111.78 66.2678 111.946 66.2678C112.313 66.2678 112.668 66.3982 112.953 66.647L116.28 69.5501C116.624 69.8464 116.801 70.2729 116.801 70.6995L116.766 71.0076L115.878 75.3444C115.771 75.8776 115.38 76.3161 114.871 76.4938L110.608 77.9276C110.454 77.9868 110.288 78.0105 110.122 78.0105C109.755 78.0105 109.4 77.8802 109.116 77.6313L105.788 74.7283C105.445 74.432 105.267 74.0055 105.267 73.567L105.303 73.259L106.191 68.9339C106.297 68.4007 106.688 67.9623 107.197 67.7846L111.461 66.3508Z" fill="#656565"/>
<path d="M108.596 69.2657C108.229 69.3842 107.956 69.7041 107.873 70.0833L107.317 72.8086L107.293 73.0338C107.293 73.3419 107.435 73.6499 107.672 73.8632L109.768 75.6999C109.969 75.8776 110.218 75.9724 110.49 75.9724C110.609 75.9724 110.727 75.9487 110.846 75.9131L113.51 75.0126C113.877 74.8941 114.15 74.5742 114.232 74.2068L114.789 71.4697L114.813 71.2564C114.813 70.9483 114.683 70.6402 114.446 70.4388L112.35 68.6021C112.148 68.4244 111.888 68.3296 111.627 68.3296C111.509 68.3296 111.39 68.3533 111.272 68.3888L108.607 69.2894L108.596 69.2657ZM111.58 69.5974L113.522 71.2919L113.001 73.8277L110.514 74.6689L108.572 72.9745L109.093 70.4388L111.58 69.5974Z" fill="#656565"/>
<path d="M267.555 70.3385C267.561 70.2728 267.578 70.2309 267.591 70.1567C267.642 69.7615 267.668 69.2615 267.68 68.7215C267.69 67.6586 267.576 66.4391 267.4 65.8443C267.358 65.6832 267.31 65.5878 267.291 65.5725C267.167 65.4569 266.843 65.1646 266.399 64.7892C265.937 64.3984 265.353 63.9082 264.716 63.3884C263.337 62.2647 261.735 61.0147 260.775 60.415C260.466 60.2199 260.2 60.0877 260.149 60.0742C260.121 60.0513 259.776 60.038 259.387 60.1008C258.988 60.156 258.49 60.2576 257.972 60.3848C256.936 60.6393 255.812 61.0049 255.083 61.2421C254.596 61.4085 254.294 61.5153 254.294 61.5153C254.095 61.592 253.858 61.5399 253.67 61.387L233.275 44.7606C233.135 44.6459 233.044 44.4875 233.025 44.317C232.895 43.1965 232.562 40.6001 232.141 38.9322C232.004 38.3841 231.842 37.9275 231.732 37.7538L231.69 37.6908C231.622 37.6211 231.41 37.4206 231.119 37.1836C229.525 35.884 225.578 33.1315 224.194 32.3269C224.023 32.2302 223.907 32.1633 223.872 32.1489L223.839 32.1507L223.57 32.1986C223.335 32.2609 223.025 32.36 222.69 32.5097C222.033 32.7918 221.275 33.2022 220.738 33.5675C220.589 33.6576 220.459 33.763 220.349 33.8428C221.488 34.743 224.389 36.7698 224.832 37.0882L224.907 37.1493L227.186 38.9088L227.214 38.9317C227.514 39.1763 227.671 39.5434 227.647 39.9044L227.451 42.5632C227.434 42.7603 227.365 42.944 227.25 43.0894C227.148 43.2177 227.009 43.3155 226.848 43.3817L224.389 44.2802C224.043 44.406 223.639 44.3306 223.332 44.0945L221.053 42.3351L221.015 42.3045C220.856 42.1746 220.663 41.9893 220.614 41.9348C220.511 41.8508 219.598 41.0931 218.558 40.2445C217.704 39.5489 216.795 38.8074 216.205 38.383C216.199 38.4487 216.181 38.4905 216.169 38.5648C216.124 38.9514 216.091 39.4599 216.08 40C216.07 41.0629 216.183 42.2824 216.36 42.8772C216.402 43.0383 216.459 43.1413 216.468 43.149C216.593 43.2645 216.917 43.5568 217.353 43.9409C217.815 44.3316 218.399 44.8218 219.037 45.3416C220.406 46.4577 222.018 47.7154 222.978 48.3151C223.296 48.5178 223.552 48.6423 223.604 48.6558C223.641 48.6864 223.976 48.692 224.375 48.6368C224.774 48.5817 225.272 48.4801 225.79 48.3529C226.826 48.0984 227.95 47.7327 228.67 47.4879C229.134 47.331 229.429 47.2327 229.452 47.2232C229.651 47.1466 229.902 47.1816 230.089 47.3345L250.484 63.9609C250.625 64.0756 250.709 64.2425 250.728 64.413C250.855 65.5173 251.191 68.1299 251.612 69.7978C251.748 70.3459 251.911 70.8026 252.014 70.9847L252.056 71.0477C252.124 71.1174 252.336 71.318 252.627 71.555C254.221 72.8545 258.168 75.607 259.552 76.4117C259.723 76.5083 259.846 76.5667 259.874 76.5897L259.916 76.5955L260.186 76.5476C260.414 76.4939 260.731 76.3862 261.059 76.2451C261.722 75.9544 262.474 75.5525 263.02 75.1949C263.169 75.1048 263.299 74.9994 263.408 74.9196C262.27 74.0194 259.359 71.985 258.926 71.6743L258.851 71.6131L256.572 69.8536L256.544 69.8307C256.244 69.5861 256.087 69.2189 256.104 68.8666L256.3 66.2077C256.317 66.0106 256.386 65.827 256.501 65.6815C256.603 65.5532 256.742 65.4555 256.903 65.3892L259.362 64.4908C259.709 64.365 260.103 64.4327 260.419 64.6764L262.698 66.4359L262.736 66.4665C262.895 66.5964 263.088 66.7817 263.144 66.8276C263.247 66.9117 264.153 67.6779 265.194 68.5264C266.047 69.2221 266.956 69.9636 267.546 70.388" fill="#202020"/>
<path d="M268.776 70.9882C268.959 70.192 269.003 68.9287 268.934 67.7292C268.896 67.1337 268.835 66.5477 268.741 66.0617C268.693 65.8107 268.634 65.5929 268.551 65.3847C268.469 65.1765 268.389 64.9845 268.194 64.7827C268.01 64.6047 267.676 64.3042 267.195 63.8974C266.722 63.4983 266.128 62.9996 265.48 62.4712C264.55 61.7131 263.513 60.8955 262.614 60.2339C262.162 59.9073 261.747 59.6114 261.384 59.3862C261.012 59.1534 260.724 58.9894 260.415 58.8923C260.124 58.8104 259.862 58.8088 259.571 58.8252C258.567 58.8817 257.158 59.2721 255.949 59.6268C255.17 59.8671 254.495 60.0934 254.108 60.2298L234.186 43.9873C234.081 43.1254 233.903 41.7519 233.655 40.4069C233.523 39.6775 233.367 38.9577 233.197 38.3532C233.115 38.0467 233.023 37.7736 232.919 37.5338C232.815 37.294 232.707 37.0791 232.528 36.8763C232.358 36.6812 232.114 36.4821 231.794 36.2218C230.817 35.4253 229.127 34.2024 227.567 33.1278C226.786 32.5904 226.053 32.0914 225.454 31.7158C225.154 31.528 224.899 31.3623 224.674 31.2357C224.45 31.1092 224.289 31.02 224.114 30.948C223.837 30.849 223.626 30.8609 223.411 30.8975C223.044 30.951 222.648 31.0797 222.218 31.2513C221.581 31.5082 220.894 31.8661 220.305 32.2186C220.007 32.3991 219.741 32.5778 219.522 32.7375C219.295 32.9058 219.115 33.0551 218.979 33.2265L218.862 33.4132C218.833 33.4886 218.784 33.5896 218.793 33.7528C218.803 33.9159 218.858 34.0029 218.884 34.0669L219.019 34.2476C219.128 34.3643 219.25 34.4638 219.41 34.594C220.02 35.0918 221.174 35.9192 222.207 36.6633C222.723 37.0272 223.211 37.3682 223.562 37.6267C223.738 37.756 223.893 37.8538 224.003 37.9294L224.125 38.029L224.169 38.051L226.361 39.7533L226.183 42.2194L223.897 43.0521L221.706 41.3499L221.48 41.1661L221.362 41.0417L221.315 41.0034C221.315 41.0034 220.336 40.1908 219.228 39.2871C218.532 38.7204 217.8 38.1231 217.213 37.6732C216.922 37.4358 216.664 37.2538 216.463 37.1178C216.369 37.0412 216.271 36.9894 216.189 36.9367L216.021 36.8561L215.867 36.8156C215.793 36.8116 215.658 36.7865 215.484 36.87C215.371 36.9336 215.301 37.0031 215.239 37.0802C215.083 37.2773 215.026 37.4852 214.972 37.7093C214.789 38.5055 214.745 39.7688 214.814 40.9683C214.845 41.5724 214.913 42.1499 215.007 42.6358C215.055 42.8868 215.114 43.1045 215.187 43.3051C215.27 43.5133 215.349 43.7053 215.545 43.9072C215.719 44.0775 216.063 44.3856 216.544 44.7924C217.016 45.1915 217.611 45.6902 218.259 46.2186C219.189 46.9767 220.226 47.7943 221.124 48.456C221.577 48.7825 221.982 49.0708 222.354 49.3036C222.727 49.5365 223.014 49.7004 223.324 49.7976C223.615 49.8794 223.876 49.8811 224.161 49.8732C225.172 49.8081 226.574 49.4263 227.79 49.0631C228.578 48.8304 229.26 48.5955 229.646 48.4591L249.55 64.6863C249.652 65.5319 249.833 66.9217 250.081 68.2668C250.216 69.0123 250.363 69.7245 250.533 70.3289C250.614 70.6354 250.707 70.9086 250.81 71.1484C250.914 71.3881 251.022 71.6031 251.211 71.8135C251.388 72 251.625 72.2077 251.935 72.4604C252.912 73.2568 254.602 74.4797 256.153 75.5467C256.934 76.0841 257.674 76.5745 258.266 76.9587C258.566 77.1465 258.83 77.3199 259.045 77.4388C259.27 77.5653 259.431 77.6545 259.606 77.7265C259.883 77.8255 260.094 77.8136 260.309 77.777C260.676 77.7236 261.072 77.5948 261.502 77.4232C262.139 77.1663 262.826 76.8084 263.422 76.4474C263.713 76.2754 263.979 76.0967 264.205 75.9284C264.431 75.7601 264.612 75.6108 264.748 75.4394L264.865 75.2527C264.894 75.1774 264.943 75.0764 264.933 74.9132C264.924 74.75 264.869 74.663 264.836 74.6076L264.701 74.4269C264.592 74.3102 264.47 74.2107 264.31 74.0805C263.7 73.5827 262.546 72.7553 261.512 72.0112C260.997 71.6473 260.509 71.3063 260.158 71.0478C259.982 70.9185 259.827 70.8208 259.724 70.7365L259.602 70.637L259.567 70.6226L257.375 68.9203L257.553 66.4543L259.839 65.6215L262.031 67.3237L262.256 67.5075L262.374 67.6319L262.411 67.6625C262.411 67.6625 263.384 68.4837 264.492 69.3874C265.188 69.9541 265.92 70.5514 266.507 71.0014C266.798 71.2388 267.056 71.4207 267.257 71.5567C267.358 71.6248 267.449 71.6851 267.531 71.7378L267.699 71.8184L267.862 71.8665C267.936 71.8705 268.062 71.888 268.236 71.8045C268.349 71.7409 268.419 71.6714 268.481 71.5943C268.637 71.3972 268.687 71.1979 268.755 70.9567M265.227 68.4618C264.184 67.6118 263.271 66.8528 263.167 66.7685C263.111 66.7226 262.934 66.5361 262.765 66.3982L262.728 66.3676L260.444 64.605C260.128 64.3608 259.733 64.293 259.385 64.419L256.923 65.3191C256.752 65.3778 256.622 65.4833 256.52 65.6119C256.404 65.7576 256.326 65.9339 256.318 66.139L256.123 68.8025C256.099 69.1641 256.262 69.5233 256.556 69.7769L256.584 69.7999L258.867 71.5625L258.942 71.6238C259.392 71.9341 262.298 73.9645 263.439 74.8663C263.329 74.9462 263.199 75.0518 263.05 75.1421C262.503 75.5004 261.752 75.9192 261.085 76.1941C260.757 76.3354 260.448 76.451 260.211 76.4972L259.94 76.5451L259.908 76.547C259.908 76.547 259.749 76.474 259.585 76.3686C258.208 75.5702 254.245 72.8052 252.648 71.5033C252.357 71.2659 252.138 71.0736 252.077 70.9952L252.034 70.9321C251.932 70.7496 251.769 70.2921 251.632 69.7431C251.21 68.0722 250.867 65.4635 250.746 64.3487C250.727 64.1779 250.636 64.0193 250.496 63.9044L230.075 47.2561C229.878 47.0953 229.637 47.0679 229.437 47.1447C229.414 47.1542 229.119 47.2527 228.654 47.4098C227.933 47.6551 226.797 48.0137 225.769 48.2763C225.25 48.4038 224.752 48.5055 224.352 48.5608C223.952 48.616 223.623 48.6018 223.579 48.5797C223.528 48.5662 223.271 48.4415 222.952 48.2384C221.981 47.63 220.376 46.3777 219.004 45.2597C218.366 44.7389 217.774 44.2565 217.318 43.8565C216.874 43.4803 216.54 43.1798 216.431 43.0631C216.422 43.0555 216.372 42.9437 216.323 42.7909C216.146 42.195 216.032 40.9734 216.042 39.9086C216.047 39.3762 216.071 38.8591 216.131 38.4709C216.144 38.3965 216.152 38.3469 216.168 38.2887C216.752 38.7225 217.679 39.4644 218.524 40.1536C219.558 40.996 220.481 41.7627 220.584 41.8469C220.64 41.8929 220.817 42.0794 220.986 42.2172L221.024 42.2479L223.307 44.0105C223.617 44.2632 224.028 44.3301 224.366 44.1964L226.829 43.2964C226.999 43.2377 227.129 43.1321 227.231 43.0035C227.347 42.8579 227.416 42.6739 227.433 42.4764L227.629 39.8129C227.653 39.4513 227.496 39.0835 227.195 38.8385L227.167 38.8155L224.884 37.0529L224.809 36.9917C224.359 36.6813 221.453 34.6509 220.312 33.7491C220.429 33.6607 220.552 33.5637 220.701 33.4734C221.249 33.1151 221.999 32.6963 222.657 32.4137C222.985 32.2723 223.303 32.1644 223.538 32.102L223.808 32.0541L223.841 32.0522C223.841 32.0522 223.999 32.1252 224.163 32.2306C225.55 33.0367 229.504 35.794 231.1 37.0959C231.382 37.3256 231.61 37.5256 231.672 37.604L231.715 37.6671C231.817 37.8496 231.987 38.2985 232.124 38.8476C232.543 40.5022 232.886 43.1109 233.016 44.2333C233.035 44.4042 233.126 44.5628 233.267 44.6777L253.696 61.3336C253.884 61.4868 254.119 61.5227 254.328 61.4536C254.328 61.4536 254.637 61.338 255.118 61.1799C255.839 60.9347 256.974 60.576 258.012 60.3211C258.531 60.1936 259.029 60.0919 259.429 60.0366C259.829 59.9814 260.158 59.9956 260.193 60.01C260.244 60.0235 260.51 60.1559 260.819 60.3513C261.791 60.9598 263.396 62.212 264.767 63.33C265.397 63.8431 265.988 64.3256 266.454 64.7333C266.898 65.1094 267.232 65.4099 267.347 65.518C267.357 65.5257 267.407 65.6375 267.456 65.7902C267.633 66.3861 267.746 67.6078 267.736 68.6726C267.741 69.2127 267.708 69.7221 267.647 70.1103C267.635 70.1847 267.626 70.2343 267.611 70.2924C267.027 69.8587 266.1 69.1168 265.254 68.4276" fill="#656565"/>
<defs>
<clipPath id="clip0_190_444">
<rect width="149" height="105" fill="white" transform="translate(305 76)"/>
</clipPath>
<clipPath id="clip1_190_444">
<rect width="209" height="203" fill="white" transform="translate(74 104)"/>
</clipPath>
</defs>
</svg>
