<svg width="36" height="32" viewBox="0 0 36 32" fill="none" xmlns="http://www.w3.org/2000/svg">
<g clip-path="url(#clip0_190_416)">
<path d="M20.7375 7.76278C20.5895 7.84596 20.4497 7.94713 20.3217 8.06586L19.6116 8.7244L23.0251 11.8217C23.5029 12.2552 23.8658 12.8069 24.0747 13.4173C24.2835 14.0277 24.3347 14.6861 24.2227 15.3214L22.2671 26.4119C21.9439 28.2451 20.3595 29.5756 18.4997 29.5756C18.2771 29.5756 18.0526 29.5559 17.8324 29.5171L17.209 29.4072L17.3474 30.192C17.5345 31.2534 18.4574 32.0001 19.4991 32.0001C19.6251 32.0001 31.1914 29.9722 31.1914 29.9722C32.3812 29.7625 33.1757 28.6279 32.9658 27.4381L30.2366 11.9604C30.1082 11.2317 29.62 10.6173 28.9392 10.3275L22.6659 7.65712C22.5675 7.61523 22.4671 7.58138 22.3657 7.55464L22.0938 5.85331L21.9081 4.69109C21.8366 4.24369 21.4158 3.93908 20.9686 4.01051C20.5212 4.08198 20.2166 4.50258 20.2881 4.94998L20.4693 6.08398L20.7375 7.76278Z" fill="#FFCD07"/>
<path d="M13.52 16.9713L13.9684 14.4281C13.9596 14.4291 13.951 14.4298 13.9421 14.4308C13.3525 14.5008 12.9821 14.9507 12.832 15.3484C12.6711 15.7748 12.7154 16.2005 12.9476 16.4594C13.0937 16.6223 13.2807 16.7899 13.52 16.9713Z" fill="#FFCD07"/>
<path d="M14.3121 18.7784L13.7227 22.1212C14.5232 22.035 15.0863 21.4535 15.2997 20.8524C15.4047 20.5564 15.6602 19.5413 14.5361 18.9062C14.4594 18.8629 14.3848 18.8203 14.3121 18.7784Z" fill="#FFCD07"/>
<path d="M14.9948 7.97912C14.8721 8.00531 14.7506 8.04173 14.6317 8.08975L8.32289 10.6393C7.6236 10.922 7.11921 11.5449 6.98824 12.2876L5.0336 23.3728C4.82382 24.5626 5.61826 25.6972 6.80799 25.9069L18.1179 27.9012C18.2464 27.9238 18.3742 27.9347 18.5003 27.9347C19.5419 27.9347 20.4649 27.188 20.652 26.1267L22.6076 15.0362C22.7381 14.2963 22.4797 13.5412 21.9232 13.0363L16.9212 8.49777C16.8238 8.4094 16.7197 8.3313 16.6106 8.26311L16.9077 6.57808L17.1925 4.96261C17.2712 4.51647 16.9733 4.091 16.5272 4.01236C16.0812 3.93344 15.6555 4.23155 15.5769 4.67774L15.292 6.29343L14.9948 7.97912ZM15.3657 12.8024L15.2528 13.4431C15.9949 13.6609 16.4094 14.0986 16.6077 14.3081C16.6354 14.3374 16.6641 14.3677 16.6778 14.3804C16.8996 14.5854 16.9131 14.9314 16.7081 15.1532C16.5031 15.3749 16.1571 15.3885 15.9353 15.1835C15.8949 15.1461 15.8553 15.1042 15.8134 15.06C15.6663 14.9046 15.4452 14.6716 15.0611 14.5301L14.5147 17.6287C14.6865 17.7317 14.8722 17.8396 15.0741 17.9537C16.296 18.6441 16.7892 19.9254 16.3303 21.218C16.105 21.8528 15.6688 22.4019 15.1022 22.7639C14.6261 23.0681 14.0897 23.2243 13.5277 23.226L13.3895 24.0099C13.3427 24.2753 13.1119 24.4619 12.8516 24.4619C12.82 24.4619 12.7881 24.4592 12.756 24.4536C12.4585 24.4011 12.2599 24.1175 12.3123 23.8201L12.4433 23.0773C11.7295 22.9182 11.2154 22.6791 10.5066 22.0137C10.2863 21.807 10.2754 21.4609 10.4822 21.2407C10.6889 21.0204 11.0349 21.0096 11.2552 21.2163C11.776 21.7052 12.1007 21.8772 12.6334 22L13.31 18.1625C12.7846 17.8117 12.4159 17.5041 12.1336 17.1895C11.6277 16.6255 11.5032 15.772 11.8088 14.9621C12.145 14.071 12.9131 13.4512 13.8135 13.3445C13.9352 13.33 14.0517 13.3216 14.1644 13.3174L14.2887 12.6125C14.3411 12.3151 14.6247 12.1165 14.9222 12.1689C15.2195 12.2213 15.4181 12.505 15.3657 12.8024Z" fill="#FFCD07"/>
</g>
<defs>
<clipPath id="clip0_190_416">
<rect width="28" height="28" fill="white" transform="translate(5 4)"/>
</clipPath>
</defs>
</svg>
