<svg width="32" height="32" viewBox="0 0 32 32" fill="none" xmlns="http://www.w3.org/2000/svg">
<path d="M15.9993 30.3333C13.6149 30.3378 11.287 29.6073 9.33264 28.2413C9.11499 28.0896 8.96651 27.8577 8.91988 27.5965C8.87324 27.3353 8.93227 27.0663 9.08397 26.8487C9.23568 26.631 9.46763 26.4825 9.72881 26.4359C9.98998 26.3893 10.259 26.4483 10.4766 26.6C11.9262 27.6092 13.6245 28.2019 15.3871 28.3139C17.1498 28.4259 18.9094 28.0528 20.475 27.2351C22.0406 26.4175 23.3522 25.1865 24.2674 23.6759C25.1827 22.1653 25.6666 20.4329 25.6666 18.6667C25.6666 16.9004 25.1827 15.168 24.2674 13.6574C23.3522 12.1468 22.0406 10.9159 20.475 10.0982C18.9094 9.28058 17.1498 8.90748 15.3871 9.01944C13.6245 9.13141 11.9262 9.72416 10.4766 10.7333C10.3689 10.8085 10.2474 10.8616 10.119 10.8898C9.99073 10.9179 9.85813 10.9205 9.72881 10.8974C9.59948 10.8743 9.47598 10.826 9.36534 10.7552C9.2547 10.6844 9.15909 10.5924 9.08397 10.4847C9.00886 10.3769 8.9557 10.2554 8.92755 10.1271C8.89939 9.99876 8.89679 9.86616 8.91988 9.73683C8.96651 9.47566 9.11499 9.24371 9.33264 9.092C10.8355 8.0457 12.5635 7.36785 14.3769 7.11329C16.1903 6.85872 18.0381 7.03459 19.7709 7.62666C21.5037 8.21873 23.0729 9.21039 24.3513 10.5214C25.6298 11.8324 26.5817 13.4259 27.13 15.1731C27.6784 16.9202 27.8078 18.7719 27.5077 20.5783C27.2077 22.3848 26.4866 24.0952 25.4029 25.5712C24.3192 27.0473 22.9032 28.2475 21.2696 29.0748C19.6359 29.9021 17.8305 30.3332 15.9993 30.3333Z" fill="#FFCD07"/>
<path d="M9.33333 20.3333H4C3.73478 20.3333 3.48043 20.228 3.29289 20.0404C3.10536 19.8529 3 19.5985 3 19.3333C3 19.0681 3.10536 18.8137 3.29289 18.6262C3.48043 18.4387 3.73478 18.3333 4 18.3333H9.33333C9.59855 18.3333 9.8529 18.4387 10.0404 18.6262C10.228 18.8137 10.3333 19.0681 10.3333 19.3333C10.3333 19.5985 10.228 19.8529 10.0404 20.0404C9.8529 20.228 9.59855 20.3333 9.33333 20.3333Z" fill="#FFCD07"/>
<path d="M10.2393 16.3334H2.66602C2.4008 16.3334 2.14645 16.228 1.95891 16.0405C1.77137 15.8529 1.66602 15.5986 1.66602 15.3334C1.66602 15.0682 1.77137 14.8138 1.95891 14.6263C2.14645 14.4387 2.4008 14.3334 2.66602 14.3334H10.2393C10.5046 14.3334 10.7589 14.4387 10.9465 14.6263C11.134 14.8138 11.2393 15.0682 11.2393 15.3334C11.2393 15.5986 11.134 15.8529 10.9465 16.0405C10.7589 16.228 10.5046 16.3334 10.2393 16.3334Z" fill="#FFCD07"/>
<path d="M10.666 24.3334H2.66602C2.4008 24.3334 2.14645 24.228 1.95891 24.0405C1.77137 23.8529 1.66602 23.5986 1.66602 23.3334C1.66602 23.0682 1.77137 22.8138 1.95891 22.6263C2.14645 22.4387 2.4008 22.3334 2.66602 22.3334H10.666C10.9312 22.3334 11.1856 22.4387 11.3731 22.6263C11.5607 22.8138 11.666 23.0682 11.666 23.3334C11.666 23.5986 11.5607 23.8529 11.3731 24.0405C11.1856 24.228 10.9312 24.3334 10.666 24.3334Z" fill="#FFCD07"/>
<path d="M28.8249 4.85469L24.3289 1.98403C23.8067 1.65218 23.1742 1.54091 22.5701 1.67463C21.966 1.80835 21.4396 2.17613 21.1062 2.69736L20.3889 3.82136C20.0566 4.34309 19.945 4.97535 20.0785 5.57932C20.212 6.18329 20.5797 6.7096 21.1009 7.04269L25.5995 9.91203C26.1215 10.2428 26.7531 10.3536 27.3564 10.2202C27.9597 10.0868 28.4857 9.72002 28.8195 9.20003L29.5369 8.07603C29.8684 7.5541 29.9797 6.92206 29.8462 6.3183C29.7128 5.71454 29.3455 5.18826 28.8249 4.85469Z" fill="#FFCD07"/>
<path d="M22.4511 10.8827C22.272 10.8823 22.0963 10.8339 21.9424 10.7424C21.7884 10.651 21.6619 10.5198 21.5759 10.3628C21.4899 10.2057 21.4477 10.0284 21.4537 9.84941C21.4596 9.67044 21.5135 9.49636 21.6098 9.34534L23.0431 7.09734C23.1137 6.98659 23.2055 6.89084 23.3132 6.81556C23.4208 6.74028 23.5423 6.68694 23.6705 6.65859C23.7988 6.63023 23.9314 6.62742 24.0607 6.65032C24.1901 6.67321 24.3137 6.72135 24.4244 6.792C24.5352 6.86265 24.6309 6.95443 24.7062 7.06208C24.7815 7.16974 24.8348 7.29117 24.8632 7.41943C24.8915 7.5477 24.8943 7.6803 24.8714 7.80965C24.8486 7.93901 24.8004 8.06259 24.7298 8.17334L23.2951 10.42C23.205 10.5622 23.0803 10.6791 22.9327 10.7601C22.7851 10.841 22.6194 10.8831 22.4511 10.8827Z" fill="#FFCD07"/>
<path d="M16.0007 11C14.4843 11 13.0021 11.4497 11.7413 12.2921C10.4805 13.1345 9.49785 14.3319 8.91758 15.7328C8.33731 17.1337 8.18548 18.6752 8.4813 20.1624C8.77712 21.6496 9.5073 23.0157 10.5795 24.0879C11.6517 25.1601 13.0178 25.8902 14.505 26.1861C15.9922 26.4819 17.5337 26.3301 18.9346 25.7498C20.3355 25.1695 21.5328 24.1869 22.3753 22.9261C23.2177 21.6653 23.6673 20.183 23.6673 18.6667C23.6741 17.658 23.4803 16.6581 23.0974 15.7249C22.7145 14.7917 22.1501 13.9438 21.4368 13.2306C20.7236 12.5173 19.8757 11.9528 18.9425 11.5699C18.0093 11.187 17.0093 10.9933 16.0007 11ZM19.3233 17.1067L17.962 18.288C17.9871 18.4127 18 18.5395 18.0007 18.6667C18.0074 19.0994 17.8759 19.5229 17.6253 19.8756C17.3747 20.2283 17.018 20.4918 16.6072 20.6277C16.1964 20.7637 15.753 20.7649 15.3414 20.6313C14.9299 20.4977 14.5717 20.2362 14.3191 19.8849C14.0665 19.5335 13.9326 19.1108 13.937 18.6781C13.9414 18.2454 14.0837 17.8254 14.3434 17.4793C14.603 17.1332 14.9664 16.8789 15.3805 16.7536C15.7947 16.6284 16.238 16.6385 16.646 16.7827L18.0113 15.596C18.2116 15.4221 18.4729 15.3348 18.7376 15.3534C19.0022 15.372 19.2487 15.4951 19.4227 15.6954C19.5966 15.8957 19.6839 16.1569 19.6653 16.4216C19.6467 16.6863 19.5236 16.9327 19.3233 17.1067Z" fill="#FFCD07"/>
</svg>
