<svg width="361" height="180" viewBox="0 0 361 180" fill="none" xmlns="http://www.w3.org/2000/svg">
<g clip-path="url(#clip0_2021_28)">
<path d="M360.473 0.527832H232.527V179.472H360.473V0.527832Z" fill="white"/>
<path d="M352.902 5.96875H325.475V18.7931H352.902V5.96875Z" fill="black"/>
<path d="M352.374 172.403H325.474C325.182 172.403 324.947 172.167 324.947 171.875V150.408C324.947 150.115 325.182 149.88 325.474 149.88H352.374C352.666 149.88 352.901 150.115 352.901 150.408V171.875C352.901 172.167 352.666 172.403 352.374 172.403ZM326.001 171.347H351.847V150.938H326.001V171.347Z" fill="black"/>
<path d="M360.473 24.7598H232.834C232.542 24.7598 232.307 24.5244 232.307 24.2321C232.307 23.9397 232.542 23.7043 232.834 23.7043H360.473C360.765 23.7043 361 23.9397 361 24.2321C361 24.5244 360.765 24.7598 360.473 24.7598Z" fill="black"/>
<path d="M272.295 24.7597C272.003 24.7597 271.768 24.5244 271.768 24.232V0.527713C271.768 0.235331 272.003 0 272.295 0C272.587 0 272.822 0.235331 272.822 0.527713V24.2296C272.822 24.522 272.587 24.7573 272.295 24.7573V24.7597Z" fill="black"/>
<path d="M266.876 18.5342H237.424C237.132 18.5342 236.896 18.2989 236.896 18.0065C236.896 17.7141 237.132 17.4788 237.424 17.4788H266.873C267.165 17.4788 267.4 17.7141 267.4 18.0065C267.4 18.2989 267.165 18.5342 266.873 18.5342H266.876Z" fill="black"/>
<path d="M360.473 180H232.527C232.235 180 232 179.765 232 179.472V0.527713C232 0.235331 232.235 0 232.527 0H360.473C360.765 0 361 0.235331 361 0.527713V179.472C361 179.765 360.765 180 360.473 180ZM233.054 178.945H359.946V1.05543H233.054V178.942V178.945Z" fill="black"/>
<path d="M296.534 17.9041C299.589 17.9041 302.066 15.4244 302.066 12.3655C302.066 9.30662 299.589 6.8269 296.534 6.8269C293.479 6.8269 291.002 9.30662 291.002 12.3655C291.002 15.4244 293.479 17.9041 296.534 17.9041Z" fill="black"/>
<path d="M286.275 7.35474H279.029C278.737 7.35474 278.502 7.11941 278.502 6.82703C278.502 6.53465 278.737 6.29932 279.029 6.29932H286.275C286.567 6.29932 286.802 6.53465 286.802 6.82703C286.802 7.11941 286.567 7.35474 286.275 7.35474Z" fill="black"/>
<path d="M286.275 12.8933H279.029C278.737 12.8933 278.502 12.658 278.502 12.3656C278.502 12.0732 278.737 11.8379 279.029 11.8379H286.275C286.567 11.8379 286.802 12.0732 286.802 12.3656C286.802 12.658 286.567 12.8933 286.275 12.8933Z" fill="black"/>
<path d="M286.275 18.4319H279.029C278.737 18.4319 278.502 18.1966 278.502 17.9042C278.502 17.6118 278.737 17.3765 279.029 17.3765H286.275C286.567 17.3765 286.802 17.6118 286.802 17.9042C286.802 18.1966 286.567 18.4319 286.275 18.4319Z" fill="black"/>
<path d="M314.562 7.35474H307.316C307.024 7.35474 306.789 7.11941 306.789 6.82703C306.789 6.53465 307.024 6.29932 307.316 6.29932H314.562C314.854 6.29932 315.089 6.53465 315.089 6.82703C315.089 7.11941 314.854 7.35474 314.562 7.35474Z" fill="black"/>
<path d="M314.562 12.8933H307.316C307.024 12.8933 306.789 12.658 306.789 12.3656C306.789 12.0732 307.024 11.8379 307.316 11.8379H314.562C314.854 11.8379 315.089 12.0732 315.089 12.3656C315.089 12.658 314.854 12.8933 314.562 12.8933Z" fill="black"/>
<path d="M314.562 18.4319H307.316C307.024 18.4319 306.789 18.1966 306.789 17.9042C306.789 17.6118 307.024 17.3765 307.316 17.3765H314.562C314.854 17.3765 315.089 17.6118 315.089 17.9042C315.089 18.1966 314.854 18.4319 314.562 18.4319Z" fill="black"/>
<path d="M332.516 121.627C352.407 101.712 352.407 69.4231 332.516 49.508C312.625 29.593 280.375 29.593 260.484 49.508C240.594 69.4231 240.593 101.712 260.484 121.627C280.375 141.542 312.625 141.542 332.516 121.627Z" fill="white"/>
<path d="M296.5 137.091C268.123 137.091 245.039 113.979 245.039 85.568C245.039 57.1571 268.123 34.0447 296.5 34.0447C324.876 34.0447 347.961 57.1571 347.961 85.568C347.961 113.979 324.876 137.091 296.5 137.091ZM296.5 35.1001C268.705 35.1001 246.093 57.7395 246.093 85.568C246.093 113.397 268.705 136.036 296.5 136.036C324.295 136.036 346.907 113.397 346.907 85.568C346.907 57.7395 324.295 35.1001 296.5 35.1001Z" fill="black"/>
<path d="M336.434 85.5679C336.434 107.65 318.555 125.55 296.501 125.55C274.447 125.55 256.568 107.65 256.568 85.5679C256.568 63.4861 274.447 45.5862 296.501 45.5862C318.555 45.5862 336.434 63.4861 336.434 85.5679Z" fill="#FFCD07" stroke="black"/>
<path d="M296.501 119.249C277.952 119.249 262.861 104.14 262.861 85.5681C262.861 78.8766 264.815 72.4133 268.514 66.8747C268.676 66.6323 269.003 66.5681 269.246 66.7297C269.488 66.8914 269.552 67.2194 269.39 67.4619C265.808 72.8269 263.915 79.0882 263.915 85.5681C263.915 103.558 278.533 118.194 296.501 118.194C306.521 118.194 315.837 113.677 322.064 105.802C322.245 105.574 322.577 105.533 322.805 105.716C323.033 105.897 323.071 106.23 322.891 106.458C316.464 114.588 306.843 119.249 296.501 119.249Z" fill="black"/>
<path d="M322.873 85.8819C322.873 96.8664 329.606 106.273 339.162 110.202C343.531 103.03 346.048 94.6034 346.048 85.5871C346.048 76.5708 343.638 68.5196 339.447 61.4502C329.739 65.3082 322.873 74.788 322.873 85.8819Z" fill="white"/>
</g>
<g clip-path="url(#clip1_2021_28)">
<rect x="80" y="1" width="132" height="89" fill="white"/>
<path d="M197.787 42.1825C193.464 42.1825 189.949 38.6789 189.949 34.3693C189.949 30.0597 193.464 26.5562 197.787 26.5562C202.111 26.5562 205.631 30.0597 205.631 34.3693C205.631 38.6789 202.111 42.1825 197.787 42.1825ZM197.787 27.5986C194.041 27.5986 190.995 30.6347 190.995 34.3693C190.995 38.104 194.041 41.14 197.787 41.14C201.534 41.14 204.58 38.104 204.58 34.3693C204.58 30.6347 201.534 27.5986 197.787 27.5986Z" fill="black"/>
<path d="M197.788 24.5733C197.691 24.5733 197.615 24.4981 197.615 24.4013V20.9193C197.615 20.8225 197.691 20.7473 197.788 20.7473C197.885 20.7473 197.96 20.8225 197.96 20.9193V24.4013C197.96 24.4981 197.885 24.5733 197.788 24.5733Z" fill="black"/>
<path d="M192.791 25.9114C192.731 25.9114 192.672 25.8792 192.64 25.8254L190.893 22.8055C190.845 22.7195 190.872 22.6174 190.958 22.569C191.039 22.5207 191.146 22.5476 191.195 22.6335L192.942 25.6535C192.99 25.7395 192.963 25.8416 192.877 25.8899C192.85 25.906 192.818 25.9114 192.791 25.9114Z" fill="black"/>
<path d="M189.129 29.5546C189.097 29.5546 189.07 29.5492 189.043 29.5331L186.018 27.7921C185.932 27.7437 185.905 27.6363 185.954 27.5557C186.002 27.4697 186.11 27.4428 186.191 27.4912L189.215 29.2322C189.301 29.2806 189.328 29.388 189.28 29.4686C189.247 29.5224 189.188 29.5546 189.129 29.5546Z" fill="black"/>
<path d="M206.444 29.5546C206.385 29.5546 206.326 29.5224 206.293 29.4686C206.245 29.3827 206.272 29.2806 206.358 29.2322L209.388 27.4912C209.469 27.4428 209.577 27.4697 209.625 27.5557C209.674 27.6416 209.647 27.7437 209.56 27.7921L206.531 29.5331C206.504 29.5492 206.471 29.5546 206.444 29.5546Z" fill="black"/>
<path d="M202.784 25.906C202.752 25.906 202.725 25.9007 202.698 25.8845C202.612 25.8362 202.585 25.7287 202.633 25.6481L204.38 22.6335C204.428 22.5476 204.536 22.5207 204.617 22.569C204.703 22.6174 204.73 22.7249 204.682 22.8055L202.935 25.8201C202.903 25.8738 202.844 25.906 202.784 25.906Z" fill="black"/>
<path d="M199.427 41.8333H196.149C196.052 41.8333 195.977 41.7581 195.977 41.6614V27.0775C195.977 26.9807 196.052 26.9055 196.149 26.9055H199.427C199.524 26.9055 199.599 26.9807 199.599 27.0775V41.6614C199.599 41.7581 199.524 41.8333 199.427 41.8333ZM196.327 41.484H199.254V27.2494H196.327V41.484Z" fill="black"/>
<path d="M197.787 68.8302C193.464 68.8302 189.949 65.3267 189.949 61.017C189.949 56.7074 193.464 53.1985 197.787 53.1985C202.111 53.1985 205.631 56.7021 205.631 61.017C205.631 65.332 202.111 68.8302 197.787 68.8302ZM197.787 54.2463C194.041 54.2463 190.995 57.2824 190.995 61.017C190.995 64.7517 194.041 67.7878 197.787 67.7878C201.534 67.7878 204.58 64.7517 204.58 61.017C204.58 57.2824 201.534 54.2463 197.787 54.2463Z" fill="black"/>
<path d="M197.788 51.221C197.691 51.221 197.615 51.1458 197.615 51.0491V47.567C197.615 47.4702 197.691 47.395 197.788 47.395C197.885 47.395 197.96 47.4702 197.96 47.567V51.0491C197.96 51.1458 197.885 51.221 197.788 51.221Z" fill="black"/>
<path d="M192.791 52.5589C192.731 52.5589 192.672 52.5266 192.64 52.4729L190.893 49.4529C190.845 49.367 190.872 49.2649 190.958 49.2165C191.039 49.1681 191.146 49.195 191.195 49.281L192.942 52.3009C192.99 52.3869 192.963 52.489 192.877 52.5374C192.85 52.5535 192.818 52.5589 192.791 52.5589Z" fill="black"/>
<path d="M189.129 56.2077C189.097 56.2077 189.07 56.2023 189.043 56.1862L186.018 54.4452C185.932 54.3968 185.905 54.2893 185.954 54.2087C186.002 54.1227 186.11 54.0959 186.191 54.1442L189.215 55.8853C189.301 55.9336 189.328 56.0411 189.28 56.1217C189.247 56.1755 189.188 56.2077 189.129 56.2077Z" fill="black"/>
<path d="M206.444 56.2077C206.385 56.2077 206.326 56.1755 206.293 56.1217C206.245 56.0357 206.272 55.9336 206.358 55.8853L209.388 54.1442C209.469 54.0959 209.577 54.1227 209.625 54.2087C209.674 54.2947 209.647 54.3968 209.56 54.4452L206.531 56.1862C206.504 56.2023 206.471 56.2077 206.444 56.2077Z" fill="black"/>
<path d="M202.784 52.5589C202.752 52.5589 202.725 52.5535 202.698 52.5374C202.612 52.489 202.585 52.3815 202.633 52.3009L204.38 49.2864C204.428 49.2004 204.536 49.1735 204.617 49.2219C204.703 49.2702 204.73 49.3777 204.682 49.4583L202.935 52.4729C202.903 52.5266 202.844 52.5589 202.784 52.5589Z" fill="black"/>
<path d="M205.108 62.8225H190.477C190.38 62.8225 190.305 62.7472 190.305 62.6505V59.3834C190.305 59.2867 190.38 59.2114 190.477 59.2114H205.108C205.205 59.2114 205.28 59.2867 205.28 59.3834V62.6505C205.28 62.7472 205.205 62.8225 205.108 62.8225ZM190.65 62.4732H204.93V59.5553H190.65V62.4732Z" fill="black"/>
<path d="M212.477 90.6576H79.5229C79.2318 90.6576 79 90.4212 79 90.1364V0.521237C79 0.236437 79.2372 0 79.5229 0H212.477C212.768 0 213 0.236437 213 0.521237V90.1364C213 90.4266 212.763 90.6576 212.477 90.6576ZM80.0512 89.6098H211.954V1.04785H80.0512V89.6152V89.6098Z" fill="black"/>
<path d="M97.2373 94.0001H87.771C87.4799 94.0001 87.248 93.7636 87.248 93.4788V90.1418C87.248 89.8517 87.4852 89.6206 87.771 89.6206H97.2373C97.5284 89.6206 97.7602 89.857 97.7602 90.1418V93.4788C97.7602 93.769 97.523 94.0001 97.2373 94.0001ZM88.2939 92.9522H96.709V90.6577H88.2939V92.9522Z" fill="black"/>
<path d="M204.229 94.0001H194.763C194.472 94.0001 194.24 93.7636 194.24 93.4788V90.1418C194.24 89.8517 194.477 89.6206 194.763 89.6206H204.229C204.521 89.6206 204.752 89.857 204.752 90.1418V93.4788C204.752 93.769 204.515 94.0001 204.229 94.0001ZM195.286 92.9522H203.701V90.6577H195.286V92.9522Z" fill="black"/>
<path d="M182.408 90.6576C182.117 90.6576 181.885 90.4212 181.885 90.1364V0.521237C181.885 0.231064 182.122 0 182.408 0C182.693 0 182.931 0.236437 182.931 0.521237V90.1364C182.931 90.4266 182.693 90.6576 182.408 90.6576Z" fill="black"/>
<path d="M182.406 75.6439H92.5034C92.2123 75.6439 91.9805 75.4074 91.9805 75.1226V14.7827C91.9805 14.4925 92.2177 14.2615 92.5034 14.2615H182.406C182.697 14.2615 182.929 14.4979 182.929 14.7827V75.1172C182.929 75.4074 182.692 75.6385 182.406 75.6385V75.6439ZM93.0317 74.596H181.883V15.3093H93.0317V74.596Z" fill="black"/>
<path d="M174.079 9.39844H167.486V81.759H174.079V9.39844Z" fill="#FFCD07"/>
<path d="M174.079 82.2857H167.486C167.195 82.2857 166.963 82.0492 166.963 81.7644V9.39843C166.963 9.10826 167.2 8.8772 167.486 8.8772H174.079C174.37 8.8772 174.602 9.11363 174.602 9.39843V81.759C174.602 82.0492 174.365 82.2803 174.079 82.2803V82.2857ZM168.014 81.2378H173.556V9.92504H168.014V81.2432V81.2378Z" fill="black"/>
<path d="M167.501 25.1107C167.458 25.1107 167.409 25.0946 167.377 25.0624C167.307 24.9925 167.307 24.885 167.377 24.8152L173.954 18.2594C174.024 18.1896 174.131 18.1896 174.202 18.2594C174.272 18.3293 174.272 18.4368 174.202 18.5066L167.625 25.0624C167.592 25.0946 167.544 25.1107 167.501 25.1107Z" fill="black"/>
<path d="M167.905 68.9001C167.862 68.9001 167.813 68.884 167.781 68.8517C167.711 68.7819 167.711 68.6744 167.781 68.6046L173.954 62.4518C174.024 62.3819 174.131 62.3819 174.202 62.4518C174.272 62.5217 174.272 62.6291 174.202 62.699L168.029 68.8517C167.997 68.884 167.948 68.9001 167.905 68.9001Z" fill="black"/>
<path d="M158.876 65.8532H100.768C100.671 65.8532 100.596 65.778 100.596 65.6813V23.3375C100.596 23.2408 100.671 23.1655 100.768 23.1655H158.876C158.973 23.1655 159.049 23.2408 159.049 23.3375V65.6813C159.049 65.778 158.973 65.8532 158.876 65.8532ZM100.941 65.504H158.698V23.5094H100.941V65.504Z" fill="black"/>
<path d="M121.093 65.8855C121.049 65.8855 121.001 65.8693 120.969 65.8371C120.898 65.7672 120.898 65.6598 120.969 65.5899L158.429 28.2489C158.5 28.1791 158.607 28.1791 158.677 28.2489C158.748 28.3188 158.748 28.4263 158.677 28.4961L121.217 65.8371C121.184 65.8693 121.136 65.8855 121.093 65.8855Z" fill="black"/>
<path d="M100.768 61.1942C100.725 61.1942 100.676 61.1781 100.644 61.1458C100.574 61.076 100.574 60.9685 100.644 60.8987L137.889 23.7672C137.959 23.6974 138.067 23.6974 138.137 23.7672C138.207 23.8371 138.207 23.9446 138.137 24.0144L100.892 61.1405C100.86 61.1727 100.811 61.1888 100.768 61.1888V61.1942Z" fill="black"/>
<path d="M138.013 82.522H121.624C121.333 82.522 121.102 82.2855 121.102 82.0007C121.102 81.7159 121.339 81.4795 121.624 81.4795H138.013C138.304 81.4795 138.536 81.7159 138.536 82.0007C138.536 82.2855 138.298 82.522 138.013 82.522Z" fill="black"/>
<path d="M206.445 75.9931H189.129C189.032 75.9931 188.957 75.9179 188.957 75.8211C188.957 75.7244 189.032 75.6492 189.129 75.6492H206.445C206.542 75.6492 206.617 75.7244 206.617 75.8211C206.617 75.9179 206.542 75.9931 206.445 75.9931Z" fill="black"/>
<path d="M206.445 79.8568H189.129C189.032 79.8568 188.957 79.7816 188.957 79.6849C188.957 79.5882 189.032 79.5129 189.129 79.5129H206.445C206.542 79.5129 206.617 79.5882 206.617 79.6849C206.617 79.7816 206.542 79.8568 206.445 79.8568Z" fill="black"/>
<path d="M206.445 83.7204H189.129C189.032 83.7204 188.957 83.6451 188.957 83.5484C188.957 83.4517 189.032 83.3765 189.129 83.3765H206.445C206.542 83.3765 206.617 83.4517 206.617 83.5484C206.617 83.6451 206.542 83.7204 206.445 83.7204Z" fill="black"/>
</g>
<path d="M52.6489 29.1217C52.0002 28.6397 50.8968 28.1005 49.8159 27.6889C49.2783 27.4879 48.7421 27.3116 48.2846 27.205C48.0482 27.1497 47.838 27.1176 47.6294 27.1102C47.4207 27.1029 47.2271 27.0996 46.9902 27.198C46.7779 27.295 46.4123 27.4805 45.9085 27.7586C45.4143 28.0312 44.7955 28.3756 44.1343 28.7573C43.1857 29.305 42.1524 29.9272 41.2986 30.4841C40.8744 30.7673 40.4886 31.0284 40.1809 31.27C39.8636 31.5171 39.6326 31.7144 39.454 31.9582C39.2945 32.1909 39.2146 32.4288 39.1418 32.7009C38.891 33.6384 38.8141 35.0764 38.7651 36.3193C38.7442 37.124 38.7421 37.8284 38.7468 38.2348L18.4238 49.9683C17.6306 49.7231 16.3633 49.3425 15.1004 49.036C14.416 48.8686 13.7332 48.7259 13.148 48.6418C12.8527 48.5949 12.5836 48.5713 12.3406 48.571C12.0977 48.5706 11.8754 48.5839 11.6424 48.6672C11.4191 48.745 11.1699 48.8889 10.8441 49.077C9.84764 49.6523 8.26045 50.7093 6.8432 51.7065C6.13457 52.2052 5.47385 52.6761 4.9624 53.0737C4.70667 53.2725 4.48374 53.4396 4.30467 53.5941C4.12559 53.7486 3.99848 53.8604 3.88243 53.9913C3.71187 54.2048 3.65928 54.4014 3.62734 54.6116C3.56453 54.9675 3.55962 55.3795 3.5824 55.8394C3.6186 56.5216 3.72933 57.2887 3.86433 57.9651C3.93459 58.3081 4.01293 58.6208 4.08831 58.8842C4.16922 59.1571 4.24715 59.3806 4.35787 59.5724L4.48777 59.7531C4.54568 59.8091 4.62021 59.894 4.76735 59.9497C4.91448 60.0053 5.00774 59.9898 5.07225 59.9909L5.27241 59.9393C5.40805 59.8866 5.53261 59.8147 5.6955 59.7206C6.31832 59.361 7.3951 58.6371 8.36244 57.9891C8.83855 57.6631 9.2859 57.3536 9.61978 57.1353C9.78671 57.0261 9.91938 56.924 10.0192 56.8536L10.1438 56.7816L10.1766 56.7499L12.3376 55.4255L14.4637 56.5633L14.515 58.9756L12.354 60.3L12.124 60.4328L11.9788 60.491L11.9309 60.5187C11.9309 60.5187 10.9193 61.09 9.78862 61.7427C9.07956 62.1521 8.3322 62.5836 7.75879 62.9403C7.46175 63.1118 7.22369 63.2748 7.04313 63.4046C6.94731 63.4599 6.87214 63.5289 6.80103 63.5827L6.67944 63.704L6.59766 63.828C6.5719 63.894 6.5093 64.0068 6.5308 64.199C6.55337 64.3266 6.59363 64.4184 6.64346 64.5047C6.77079 64.7253 6.93751 64.8592 7.11935 64.9971C7.76814 65.4791 8.87154 66.0183 9.95237 66.4299C10.4956 66.6405 11.0262 66.8072 11.4838 66.9137C11.7201 66.9691 11.9303 67.0012 12.1293 67.0141C12.338 67.0214 12.5316 67.0248 12.7686 66.9263C12.9713 66.8348 13.3464 66.6438 13.8502 66.3657C14.3444 66.0931 14.9632 65.7487 15.6244 65.367C16.573 64.8193 17.6063 64.1971 18.4602 63.6402C18.8843 63.357 19.2606 63.1014 19.5778 62.8543C19.8951 62.6072 20.1261 62.4099 20.3048 62.1661C20.4643 61.9334 20.5441 61.6955 20.6225 61.4329C20.8678 60.4859 20.9502 59.0575 20.9936 57.805C21.024 56.9948 21.0206 56.2808 21.016 55.8743L41.3198 44.1519C42.0979 44.3931 43.3803 44.7778 44.6432 45.0842C45.3427 45.2557 46.016 45.404 46.6011 45.488C46.8964 45.5349 47.1656 45.5585 47.4085 45.5589C47.6515 45.5592 47.8738 45.546 48.1163 45.4571C48.3341 45.3697 48.5888 45.2354 48.905 45.0529C49.9015 44.4775 51.4887 43.4205 52.8964 42.4288C53.605 41.9302 54.2602 41.4496 54.7772 41.0617C55.0329 40.8629 55.2654 40.6903 55.4349 40.5413C55.614 40.3868 55.7411 40.275 55.8571 40.1441C56.0277 39.9305 56.0803 39.734 56.1122 39.5238C56.175 39.1679 56.1799 38.7559 56.1571 38.296C56.1209 37.6137 56.0102 36.8466 55.8697 36.1607C55.805 35.8273 55.7266 35.5145 55.6457 35.2416C55.5648 34.9687 55.4869 34.7452 55.3761 34.5534L55.2462 34.3727C55.1883 34.3167 55.1138 34.2318 54.9667 34.1761C54.8195 34.1205 54.7263 34.1359 54.6673 34.1444L54.4671 34.196C54.3315 34.2488 54.2069 34.3207 54.0441 34.4147C53.4212 34.7743 52.3445 35.4983 51.3771 36.1463C50.901 36.4723 50.4536 36.7817 50.1198 37.0001C49.9528 37.1092 49.8202 37.2114 49.7148 37.2722L49.5902 37.3442L49.567 37.3703L47.406 38.6947L45.2799 37.557L45.2286 35.1446L47.3896 33.8202L47.6195 33.6875L47.7648 33.6292L47.8031 33.6071C47.8031 33.6071 48.8203 33.0454 49.9509 32.3926C50.66 31.9832 51.4074 31.5517 51.9808 31.1951C52.2778 31.0236 52.5159 30.8606 52.6964 30.7308C52.7867 30.6659 52.8674 30.6065 52.9385 30.5527L53.0601 30.4313L53.1515 30.3019C53.1772 30.2358 53.2302 30.1285 53.2087 29.9364C53.1862 29.8088 53.1459 29.7169 53.0961 29.6306C52.9687 29.4101 52.8076 29.2858 52.6147 29.1287M49.353 31.357C48.2894 31.9711 47.3449 32.5036 47.2395 32.5645C47.182 32.5977 46.9642 32.6851 46.7917 32.7847L46.7534 32.8068L44.5116 34.1905C44.201 34.3827 44.0228 34.7157 44.03 35.0823L44.0877 37.6827C44.0886 37.8612 44.1428 38.0217 44.2259 38.1655C44.32 38.3285 44.4525 38.4694 44.6313 38.5579L46.9267 39.7897C47.239 39.9545 47.6055 39.9475 47.9176 39.7801L47.9464 39.7635L50.1881 38.3797L50.2647 38.3355C50.6738 38.0482 53.3388 36.2027 54.4776 35.5197C54.5153 35.6513 54.5696 35.8118 54.6047 35.9833C54.7574 36.6239 54.9028 37.4732 54.946 38.1898C54.9724 38.5453 54.9822 38.8721 54.9517 39.107L54.9132 39.3722L54.9051 39.4024C54.9051 39.4024 54.7931 39.5182 54.6509 39.6259C53.5326 40.5656 49.9017 43.0838 48.2728 44.0243C47.9758 44.1958 47.7403 44.319 47.6526 44.344L47.584 44.358C47.3919 44.3794 46.9388 44.347 46.4127 44.2544C44.8095 43.9782 42.4013 43.259 41.3799 42.9282C41.2231 42.8781 41.0558 42.898 40.9121 42.9809L20.0812 55.0076C19.88 55.1238 19.7835 55.3329 19.7914 55.5457C19.7929 55.5704 19.7916 55.878 19.7912 56.3641C19.7921 57.118 19.7688 58.2948 19.6928 59.3359C19.65 59.8593 19.5906 60.3538 19.5197 60.74C19.4488 61.1261 19.3376 61.4204 19.3048 61.4521C19.2776 61.4934 19.0904 61.6782 18.8155 61.888C17.9868 62.5327 16.3992 63.5005 15.0003 64.3081C14.3487 64.6843 13.7451 65.0328 13.2549 65.2903C12.7894 65.5462 12.4238 65.7317 12.2882 65.7845C12.2786 65.79 12.1647 65.7918 12.015 65.776C11.4354 65.7015 10.3218 65.3216 9.38365 64.8916C8.91456 64.6766 8.46463 64.4505 8.1397 64.2418C8.07774 64.2008 8.03645 64.1735 7.9896 64.1367C8.5479 63.776 9.48137 63.2242 10.3437 62.7264C11.3977 62.1178 12.3519 61.5798 12.4573 61.5189C12.5148 61.4857 12.7326 61.3983 12.9051 61.2987L12.9434 61.2766L15.1851 59.8928C15.5013 59.7103 15.6836 59.3621 15.6667 59.0011L15.6091 56.4006C15.6082 56.2221 15.5539 56.0617 15.4709 55.9179C15.3767 55.7549 15.2347 55.6195 15.0655 55.5255L12.7701 54.2937C12.4577 54.1288 12.0857 54.1262 11.7791 54.3033L11.7504 54.3199L9.50865 55.7036L9.432 55.7479C9.02296 56.0352 6.35792 57.8807 5.21918 58.5637C5.17595 58.4224 5.1272 58.2716 5.09207 58.1001C4.9394 57.4595 4.79397 56.6102 4.74117 55.8991C4.71477 55.5436 4.71455 55.2113 4.72988 54.9723L4.76842 54.7071L4.77652 54.6769C4.77652 54.6769 4.88852 54.5611 5.03076 54.4534C6.15865 53.5081 9.77993 50.9955 11.4088 50.055C11.6963 49.8891 11.9414 49.7604 12.0291 49.7353L12.0977 49.7213C12.2897 49.6999 12.7373 49.7227 13.2634 49.8153C14.8515 50.0875 17.2597 50.8066 18.2907 51.1319C18.4474 51.1821 18.6148 51.1622 18.7585 51.0792L39.5989 39.0469C39.7906 38.9363 39.8926 38.7368 39.8943 38.5185C39.8943 38.5185 39.8845 38.1917 39.889 37.6905C39.8881 36.9367 39.9113 35.7598 39.9969 34.7131C40.0397 34.1898 40.0991 33.6952 40.17 33.3091C40.2409 32.923 40.3521 32.6287 40.3753 32.6025C40.4026 32.5612 40.5993 32.3709 40.8646 32.1666C41.6933 31.5219 43.2809 30.5541 44.6799 29.7465C45.3219 29.3758 45.9255 29.0273 46.4252 28.7643C46.8907 28.5084 47.2563 28.3229 47.3864 28.2605C47.396 28.255 47.5099 28.2532 47.6596 28.269C48.2392 28.3435 49.3528 28.7234 50.291 29.1534C50.7696 29.3629 51.21 29.5945 51.5349 29.8033C51.5969 29.8442 51.6382 29.8715 51.685 29.9084C51.1267 30.269 50.1932 30.8208 49.3309 31.3187" fill="black"/>
<defs>
<clipPath id="clip0_2021_28">
<rect width="129" height="180" fill="white" transform="translate(232)"/>
</clipPath>
<clipPath id="clip1_2021_28">
<rect width="134" height="94" fill="white" transform="translate(79)"/>
</clipPath>
</defs>
</svg>
