<svg width="117" height="145" viewBox="0 0 117 145" fill="none" xmlns="http://www.w3.org/2000/svg">
<g clip-path="url(#clip0_4006_22)">
<path d="M116.657 28.3433H33.3438V144.657H116.657V28.3433Z" fill="white"/>
<path d="M111.727 31.8799H93.8672V40.2157H111.727V31.8799Z" fill="black"/>
<path d="M111.383 140.062H93.8666C93.6765 140.062 93.5234 139.909 93.5234 139.719V125.765C93.5234 125.575 93.6765 125.422 93.8666 125.422H111.383C111.573 125.422 111.726 125.575 111.726 125.765V139.719C111.726 139.909 111.573 140.062 111.383 140.062ZM94.2099 139.376H111.04V126.109H94.2099V139.376Z" fill="black"/>
<path d="M116.657 44.0937H33.5424C33.3523 44.0937 33.1992 43.9408 33.1992 43.7507C33.1992 43.5607 33.3523 43.4077 33.5424 43.4077H116.657C116.847 43.4077 117 43.5607 117 43.7507C117 43.9408 116.847 44.0937 116.657 44.0937Z" fill="black"/>
<path d="M59.2377 44.0938C59.0476 44.0938 58.8945 43.9409 58.8945 43.7508V28.343C58.8945 28.153 59.0476 28 59.2377 28C59.4279 28 59.581 28.153 59.581 28.343V43.7493C59.581 43.9393 59.4279 44.0923 59.2377 44.0923V44.0938Z" fill="black"/>
<path d="M55.7088 40.0474H36.5307C36.3406 40.0474 36.1875 39.8944 36.1875 39.7043C36.1875 39.5143 36.3406 39.3613 36.5307 39.3613H55.7072C55.8974 39.3613 56.0504 39.5143 56.0504 39.7043C56.0504 39.8944 55.8974 40.0474 55.7072 40.0474H55.7088Z" fill="black"/>
<path d="M116.657 145H33.3432C33.1531 145 33 144.847 33 144.657V28.343C33 28.153 33.1531 28 33.3432 28H116.657C116.847 28 117 28.153 117 28.343V144.657C117 144.847 116.847 145 116.657 145ZM33.6864 144.314H116.314V28.686H33.6864V144.312V144.314Z" fill="black"/>
<path d="M75.0201 39.6377C77.0096 39.6377 78.6223 38.0259 78.6223 36.0376C78.6223 34.0493 77.0096 32.4375 75.0201 32.4375C73.0307 32.4375 71.418 34.0493 71.418 36.0376C71.418 38.0259 73.0307 39.6377 75.0201 39.6377Z" fill="black"/>
<path d="M68.3428 32.7808H63.6245C63.4343 32.7808 63.2812 32.6278 63.2812 32.4377C63.2812 32.2477 63.4343 32.0947 63.6245 32.0947H68.3428C68.533 32.0947 68.686 32.2477 68.686 32.4377C68.686 32.6278 68.533 32.7808 68.3428 32.7808Z" fill="black"/>
<path d="M68.3428 36.3809H63.6245C63.4343 36.3809 63.2812 36.2279 63.2812 36.0378C63.2812 35.8478 63.4343 35.6948 63.6245 35.6948H68.3428C68.533 35.6948 68.686 35.8478 68.686 36.0378C68.686 36.2279 68.533 36.3809 68.3428 36.3809Z" fill="black"/>
<path d="M68.3428 39.9809H63.6245C63.4343 39.9809 63.2812 39.828 63.2812 39.6379C63.2812 39.4479 63.4343 39.2949 63.6245 39.2949H68.3428C68.533 39.2949 68.686 39.4479 68.686 39.6379C68.686 39.828 68.533 39.9809 68.3428 39.9809Z" fill="black"/>
<path d="M86.7608 32.7808H82.0424C81.8523 32.7808 81.6992 32.6278 81.6992 32.4377C81.6992 32.2477 81.8523 32.0947 82.0424 32.0947H86.7608C86.951 32.0947 87.104 32.2477 87.104 32.4377C87.104 32.6278 86.951 32.7808 86.7608 32.7808Z" fill="black"/>
<path d="M86.7608 36.3809H82.0424C81.8523 36.3809 81.6992 36.2279 81.6992 36.0378C81.6992 35.8478 81.8523 35.6948 82.0424 35.6948H86.7608C86.951 35.6948 87.104 35.8478 87.104 36.0378C87.104 36.2279 86.951 36.3809 86.7608 36.3809Z" fill="black"/>
<path d="M86.7608 39.9809H82.0424C81.8523 39.9809 81.6992 39.828 81.6992 39.6379C81.6992 39.4479 81.8523 39.2949 82.0424 39.2949H86.7608C86.951 39.2949 87.104 39.4479 87.104 39.6379C87.104 39.828 86.951 39.9809 86.7608 39.9809Z" fill="black"/>
<path d="M98.4538 107.057C111.406 94.1125 111.406 73.1248 98.4538 60.1801C85.5016 47.2353 64.5019 47.2353 51.5497 60.1801C38.5975 73.1248 38.5975 94.1125 51.5497 107.057C64.5019 120.002 85.5016 120.002 98.4538 107.057Z" fill="white"/>
<path d="M75.0016 117.109C56.5239 117.109 41.4922 102.086 41.4922 83.6191C41.4922 65.152 56.5239 50.1289 75.0016 50.1289C93.4793 50.1289 108.511 65.152 108.511 83.6191C108.511 102.086 93.4793 117.109 75.0016 117.109ZM75.0016 50.8149C56.9027 50.8149 42.1786 65.5305 42.1786 83.6191C42.1786 101.708 56.9027 116.423 75.0016 116.423C93.1005 116.423 107.825 101.708 107.825 83.6191C107.825 65.5305 93.1005 50.8149 75.0016 50.8149Z" fill="black"/>
<path d="M100.832 83.6193C100.832 97.8752 89.2689 109.432 75.004 109.432C60.7392 109.432 49.1758 97.8752 49.1758 83.6193C49.1758 69.3634 60.7392 57.8062 75.004 57.8062C89.2689 57.8062 100.832 69.3634 100.832 83.6193Z" fill="#FFCD07" stroke="black"/>
<path d="M75.0026 105.512C62.9237 105.512 53.0974 95.6912 53.0974 83.6193C53.0974 79.2698 54.3698 75.0687 56.7784 71.4686C56.8835 71.311 57.0969 71.2692 57.2546 71.3743C57.4123 71.4794 57.454 71.6926 57.3489 71.8502C55.016 75.3375 53.7838 79.4073 53.7838 83.6193C53.7838 95.3126 63.3025 104.826 75.0026 104.826C81.5267 104.826 87.5932 101.89 91.6483 96.7712C91.7658 96.6229 91.9822 96.5966 92.1306 96.7156C92.2791 96.833 92.3038 97.0493 92.1863 97.1977C88.0013 102.482 81.7369 105.512 75.0026 105.512Z" fill="black"/>
<path d="M92.1758 83.8235C92.1758 90.9634 96.5602 97.0774 102.783 99.6314C105.627 94.9699 107.266 89.4925 107.266 83.6319C107.266 77.7713 105.697 72.538 102.968 67.9429C96.6468 70.4506 92.1758 76.6125 92.1758 83.8235Z" fill="white"/>
</g>
<path d="M37.5961 2.90487C37.128 2.55711 36.3319 2.16809 35.5522 1.87116C35.1643 1.72615 34.7775 1.59899 34.4474 1.52209C34.2768 1.48218 34.1252 1.45902 33.9747 1.4537C33.8241 1.44838 33.6845 1.44601 33.5135 1.51705C33.3604 1.58702 33.0966 1.72085 32.7331 1.92147C32.3766 2.1181 31.9302 2.36662 31.4532 2.642C30.7688 3.03712 30.0233 3.48599 29.4073 3.88776C29.1013 4.09211 28.823 4.28047 28.601 4.45475C28.3721 4.63302 28.2054 4.77536 28.0765 4.95124C27.9615 5.11913 27.9039 5.29075 27.8513 5.48711C27.6704 6.16346 27.6149 7.20089 27.5796 8.09755C27.5645 8.67812 27.563 9.18631 27.5664 9.47952L12.9043 17.9447C12.3321 17.7677 11.4178 17.4931 10.5067 17.272C10.0129 17.1512 9.52029 17.0483 9.09815 16.9876C8.88508 16.9538 8.6909 16.9368 8.51562 16.9365C8.34034 16.9363 8.17997 16.9458 8.01192 17.006C7.85077 17.0621 7.67104 17.1659 7.436 17.3016C6.71707 17.7166 5.572 18.4792 4.54952 19.1987C4.03828 19.5584 3.56161 19.8982 3.19262 20.185C3.00813 20.3284 2.84729 20.449 2.7181 20.5605C2.58891 20.6719 2.4972 20.7526 2.41348 20.847C2.29043 21.0011 2.25249 21.1429 2.22945 21.2945C2.18413 21.5513 2.18059 21.8485 2.19702 22.1803C2.22314 22.6725 2.30303 23.226 2.40042 23.7139C2.45111 23.9614 2.50763 24.187 2.56201 24.377C2.62038 24.5739 2.67661 24.7351 2.75649 24.8735L2.8502 25.0039C2.89198 25.0443 2.94575 25.1055 3.0519 25.1457C3.15805 25.1858 3.22533 25.1747 3.27188 25.1755L3.41628 25.1382C3.51413 25.1002 3.604 25.0483 3.72152 24.9804C4.17085 24.721 4.94769 24.1987 5.64558 23.7312C5.98907 23.496 6.31181 23.2728 6.55269 23.1153C6.67312 23.0365 6.76884 22.9628 6.84088 22.912L6.93075 22.8601L6.9544 22.8372L8.51347 21.8817L10.0473 22.7026L10.0843 24.4429L8.52529 25.3984L8.35938 25.4942L8.25461 25.5362L8.22004 25.5562C8.22004 25.5562 7.4902 25.9683 6.6745 26.4393C6.16295 26.7346 5.62377 27.046 5.21007 27.3032C4.99578 27.427 4.82403 27.5446 4.69377 27.6382C4.62464 27.6782 4.57041 27.7279 4.5191 27.7668L4.43138 27.8543L4.37238 27.9437C4.35379 27.9913 4.30863 28.0727 4.32415 28.2114C4.34043 28.3034 4.36948 28.3697 4.40542 28.4319C4.49728 28.591 4.61757 28.6876 4.74875 28.7871C5.21683 29.1349 6.01287 29.5239 6.79263 29.8208C7.18451 29.9727 7.56733 30.093 7.89745 30.1699C8.06797 30.2098 8.21958 30.233 8.36321 30.2423C8.51376 30.2476 8.6534 30.25 8.82438 30.179C8.97062 30.113 9.24128 29.9751 9.60474 29.7745C9.96129 29.5779 10.4077 29.3294 10.8847 29.054C11.5691 28.6589 12.3146 28.21 12.9306 27.8082C13.2366 27.6039 13.508 27.4195 13.7369 27.2412C13.9658 27.063 14.1325 26.9206 14.2614 26.7447C14.3764 26.5768 14.434 26.4052 14.4906 26.2158C14.6675 25.5325 14.727 24.502 14.7583 23.5984C14.7803 23.0139 14.7778 22.4988 14.7745 22.2055L29.4227 13.7484C29.984 13.9224 30.9092 14.1999 31.8203 14.421C32.325 14.5447 32.8107 14.6517 33.2328 14.7124C33.4459 14.7461 33.6401 14.7632 33.8154 14.7634C33.9906 14.7637 34.151 14.7541 34.326 14.69C34.4831 14.6269 34.6668 14.5301 34.895 14.3984C35.6139 13.9833 36.759 13.2207 37.7745 12.5053C38.2858 12.1455 38.7585 11.7989 39.1314 11.5189C39.3159 11.3755 39.4837 11.251 39.606 11.1435C39.7352 11.032 39.8269 10.9514 39.9106 10.857C40.0336 10.7029 40.0716 10.5611 40.0946 10.4094C40.1399 10.1527 40.1435 9.85546 40.127 9.52367C40.1009 9.03143 40.021 8.47801 39.9197 7.98312C39.873 7.74259 39.8164 7.51695 39.7581 7.32005C39.6997 7.12316 39.6435 6.96192 39.5636 6.82356L39.4699 6.6932C39.4281 6.65276 39.3743 6.59157 39.2682 6.55139C39.162 6.51121 39.0947 6.52239 39.0522 6.52851L38.9078 6.56574C38.8099 6.60379 38.7201 6.65568 38.6025 6.72353C38.1532 6.98295 37.3764 7.50524 36.6785 7.97274C36.335 8.20794 36.0123 8.43118 35.7714 8.5887C35.6509 8.66746 35.5552 8.74116 35.4792 8.78506L35.3893 8.83695L35.3726 8.85584L33.8135 9.81132L32.2797 8.99048L32.2426 7.2501L33.8017 6.29463L33.9676 6.19885L34.0724 6.1568L34.1 6.14083C34.1 6.14083 34.8339 5.73562 35.6496 5.26467C36.1611 4.96933 36.7003 4.658 37.114 4.40071C37.3283 4.27699 37.5 4.1594 37.6303 4.06574C37.6954 4.01892 37.7537 3.97607 37.805 3.93722L37.8927 3.84968L37.9586 3.75629C37.9772 3.70866 38.0154 3.63123 37.9999 3.49261C37.9836 3.40055 37.9546 3.3343 37.9186 3.27203C37.8268 3.11292 37.7105 3.02326 37.5713 2.90992M35.2182 4.51752C34.4509 4.96054 33.7695 5.34475 33.6934 5.38866C33.6519 5.4126 33.4948 5.47567 33.3703 5.54751L33.3427 5.56348L31.7254 6.56177C31.5013 6.70039 31.3727 6.94067 31.3779 7.20514L31.4196 9.08121C31.4202 9.20998 31.4593 9.32573 31.5192 9.4295C31.5871 9.54711 31.6827 9.64873 31.8117 9.71259L33.4677 10.6013C33.6931 10.7202 33.9575 10.7152 34.1827 10.5944L34.2034 10.5824L35.8207 9.58407L35.876 9.55215C36.1711 9.34487 38.0938 8.01345 38.9153 7.52068C38.9425 7.61567 38.9817 7.73141 39.007 7.85514C39.1172 8.3173 39.2221 8.93005 39.2533 9.44703C39.2723 9.70353 39.2794 9.93927 39.2574 10.1088L39.2296 10.3001L39.2238 10.3219C39.2238 10.3219 39.143 10.4054 39.0403 10.4831C38.2335 11.1611 35.6141 12.9778 34.4389 13.6563C34.2246 13.7801 34.0547 13.8689 33.9914 13.887L33.9419 13.8971C33.8034 13.9125 33.4765 13.8891 33.0969 13.8224C31.9403 13.6231 30.2029 13.1042 29.466 12.8656C29.3529 12.8294 29.2322 12.8437 29.1285 12.9036L14.1001 21.5803C13.9549 21.6641 13.8853 21.8149 13.891 21.9685C13.8921 21.9863 13.8912 22.2082 13.8909 22.5589C13.8915 23.1027 13.8747 23.9518 13.8199 24.7029C13.789 25.0805 13.7461 25.4373 13.695 25.7158C13.6438 25.9944 13.5636 26.2067 13.54 26.2296C13.5203 26.2594 13.3853 26.3927 13.187 26.5441C12.5891 27.0092 11.4437 27.7074 10.4344 28.2901C9.96437 28.5615 9.52887 28.8129 9.17524 28.9987C8.83943 29.1833 8.57566 29.3171 8.47781 29.3552C8.4709 29.3592 8.38871 29.3605 8.28071 29.3491C7.86257 29.2953 7.05917 29.0213 6.38233 28.711C6.04391 28.5559 5.71931 28.3928 5.48489 28.2422C5.44019 28.2127 5.41039 28.193 5.3766 28.1664C5.77938 27.9062 6.45283 27.5081 7.07499 27.1489C7.83539 26.7099 8.52376 26.3217 8.5998 26.2778C8.64127 26.2539 8.79842 26.1908 8.92285 26.119L8.95051 26.103L10.5678 25.1047C10.7959 24.973 10.9274 24.7218 10.9153 24.4613L10.8736 22.5852C10.873 22.4565 10.8339 22.3407 10.7739 22.2369C10.706 22.1193 10.6036 22.0217 10.4815 21.9539L8.82546 21.0652C8.60011 20.9462 8.33174 20.9444 8.11053 21.0721L8.08979 21.0841L6.47252 22.0824L6.41721 22.1143C6.12211 22.3216 4.19942 23.653 3.37788 24.1458C3.34669 24.0439 3.31152 23.935 3.28617 23.8113C3.17603 23.3492 3.07111 22.7364 3.03302 22.2234C3.01397 21.9669 3.01381 21.7272 3.02487 21.5548L3.05267 21.3634L3.05852 21.3416C3.05852 21.3416 3.13932 21.2581 3.24194 21.1804C4.05565 20.4984 6.66823 18.6857 7.8434 18.0072C8.05079 17.8875 8.2276 17.7946 8.29089 17.7765L8.34035 17.7664C8.47892 17.751 8.80182 17.7675 9.18141 17.8343C10.3271 18.0306 12.0645 18.5494 12.8083 18.7841C12.9214 18.8203 13.0421 18.8059 13.1458 18.7461L28.1811 10.0654C28.3194 9.98561 28.393 9.84166 28.3942 9.68415C28.3942 9.68415 28.3871 9.44841 28.3904 9.08682C28.3898 8.54296 28.4065 7.69391 28.4682 6.93879C28.4991 6.56124 28.542 6.20444 28.5931 5.92586C28.6443 5.64729 28.7245 5.43497 28.7412 5.41607C28.7609 5.38627 28.9029 5.24898 29.0943 5.10157C29.6921 4.63648 30.8375 3.9383 31.8468 3.35559C32.3099 3.08819 32.7454 2.83675 33.106 2.64704C33.4418 2.46238 33.7055 2.32855 33.7994 2.28358C33.8063 2.27959 33.8885 2.27827 33.9965 2.28971C34.4146 2.34345 35.2181 2.61751 35.8949 2.92775C36.2402 3.07887 36.5579 3.24597 36.7923 3.39657C36.837 3.42611 36.8668 3.44579 36.9006 3.47239C36.4978 3.73261 35.8244 4.13067 35.2022 4.48987" fill="black"/>
<defs>
<clipPath id="clip0_4006_22">
<rect width="84" height="117" fill="white" transform="translate(33 28)"/>
</clipPath>
</defs>
</svg>
