<svg xmlns="http://www.w3.org/2000/svg" xmlns:xlink="http://www.w3.org/1999/xlink"><defs>
<clipPath id="clip0_2001_1106">
<rect width="20" height="20" fill="white"/>
</clipPath>

<radialGradient id="paint0_angular_2001_1231" cx="0" cy="0" r="1" gradientUnits="userSpaceOnUse" gradientTransform="translate(7.75012 4.5) rotate(79.0459) scale(7.89383)">
<stop stop-color="white" stop-opacity="0.3"/>
<stop offset="0.486581" stop-color="white" stop-opacity="0"/>
<stop offset="0.812827" stop-color="white" stop-opacity="0"/>
<stop offset="0.903262" stop-color="white" stop-opacity="0.3"/>
</radialGradient>
<radialGradient id="paint1_angular_2001_1231" cx="0" cy="0" r="1" gradientUnits="userSpaceOnUse" gradientTransform="translate(9.29338 11.3346) rotate(135) scale(10.1355)">
<stop stop-color="white" stop-opacity="0.6"/>
<stop offset="0.264212" stop-color="white" stop-opacity="0.6"/>
<stop offset="0.528812" stop-color="white" stop-opacity="0.743846"/>
<stop offset="1" stop-color="white"/>
</radialGradient>
<radialGradient id="paint2_angular_2001_1231" cx="0" cy="0" r="1" gradientUnits="userSpaceOnUse" gradientTransform="translate(5.53283 10.3156) rotate(-120.911) scale(5.90375)">
<stop stop-color="white" stop-opacity="0.6"/>
<stop offset="0.463542" stop-color="white" stop-opacity="0.3"/>
</radialGradient>

<clipPath id="clip0_2001_119">
<rect width="11" height="16" fill="white"/>
</clipPath>
</defs><symbol id="arrow-right" viewBox="0 0 24 24">
<path d="M5 12H19" stroke-width="1.5" stroke-linecap="round" stroke-linejoin="round"/>
<path d="M12 5L19 12L12 19" stroke-width="1.5" stroke-linecap="round" stroke-linejoin="round"/>
</symbol><symbol id="avatar" viewBox="0 0 16 20">
<path d="M7.99971 8C8.79536 8 9.55842 7.68393 10.121 7.12132C10.6836 6.55871 10.9997 5.79565 10.9997 5C10.9997 4.20435 10.6836 3.44129 10.121 2.87868C9.55842 2.31607 8.79536 2 7.99971 2C7.20406 2 6.441 2.31607 5.87839 2.87868C5.31578 3.44129 4.99971 4.20435 4.99971 5C4.99971 5.79565 5.31578 6.55871 5.87839 7.12132C6.441 7.68393 7.20406 8 7.99971 8ZM1.46471 14.493C1.37188 14.7411 1.36163 15.0126 1.43551 15.267C1.50938 15.5214 1.66342 15.7452 1.87471 15.905C3.62605 17.266 5.78169 18.0034 7.99971 18C10.3097 18 12.4377 17.216 14.1307 15.9C14.5607 15.567 14.7347 14.997 14.5387 14.49C14.0309 13.168 13.1343 12.0311 11.967 11.2292C10.7998 10.4274 9.41682 9.99829 8.00068 9.99861C6.58454 9.99894 5.20179 10.4287 4.03491 11.231C2.86802 12.0334 1.97187 13.1708 1.46471 14.493Z" stroke="#2F2F2F" stroke-width="1.5" stroke-linecap="round" stroke-linejoin="round"/>
</symbol><symbol id="bg-frame-usefull" viewBox="0 0 298 332">
<path d="M0 296.137C0 306.741 8.27611 315.501 18.8629 316.104L276.863 330.796C288.337 331.45 298 322.321 298 310.829V196H0V296.137Z" fill="white"/>
<rect y="48.6353" width="298" height="176" fill="white"/>
<path d="M0 89H298V28.3989C298 17.5881 289.409 8.73413 278.603 8.40801L20.6033 0.621788C9.32637 0.281464 0 9.3306 0 20.6127V89Z" fill="white"/>
</symbol><symbol id="download" viewBox="0 0 21 20">
<path d="M7.25 13.75L10.25 16.75M10.25 16.75L13.25 13.75M10.25 16.75V10M16.9089 14.5684C17.561 14.1099 18.0499 13.4555 18.3049 12.7003C18.5598 11.945 18.5675 11.1282 18.3267 10.3683C18.0859 9.6084 17.6093 8.94499 16.966 8.47435C16.3226 8.0037 15.546 7.7503 14.7489 7.75093H13.8039C13.5783 6.87183 13.1563 6.05536 12.5695 5.36299C11.9827 4.67061 11.2465 4.12037 10.4163 3.75369C9.58612 3.38701 8.68355 3.21345 7.77656 3.24606C6.86957 3.27868 5.9818 3.51663 5.18008 3.942C4.37836 4.36736 3.68358 4.96906 3.14805 5.7018C2.61252 6.43453 2.2502 7.27921 2.08836 8.17224C1.92651 9.06527 1.96937 9.98337 2.2137 10.8574C2.45802 11.7315 2.89746 12.5388 3.49891 13.2184" stroke="#0D7768" stroke-width="1.5" stroke-linecap="round" stroke-linejoin="round"/>
</symbol><symbol id="gift" viewBox="0 0 20 20">
<path d="M17.5 9.375V16.25C17.5 16.5815 17.3683 16.8995 17.1339 17.1339C16.8995 17.3683 16.5815 17.5 16.25 17.5H4.375C4.04348 17.5 3.72554 17.3683 3.49112 17.1339C3.2567 16.8995 3.125 16.5815 3.125 16.25V9.375M10 4.0625C10 3.62985 9.87171 3.20692 9.63134 2.84719C9.39097 2.48746 9.04933 2.20708 8.64962 2.04151C8.24991 1.87595 7.81007 1.83263 7.38574 1.91703C6.96141 2.00144 6.57163 2.20978 6.2657 2.5157C5.95978 2.82163 5.75144 3.21141 5.66703 3.63574C5.58263 4.06007 5.62595 4.49991 5.79151 4.89962C5.95708 5.29933 6.23746 5.64098 6.59719 5.88134C6.95692 6.12171 7.37985 6.25 7.8125 6.25H10M10 4.0625V6.25M10 4.0625C10 3.62985 10.1283 3.20692 10.3687 2.84719C10.609 2.48746 10.9507 2.20708 11.3504 2.04151C11.7501 1.87595 12.1899 1.83263 12.6143 1.91703C13.0386 2.00144 13.4284 2.20978 13.7343 2.5157C14.0402 2.82163 14.2486 3.21141 14.333 3.63574C14.4174 4.06007 14.3741 4.49991 14.2085 4.89962C14.0429 5.29933 13.7625 5.64098 13.4028 5.88134C13.0431 6.12171 12.6201 6.25 12.1875 6.25H10M10 6.25V17.5M2.8125 9.375H17.8125C18.33 9.375 18.75 8.955 18.75 8.4375V7.1875C18.75 6.67 18.33 6.25 17.8125 6.25H2.8125C2.295 6.25 1.875 6.67 1.875 7.1875V8.4375C1.875 8.955 2.295 9.375 2.8125 9.375Z" stroke="#D36C40" stroke-width="1.5" stroke-linecap="round" stroke-linejoin="round"/>
</symbol><symbol id="logo" viewBox="0 0 196 40">
<g clip-path="url(#clip0_2001_1843)">
<mask id="mask0_2001_1843" style="mask-type:luminance" maskUnits="userSpaceOnUse" x="0" y="0" width="196" height="40">
<path d="M196 0H0V40H196V0Z" fill="white"/>
</mask>
<g mask="url(#mask0_2001_1843)">
<path d="M53.9464 32.1893V28.8286L65.9136 12.5591H54.6411V8.79077H71.6469V12.1514L59.7128 28.4209H71.9791V32.1893H53.9443H53.9464Z" fill="#F28A5D"/>
<path d="M82.9875 32.5661C81.131 32.5661 79.5063 32.1681 78.1146 31.3721C76.7235 30.5761 75.6393 29.4985 74.867 28.1376C74.0923 26.7766 73.707 25.2681 73.707 23.614C73.707 21.9598 74.0984 20.3737 74.883 19.0438C75.6683 17.7139 76.7395 16.6616 78.0985 15.887C79.457 15.1123 80.9775 14.724 82.6558 14.724C84.0698 14.724 85.3136 14.9434 86.3854 15.3841C87.4566 15.8229 88.3688 16.4306 89.1208 17.2052C89.8727 17.9798 90.4465 18.8652 90.8441 19.8592C91.2416 20.8532 91.4407 21.9268 91.4407 23.0781C91.4407 23.3713 91.4241 23.6741 91.3914 23.9887C91.3587 24.3032 91.2971 24.575 91.209 24.806H77.285V21.6648H88.7559L86.701 23.1403C86.8994 22.1773 86.8501 21.3192 86.5512 20.5639C86.2523 19.8107 85.7666 19.2127 85.0923 18.7739C84.418 18.3351 83.6044 18.1138 82.6558 18.1138C81.7067 18.1138 80.9424 18.3293 80.2354 18.7584C79.5285 19.1874 78.9916 19.8165 78.6268 20.6435C78.2625 21.4706 78.1232 22.4704 78.2132 23.6431C78.125 24.6896 78.2748 25.6176 78.66 26.4233C79.0471 27.229 79.6209 27.8522 80.3834 28.2929C81.1452 28.7336 82.0247 28.953 83.0183 28.953C84.0124 28.953 84.8587 28.755 85.5552 28.357C86.2523 27.959 86.799 27.4251 87.1965 26.7552L90.711 28.3881C90.3566 29.2054 89.8055 29.9277 89.053 30.5547C88.301 31.1838 87.4116 31.675 86.3854 32.0302C85.3567 32.3855 84.2251 32.5641 82.9875 32.5641V32.5661Z" fill="#F28A5D"/>
<path d="M94.7227 32.1894V15.1026H98.8004V18.4633L98.4682 17.8673C98.8886 16.8422 99.5789 16.0617 100.54 15.5278C101.501 14.9939 102.622 14.726 103.905 14.726C105.188 14.726 106.407 14.9978 107.436 15.5433C108.464 16.0889 109.264 16.8461 109.839 17.8207C110.413 18.7953 110.702 19.9194 110.702 21.1969V32.1894H106.36V22.1695C106.36 21.4163 106.204 20.7678 105.897 20.2222C105.587 19.6786 105.161 19.2535 104.62 18.9506C104.079 18.6477 103.444 18.4944 102.714 18.4944C101.985 18.4944 101.376 18.6458 100.825 18.9506C100.272 19.2554 99.8415 19.6786 99.532 20.2222C99.2226 20.7678 99.0692 21.4163 99.0692 22.1695V32.1894H94.7264H94.7227Z" fill="#F28A5D"/>
<path d="M114.745 32.1896V8.78906H122.8C125.407 8.78906 127.679 9.28611 129.614 10.2801C131.548 11.2742 133.044 12.6467 134.106 14.3941C135.167 16.1433 135.698 18.1683 135.698 20.4728C135.698 22.7774 135.167 24.7809 134.106 26.5496C133.044 28.3183 131.548 29.7006 129.614 30.6946C127.679 31.6887 125.409 32.1857 122.8 32.1857H114.745V32.1896ZM119.253 28.4212H122.901C124.581 28.4212 126.034 28.0912 127.26 27.431C128.485 26.7709 129.442 25.8507 130.126 24.6664C130.811 23.484 131.153 22.0862 131.153 20.4728C131.153 18.8594 130.811 17.4364 130.126 16.2637C129.442 15.0911 128.485 14.1805 127.26 13.5302C126.032 12.8817 124.579 12.5555 122.901 12.5555H119.253V28.4173V28.4212Z" fill="#29A590"/>
<path d="M138.914 13.1865V8.78906H143.256V13.1865H138.914ZM138.914 32.1896V15.1027H143.256V32.1896H138.914Z" fill="#29A590"/>
<path d="M152.705 32.1896L145.61 15.1028H150.35L155.489 28.5455H153.733L158.905 15.1028H163.647L156.553 32.1896H152.706H152.705Z" fill="#29A590"/>
<path d="M174.252 32.5661C172.395 32.5661 170.77 32.1681 169.379 31.3721C167.987 30.5761 166.903 29.4985 166.129 28.1376C165.354 26.7766 164.969 25.2681 164.969 23.614C164.969 21.9598 165.36 20.3737 166.145 19.0438C166.93 17.7139 168.002 16.6616 169.36 15.887C170.719 15.1123 172.239 14.724 173.919 14.724C175.333 14.724 176.578 14.9434 177.649 15.3841C178.721 15.8229 179.633 16.4306 180.385 17.2052C181.137 17.9798 181.711 18.8652 182.108 19.8592C182.506 20.8532 182.704 21.9268 182.704 23.0781C182.704 23.3713 182.688 23.6741 182.656 23.9887C182.622 24.3032 182.561 24.575 182.473 24.806H168.549V21.6648H180.018L177.963 23.1403C178.162 22.1773 178.112 21.3192 177.813 20.5639C177.514 19.8107 177.028 19.2127 176.354 18.7739C175.68 18.3351 174.869 18.1138 173.918 18.1138C172.967 18.1138 172.205 18.3293 171.498 18.7584C170.791 19.1874 170.254 19.8165 169.889 20.6435C169.524 21.4706 169.387 22.4704 169.475 23.6431C169.387 24.6896 169.537 25.6176 169.922 26.4233C170.309 27.229 170.883 27.8522 171.645 28.2929C172.408 28.7336 173.286 28.953 174.281 28.953C175.274 28.953 176.12 28.755 176.818 28.357C177.514 27.959 178.061 27.4251 178.459 26.7552L181.973 28.3881C181.618 29.2054 181.067 29.9277 180.315 30.5547C179.563 31.1838 178.674 31.675 177.647 32.0302C176.618 32.3855 175.487 32.5641 174.25 32.5641L174.252 32.5661Z" fill="#29A590"/>
<path d="M185.987 32.1895V15.1026H190.065V18.904L189.733 18.339C190.153 17.0615 190.811 16.1724 191.706 15.6695C192.602 15.1667 193.68 14.9163 194.938 14.9163H195.999V18.5604H194.442C193.204 18.5604 192.211 18.9215 191.459 19.6437C190.707 20.3659 190.331 21.3774 190.331 22.6743V32.1914H185.989L185.987 32.1895Z" fill="#29A590"/>
<path fill-rule="evenodd" clip-rule="evenodd" d="M37.723 29.0988C26.0243 25.0315 13.7845 28.761 1.63696 29.1299C0.9095 27.6583 0.376713 26.0837 0.0693359 24.4354C13.264 24.1986 26.5345 19.4148 39.2742 24.4335C38.9689 26.0701 38.4423 27.635 37.723 29.0988Z" fill="#647B97"/>
<path fill-rule="evenodd" clip-rule="evenodd" d="M5.30478 34.1931C7.14698 36.0123 9.37034 37.4839 11.8539 38.4896C14.2536 39.4622 16.897 40 19.6716 40C22.7925 40 25.7453 39.3186 28.3745 38.1052C30.6265 37.0665 32.6408 35.6356 34.3191 33.9077C24.8724 31.0887 15.0814 33.3466 5.30273 34.1912L5.30478 34.1931Z" fill="#228B7D"/>
<path fill-rule="evenodd" clip-rule="evenodd" d="M37.723 29.0988C38.4423 27.6369 38.971 26.0721 39.2742 24.4335C26.5325 19.4148 13.262 24.1986 0.0693359 24.4354C0.376713 26.0837 0.9095 27.6583 1.63696 29.1299C13.7845 28.761 26.0243 25.0295 37.723 29.0988ZM5.30499 34.1932C15.0837 33.3467 24.8767 31.0888 34.3214 33.9098C35.7005 32.4906 36.8521 30.8694 37.723 29.0988C26.0243 25.0315 13.7845 28.761 1.63696 29.1299C2.56524 31.0073 3.80909 32.7158 5.30499 34.1932Z" fill="#29A590"/>
<path fill-rule="evenodd" clip-rule="evenodd" d="M37.7229 29.0987C37.7495 29.0501 37.813 28.9394 37.8376 28.8831C38.4811 27.4503 38.6778 26.8038 39.0139 25.606C39.2434 24.7497 39.4155 24.1188 39.4155 24.1188C26.7311 18.506 13.2413 23.3966 0.00976562 24.0236L0.0691921 24.4352C0.376569 26.0835 0.909355 27.6581 1.63682 29.1297C13.7844 28.7608 25.3581 23.5887 37.7229 29.0987C37.7352 29.1045 37.7106 29.0948 37.7229 29.0987Z" fill="#40CCB1"/>
<path fill-rule="evenodd" clip-rule="evenodd" d="M39.2923 16.3743C38.8866 13.4446 37.942 10.68 36.5546 8.17745C36.7534 8.58127 36.9481 8.99675 37.1407 9.43165C38.1038 11.7886 38.6489 13.831 38.8969 16.1141C38.6899 14.7512 38.3272 13.435 37.776 11.9633C36.86 9.71704 35.8518 8.02603 34.3579 6.27096C31.36 3.24807 27.403 1.11828 22.9563 0.333932C24.0342 0.609617 25.1079 0.98044 26.2719 1.46969C24.1837 0.625154 22.3067 0.203854 20.2022 0.025239C19.8497 0.00776585 19.4932 0 19.1366 0C14.9624 0 11.0731 1.1707 7.80055 3.18788C8.72267 2.68893 9.70631 2.25792 10.8272 1.84827C12.3395 1.33379 13.6386 1.0348 15.2288 0.836771C13.6735 1.07946 12.3702 1.45416 10.8948 2.00553C8.35792 3.03063 6.56489 4.16638 4.55259 5.98359C2.95833 7.5018 1.903 8.86475 0.831282 10.7635C2.00751 8.93849 3.13456 7.65328 4.81284 6.23988C6.87429 4.58768 8.67965 3.60142 11.2145 2.753C13.7063 1.99388 15.7144 1.73761 18.3251 1.86574C20.0546 1.99583 21.4296 2.26375 23.0751 2.79571C21.4542 2.31228 20.03 2.11037 18.3272 2.02495C15.7636 1.97253 13.7924 2.29287 11.3682 3.10828C8.93581 4.00136 7.21039 5.01286 5.25546 6.6709C4.7944 7.07472 4.37636 7.47855 3.95628 7.92313C4.39685 7.49791 4.83333 7.11159 5.31283 6.72719C7.31899 5.16818 9.07104 4.24404 11.5218 3.46551C13.9153 2.7763 15.8374 2.56079 18.3313 2.72387C20.3969 2.91802 21.9665 3.30437 23.8743 4.09067C21.989 3.39562 20.36 3.11411 18.3333 3.00151C15.9092 2.94908 14.0485 3.24419 11.7534 4.00912C9.45015 4.84784 7.81281 5.79913 5.95833 7.36012C4.04849 9.0589 2.86817 10.6121 1.73087 12.8642C0.640706 15.1939 0.15505 17.0926 0.0075086 19.634C-0.0150324 20.4669 0.0075086 21.2338 0.0730822 21.9754C9.65503 21.5541 19.1079 19.1001 28.7801 19.6457C32.3005 19.8437 35.6858 20.4437 38.9501 21.5561C38.9522 21.5386 38.9543 21.5192 38.9563 21.5017C38.9973 21.5173 39.0383 21.5328 39.0793 21.5464C39.2104 20.663 39.2944 19.7467 39.3415 18.7526C39.3559 17.9197 39.3415 17.1334 39.2923 16.3743Z" fill="#F28A5D"/>
</g>
</g>
</symbol><symbol id="proceed-arrow" viewBox="0 0 20 20">
<path d="M14.375 13.125L17.5 10M17.5 10L14.375 6.875M17.5 10H2.5" stroke="#2F2F2F" stroke-width="1.5" stroke-linecap="round" stroke-linejoin="round"/>
</symbol><symbol id="pubtime" viewBox="0 0 18 20">
<path fill-rule="evenodd" clip-rule="evenodd" d="M4.75 2C4.94891 2 5.13968 2.07902 5.28033 2.21967C5.42098 2.36032 5.5 2.55109 5.5 2.75V4H12.5V2.75C12.5 2.55109 12.579 2.36032 12.7197 2.21967C12.8603 2.07902 13.0511 2 13.25 2C13.4489 2 13.6397 2.07902 13.7803 2.21967C13.921 2.36032 14 2.55109 14 2.75V4H14.25C14.9793 4 15.6788 4.28973 16.1945 4.80546C16.7103 5.32118 17 6.02065 17 6.75V15.25C17 15.9793 16.7103 16.6788 16.1945 17.1945C15.6788 17.7103 14.9793 18 14.25 18H3.75C3.02065 18 2.32118 17.7103 1.80546 17.1945C1.28973 16.6788 1 15.9793 1 15.25V6.75C1 6.02065 1.28973 5.32118 1.80546 4.80546C2.32118 4.28973 3.02065 4 3.75 4H4V2.75C4 2.55109 4.07902 2.36032 4.21967 2.21967C4.36032 2.07902 4.55109 2 4.75 2ZM3.75 7.5C3.06 7.5 2.5 8.06 2.5 8.75V15.25C2.5 15.94 3.06 16.5 3.75 16.5H14.25C14.94 16.5 15.5 15.94 15.5 15.25V8.75C15.5 8.06 14.94 7.5 14.25 7.5H3.75Z" fill="#2F2F2F"/>
</symbol><symbol id="quiz" viewBox="0 0 25 24">
<path d="M8 7.5H7.25C6.65326 7.5 6.08097 7.73705 5.65901 8.15901C5.23705 8.58097 5 9.15326 5 9.75V17.25C5 17.8467 5.23705 18.419 5.65901 18.841C6.08097 19.2629 6.65326 19.5 7.25 19.5H14.75C15.3467 19.5 15.919 19.2629 16.341 18.841C16.7629 18.419 17 17.8467 17 17.25V9.75C17 9.15326 16.7629 8.58097 16.341 8.15901C15.919 7.73705 15.3467 7.5 14.75 7.5H14M8 11.25L11 14.25M11 14.25L14 11.25M11 14.25V1.5M17 10.5H17.75C18.3467 10.5 18.919 10.7371 19.341 11.159C19.7629 11.581 20 12.1533 20 12.75V20.25C20 20.8467 19.7629 21.419 19.341 21.841C18.919 22.2629 18.3467 22.5 17.75 22.5H10.25C9.65326 22.5 9.08097 22.2629 8.65901 21.841C8.23705 21.419 8 20.8467 8 20.25V19.5" stroke="#0A8BD3" stroke-width="1.5" stroke-linecap="round" stroke-linejoin="round"/>
</symbol><symbol id="subscribe" viewBox="0 0 20 20">
<g clip-path="url(#clip0_2001_1106)">
<path d="M18.3337 1.66699L9.16699 10.8337" stroke="white" stroke-width="1.5" stroke-linecap="round" stroke-linejoin="round"/>
<path d="M18.3337 1.66699L12.5003 18.3337L9.16699 10.8337L1.66699 7.50033L18.3337 1.66699Z" stroke="white" stroke-width="1.5" stroke-linecap="round" stroke-linejoin="round"/>
</g>

</symbol><symbol id="transforamtion" viewBox="0 0 20 20">
<path d="M2.92933 7.09331C6.14082 4.43199 11.7621 4.18166 15.213 8.35445C19.5266 13.5704 10.8455 21.9748 4.2403 17.9379C-2.36488 13.9011 7.85186 10.5365 12.2103 8.8589C16.5688 7.18129 23.8656 5.16355 14.3054 12.4735C2.28445 21.6652 5.79662 10.2855 9.20766 3.56212C11.5413 -1.03759 -0.0733361 1.29643 3.09 4.77375C6.25333 8.25108 11.5219 8.90508 10.5725 11.8856C9.62316 14.8662 3.11553 15.169 1.56452 12.3901C0.497485 10.4783 0.938028 8.74348 2.92933 7.09331Z" stroke="white" stroke-opacity="0.05" stroke-width="1.5" stroke-linecap="round"/>
<path d="M8.53895 3.22279C8.35154 3.59218 8.49907 4.04356 8.86846 4.23097C9.23785 4.41837 9.68923 4.27084 9.87664 3.90145L8.53895 3.22279ZM9.87664 3.90145C10.2135 3.23752 10.3591 2.58264 10.2148 1.97708C10.065 1.34846 9.63886 0.919877 9.14038 0.65799C8.20253 0.165269 6.86098 0.169615 5.69076 0.403606C4.50808 0.640089 3.25474 1.15975 2.49736 1.95251C2.10759 2.36049 1.8074 2.8875 1.79076 3.51476C1.77396 4.14764 2.04931 4.74417 2.53535 5.27844L3.64492 4.26906C3.34011 3.934 3.28645 3.69693 3.29023 3.55456C3.29416 3.40656 3.36415 3.21666 3.58194 2.9887C4.03968 2.50958 4.95102 2.08121 5.98487 1.87449C7.03118 1.66527 7.95803 1.73123 8.44274 1.98588C8.65554 2.09768 8.72926 2.21423 8.75561 2.32479C8.78745 2.45843 8.78551 2.73679 8.53895 3.22279L9.87664 3.90145ZM2.53535 5.27844C4.21208 7.12161 6.46917 8.23423 7.98352 9.15653C8.78001 9.64163 9.33737 10.0496 9.65356 10.4622C9.92572 10.8173 10.0153 11.1641 9.85802 11.658L11.2873 12.1133C11.6046 11.1169 11.3917 10.2642 10.8441 9.54977C10.3406 8.89278 9.56115 8.36107 8.76376 7.87543C7.09035 6.85626 5.13151 5.90321 3.64492 4.26906L2.53535 5.27844Z" fill="url(#paint0_angular_2001_1231)"/>
<path d="M15.2134 8.35592L14.6354 8.83389L15.2134 8.35592ZM4.63176 17.2994C4.27833 17.0834 3.81671 17.1948 3.60071 17.5483C3.3847 17.9017 3.49611 18.3633 3.84954 18.5793L4.63176 17.2994ZM3.40824 7.67226C6.3422 5.24093 11.4818 5.02066 14.6354 8.83389L15.7913 7.87794C12.0431 3.3456 5.94016 3.62599 2.45113 6.5173L3.40824 7.67226ZM14.6354 8.83389C15.5547 9.9455 15.7812 11.2101 15.514 12.4653C15.2423 13.7416 14.4525 15.0233 13.3152 16.0642C11.0253 18.16 7.56669 19.0932 4.63176 17.2994L3.84954 18.5793C7.51979 20.8224 11.7044 19.5719 14.3279 17.1707C15.6473 15.9632 16.6319 14.418 16.9811 12.7777C17.3348 11.1162 17.0288 9.37433 15.7913 7.87794L14.6354 8.83389Z" fill="url(#paint1_angular_2001_1231)"/>
<path d="M2.92933 7.09375C0.938028 8.74392 0.497485 10.4787 1.56452 12.3905C3.11553 15.1695 9.62316 14.8666 10.5725 11.8861" stroke="url(#paint2_angular_2001_1231)" stroke-width="1.5"/>

</symbol><symbol id="watch" viewBox="0 0 11 16">
<g clip-path="url(#clip0_2001_119)">
<path d="M5.50033 12.6668C8.03163 12.6668 10.0837 10.5775 10.0837 8.00016C10.0837 5.42283 8.03163 3.3335 5.50033 3.3335C2.96902 3.3335 0.916992 5.42283 0.916992 8.00016C0.916992 10.5775 2.96902 12.6668 5.50033 12.6668Z" stroke="#2F2F2F" stroke-width="1.5" stroke-linecap="round" stroke-linejoin="round"/>
<path d="M5.5 6V8L6.48214 9" stroke="#2F2F2F" stroke-width="1.5" stroke-linecap="round" stroke-linejoin="round"/>
<path d="M8.45352 11.5665L8.22435 14.1198C8.19485 14.4523 8.04396 14.7614 7.8015 14.986C7.55904 15.2107 7.24264 15.3345 6.91482 15.3332H4.07971C3.75189 15.3345 3.43549 15.2107 3.19303 14.986C2.95057 14.7614 2.79968 14.4523 2.77018 14.1198L2.54102 11.5665M2.54756 4.43318L2.77673 1.87985C2.80613 1.54857 2.95609 1.24044 3.19716 1.01595C3.43824 0.791462 3.75301 0.666828 4.07971 0.666515H6.92792C7.25574 0.665161 7.57214 0.789047 7.8146 1.0137C8.05706 1.23835 8.20794 1.54742 8.23744 1.87985L8.46661 4.43318" stroke="#2F2F2F" stroke-width="1.5" stroke-linecap="round" stroke-linejoin="round"/>
</g>

</symbol></svg>