<svg xmlns="http://www.w3.org/2000/svg" xmlns:xlink="http://www.w3.org/1999/xlink"><defs>
<linearGradient id="paint0_linear_83_5224" x1="950" y1="0" x2="950" y2="983" gradientUnits="userSpaceOnUse">
<stop stop-color="white" stop-opacity="0.96"/>
<stop offset="0.5" stop-color="white" stop-opacity="0.96"/>
<stop offset="1" stop-color="#F1F1F1" stop-opacity="0.98"/>
</linearGradient>

<clipPath id="clip0_2001_1106">
<rect width="20" height="20" fill="white"/>
</clipPath>

<radialGradient id="paint0_angular_2001_1231" cx="0" cy="0" r="1" gradientUnits="userSpaceOnUse" gradientTransform="translate(7.75012 4.5) rotate(79.0459) scale(7.89383)">
<stop stop-color="white" stop-opacity="0.3"/>
<stop offset="0.486581" stop-color="white" stop-opacity="0"/>
<stop offset="0.812827" stop-color="white" stop-opacity="0"/>
<stop offset="0.903262" stop-color="white" stop-opacity="0.3"/>
</radialGradient>
<radialGradient id="paint1_angular_2001_1231" cx="0" cy="0" r="1" gradientUnits="userSpaceOnUse" gradientTransform="translate(9.29338 11.3346) rotate(135) scale(10.1355)">
<stop stop-color="white" stop-opacity="0.6"/>
<stop offset="0.264212" stop-color="white" stop-opacity="0.6"/>
<stop offset="0.528812" stop-color="white" stop-opacity="0.743846"/>
<stop offset="1" stop-color="white"/>
</radialGradient>
<radialGradient id="paint2_angular_2001_1231" cx="0" cy="0" r="1" gradientUnits="userSpaceOnUse" gradientTransform="translate(5.53283 10.3156) rotate(-120.911) scale(5.90375)">
<stop stop-color="white" stop-opacity="0.6"/>
<stop offset="0.463542" stop-color="white" stop-opacity="0.3"/>
</radialGradient>

<radialGradient id="paint0_angular_2002_6016" cx="0" cy="0" r="1" gradientUnits="userSpaceOnUse" gradientTransform="translate(7.75012 4.5) rotate(79.0459) scale(7.89383)">
<stop stop-color="#0D7768" stop-opacity="0.3"/>
<stop offset="0.486581" stop-color="#0D7768" stop-opacity="0"/>
<stop offset="0.812827" stop-color="#0D7768" stop-opacity="0"/>
<stop offset="0.903262" stop-color="#0D7768" stop-opacity="0.3"/>
</radialGradient>
<radialGradient id="paint1_angular_2002_6016" cx="0" cy="0" r="1" gradientUnits="userSpaceOnUse" gradientTransform="translate(9.29338 11.3346) rotate(135) scale(10.1355)">
<stop stop-color="#0D7768" stop-opacity="0.6"/>
<stop offset="0.264212" stop-color="#0D7768" stop-opacity="0.6"/>
<stop offset="1" stop-color="#0D7768"/>
</radialGradient>
<radialGradient id="paint2_angular_2002_6016" cx="0" cy="0" r="1" gradientUnits="userSpaceOnUse" gradientTransform="translate(5.53283 10.3156) rotate(-120.911) scale(5.90375)">
<stop stop-color="#0D7768" stop-opacity="0.6"/>
<stop offset="0.463542" stop-color="#0D7768" stop-opacity="0.3"/>
</radialGradient>
</defs><symbol id="arrow-left" viewBox="0 0 24 24">
<path d="M19 12L5 12" stroke-width="1.5" stroke-linecap="round" stroke-linejoin="round"/>
<path d="M12 19L5 12L12 5" stroke-width="1.5" stroke-linecap="round" stroke-linejoin="round"/>
</symbol><symbol id="arrow-right" viewBox="0 0 24 24">
<path d="M5 12H19" stroke-width="1.5" stroke-linecap="round" stroke-linejoin="round"/>
<path d="M12 5L19 12L12 19" stroke-width="1.5" stroke-linecap="round" stroke-linejoin="round"/>
</symbol><symbol id="arrow-up" viewBox="0 0 20 20">
<path d="M5.875 11.5625L10 8.4375L14.125 11.5625" stroke="#2F2F2F" stroke-width="1.5" stroke-linecap="round" stroke-linejoin="round"/>
</symbol><symbol id="avatar" viewBox="0 0 16 20">
<path d="M7.99971 8C8.79536 8 9.55842 7.68393 10.121 7.12132C10.6836 6.55871 10.9997 5.79565 10.9997 5C10.9997 4.20435 10.6836 3.44129 10.121 2.87868C9.55842 2.31607 8.79536 2 7.99971 2C7.20406 2 6.441 2.31607 5.87839 2.87868C5.31578 3.44129 4.99971 4.20435 4.99971 5C4.99971 5.79565 5.31578 6.55871 5.87839 7.12132C6.441 7.68393 7.20406 8 7.99971 8ZM1.46471 14.493C1.37188 14.7411 1.36163 15.0126 1.43551 15.267C1.50938 15.5214 1.66342 15.7452 1.87471 15.905C3.62605 17.266 5.78169 18.0034 7.99971 18C10.3097 18 12.4377 17.216 14.1307 15.9C14.5607 15.567 14.7347 14.997 14.5387 14.49C14.0309 13.168 13.1343 12.0311 11.967 11.2292C10.7998 10.4274 9.41682 9.99829 8.00068 9.99861C6.58454 9.99894 5.20179 10.4287 4.03491 11.231C2.86802 12.0334 1.97187 13.1708 1.46471 14.493Z" stroke-width="1.5" stroke-linecap="round" stroke-linejoin="round"/>
</symbol><symbol id="chevron-down" viewBox="0 0 20 20">
<path d="M6.50888 8.5C5.95207 8.5 5.67321 9.17321 6.06694 9.56694L9.55806 13.0581M9.55806 13.0581C9.80214 13.3021 10.1979 13.3021 10.4419 13.0581L13.9331 9.56694" fill="#2F2F2F"/>
<path d="M6.50888 8.5C5.95207 8.5 5.67321 9.17321 6.06694 9.56694L9.55806 13.0581C9.80214 13.3021 10.1979 13.3021 10.4419 13.0581L13.9331 9.56694C14.3268 9.17321 14.0479 8.5 13.4911 8.5L6.50888 8.5Z" fill="#2F2F2F"/>
</symbol><symbol id="close" viewBox="0 0 20 20">
<path fill-rule="evenodd" clip-rule="evenodd" d="M4.87316 15.6265C4.67425 15.6265 4.48348 15.5474 4.34283 15.4068C4.20218 15.2661 4.12316 15.0754 4.12316 14.8765C4.12316 14.6776 4.20218 14.4868 4.34283 14.3461L14.5955 4.09343C14.7362 3.95278 14.927 3.87376 15.1259 3.87376C15.3248 3.87376 15.5155 3.95278 15.6562 4.09343C15.7968 4.23408 15.8759 4.42485 15.8759 4.62376C15.8759 4.82267 15.7968 5.01344 15.6562 5.15409L5.40349 15.4068C5.26284 15.5474 5.07207 15.6265 4.87316 15.6265Z" fill="#111111"/>
<path fill-rule="evenodd" clip-rule="evenodd" d="M15.877 14.8764C15.877 15.0753 15.7979 15.266 15.6573 15.4067C15.5166 15.5473 15.3259 15.6264 15.127 15.6264C14.928 15.6264 14.7373 15.5473 14.5966 15.4067L4.34392 5.15398C4.20327 5.01333 4.12425 4.82256 4.12425 4.62365C4.12425 4.42474 4.20327 4.23397 4.34392 4.09332C4.48457 3.95267 4.67534 3.87365 4.87425 3.87365C5.07316 3.87365 5.26393 3.95267 5.40458 4.09332L15.6573 14.346C15.7979 14.4867 15.877 14.6774 15.877 14.8764Z" fill="#111111"/>
</symbol><symbol id="corporate" viewBox="0 0 20 20">
<path fill-rule="evenodd" clip-rule="evenodd" d="M6 3.75C6 3.02065 6.28973 2.32118 6.80546 1.80546C7.32118 1.28973 8.02065 1 8.75 1H11.25C11.9793 1 12.6788 1.28973 13.1945 1.80546C13.7103 2.32118 14 3.02065 14 3.75V4.193C14.572 4.248 15.14 4.315 15.706 4.393C17.053 4.582 18 5.75 18 7.07V10.539C18 11.665 17.306 12.73 16.17 13.079C14.218 13.678 12.146 14 10 14C7.854 14 5.781 13.678 3.83 13.079C2.694 12.73 2 11.665 2 10.539V7.07C2 5.749 2.947 4.581 4.294 4.394C4.8612 4.31511 5.42999 4.24809 6 4.193V3.75ZM12.5 3.75V4.075C10.8348 3.9748 9.16516 3.9748 7.5 4.075V3.75C7.5 3.06 8.06 2.5 8.75 2.5H11.25C11.94 2.5 12.5 3.06 12.5 3.75ZM10 10C9.73478 10 9.48043 10.1054 9.29289 10.2929C9.10536 10.4804 9 10.7348 9 11V11.01C9 11.2752 9.10536 11.5296 9.29289 11.7171C9.48043 11.9046 9.73478 12.01 10 12.01H10.01C10.2752 12.01 10.5296 11.9046 10.7171 11.7171C10.9046 11.5296 11.01 11.2752 11.01 11.01V11C11.01 10.7348 10.9046 10.4804 10.7171 10.2929C10.5296 10.1054 10.2752 10 10.01 10H10Z"/>
<path d="M3 15.0551V14.3711C3.126 14.4241 3.255 14.4711 3.39 14.5131C5.482 15.1551 7.703 15.5001 10 15.5001C12.297 15.5001 14.518 15.1551 16.61 14.5131C16.745 14.4721 16.874 14.4241 17 14.3711V15.0551C17 16.4021 16.015 17.5851 14.637 17.7411C11.5554 18.088 8.4446 18.088 5.363 17.7411C3.985 17.5851 3 16.4021 3 15.0551Z"/>
</symbol><symbol id="download" viewBox="0 0 21 20">
<path d="M7.25 13.75L10.25 16.75M10.25 16.75L13.25 13.75M10.25 16.75V10M16.9089 14.5684C17.561 14.1099 18.0499 13.4555 18.3049 12.7003C18.5598 11.945 18.5675 11.1282 18.3267 10.3683C18.0859 9.6084 17.6093 8.94499 16.966 8.47435C16.3226 8.0037 15.546 7.7503 14.7489 7.75093H13.8039C13.5783 6.87183 13.1563 6.05536 12.5695 5.36299C11.9827 4.67061 11.2465 4.12037 10.4163 3.75369C9.58612 3.38701 8.68355 3.21345 7.77656 3.24606C6.86957 3.27868 5.9818 3.51663 5.18008 3.942C4.37836 4.36736 3.68358 4.96906 3.14805 5.7018C2.61252 6.43453 2.2502 7.27921 2.08836 8.17224C1.92651 9.06527 1.96937 9.98337 2.2137 10.8574C2.45802 11.7315 2.89746 12.5388 3.49891 13.2184" stroke-width="1.5" stroke-linecap="round" stroke-linejoin="round"/>
</symbol><symbol id="facebook" viewBox="0 0 20 20">
<path d="M14.9987 1.66699H12.4987C11.3936 1.66699 10.3338 2.10598 9.55242 2.88738C8.77102 3.66878 8.33203 4.72859 8.33203 5.83366V8.33366H5.83203V11.667H8.33203V18.3337H11.6654V11.667H14.1654L14.9987 8.33366H11.6654V5.83366C11.6654 5.61265 11.7532 5.40068 11.9094 5.2444C12.0657 5.08812 12.2777 5.00033 12.4987 5.00033H14.9987V1.66699Z" stroke-width="1.5" stroke-linecap="round" stroke-linejoin="round"/>
</symbol><symbol id="filter" viewBox="0 0 16 18">
<path fill-rule="evenodd" clip-rule="evenodd" d="M0.628 0.601C3.028 0.206 5.49 0 8 0C10.51 0 12.973 0.206 15.372 0.601C15.5474 0.629916 15.7068 0.72019 15.8218 0.855723C15.9369 0.991257 16 1.16324 16 1.341V3.629C15.9997 4.22539 15.7627 4.79728 15.341 5.219L10.659 9.902C10.2373 10.3237 10.0003 10.8956 10 11.492V14.529C10 15.213 9.69 15.859 9.156 16.286L7.219 17.836C7.10867 17.9244 6.97559 17.9798 6.83511 17.9959C6.69463 18.0119 6.55248 17.9879 6.42505 17.9267C6.29762 17.8654 6.19011 17.7694 6.1149 17.6497C6.03969 17.5299 5.99986 17.3914 6 17.25V11.493C6 11.1975 5.94181 10.9049 5.82874 10.632C5.71566 10.359 5.54993 10.1109 5.341 9.902L0.659 5.22C0.450069 5.01107 0.284336 4.76303 0.171265 4.49004C0.0581932 4.21706 -2.55868e-06 3.92448 0 3.629V1.34C2.56239e-06 1.16224 0.0631438 0.990257 0.178164 0.854723C0.293185 0.71919 0.452606 0.629916 0.628 0.601Z" fill="currentColor"/>
</symbol><symbol id="gift" viewBox="0 0 20 20">
<path d="M17.5 9.375V16.25C17.5 16.5815 17.3683 16.8995 17.1339 17.1339C16.8995 17.3683 16.5815 17.5 16.25 17.5H4.375C4.04348 17.5 3.72554 17.3683 3.49112 17.1339C3.2567 16.8995 3.125 16.5815 3.125 16.25V9.375M10 4.0625C10 3.62985 9.87171 3.20692 9.63134 2.84719C9.39097 2.48746 9.04933 2.20708 8.64962 2.04151C8.24991 1.87595 7.81007 1.83263 7.38574 1.91703C6.96141 2.00144 6.57163 2.20978 6.2657 2.5157C5.95978 2.82163 5.75144 3.21141 5.66703 3.63574C5.58263 4.06007 5.62595 4.49991 5.79151 4.89962C5.95708 5.29933 6.23746 5.64098 6.59719 5.88134C6.95692 6.12171 7.37985 6.25 7.8125 6.25H10M10 4.0625V6.25M10 4.0625C10 3.62985 10.1283 3.20692 10.3687 2.84719C10.609 2.48746 10.9507 2.20708 11.3504 2.04151C11.7501 1.87595 12.1899 1.83263 12.6143 1.91703C13.0386 2.00144 13.4284 2.20978 13.7343 2.5157C14.0402 2.82163 14.2486 3.21141 14.333 3.63574C14.4174 4.06007 14.3741 4.49991 14.2085 4.89962C14.0429 5.29933 13.7625 5.64098 13.4028 5.88134C13.0431 6.12171 12.6201 6.25 12.1875 6.25H10M10 6.25V17.5M2.8125 9.375H17.8125C18.33 9.375 18.75 8.955 18.75 8.4375V7.1875C18.75 6.67 18.33 6.25 17.8125 6.25H2.8125C2.295 6.25 1.875 6.67 1.875 7.1875V8.4375C1.875 8.955 2.295 9.375 2.8125 9.375Z" stroke-width="1.5" stroke-linecap="round" stroke-linejoin="round"/>
</symbol><symbol id="google-app" viewBox="0 0 135 40">
<rect x="0.5" y="0.5" width="134" height="39" rx="7.5" fill="black"/>
<rect x="0.5" y="0.5" width="134" height="39" rx="7.5" stroke="#A6A6A6"/>
<path d="M68.137 21.7522C65.785 21.7522 63.868 23.5402 63.868 26.0052C63.868 28.4542 65.785 30.2582 68.137 30.2582C70.489 30.2582 72.406 28.4542 72.406 26.0052C72.406 23.5402 70.489 21.7522 68.137 21.7522ZM68.137 28.5832C66.848 28.5832 65.736 27.5202 65.736 26.0052C65.736 24.4742 66.848 23.4272 68.137 23.4272C69.426 23.4272 70.537 24.4742 70.537 26.0052C70.537 27.5192 69.426 28.5832 68.137 28.5832ZM58.823 21.7522C56.471 21.7522 54.554 23.5402 54.554 26.0052C54.554 28.4542 56.471 30.2582 58.823 30.2582C61.175 30.2582 63.092 28.4542 63.092 26.0052C63.093 23.5402 61.175 21.7522 58.823 21.7522ZM58.823 28.5832C57.534 28.5832 56.423 27.5202 56.423 26.0052C56.423 24.4742 57.535 23.4272 58.823 23.4272C60.112 23.4272 61.223 24.4742 61.223 26.0052C61.224 27.5192 60.112 28.5832 58.823 28.5832ZM47.745 24.8612H52.063C51.934 25.8762 51.596 26.6172 51.08 27.1332C50.452 27.7612 49.469 28.4542 47.745 28.4542C45.087 28.4542 43.009 26.3112 43.009 23.6532C43.009 20.9952 45.087 18.8522 47.745 18.8522C49.179 18.8522 50.226 19.4162 50.999 20.1412L52.272 18.8682C51.193 17.8372 49.759 17.0472 47.745 17.0472C44.104 17.0472 41.043 20.0112 41.043 23.6522C41.043 27.2932 44.104 30.2572 47.745 30.2572C49.71 30.2572 51.193 29.6132 52.353 28.4042C53.545 27.2122 53.916 25.5362 53.916 24.1832C53.916 23.7642 53.884 23.3772 53.819 23.0552H47.745V24.8612ZM93.053 24.4582C92.699 23.5072 91.619 21.7512 89.412 21.7512C87.221 21.7512 85.401 23.4752 85.401 26.0042C85.401 28.3882 87.205 30.2572 89.622 30.2572C91.571 30.2572 92.699 29.0652 93.166 28.3722L91.716 27.4052C91.233 28.1142 90.572 28.5812 89.622 28.5812C88.671 28.5812 87.995 28.1462 87.56 27.2922L93.247 24.9402L93.053 24.4582ZM87.253 25.8762C87.205 24.2332 88.526 23.3952 89.476 23.3952C90.217 23.3952 90.845 23.7652 91.055 24.2972L87.253 25.8762ZM82.629 30.0002H84.498V17.4992H82.629V30.0002ZM79.568 22.7022H79.504C79.085 22.2032 78.28 21.7512 77.265 21.7512C75.138 21.7512 73.189 23.6202 73.189 26.0202C73.189 28.4042 75.138 30.2572 77.265 30.2572C78.28 30.2572 79.085 29.8062 79.504 29.2902H79.568V29.9022C79.568 31.5292 78.698 32.3992 77.296 32.3992C76.152 32.3992 75.443 31.5772 75.153 30.8852L73.526 31.5622C73.993 32.6902 75.234 34.0752 77.296 34.0752C79.487 34.0752 81.34 32.7862 81.34 29.6452V22.0092H79.568V22.7022ZM77.426 28.5832C76.137 28.5832 75.058 27.5042 75.058 26.0212C75.058 24.5232 76.137 23.4272 77.426 23.4272C78.699 23.4272 79.697 24.5222 79.697 26.0212C79.697 27.5032 78.699 28.5832 77.426 28.5832ZM101.807 17.4992H97.336V30.0002H99.201V25.2642H101.806C103.874 25.2642 105.907 23.7672 105.907 21.3822C105.907 18.9972 103.875 17.4992 101.807 17.4992ZM101.855 23.5242H99.201V19.2392H101.855C103.25 19.2392 104.042 20.3942 104.042 21.3822C104.042 22.3502 103.25 23.5242 101.855 23.5242ZM113.387 21.7292C112.036 21.7292 110.637 22.3242 110.058 23.6432L111.715 24.3352C112.069 23.6432 112.728 23.4182 113.42 23.4182C114.385 23.4182 115.366 23.9972 115.382 25.0262V25.1552C115.044 24.9622 114.32 24.6722 113.436 24.6722C111.651 24.6722 109.833 25.6532 109.833 27.4872C109.833 29.1602 111.297 30.2372 112.937 30.2372C114.192 30.2372 114.883 29.6742 115.317 29.0152H115.381V29.9802H117.182V25.1872C117.182 22.9672 115.526 21.7292 113.387 21.7292ZM113.161 28.5802C112.55 28.5802 111.697 28.2742 111.697 27.5192C111.697 26.5542 112.759 26.1842 113.675 26.1842C114.495 26.1842 114.881 26.3612 115.38 26.6022C115.236 27.7602 114.239 28.5802 113.161 28.5802ZM123.744 22.0022L121.605 27.4222H121.541L119.322 22.0022H117.312L120.641 29.5772L118.743 33.7912H120.689L125.82 22.0022H123.744ZM106.937 30.0002H108.803V17.4992H106.937V30.0002Z" fill="white"/>
<path d="M47.376 9.79121H44.468V10.5122H46.647C46.588 11.0982 46.353 11.5592 45.96 11.8942C45.566 12.2292 45.063 12.3972 44.468 12.3972C43.814 12.3972 43.261 12.1712 42.809 11.7182C42.365 11.2572 42.138 10.6882 42.138 10.0002C42.138 9.31321 42.365 8.74321 42.809 8.28221C43.261 7.83021 43.814 7.60421 44.468 7.60421C44.803 7.60421 45.122 7.66221 45.415 7.78821C45.708 7.91421 45.943 8.09021 46.127 8.31621L46.68 7.76321C46.429 7.47821 46.11 7.26021 45.717 7.10121C45.323 6.94221 44.912 6.86621 44.468 6.86621C43.596 6.86621 42.859 7.16821 42.256 7.77121C41.652 8.37521 41.351 9.12021 41.351 10.0002C41.351 10.8802 41.652 11.6262 42.256 12.2292C42.859 12.8332 43.596 13.1342 44.468 13.1342C45.381 13.1342 46.11 12.8412 46.672 12.2462C47.166 11.7522 47.418 11.0812 47.418 10.2432C47.418 10.1012 47.401 9.95021 47.376 9.79121Z" fill="white"/>
<path d="M48.524 7.00021V13.0002H52.027V12.2632H49.295V10.3612H51.758V9.64021H49.295V7.73821H52.027V7.00021H48.524Z" fill="white"/>
<path d="M56.953 7.73821V7.00021H52.83V7.73821H54.506V13.0002H55.277V7.73821H56.953Z" fill="white"/>
<path d="M60.7079 7.00021H59.9369V13.0002H60.7079V7.00021Z" fill="white"/>
<path d="M65.8029 7.73821V7.00021H61.6799V7.73821H63.3559V13.0002H64.1269V7.73821H65.8029Z" fill="white"/>
<path d="M73.605 7.78021C73.01 7.16821 72.281 6.86621 71.409 6.86621C70.538 6.86621 69.808 7.16821 69.213 7.77121C68.618 8.36621 68.325 9.11221 68.325 10.0002C68.325 10.8892 68.618 11.6342 69.213 12.2292C69.808 12.8332 70.538 13.1342 71.409 13.1342C72.272 13.1342 73.01 12.8332 73.605 12.2292C74.2 11.6342 74.493 10.8892 74.493 10.0002C74.493 9.12021 74.2 8.37521 73.605 7.78021ZM69.767 8.28221C70.211 7.83021 70.755 7.60421 71.409 7.60421C72.063 7.60421 72.607 7.83021 73.043 8.28221C73.487 8.72721 73.705 9.30521 73.705 10.0002C73.705 10.6962 73.487 11.2742 73.043 11.7182C72.607 12.1712 72.063 12.3972 71.409 12.3972C70.755 12.3972 70.211 12.1712 69.767 11.7182C69.331 11.2662 69.113 10.6962 69.113 10.0002C69.113 9.30521 69.331 8.73521 69.767 8.28221Z" fill="white"/>
<path d="M76.345 9.26321L76.312 8.10621H76.345L79.396 13.0002H80.2V7.00021H79.429V10.5122L79.463 11.6682H79.429L76.513 7.00021H75.575V13.0002H76.345V9.26321Z" fill="white"/>
<path d="M20.7173 19.4246L10.0703 30.7246C10.0713 30.7266 10.0713 30.7286 10.0723 30.7306C10.3983 31.9586 11.5193 32.8616 12.8493 32.8616C13.3813 32.8616 13.8803 32.7176 14.3083 32.4656L14.3423 32.4456L26.3263 25.5306L20.7173 19.4246Z" fill="#EB4335"/>
<path d="M31.4896 17.5007L31.4796 17.4937L26.3056 14.4937L20.4766 19.6807L26.3256 25.5287L31.4726 22.5597C32.3746 22.0727 32.9866 21.1217 32.9866 20.0247C32.9866 18.9357 32.3826 17.9887 31.4896 17.5007Z" fill="#FABC13"/>
<path d="M10.0707 9.27759C10.0067 9.51359 9.97266 9.76059 9.97266 10.0176V29.9846C9.97266 30.2416 10.0053 30.4896 10.0703 30.7246L21.0837 19.7136L10.0707 9.27759Z" fill="#547DBF"/>
<path d="M20.7953 20.0006L26.3063 14.4916L14.3353 7.55163C13.9003 7.29063 13.3933 7.14062 12.8493 7.14062C11.5193 7.14062 10.3973 8.04562 10.0703 9.27463L10.0707 9.27759L20.7953 20.0006Z" fill="#30A851"/>
</symbol><symbol id="ios-app" viewBox="0 0 120 40">
<rect x="0.5" y="0.5" width="119" height="39" rx="7.5" fill="black"/>
<rect x="0.5" y="0.5" width="119" height="39" rx="7.5" stroke="#A6A6A6"/>
<path d="M24.77 20.3012C24.7807 19.4666 25.0024 18.6482 25.4145 17.9222C25.8265 17.1963 26.4154 16.5863 27.1265 16.1492C26.6748 15.504 26.0788 14.9731 25.386 14.5985C24.6932 14.224 23.9226 14.0161 23.1354 13.9915C21.4561 13.8152 19.8282 14.9963 18.9725 14.9963C18.1002 14.9963 16.7827 14.009 15.364 14.0382C14.4463 14.0678 13.5519 14.3347 12.7681 14.8127C11.9842 15.2908 11.3375 15.9638 10.891 16.7661C8.95705 20.1145 10.3996 25.0355 12.2522 27.7421C13.1791 29.0675 14.2624 30.5479 15.6799 30.4954C17.0669 30.4379 17.585 29.611 19.2593 29.611C20.918 29.611 21.4041 30.4954 22.8503 30.4621C24.3387 30.4379 25.2764 29.1308 26.1708 27.7929C26.8368 26.8486 27.3492 25.8048 27.6892 24.7004C26.8245 24.3347 26.0866 23.7225 25.5675 22.9402C25.0483 22.1579 24.771 21.2401 24.77 20.3012Z" fill="white"/>
<path d="M22.0383 12.2114C22.8499 11.2372 23.2497 9.98506 23.1529 8.72083C21.913 8.85105 20.7678 9.4436 19.9453 10.3804C19.5431 10.8381 19.2351 11.3705 19.0389 11.9473C18.8427 12.5241 18.762 13.1339 18.8016 13.7418C19.4217 13.7482 20.0352 13.6138 20.5959 13.3487C21.1565 13.0836 21.6497 12.6948 22.0383 12.2114Z" fill="white"/>
<path d="M42.3025 27.1402H37.5691L36.4324 30.4966H34.4275L38.9109 18.0786H40.9939L45.4773 30.4966H43.4382L42.3025 27.1402ZM38.0593 25.5913H41.8113L39.9617 20.1441H39.91L38.0593 25.5913Z" fill="white"/>
<path d="M55.1599 25.9702C55.1599 28.7837 53.6541 30.5913 51.3816 30.5913C50.8059 30.6214 50.2334 30.4888 49.7296 30.2087C49.2259 29.9286 48.8111 29.5122 48.533 29.0073H48.49V33.4917H46.6316V21.4429H48.4304V22.9487H48.4646C48.7556 22.4463 49.1773 22.0321 49.6849 21.7502C50.1925 21.4684 50.7671 21.3294 51.3474 21.3482C53.6452 21.3482 55.1599 23.1646 55.1599 25.9702ZM53.2498 25.9702C53.2498 24.1372 52.3025 22.9321 50.8572 22.9321C49.4373 22.9321 48.4822 24.1626 48.4822 25.9702C48.4822 27.7945 49.4373 29.0161 50.8572 29.0161C52.3025 29.0161 53.2498 27.8198 53.2498 25.9702Z" fill="white"/>
<path d="M65.1248 25.9702C65.1248 28.7837 63.6189 30.5913 61.3464 30.5913C60.7708 30.6214 60.1983 30.4888 59.6945 30.2087C59.1907 29.9286 58.776 29.5122 58.4978 29.0073H58.4548V33.4917H56.5964V21.4429H58.3952V22.9487H58.4294C58.7204 22.4463 59.1421 22.0321 59.6497 21.7502C60.1574 21.4684 60.7319 21.3294 61.3122 21.3482C63.6101 21.3482 65.1248 23.1646 65.1248 25.9702ZM63.2146 25.9702C63.2146 24.1372 62.2673 22.9321 60.822 22.9321C59.4021 22.9321 58.447 24.1626 58.447 25.9702C58.447 27.7945 59.4021 29.0161 60.822 29.0161C62.2673 29.0161 63.2146 27.8198 63.2146 25.9702Z" fill="white"/>
<path d="M71.7107 27.0366C71.8484 28.2681 73.0447 29.0766 74.6795 29.0766C76.2459 29.0766 77.3728 28.268 77.3728 27.1577C77.3728 26.1938 76.6931 25.6167 75.0837 25.2212L73.4744 24.8335C71.1941 24.2827 70.1355 23.2163 70.1355 21.4858C70.1355 19.3432 72.0027 17.8715 74.6541 17.8715C77.2781 17.8715 79.0769 19.3432 79.1375 21.4858H77.2615C77.1492 20.2465 76.1247 19.4985 74.6277 19.4985C73.1306 19.4985 72.1062 20.2553 72.1062 21.3569C72.1062 22.2348 72.7605 22.7514 74.3611 23.1469L75.7292 23.4828C78.2771 24.0854 79.3357 25.1088 79.3357 26.9252C79.3357 29.2485 77.4851 30.7035 74.5417 30.7035C71.7878 30.7035 69.9284 29.2826 69.8083 27.0365L71.7107 27.0366Z" fill="white"/>
<path d="M83.3464 19.3003V21.4429H85.0681V22.9146H83.3464V27.9058C83.3464 28.6812 83.6912 29.0425 84.448 29.0425C84.6524 29.0389 84.8564 29.0246 85.0593 28.9995V30.4624C84.7191 30.526 84.3732 30.5548 84.0271 30.5483C82.1941 30.5483 81.4792 29.8598 81.4792 28.104V22.9146H80.1628V21.4429H81.4792V19.3003H83.3464Z" fill="white"/>
<path d="M86.0652 25.9702C86.0652 23.1216 87.743 21.3316 90.3592 21.3316C92.9842 21.3316 94.6541 23.1216 94.6541 25.9702C94.6541 28.8267 92.993 30.6089 90.3592 30.6089C87.7263 30.6089 86.0652 28.8267 86.0652 25.9702ZM92.7605 25.9702C92.7605 24.0161 91.865 22.8628 90.3592 22.8628C88.8533 22.8628 87.9588 24.0249 87.9588 25.9702C87.9588 27.9321 88.8533 29.0767 90.3592 29.0767C91.865 29.0767 92.7605 27.9321 92.7605 25.9702Z" fill="white"/>
<path d="M96.1863 21.4429H97.9587V22.9839H98.0017C98.1217 22.5026 98.4036 22.0773 98.8002 21.7794C99.1968 21.4815 99.6838 21.3292 100.179 21.3481C100.394 21.3474 100.607 21.3707 100.816 21.4175V23.1558C100.546 23.0731 100.264 23.0352 99.9812 23.0435C99.7112 23.0325 99.4421 23.0801 99.1922 23.183C98.9424 23.2859 98.7178 23.4416 98.5338 23.6395C98.3498 23.8374 98.2108 24.0728 98.1264 24.3294C98.042 24.5861 98.0141 24.858 98.0447 25.1265V30.4966H96.1863L96.1863 21.4429Z" fill="white"/>
<path d="M109.385 27.8374C109.135 29.481 107.534 30.6089 105.486 30.6089C102.852 30.6089 101.218 28.8442 101.218 26.0132C101.218 23.1733 102.861 21.3316 105.408 21.3316C107.913 21.3316 109.488 23.0522 109.488 25.7974V26.4341H103.094V26.5464C103.064 26.8796 103.106 27.2153 103.216 27.5311C103.326 27.8469 103.502 28.1357 103.733 28.3783C103.963 28.6208 104.242 28.8116 104.552 28.9379C104.862 29.0642 105.195 29.1231 105.529 29.1108C105.968 29.152 106.409 29.0503 106.786 28.8208C107.162 28.5914 107.455 28.2465 107.62 27.8374L109.385 27.8374ZM103.102 25.1353H107.629C107.645 24.8357 107.6 24.5359 107.495 24.2546C107.391 23.9734 107.229 23.7169 107.02 23.5011C106.812 23.2854 106.561 23.115 106.284 23.0008C106.006 22.8866 105.708 22.831 105.408 22.8374C105.105 22.8356 104.805 22.8937 104.525 23.0085C104.245 23.1232 103.991 23.2923 103.776 23.5059C103.562 23.7196 103.392 23.9735 103.276 24.2532C103.161 24.5328 103.102 24.8326 103.102 25.1353Z" fill="white"/>
<path d="M37.8264 8.7315C38.216 8.70354 38.607 8.7624 38.9711 8.90383C39.3352 9.04527 39.6634 9.26575 39.932 9.54937C40.2006 9.833 40.4029 10.1727 40.5243 10.544C40.6457 10.9152 40.6832 11.3088 40.634 11.6963C40.634 13.6026 39.6038 14.6983 37.8264 14.6983H35.6711V8.7315H37.8264ZM36.5979 13.8545H37.7229C38.0013 13.8711 38.2799 13.8255 38.5385 13.7209C38.797 13.6163 39.029 13.4553 39.2174 13.2498C39.4059 13.0442 39.5462 12.7992 39.6281 12.5326C39.7099 12.2659 39.7313 11.9844 39.6907 11.7085C39.7284 11.4337 39.7048 11.1539 39.6217 10.8892C39.5386 10.6246 39.398 10.3816 39.2099 10.1776C39.0218 9.9737 38.791 9.81389 38.5339 9.70966C38.2768 9.60542 37.9999 9.55934 37.7229 9.57471H36.5979V13.8545Z" fill="white"/>
<path d="M41.6809 12.4448C41.6526 12.1489 41.6865 11.8504 41.7803 11.5683C41.8741 11.2862 42.0259 11.0269 42.2258 10.8069C42.4258 10.5869 42.6695 10.4111 42.9413 10.2909C43.2132 10.1706 43.5072 10.1085 43.8044 10.1085C44.1017 10.1085 44.3957 10.1706 44.6675 10.2909C44.9394 10.4111 45.1831 10.5869 45.3831 10.8069C45.583 11.0269 45.7348 11.2862 45.8286 11.5683C45.9224 11.8504 45.9563 12.1489 45.928 12.4448C45.9568 12.7411 45.9234 13.04 45.8298 13.3226C45.7362 13.6051 45.5845 13.8649 45.3845 14.0853C45.1845 14.3057 44.9406 14.4819 44.6685 14.6024C44.3964 14.7229 44.1021 14.7852 43.8044 14.7852C43.5068 14.7852 43.2125 14.7229 42.9404 14.6024C42.6682 14.4819 42.4243 14.3057 42.2243 14.0853C42.0244 13.8649 41.8727 13.6051 41.7791 13.3226C41.6855 13.04 41.6521 12.7411 41.6809 12.4448ZM45.0139 12.4448C45.0139 11.4688 44.5754 10.898 43.8059 10.898C43.0334 10.898 42.5989 11.4688 42.5989 12.4448C42.5989 13.4287 43.0335 13.9951 43.8059 13.9951C44.5754 13.9951 45.0139 13.4248 45.0139 12.4448Z" fill="white"/>
<path d="M51.5735 14.6982H50.6516L49.721 11.3818H49.6506L48.7239 14.6982H47.8108L46.5696 10.1953H47.471L48.2776 13.6313H48.344L49.2698 10.1953H50.1223L51.0481 13.6313H51.1184L51.9211 10.1953H52.8098L51.5735 14.6982Z" fill="white"/>
<path d="M53.8538 10.1953H54.7092V10.9106H54.7756C54.8883 10.6537 55.0783 10.4384 55.3192 10.2946C55.56 10.1507 55.8398 10.0857 56.1194 10.1084C56.3385 10.0919 56.5585 10.125 56.7631 10.2051C56.9677 10.2852 57.1516 10.4103 57.3013 10.5711C57.451 10.7319 57.5626 10.9244 57.6278 11.1342C57.693 11.344 57.7101 11.5658 57.678 11.7832V14.6982H56.7893V12.0064C56.7893 11.2827 56.4749 10.9229 55.8176 10.9229C55.6689 10.9159 55.5204 10.9412 55.3823 10.9971C55.2443 11.0529 55.1199 11.1379 55.0178 11.2463C54.9157 11.3547 54.8382 11.4839 54.7906 11.625C54.7431 11.7661 54.7267 11.9159 54.7424 12.064V14.6982H53.8538L53.8538 10.1953Z" fill="white"/>
<path d="M59.094 8.4375H59.9827V14.6982H59.094V8.4375Z" fill="white"/>
<path d="M61.218 12.4448C61.1897 12.1489 61.2236 11.8503 61.3175 11.5682C61.4113 11.2862 61.5631 11.0268 61.7631 10.8068C61.963 10.5868 62.2068 10.4111 62.4786 10.2908C62.7505 10.1705 63.0445 10.1084 63.3418 10.1084C63.6391 10.1084 63.9331 10.1705 64.205 10.2908C64.4768 10.4111 64.7206 10.5868 64.9205 10.8068C65.1205 11.0268 65.2723 11.2862 65.3661 11.5682C65.46 11.8503 65.4939 12.1489 65.4656 12.4448C65.4944 12.7411 65.4609 13.0401 65.3673 13.3226C65.2737 13.6051 65.122 13.8649 64.922 14.0853C64.7219 14.3057 64.478 14.4819 64.2059 14.6024C63.9338 14.7229 63.6394 14.7852 63.3418 14.7852C63.0442 14.7852 62.7498 14.7229 62.4777 14.6024C62.2056 14.4819 61.9616 14.3057 61.7616 14.0853C61.5616 13.8649 61.4099 13.6051 61.3163 13.3226C61.2227 13.0401 61.1892 12.7411 61.218 12.4448ZM64.551 12.4448C64.551 11.4688 64.1125 10.898 63.343 10.898C62.5706 10.898 62.136 11.4688 62.136 12.4448C62.136 13.4287 62.5706 13.9951 63.343 13.9951C64.1125 13.9951 64.551 13.4248 64.551 12.4448Z" fill="white"/>
<path d="M66.4011 13.4248C66.4011 12.6143 67.0046 12.147 68.0759 12.0806L69.2957 12.0103V11.6216C69.2957 11.146 68.9812 10.8775 68.3738 10.8775C67.8777 10.8775 67.5339 11.0596 67.4353 11.3779H66.575C66.6658 10.6045 67.3933 10.1084 68.4148 10.1084C69.5437 10.1084 70.1804 10.6704 70.1804 11.6216V14.6983H69.325V14.0654H69.2546C69.1119 14.2924 68.9115 14.4775 68.6739 14.6017C68.4363 14.7259 68.1699 14.7848 67.9021 14.7724C67.7131 14.7921 67.522 14.7719 67.3413 14.7132C67.1605 14.6545 66.994 14.5586 66.8526 14.4317C66.7112 14.3047 66.598 14.1495 66.5202 13.9761C66.4424 13.8027 66.4019 13.6149 66.4011 13.4248ZM69.2957 13.04V12.6636L68.196 12.7339C67.5759 12.7754 67.2947 12.9863 67.2947 13.3833C67.2947 13.7886 67.6462 14.0244 68.1297 14.0244C68.2713 14.0388 68.4144 14.0245 68.5504 13.9824C68.6864 13.9403 68.8126 13.8713 68.9213 13.7794C69.0301 13.6876 69.1193 13.5748 69.1836 13.4478C69.2479 13.3207 69.286 13.1821 69.2957 13.04Z" fill="white"/>
<path d="M71.3484 12.4448C71.3484 11.022 72.0798 10.1206 73.2175 10.1206C73.4989 10.1077 73.7782 10.1751 74.0228 10.315C74.2673 10.4548 74.4669 10.6615 74.5984 10.9106H74.6648V8.4375H75.5535V14.6982H74.7019V13.9868H74.6316C74.49 14.2343 74.2834 14.4383 74.0341 14.5768C73.7849 14.7153 73.5025 14.783 73.2175 14.7724C72.072 14.7725 71.3484 13.8711 71.3484 12.4448ZM72.2664 12.4448C72.2664 13.3999 72.7166 13.9746 73.4695 13.9746C74.2185 13.9746 74.6814 13.3916 74.6814 12.4487C74.6814 11.5103 74.2137 10.919 73.4695 10.919C72.7214 10.919 72.2664 11.4976 72.2664 12.4448Z" fill="white"/>
<path d="M79.2302 12.4448C79.2019 12.1489 79.2358 11.8504 79.3296 11.5683C79.4234 11.2862 79.5752 11.0269 79.7751 10.8069C79.9751 10.5869 80.2188 10.4111 80.4906 10.2909C80.7625 10.1706 81.0565 10.1085 81.3538 10.1085C81.651 10.1085 81.945 10.1706 82.2169 10.2909C82.4887 10.4111 82.7324 10.5869 82.9324 10.8069C83.1323 11.0269 83.2841 11.2862 83.3779 11.5683C83.4717 11.8504 83.5056 12.1489 83.4773 12.4448C83.5061 12.7411 83.4727 13.04 83.3791 13.3226C83.2855 13.6051 83.1338 13.8649 82.9338 14.0853C82.7339 14.3057 82.49 14.4819 82.2178 14.6024C81.9457 14.7229 81.6514 14.7852 81.3538 14.7852C81.0561 14.7852 80.7618 14.7229 80.4897 14.6024C80.2176 14.4819 79.9737 14.3057 79.7737 14.0853C79.5737 13.8649 79.422 13.6051 79.3284 13.3226C79.2348 13.04 79.2014 12.7411 79.2302 12.4448ZM82.5632 12.4448C82.5632 11.4688 82.1247 10.898 81.3552 10.898C80.5828 10.898 80.1482 11.4688 80.1482 12.4448C80.1482 13.4287 80.5828 13.9951 81.3552 13.9951C82.1248 13.9951 82.5632 13.4248 82.5632 12.4448Z" fill="white"/>
<path d="M84.6697 10.1953H85.5251V10.9106H85.5916C85.7042 10.6537 85.8942 10.4384 86.1351 10.2946C86.376 10.1507 86.6557 10.0857 86.9353 10.1084C87.1544 10.0919 87.3744 10.125 87.579 10.2051C87.7836 10.2852 87.9676 10.4103 88.1172 10.5711C88.2669 10.7319 88.3785 10.9244 88.4437 11.1342C88.5089 11.344 88.5261 11.5658 88.4939 11.7832V14.6982H87.6052V12.0064C87.6052 11.2827 87.2908 10.9229 86.6336 10.9229C86.4848 10.9159 86.3363 10.9412 86.1982 10.9971C86.0602 11.0529 85.9358 11.1379 85.8337 11.2463C85.7316 11.3547 85.6541 11.4839 85.6066 11.625C85.559 11.7661 85.5426 11.9159 85.5583 12.064V14.6982H84.6697V10.1953Z" fill="white"/>
<path d="M93.5154 9.07423V10.2158H94.491V10.9644H93.5154V13.2798C93.5154 13.7515 93.7097 13.958 94.1521 13.958C94.2654 13.9577 94.3785 13.9508 94.491 13.9375V14.6777C94.3314 14.7063 94.1697 14.7215 94.0076 14.7231C93.0193 14.7231 92.6257 14.3755 92.6257 13.5073V10.9643H91.9109V10.2158H92.6257V9.07423H93.5154Z" fill="white"/>
<path d="M95.7048 8.4375H96.5857V10.919H96.656C96.7741 10.6596 96.9694 10.443 97.2151 10.2987C97.4608 10.1543 97.745 10.0893 98.029 10.1123C98.247 10.1004 98.4649 10.1368 98.6671 10.2189C98.8694 10.3009 99.0511 10.4266 99.1992 10.5869C99.3473 10.7473 99.4583 10.9383 99.524 11.1465C99.5898 11.3546 99.6088 11.5747 99.5798 11.791V14.6982H98.6902V12.0103C98.6902 11.291 98.3552 10.9268 97.7273 10.9268C97.5746 10.9142 97.421 10.9352 97.2772 10.9883C97.1334 11.0413 97.003 11.1252 96.895 11.2339C96.787 11.3426 96.704 11.4737 96.652 11.6178C96.5999 11.7619 96.58 11.9157 96.5936 12.0683V14.6982H95.7049L95.7048 8.4375Z" fill="white"/>
<path d="M104.761 13.4824C104.641 13.894 104.379 14.25 104.022 14.4881C103.666 14.7263 103.237 14.8314 102.81 14.7852C102.514 14.793 102.219 14.7362 101.946 14.6186C101.674 14.5011 101.43 14.3257 101.232 14.1046C101.034 13.8834 100.887 13.6219 100.8 13.338C100.714 13.0542 100.69 12.7549 100.73 12.4609C100.691 12.1661 100.715 11.8661 100.802 11.5815C100.888 11.2968 101.035 11.034 101.232 10.8109C101.428 10.5879 101.671 10.4097 101.943 10.2885C102.214 10.1673 102.509 10.1059 102.806 10.1084C104.059 10.1084 104.815 10.9644 104.815 12.3784V12.6885H101.635V12.7383C101.622 12.9035 101.642 13.0699 101.696 13.2266C101.751 13.3834 101.837 13.5271 101.95 13.6485C102.063 13.77 102.2 13.8665 102.352 13.9319C102.505 13.9973 102.669 14.0301 102.835 14.0283C103.047 14.0538 103.263 14.0155 103.453 13.9183C103.644 13.8211 103.802 13.6694 103.906 13.4824L104.761 13.4824ZM101.635 12.0313H103.91C103.921 11.8801 103.901 11.7283 103.85 11.5856C103.799 11.4429 103.718 11.3124 103.614 11.2026C103.51 11.0927 103.383 11.0059 103.243 10.9477C103.104 10.8895 102.953 10.8613 102.801 10.8648C102.648 10.8628 102.495 10.8917 102.353 10.9496C102.211 11.0076 102.081 11.0934 101.973 11.2021C101.864 11.3109 101.778 11.4402 101.72 11.5826C101.662 11.725 101.633 11.8776 101.635 12.0313Z" fill="white"/>
</symbol><symbol id="lines" viewBox="0 0 1900 983">
<path d="M1825.52 188.65C1852.75 158.356 1876.29 121.737 1899.5 84.6556L1899.5 0.558824L0.499969 0.55899L0.499975 73.5362L363.857 259.574C427.032 291.92 499.186 296.015 566.55 275.555C706.358 233.09 818.595 215.712 921.488 222.919C1024.39 230.126 1117.91 261.918 1220.28 317.737C1287.88 354.602 1365.43 367.284 1438.23 344.76L1729.45 254.66C1767.36 242.93 1798.27 218.972 1825.52 188.65Z" stroke="#111111"/>
<path d="M1825.51 207.92C1852.74 174.589 1876.29 134.297 1899.5 93.5009L1899.5 0.918779L0.499966 0.918945L0.499973 81.2879L363.875 285.939C427.043 321.516 499.183 326.019 566.537 303.517C706.347 256.804 818.59 237.687 921.492 245.615C1024.4 253.544 1117.92 288.518 1220.29 349.919C1287.9 390.468 1365.43 404.414 1438.22 379.642L1729.44 280.532C1767.34 267.631 1798.25 241.28 1825.51 207.92Z" stroke="#111111"/>
<path d="M1825.49 228.516C1852.73 191.843 1876.29 147.511 1899.5 102.629L1899.5 0.71483L0.499962 0.714996L0.49997 89.2139L363.893 314.342C427.055 353.472 499.181 358.424 566.523 333.675C706.335 282.29 818.585 261.259 921.495 269.981C1024.41 278.703 1117.94 317.178 1220.31 384.72C1287.91 429.322 1365.44 444.656 1438.21 417.413L1729.42 308.391C1767.32 294.203 1798.24 265.218 1825.49 228.516Z" stroke="#111111"/>
<path d="M1825.48 251.272C1852.73 210.923 1876.29 162.147 1899.5 112.771L1899.5 0.594835L0.499959 0.595001L0.499967 98.0349L363.911 345.685C427.067 388.725 499.179 394.168 566.508 366.95C706.321 310.427 818.579 287.29 921.5 296.885C1024.43 306.48 1117.96 348.807 1220.33 423.101C1287.93 472.162 1365.44 489.021 1438.19 459.061L1729.41 339.139C1767.3 323.534 1798.22 291.651 1825.48 251.272Z" stroke="#111111"/>
<path d="M1220.35 466.02L1220.04 466.41L1220.35 466.02C1287.95 519.987 1365.44 538.522 1438.18 505.574L1729.39 373.661C1767.28 356.498 1798.2 321.425 1825.47 277.002C1852.72 232.609 1876.28 178.944 1899.5 124.627L1899.5 1.1628L0.499954 1.16296L0.499964 108.437L363.929 380.864C427.081 428.203 499.177 434.187 566.492 404.253C706.307 342.078 818.572 316.624 921.504 327.179C1024.44 337.735 1117.98 384.298 1220.35 466.02Z" stroke="#111111"/>
<path d="M1825.46 304.498C1852.71 255.657 1876.28 196.614 1899.5 136.859L1899.5 0.978838L0.49995 0.979004L0.49996 119.07L363.947 418.757C427.097 470.829 499.175 477.405 566.476 444.485C706.291 376.091 818.564 348.088 921.509 359.7C1024.46 371.313 1118 422.538 1220.37 512.429C1287.97 571.797 1365.44 592.172 1438.16 555.939L1729.37 410.834C1767.26 391.955 1798.19 353.372 1825.46 304.498Z" stroke="#111111"/>
<path d="M1825.45 334.544C1852.71 280.81 1876.28 215.852 1899.5 150.116L1899.5 0.580828L0.499945 0.580994L0.499956 130.569L363.965 460.241C395.552 488.892 429.357 505.008 463.661 509.447C497.963 513.886 532.8 506.652 566.459 488.541C706.274 413.308 818.556 382.499 921.515 395.275C1024.48 408.051 1118.02 464.403 1220.39 563.28C1287.99 628.589 1365.45 650.985 1438.14 611.141L1729.36 451.525C1767.24 430.758 1798.17 388.314 1825.45 334.544Z" stroke="#111111"/>
<path d="M1825.44 368.891C1852.71 309.774 1876.28 238.31 1899.5 165.996L1899.5 1.44081L0.499939 1.44098L0.499952 144.515L363.982 507.172C395.572 538.691 429.375 556.415 463.667 561.296C497.957 566.177 532.785 558.223 566.441 538.303C706.255 455.547 818.547 421.651 921.521 435.706C1024.5 449.761 1118.04 511.755 1220.4 620.515C1254.21 656.44 1290.48 680.554 1327.37 690.213C1364.24 699.867 1401.76 695.087 1438.12 673.163L1729.34 497.585C1767.23 474.741 1798.16 428.046 1825.44 368.891Z" stroke="#111111"/>
<path d="M1825.43 404.787C1852.7 339.843 1876.28 261.336 1899.5 181.901L1899.5 1.08681L0.499933 1.08698L0.499947 158.325L363.999 556.693C395.593 591.319 429.393 610.782 463.674 616.141C497.95 621.5 532.768 612.769 566.423 590.89C706.236 499.99 818.537 462.75 921.527 478.191C1024.52 493.631 1118.06 561.732 1220.42 681.19C1254.23 720.656 1290.5 747.141 1327.38 757.747C1364.24 768.348 1401.75 763.102 1438.11 739.022L1729.32 546.164C1767.21 521.07 1798.15 469.771 1825.43 404.787Z" stroke="#111111"/>
<path d="M1825.43 445.387C1852.7 373.838 1876.28 287.346 1899.5 199.838L1899.5 0.591814L0.499927 0.59198L0.499942 173.887L364.014 612.741C395.614 650.891 429.414 672.326 463.681 678.228C497.941 684.129 532.75 674.517 566.404 650.415C706.214 550.283 818.526 509.251 921.535 526.264C1024.54 543.275 1118.09 618.3 1220.43 749.884C1254.25 793.365 1290.52 822.538 1327.39 834.22C1364.23 845.892 1401.73 840.119 1438.09 813.595L1729.3 601.146C1767.2 573.499 1798.14 516.978 1825.43 445.387Z" stroke="#111111"/>
<path d="M1825.42 489.91C1852.7 411.198 1876.28 316.049 1899.5 219.786L1899.5 0.551836L0.499919 0.552002L0.499936 191.258L364.029 674.019C395.635 715.992 429.434 739.565 463.689 746.055C497.932 752.542 532.73 741.977 566.386 715.464C706.191 605.323 818.513 560.176 921.543 578.894C1024.56 597.608 1118.11 680.141 1220.45 824.876C1254.27 872.712 1290.54 904.8 1327.41 917.648C1364.23 930.482 1401.71 924.139 1438.07 894.963L1729.28 661.268C1748.22 646.068 1765.44 622.925 1781.33 593.717C1797.23 564.512 1811.78 529.273 1825.42 489.91Z" stroke="#111111"/>
<path d="M1825.42 539.484C1852.69 452.893 1876.28 348.22 1899.5 242.327L1899.5 1.10781L0.499911 1.10797L0.499929 210.965L364.042 742.022C395.655 788.203 429.456 814.128 463.698 821.265C497.922 828.397 532.709 816.785 566.368 787.618C706.166 666.468 818.499 616.793 921.551 637.387C1024.58 657.976 1118.13 748.766 1220.46 907.964C1254.29 960.592 1290.56 995.889 1327.42 1010.02C1364.23 1024.13 1401.69 1017.16 1438.05 985.068L1729.27 728.002C1748.21 711.28 1765.43 685.817 1781.32 653.682C1797.22 621.553 1811.78 582.786 1825.42 539.484Z" stroke="#111111"/>
<path d="M1825.42 593.714C1852.69 498.457 1876.27 383.31 1899.5 266.825L1899.5 1.42378L0.499902 1.42395L0.499922 232.343L364.054 816.525C395.674 867.335 429.477 895.849 463.708 903.696C497.91 911.537 532.687 898.777 566.351 866.688C706.141 733.43 818.485 678.773 921.561 701.431C1024.6 724.081 1118.14 823.954 1220.47 999.06C1254.3 1056.96 1290.58 1095.79 1327.43 1111.33C1345.85 1119.09 1364.41 1121.05 1382.89 1116.66C1401.39 1112.28 1419.84 1101.55 1438.03 1083.88L1729.25 801.11C1748.2 782.712 1765.42 754.697 1781.32 719.344C1797.21 683.997 1811.77 641.349 1825.42 593.714Z" stroke="#111111"/>
<path d="M1825.41 652.163C1852.69 547.373 1876.27 420.703 1899.5 292.567L1899.5 0.564775L0.499892 0.564941L0.499915 254.653L364.064 897.275C395.692 953.179 429.499 984.541 463.719 993.17C497.896 1001.79 532.663 987.768 566.334 952.462C706.114 805.889 818.468 745.747 921.571 770.677C973.109 783.139 1022.26 816.845 1071.3 871.487C1120.34 926.129 1169.31 1001.74 1220.48 1098.06C1254.32 1161.76 1290.6 1204.47 1327.45 1221.57C1345.86 1230.11 1364.41 1232.25 1382.88 1227.43C1401.37 1222.61 1419.82 1210.81 1438.02 1191.38L1729.23 880.326C1748.18 860.084 1765.41 829.26 1781.31 790.367C1797.21 751.48 1811.77 704.563 1825.41 652.163Z" stroke="#111111"/>
<path d="M1825.41 717.359C1852.69 602.085 1876.27 462.742 1899.5 321.79L1899.5 0.529863L0.499882 0.530029L0.499906 280.1L364.074 987C395.708 1048.51 429.521 1083 463.73 1092.49C497.881 1101.97 532.638 1086.56 566.318 1047.72C636.221 967.085 699.251 910.249 757.689 876.991C816.137 843.727 870.018 834.037 921.582 847.752C973.129 861.463 1022.28 898.542 1071.31 958.642C1120.35 1018.74 1169.32 1101.91 1220.49 1207.86C1254.33 1277.94 1290.62 1324.93 1327.47 1343.73C1345.87 1353.12 1364.41 1355.48 1382.87 1350.18C1401.35 1344.88 1419.8 1331.9 1438 1310.52L1729.22 968.366C1748.17 946.094 1765.4 912.181 1781.3 869.393C1797.2 826.614 1811.77 775.001 1825.41 717.359Z" stroke="#111111"/>
<path d="M1825.41 789.77C1852.69 662.962 1876.27 509.679 1899.5 354.63L1899.5 1.18587L0.49987 1.18604L0.499897 308.785L364.082 1086.39C395.723 1154.07 429.541 1192.01 463.742 1202.45C497.864 1212.86 532.612 1195.94 566.303 1153.19C636.204 1064.5 699.233 1001.98 757.671 965.398C816.121 928.807 870.014 918.141 921.594 933.233C973.149 948.317 1022.3 989.107 1071.33 1055.21C1120.37 1121.32 1169.33 1212.8 1220.5 1329.34C1237.41 1367.87 1254.95 1400.08 1272.86 1425.23C1290.78 1450.39 1309.07 1468.48 1327.49 1478.81C1345.88 1489.14 1364.41 1491.73 1382.86 1485.91C1401.33 1480.08 1419.78 1465.8 1437.99 1442.28L1729.2 1065.91C1748.16 1041.4 1765.39 1004.09 1781.3 957.018C1797.2 909.956 1811.77 853.178 1825.41 789.77Z" stroke="#111111"/>
<path d="M1825.41 868.822C1852.69 729.329 1876.27 560.712 1899.5 390.156L1899.5 1.31185L0.499857 1.31201L0.499886 339.74L364.089 1195.13C379.904 1232.33 396.271 1261.39 412.967 1282.58C429.666 1303.77 446.671 1317.07 463.755 1322.8C497.846 1334.24 532.585 1315.65 566.289 1268.62C636.188 1171.06 699.215 1102.29 757.653 1062.05C816.103 1021.8 870.009 1010.06 921.606 1026.66C973.17 1043.26 1022.31 1088.13 1071.34 1160.83C1120.37 1233.55 1169.33 1334.17 1220.5 1462.37C1237.42 1504.76 1254.96 1540.18 1272.88 1567.86C1290.8 1595.54 1309.09 1615.44 1327.5 1626.8C1345.9 1638.16 1364.41 1641 1382.85 1634.6C1401.31 1628.2 1419.77 1612.49 1437.97 1586.61L1729.19 1172.6C1748.15 1145.64 1765.39 1104.59 1781.29 1052.8C1797.2 1001.03 1811.76 938.573 1825.41 868.822Z" stroke="#111111"/>
<path d="M1825.4 954.875C1852.69 801.428 1876.27 615.943 1899.5 428.33L1899.5 0.543779L0.499843 0.543945L0.499875 372.885L364.096 1313.83C379.912 1354.76 396.281 1386.73 412.981 1410.04C429.684 1433.36 446.691 1447.98 463.77 1454.29C480.823 1460.58 498.008 1458.61 515.149 1448.61C532.31 1438.6 549.429 1420.54 566.277 1394.68C636.174 1287.37 699.198 1211.72 757.634 1167.46C816.083 1123.18 870.004 1110.26 921.62 1128.53C973.19 1146.79 1022.33 1196.15 1071.35 1276.12C1120.38 1356.1 1169.34 1466.77 1220.51 1607.79C1237.43 1654.42 1254.96 1693.39 1272.89 1723.84C1290.81 1754.3 1309.11 1776.19 1327.52 1788.69C1345.92 1801.18 1364.41 1804.31 1382.83 1797.27C1401.29 1790.22 1419.75 1772.95 1437.96 1744.47L1729.18 1289.06C1748.15 1259.39 1765.38 1214.23 1781.29 1157.26C1797.2 1100.31 1811.76 1031.6 1825.4 954.875Z" stroke="#111111"/>
<path d="M1825.4 1051.23C1852.69 882.434 1876.27 678.395 1899.5 472.02L1899.5 1.39681L0.499827 1.39697L0.499863 411.04L364.101 1446.09C379.919 1491.12 396.29 1526.29 412.993 1551.94C429.702 1577.6 446.711 1593.69 463.784 1600.62C480.823 1607.54 497.994 1605.37 515.131 1594.38C532.292 1583.37 549.414 1563.5 566.265 1535.04C636.161 1417.01 699.183 1333.8 757.616 1285.11C816.062 1236.41 869.997 1222.18 921.635 1242.29C973.21 1262.38 1022.35 1316.67 1071.36 1404.63C1120.39 1492.6 1169.35 1614.34 1220.51 1769.45C1237.43 1820.75 1254.97 1863.63 1272.9 1897.12C1290.83 1930.63 1309.12 1954.71 1327.54 1968.47C1345.93 1982.21 1364.41 1985.64 1382.82 1977.91C1401.27 1970.16 1419.73 1951.16 1437.95 1919.82L1729.17 1418.87C1748.14 1386.22 1765.38 1336.53 1781.29 1273.87C1797.19 1211.21 1811.76 1135.63 1825.4 1051.23Z" stroke="#111111"/>
<path d="M1825.4 1156.12C1852.69 970.443 1876.27 745.997 1899.5 518.982L1899.5 1.24275L0.499809 1.24292L0.499849 451.916L364.105 1590.49C379.925 1640.02 396.298 1678.72 413.005 1706.94C429.718 1735.17 446.731 1752.87 463.8 1760.49C480.824 1768.1 497.978 1765.72 515.113 1753.62C532.275 1741.51 549.401 1719.65 566.255 1688.35C636.149 1558.51 699.168 1466.99 757.598 1413.43C816.039 1359.87 869.99 1344.2 921.65 1366.33C973.229 1388.42 1022.36 1448.14 1071.37 1544.88C1120.4 1641.65 1169.35 1775.56 1220.52 1946.18C1237.44 2002.61 1254.98 2049.78 1272.91 2086.63C1290.84 2123.49 1309.14 2149.99 1327.56 2165.13C1336.76 2172.69 1345.98 2177.4 1355.18 2179.17C1364.38 2180.93 1373.59 2179.76 1382.8 2175.5C1401.25 2166.98 1419.72 2146.08 1437.94 2111.6L1729.16 1560.55C1748.14 1524.63 1765.38 1469.96 1781.29 1401.03C1797.19 1332.11 1811.76 1248.97 1825.4 1156.12Z" stroke="#111111"/>
<path d="M1825.4 1271.7C1852.69 1067.45 1876.27 820.555 1899.5 570.837L1899.5 1.26692L0.49979 1.26709L0.499834 497.073L364.109 1749.52C379.929 1804.01 396.305 1846.58 413.015 1877.63C429.733 1908.69 446.75 1928.16 463.817 1936.55C472.339 1940.73 480.874 1942.16 489.408 1940.89C497.947 1939.62 506.518 1935.65 515.095 1928.99C532.26 1915.67 549.389 1891.62 566.246 1857.17C636.139 1714.35 699.155 1613.69 757.581 1554.78C786.797 1525.33 814.892 1506.28 842.154 1497.65C869.432 1489.01 895.85 1490.8 921.666 1502.97C947.468 1515.13 972.644 1537.63 997.489 1570.38C1022.34 1603.13 1046.87 1646.15 1071.38 1699.37C1120.4 1805.8 1169.35 1953.09 1220.52 2140.78C1237.44 2202.86 1254.98 2254.74 1272.91 2295.29C1290.85 2335.84 1309.15 2364.99 1327.58 2381.65C1336.78 2389.97 1346 2395.15 1355.19 2397.09C1364.38 2399.03 1373.58 2397.74 1382.78 2393.06C1401.23 2383.69 1419.7 2360.69 1437.93 2322.75L1729.15 1716.6C1748.13 1677.08 1765.37 1616.94 1781.28 1541.11C1797.19 1465.29 1811.76 1373.83 1825.4 1271.7Z" stroke="#111111"/>
<path d="M1899.5 627.081L1899.5 0.499834L0.499769 0.5L0.499817 545.949L364.113 1923.65C379.934 1983.59 396.311 2030.43 413.024 2064.59C429.746 2098.77 446.767 2120.18 463.834 2129.41C472.353 2134.01 480.879 2135.58 489.401 2134.19C497.931 2132.79 506.498 2128.43 515.076 2121.1C532.245 2106.44 549.379 2079.98 566.239 2042.08C636.13 1884.99 699.143 1774.26 757.565 1709.47C786.777 1677.07 814.872 1656.12 842.141 1646.62C869.43 1637.12 895.86 1639.09 921.683 1652.47C947.487 1665.85 972.661 1690.6 997.502 1726.62C1022.35 1762.64 1046.88 1809.96 1071.39 1868.49C1120.41 1985.57 1169.36 2147.58 1220.52 2354.04C1237.45 2422.32 1254.99 2479.4 1272.92 2524C1290.86 2568.62 1309.17 2600.69 1327.59 2619.02C1336.8 2628.18 1346.02 2633.87 1355.2 2636C1364.37 2638.13 1373.56 2636.72 1382.77 2631.58C1401.21 2621.26 1419.69 2595.96 1437.92 2554.22L1729.14 1887.45C1748.13 1843.97 1765.37 1777.8 1781.28 1694.39C1797.19 1610.99 1811.76 1510.38 1825.4 1398.04C1852.69 1173.36 1876.27 901.771 1899.5 627.081Z" stroke="#111111"/>
<path d="M1899.5 689.586L1899.5 0.293779L0.499746 0.293945L0.499799 600.351L364.115 2115.83C379.937 2181.78 396.316 2233.3 413.031 2270.88C429.757 2308.49 446.784 2332.05 463.852 2342.2C472.368 2347.26 480.884 2348.98 489.393 2347.45C497.913 2345.92 506.477 2341.12 515.059 2333.06C532.233 2316.93 549.37 2287.82 566.232 2246.12C636.122 2073.32 699.132 1951.53 757.549 1880.26C786.758 1844.63 814.853 1821.58 842.126 1811.13C869.427 1800.67 895.871 1802.84 921.701 1817.57C947.506 1832.28 972.677 1859.51 997.514 1899.12C1022.36 1938.74 1046.89 1990.78 1071.39 2055.17C1120.41 2183.95 1169.36 2362.16 1220.53 2589.26C1237.45 2664.38 1254.99 2727.17 1272.93 2776.23C1290.86 2825.31 1309.18 2860.61 1327.61 2880.77C1336.82 2890.85 1346.04 2897.11 1355.21 2899.45C1364.37 2901.79 1373.55 2900.24 1382.75 2894.58C1391.96 2888.92 1401.2 2879.13 1410.41 2864.99C1419.63 2850.86 1428.81 2832.42 1437.92 2809.47L1729.13 2076.03C1767.13 1980.33 1798.11 1784.83 1825.4 1537.65C1852.68 1290.5 1876.27 991.747 1899.5 689.586Z" stroke="#111111"/>
<path d="M1899.5 758.446L1899.5 0.169023L0.499721 0.169189L0.499779 660.294L364.118 2327.34C379.94 2399.88 396.32 2456.56 413.038 2497.9C429.767 2539.28 446.799 2565.21 463.87 2576.37C472.384 2581.94 480.89 2583.83 489.385 2582.15C497.894 2580.46 506.457 2575.19 515.042 2566.32C532.221 2548.57 549.362 2516.53 566.226 2470.67C636.116 2280.58 699.123 2146.62 757.535 2068.23C786.74 2029.04 814.833 2003.69 842.111 1992.19C869.425 1980.68 895.884 1983.08 921.719 1999.28C947.524 2015.46 972.691 2045.41 997.525 2088.98C1022.36 2132.56 1046.89 2189.8 1071.4 2260.62C1120.41 2402.27 1169.36 2598.3 1220.53 2848.1C1237.45 2930.74 1255 2999.81 1272.93 3053.79C1290.87 3107.78 1309.19 3146.61 1327.62 3168.8C1336.84 3179.89 1346.06 3186.77 1355.22 3189.35C1364.37 3191.92 1373.53 3190.22 1382.73 3183.99C1391.94 3177.76 1401.18 3166.99 1410.4 3151.44C1419.62 3135.89 1428.8 3115.59 1437.91 3090.35L1729.13 2283.56C1767.13 2178.28 1798.11 1963.22 1825.4 1691.32C1852.68 1419.45 1876.27 1090.82 1899.5 758.446Z" stroke="#111111"/>
<path d="M1899.5 834.194L1899.5 0.0369433L0.499693 0.0371093L0.499757 726.234L364.12 2559.99C379.942 2639.79 396.323 2702.14 413.044 2747.63C421.404 2770.37 429.845 2788.89 438.337 2803.26C446.832 2817.63 455.362 2827.83 463.888 2833.96C472.402 2840.09 480.897 2842.16 489.375 2840.31C497.875 2838.46 506.436 2832.67 515.026 2822.9C532.211 2803.37 549.356 2768.12 566.221 2717.67C636.11 2508.58 699.114 2361.22 757.522 2275.01C786.723 2231.9 814.814 2204.02 842.095 2191.37C869.422 2178.7 895.897 2181.34 921.737 2199.16C947.54 2216.96 972.704 2249.9 997.534 2297.82C1022.37 2345.75 1046.9 2408.71 1071.4 2486.61C1120.42 2642.42 1169.37 2858.05 1220.53 3132.83C1237.45 3223.73 1255 3299.72 1272.94 3359.1C1290.88 3418.49 1309.19 3461.21 1327.64 3485.63C1336.86 3497.83 1346.08 3505.4 1355.24 3508.23C1364.36 3511.05 1373.51 3509.19 1382.71 3502.35C1391.93 3495.49 1401.17 3483.64 1410.39 3466.53C1419.61 3449.42 1428.79 3427.09 1437.91 3399.31L1729.12 2511.85C1767.13 2396.03 1798.11 2159.45 1825.4 1860.37C1852.68 1561.31 1876.27 1199.81 1899.5 834.194Z" stroke="#111111"/>
<path d="M1899.5 918.619L1899.5 0.99373L0.499662 0.993896L0.499732 799.869L364.121 2817.01C379.944 2904.79 396.326 2973.38 413.049 3023.42C421.41 3048.44 429.852 3068.82 438.347 3084.63C446.845 3100.45 455.378 3111.67 463.907 3118.42C472.421 3125.15 480.905 3127.42 489.365 3125.4C497.854 3123.36 506.416 3116.99 515.011 3106.25C532.202 3084.75 549.35 3045.97 566.217 2990.46C636.105 2760.47 699.107 2598.39 757.51 2503.55C786.707 2456.14 814.795 2425.47 842.078 2411.56C855.73 2404.6 869.189 2401.83 882.479 2403.26C895.766 2404.7 908.848 2410.34 921.755 2420.13C947.556 2439.71 972.715 2475.94 997.543 2528.64C1022.38 2581.36 1046.9 2650.61 1071.41 2736.3C1120.42 2907.68 1169.37 3144.87 1220.53 3447.14C1237.45 3547.12 1255 3630.71 1272.94 3696.03C1290.88 3761.37 1309.2 3808.38 1327.65 3835.24C1336.88 3848.67 1346.1 3857 1355.25 3860.11C1364.36 3863.2 1373.5 3861.17 1382.69 3853.64C1391.91 3846.09 1401.16 3833.05 1410.38 3814.22C1419.6 3795.4 1428.79 3770.83 1437.9 3740.27L1729.12 2764.06C1767.12 2636.65 1798.11 2376.41 1825.4 2047.41C1852.68 1718.44 1876.27 1320.8 1899.5 918.619Z" stroke="#111111"/>
<rect width="1900" height="983" fill="url(#paint0_linear_83_5224)"/>
<rect x="-123" y="100" width="412" height="1" fill="#D9D9D9"/>

</symbol><symbol id="link" viewBox="0 0 20 20">
<path d="M10.9917 7.24002C11.5332 7.49857 12.0048 7.8833 12.3668 8.36189C12.7288 8.84048 12.9706 9.39895 13.072 9.9904C13.1735 10.5818 13.1314 11.189 12.9495 11.7608C12.7676 12.3327 12.4512 12.8525 12.0267 13.2767L8.27669 17.0267C7.57342 17.73 6.61959 18.125 5.62502 18.125C4.63046 18.125 3.67662 17.73 2.97336 17.0267C2.27009 16.3234 1.875 15.3696 1.875 14.375C1.875 13.3805 2.27009 12.4266 2.97336 11.7234L4.43752 10.2592M15.5625 9.74086L17.0267 8.27669C17.73 7.57342 18.125 6.61959 18.125 5.62502C18.125 4.63046 17.73 3.67662 17.0267 2.97336C16.3234 2.27009 15.3696 1.875 14.375 1.875C13.3805 1.875 12.4266 2.27009 11.7234 2.97336L7.97336 6.72336C7.54889 7.14752 7.23241 7.66736 7.05051 8.23921C6.86861 8.81105 6.82659 9.4182 6.928 10.0096C7.0294 10.6011 7.27126 11.1596 7.63327 11.6382C7.99527 12.1167 8.46683 12.5015 9.00836 12.76" stroke-width="1.5" stroke-linecap="round" stroke-linejoin="round"/>
</symbol><symbol id="linkedin" viewBox="0 0 20 20">
<path d="M13.3359 6.66699C14.662 6.66699 15.9338 7.19378 16.8715 8.13146C17.8092 9.06914 18.3359 10.3409 18.3359 11.667V17.5003H15.0026V11.667C15.0026 11.225 14.827 10.801 14.5144 10.4885C14.2019 10.1759 13.778 10.0003 13.3359 10.0003C12.8939 10.0003 12.47 10.1759 12.1574 10.4885C11.8449 10.801 11.6693 11.225 11.6693 11.667V17.5003H8.33594V11.667C8.33594 10.3409 8.86272 9.06914 9.8004 8.13146C10.7381 7.19378 12.0099 6.66699 13.3359 6.66699Z" stroke-width="1.5" stroke-linecap="round" stroke-linejoin="round"/>
<path d="M5.0013 7.5H1.66797V17.5H5.0013V7.5Z" stroke-width="1.5" stroke-linecap="round" stroke-linejoin="round"/>
<path d="M3.33464 5.00033C4.25511 5.00033 5.0013 4.25413 5.0013 3.33366C5.0013 2.41318 4.25511 1.66699 3.33464 1.66699C2.41416 1.66699 1.66797 2.41318 1.66797 3.33366C1.66797 4.25413 2.41416 5.00033 3.33464 5.00033Z" stroke-width="1.5" stroke-linecap="round" stroke-linejoin="round"/>
</symbol><symbol id="logo" viewBox="0 0 196 40">
<g clip-path="url(#clip0_2001_1843)">
<mask id="mask0_2001_1843" style="mask-type:luminance" maskUnits="userSpaceOnUse" x="0" y="0" width="196" height="40">
<path d="M196 0H0V40H196V0Z" fill="white"/>
</mask>
<g mask="url(#mask0_2001_1843)">
<path d="M53.9464 32.1893V28.8286L65.9136 12.5591H54.6411V8.79077H71.6469V12.1514L59.7128 28.4209H71.9791V32.1893H53.9443H53.9464Z" fill="#F28A5D"/>
<path d="M82.9875 32.5661C81.131 32.5661 79.5063 32.1681 78.1146 31.3721C76.7235 30.5761 75.6393 29.4985 74.867 28.1376C74.0923 26.7766 73.707 25.2681 73.707 23.614C73.707 21.9598 74.0984 20.3737 74.883 19.0438C75.6683 17.7139 76.7395 16.6616 78.0985 15.887C79.457 15.1123 80.9775 14.724 82.6558 14.724C84.0698 14.724 85.3136 14.9434 86.3854 15.3841C87.4566 15.8229 88.3688 16.4306 89.1208 17.2052C89.8727 17.9798 90.4465 18.8652 90.8441 19.8592C91.2416 20.8532 91.4407 21.9268 91.4407 23.0781C91.4407 23.3713 91.4241 23.6741 91.3914 23.9887C91.3587 24.3032 91.2971 24.575 91.209 24.806H77.285V21.6648H88.7559L86.701 23.1403C86.8994 22.1773 86.8501 21.3192 86.5512 20.5639C86.2523 19.8107 85.7666 19.2127 85.0923 18.7739C84.418 18.3351 83.6044 18.1138 82.6558 18.1138C81.7067 18.1138 80.9424 18.3293 80.2354 18.7584C79.5285 19.1874 78.9916 19.8165 78.6268 20.6435C78.2625 21.4706 78.1232 22.4704 78.2132 23.6431C78.125 24.6896 78.2748 25.6176 78.66 26.4233C79.0471 27.229 79.6209 27.8522 80.3834 28.2929C81.1452 28.7336 82.0247 28.953 83.0183 28.953C84.0124 28.953 84.8587 28.755 85.5552 28.357C86.2523 27.959 86.799 27.4251 87.1965 26.7552L90.711 28.3881C90.3566 29.2054 89.8055 29.9277 89.053 30.5547C88.301 31.1838 87.4116 31.675 86.3854 32.0302C85.3567 32.3855 84.2251 32.5641 82.9875 32.5641V32.5661Z" fill="#F28A5D"/>
<path d="M94.7227 32.1894V15.1026H98.8004V18.4633L98.4682 17.8673C98.8886 16.8422 99.5789 16.0617 100.54 15.5278C101.501 14.9939 102.622 14.726 103.905 14.726C105.188 14.726 106.407 14.9978 107.436 15.5433C108.464 16.0889 109.264 16.8461 109.839 17.8207C110.413 18.7953 110.702 19.9194 110.702 21.1969V32.1894H106.36V22.1695C106.36 21.4163 106.204 20.7678 105.897 20.2222C105.587 19.6786 105.161 19.2535 104.62 18.9506C104.079 18.6477 103.444 18.4944 102.714 18.4944C101.985 18.4944 101.376 18.6458 100.825 18.9506C100.272 19.2554 99.8415 19.6786 99.532 20.2222C99.2226 20.7678 99.0692 21.4163 99.0692 22.1695V32.1894H94.7264H94.7227Z" fill="#F28A5D"/>
<path d="M114.745 32.1896V8.78906H122.8C125.407 8.78906 127.679 9.28611 129.614 10.2801C131.548 11.2742 133.044 12.6467 134.106 14.3941C135.167 16.1433 135.698 18.1683 135.698 20.4728C135.698 22.7774 135.167 24.7809 134.106 26.5496C133.044 28.3183 131.548 29.7006 129.614 30.6946C127.679 31.6887 125.409 32.1857 122.8 32.1857H114.745V32.1896ZM119.253 28.4212H122.901C124.581 28.4212 126.034 28.0912 127.26 27.431C128.485 26.7709 129.442 25.8507 130.126 24.6664C130.811 23.484 131.153 22.0862 131.153 20.4728C131.153 18.8594 130.811 17.4364 130.126 16.2637C129.442 15.0911 128.485 14.1805 127.26 13.5302C126.032 12.8817 124.579 12.5555 122.901 12.5555H119.253V28.4173V28.4212Z" fill="#29A590"/>
<path d="M138.914 13.1865V8.78906H143.256V13.1865H138.914ZM138.914 32.1896V15.1027H143.256V32.1896H138.914Z" fill="#29A590"/>
<path d="M152.705 32.1896L145.61 15.1028H150.35L155.489 28.5455H153.733L158.905 15.1028H163.647L156.553 32.1896H152.706H152.705Z" fill="#29A590"/>
<path d="M174.252 32.5661C172.395 32.5661 170.77 32.1681 169.379 31.3721C167.987 30.5761 166.903 29.4985 166.129 28.1376C165.354 26.7766 164.969 25.2681 164.969 23.614C164.969 21.9598 165.36 20.3737 166.145 19.0438C166.93 17.7139 168.002 16.6616 169.36 15.887C170.719 15.1123 172.239 14.724 173.919 14.724C175.333 14.724 176.578 14.9434 177.649 15.3841C178.721 15.8229 179.633 16.4306 180.385 17.2052C181.137 17.9798 181.711 18.8652 182.108 19.8592C182.506 20.8532 182.704 21.9268 182.704 23.0781C182.704 23.3713 182.688 23.6741 182.656 23.9887C182.622 24.3032 182.561 24.575 182.473 24.806H168.549V21.6648H180.018L177.963 23.1403C178.162 22.1773 178.112 21.3192 177.813 20.5639C177.514 19.8107 177.028 19.2127 176.354 18.7739C175.68 18.3351 174.869 18.1138 173.918 18.1138C172.967 18.1138 172.205 18.3293 171.498 18.7584C170.791 19.1874 170.254 19.8165 169.889 20.6435C169.524 21.4706 169.387 22.4704 169.475 23.6431C169.387 24.6896 169.537 25.6176 169.922 26.4233C170.309 27.229 170.883 27.8522 171.645 28.2929C172.408 28.7336 173.286 28.953 174.281 28.953C175.274 28.953 176.12 28.755 176.818 28.357C177.514 27.959 178.061 27.4251 178.459 26.7552L181.973 28.3881C181.618 29.2054 181.067 29.9277 180.315 30.5547C179.563 31.1838 178.674 31.675 177.647 32.0302C176.618 32.3855 175.487 32.5641 174.25 32.5641L174.252 32.5661Z" fill="#29A590"/>
<path d="M185.987 32.1895V15.1026H190.065V18.904L189.733 18.339C190.153 17.0615 190.811 16.1724 191.706 15.6695C192.602 15.1667 193.68 14.9163 194.938 14.9163H195.999V18.5604H194.442C193.204 18.5604 192.211 18.9215 191.459 19.6437C190.707 20.3659 190.331 21.3774 190.331 22.6743V32.1914H185.989L185.987 32.1895Z" fill="#29A590"/>
<path fill-rule="evenodd" clip-rule="evenodd" d="M37.723 29.0988C26.0243 25.0315 13.7845 28.761 1.63696 29.1299C0.9095 27.6583 0.376713 26.0837 0.0693359 24.4354C13.264 24.1986 26.5345 19.4148 39.2742 24.4335C38.9689 26.0701 38.4423 27.635 37.723 29.0988Z" fill="#647B97"/>
<path fill-rule="evenodd" clip-rule="evenodd" d="M5.30478 34.1931C7.14698 36.0123 9.37034 37.4839 11.8539 38.4896C14.2536 39.4622 16.897 40 19.6716 40C22.7925 40 25.7453 39.3186 28.3745 38.1052C30.6265 37.0665 32.6408 35.6356 34.3191 33.9077C24.8724 31.0887 15.0814 33.3466 5.30273 34.1912L5.30478 34.1931Z" fill="#228B7D"/>
<path fill-rule="evenodd" clip-rule="evenodd" d="M37.723 29.0988C38.4423 27.6369 38.971 26.0721 39.2742 24.4335C26.5325 19.4148 13.262 24.1986 0.0693359 24.4354C0.376713 26.0837 0.9095 27.6583 1.63696 29.1299C13.7845 28.761 26.0243 25.0295 37.723 29.0988ZM5.30499 34.1932C15.0837 33.3467 24.8767 31.0888 34.3214 33.9098C35.7005 32.4906 36.8521 30.8694 37.723 29.0988C26.0243 25.0315 13.7845 28.761 1.63696 29.1299C2.56524 31.0073 3.80909 32.7158 5.30499 34.1932Z" fill="#29A590"/>
<path fill-rule="evenodd" clip-rule="evenodd" d="M37.7229 29.0987C37.7495 29.0501 37.813 28.9394 37.8376 28.8831C38.4811 27.4503 38.6778 26.8038 39.0139 25.606C39.2434 24.7497 39.4155 24.1188 39.4155 24.1188C26.7311 18.506 13.2413 23.3966 0.00976562 24.0236L0.0691921 24.4352C0.376569 26.0835 0.909355 27.6581 1.63682 29.1297C13.7844 28.7608 25.3581 23.5887 37.7229 29.0987C37.7352 29.1045 37.7106 29.0948 37.7229 29.0987Z" fill="#40CCB1"/>
<path fill-rule="evenodd" clip-rule="evenodd" d="M39.2923 16.3743C38.8866 13.4446 37.942 10.68 36.5546 8.17745C36.7534 8.58127 36.9481 8.99675 37.1407 9.43165C38.1038 11.7886 38.6489 13.831 38.8969 16.1141C38.6899 14.7512 38.3272 13.435 37.776 11.9633C36.86 9.71704 35.8518 8.02603 34.3579 6.27096C31.36 3.24807 27.403 1.11828 22.9563 0.333932C24.0342 0.609617 25.1079 0.98044 26.2719 1.46969C24.1837 0.625154 22.3067 0.203854 20.2022 0.025239C19.8497 0.00776585 19.4932 0 19.1366 0C14.9624 0 11.0731 1.1707 7.80055 3.18788C8.72267 2.68893 9.70631 2.25792 10.8272 1.84827C12.3395 1.33379 13.6386 1.0348 15.2288 0.836771C13.6735 1.07946 12.3702 1.45416 10.8948 2.00553C8.35792 3.03063 6.56489 4.16638 4.55259 5.98359C2.95833 7.5018 1.903 8.86475 0.831282 10.7635C2.00751 8.93849 3.13456 7.65328 4.81284 6.23988C6.87429 4.58768 8.67965 3.60142 11.2145 2.753C13.7063 1.99388 15.7144 1.73761 18.3251 1.86574C20.0546 1.99583 21.4296 2.26375 23.0751 2.79571C21.4542 2.31228 20.03 2.11037 18.3272 2.02495C15.7636 1.97253 13.7924 2.29287 11.3682 3.10828C8.93581 4.00136 7.21039 5.01286 5.25546 6.6709C4.7944 7.07472 4.37636 7.47855 3.95628 7.92313C4.39685 7.49791 4.83333 7.11159 5.31283 6.72719C7.31899 5.16818 9.07104 4.24404 11.5218 3.46551C13.9153 2.7763 15.8374 2.56079 18.3313 2.72387C20.3969 2.91802 21.9665 3.30437 23.8743 4.09067C21.989 3.39562 20.36 3.11411 18.3333 3.00151C15.9092 2.94908 14.0485 3.24419 11.7534 4.00912C9.45015 4.84784 7.81281 5.79913 5.95833 7.36012C4.04849 9.0589 2.86817 10.6121 1.73087 12.8642C0.640706 15.1939 0.15505 17.0926 0.0075086 19.634C-0.0150324 20.4669 0.0075086 21.2338 0.0730822 21.9754C9.65503 21.5541 19.1079 19.1001 28.7801 19.6457C32.3005 19.8437 35.6858 20.4437 38.9501 21.5561C38.9522 21.5386 38.9543 21.5192 38.9563 21.5017C38.9973 21.5173 39.0383 21.5328 39.0793 21.5464C39.2104 20.663 39.2944 19.7467 39.3415 18.7526C39.3559 17.9197 39.3415 17.1334 39.2923 16.3743Z" fill="#F28A5D"/>
</g>
</g>
</symbol><symbol id="mail" viewBox="0 0 20 20">
<path d="M13.75 9.99995C13.75 10.9945 13.3549 11.9483 12.6517 12.6516C11.9484 13.3549 10.9946 13.7499 10 13.7499C9.00544 13.7499 8.05161 13.3549 7.34835 12.6516C6.64509 11.9483 6.25 10.9945 6.25 9.99995C6.25 9.00538 6.64509 8.05156 7.34835 7.3483C8.05161 6.64504 9.00544 6.24995 10 6.24995C10.9946 6.24995 11.9484 6.64504 12.6517 7.3483C13.3549 8.05156 13.75 9.00538 13.75 9.99995ZM13.75 9.99995C13.75 11.3808 14.5892 12.4999 15.625 12.4999C16.6608 12.4999 17.5 11.3808 17.5 9.99995C17.5 8.26478 16.8983 6.5833 15.7975 5.24201C14.6968 3.90072 13.1649 2.98261 11.4631 2.64411C9.76129 2.30561 7.99475 2.56767 6.46448 3.38563C4.9342 4.20359 3.73489 5.52685 3.07088 7.12994C2.40688 8.73302 2.31926 10.5168 2.82296 12.1772C3.32667 13.8376 4.39053 15.2721 5.83327 16.2361C7.27601 17.2001 9.00837 17.634 10.7352 17.4639C12.462 17.2938 14.0764 16.5302 15.3033 15.3033M13.75 9.99995V6.87495" stroke-width="1.5" stroke-linecap="round" stroke-linejoin="round"/>
</symbol><symbol id="proceed-arrow" viewBox="0 0 20 20">
<path d="M14.375 13.125L17.5 10M17.5 10L14.375 6.875M17.5 10H2.5" stroke-width="1.5" stroke-linecap="round" stroke-linejoin="round"/>
</symbol><symbol id="pubtime" viewBox="0 0 18 20">
<path fill-rule="evenodd" clip-rule="evenodd" d="M4.75 2C4.94891 2 5.13968 2.07902 5.28033 2.21967C5.42098 2.36032 5.5 2.55109 5.5 2.75V4H12.5V2.75C12.5 2.55109 12.579 2.36032 12.7197 2.21967C12.8603 2.07902 13.0511 2 13.25 2C13.4489 2 13.6397 2.07902 13.7803 2.21967C13.921 2.36032 14 2.55109 14 2.75V4H14.25C14.9793 4 15.6788 4.28973 16.1945 4.80546C16.7103 5.32118 17 6.02065 17 6.75V15.25C17 15.9793 16.7103 16.6788 16.1945 17.1945C15.6788 17.7103 14.9793 18 14.25 18H3.75C3.02065 18 2.32118 17.7103 1.80546 17.1945C1.28973 16.6788 1 15.9793 1 15.25V6.75C1 6.02065 1.28973 5.32118 1.80546 4.80546C2.32118 4.28973 3.02065 4 3.75 4H4V2.75C4 2.55109 4.07902 2.36032 4.21967 2.21967C4.36032 2.07902 4.55109 2 4.75 2ZM3.75 7.5C3.06 7.5 2.5 8.06 2.5 8.75V15.25C2.5 15.94 3.06 16.5 3.75 16.5H14.25C14.94 16.5 15.5 15.94 15.5 15.25V8.75C15.5 8.06 14.94 7.5 14.25 7.5H3.75Z"/>
</symbol><symbol id="quiz" viewBox="0 0 25 24">
<path d="M8 7.5H7.25C6.65326 7.5 6.08097 7.73705 5.65901 8.15901C5.23705 8.58097 5 9.15326 5 9.75V17.25C5 17.8467 5.23705 18.419 5.65901 18.841C6.08097 19.2629 6.65326 19.5 7.25 19.5H14.75C15.3467 19.5 15.919 19.2629 16.341 18.841C16.7629 18.419 17 17.8467 17 17.25V9.75C17 9.15326 16.7629 8.58097 16.341 8.15901C15.919 7.73705 15.3467 7.5 14.75 7.5H14M8 11.25L11 14.25M11 14.25L14 11.25M11 14.25V1.5M17 10.5H17.75C18.3467 10.5 18.919 10.7371 19.341 11.159C19.7629 11.581 20 12.1533 20 12.75V20.25C20 20.8467 19.7629 21.419 19.341 21.841C18.919 22.2629 18.3467 22.5 17.75 22.5H10.25C9.65326 22.5 9.08097 22.2629 8.65901 21.841C8.23705 21.419 8 20.8467 8 20.25V19.5" stroke-width="1.5" stroke-linecap="round" stroke-linejoin="round"/>
</symbol><symbol id="subscribe" viewBox="0 0 20 20">
<g clip-path="url(#clip0_2001_1106)">
<path d="M18.3337 1.66699L9.16699 10.8337" stroke="white" stroke-width="1.5" stroke-linecap="round" stroke-linejoin="round"/>
<path d="M18.3337 1.66699L12.5003 18.3337L9.16699 10.8337L1.66699 7.50033L18.3337 1.66699Z" stroke="white" stroke-width="1.5" stroke-linecap="round" stroke-linejoin="round"/>
</g>

</symbol><symbol id="transforamtion" viewBox="0 0 20 20">
<path d="M2.92933 7.09331C6.14082 4.43199 11.7621 4.18166 15.213 8.35445C19.5266 13.5704 10.8455 21.9748 4.2403 17.9379C-2.36488 13.9011 7.85186 10.5365 12.2103 8.8589C16.5688 7.18129 23.8656 5.16355 14.3054 12.4735C2.28445 21.6652 5.79662 10.2855 9.20766 3.56212C11.5413 -1.03759 -0.0733361 1.29643 3.09 4.77375C6.25333 8.25108 11.5219 8.90508 10.5725 11.8856C9.62316 14.8662 3.11553 15.169 1.56452 12.3901C0.497485 10.4783 0.938028 8.74348 2.92933 7.09331Z" stroke="white" stroke-opacity="0.05" stroke-width="1.5" stroke-linecap="round"/>
<path d="M8.53895 3.22279C8.35154 3.59218 8.49907 4.04356 8.86846 4.23097C9.23785 4.41837 9.68923 4.27084 9.87664 3.90145L8.53895 3.22279ZM9.87664 3.90145C10.2135 3.23752 10.3591 2.58264 10.2148 1.97708C10.065 1.34846 9.63886 0.919877 9.14038 0.65799C8.20253 0.165269 6.86098 0.169615 5.69076 0.403606C4.50808 0.640089 3.25474 1.15975 2.49736 1.95251C2.10759 2.36049 1.8074 2.8875 1.79076 3.51476C1.77396 4.14764 2.04931 4.74417 2.53535 5.27844L3.64492 4.26906C3.34011 3.934 3.28645 3.69693 3.29023 3.55456C3.29416 3.40656 3.36415 3.21666 3.58194 2.9887C4.03968 2.50958 4.95102 2.08121 5.98487 1.87449C7.03118 1.66527 7.95803 1.73123 8.44274 1.98588C8.65554 2.09768 8.72926 2.21423 8.75561 2.32479C8.78745 2.45843 8.78551 2.73679 8.53895 3.22279L9.87664 3.90145ZM2.53535 5.27844C4.21208 7.12161 6.46917 8.23423 7.98352 9.15653C8.78001 9.64163 9.33737 10.0496 9.65356 10.4622C9.92572 10.8173 10.0153 11.1641 9.85802 11.658L11.2873 12.1133C11.6046 11.1169 11.3917 10.2642 10.8441 9.54977C10.3406 8.89278 9.56115 8.36107 8.76376 7.87543C7.09035 6.85626 5.13151 5.90321 3.64492 4.26906L2.53535 5.27844Z" fill="url(#paint0_angular_2001_1231)"/>
<path d="M15.2134 8.35592L14.6354 8.83389L15.2134 8.35592ZM4.63176 17.2994C4.27833 17.0834 3.81671 17.1948 3.60071 17.5483C3.3847 17.9017 3.49611 18.3633 3.84954 18.5793L4.63176 17.2994ZM3.40824 7.67226C6.3422 5.24093 11.4818 5.02066 14.6354 8.83389L15.7913 7.87794C12.0431 3.3456 5.94016 3.62599 2.45113 6.5173L3.40824 7.67226ZM14.6354 8.83389C15.5547 9.9455 15.7812 11.2101 15.514 12.4653C15.2423 13.7416 14.4525 15.0233 13.3152 16.0642C11.0253 18.16 7.56669 19.0932 4.63176 17.2994L3.84954 18.5793C7.51979 20.8224 11.7044 19.5719 14.3279 17.1707C15.6473 15.9632 16.6319 14.418 16.9811 12.7777C17.3348 11.1162 17.0288 9.37433 15.7913 7.87794L14.6354 8.83389Z" fill="url(#paint1_angular_2001_1231)"/>
<path d="M2.92933 7.09375C0.938028 8.74392 0.497485 10.4787 1.56452 12.3905C3.11553 15.1695 9.62316 14.8666 10.5725 11.8861" stroke="url(#paint2_angular_2001_1231)" stroke-width="1.5"/>

</symbol><symbol id="transformation-green" viewBox="0 0 20 20">
<path d="M2.92933 7.09331C6.14082 4.43199 11.7621 4.18166 15.213 8.35445C19.5266 13.5704 10.8455 21.9748 4.2403 17.9379C-2.36488 13.9011 7.85186 10.5365 12.2103 8.8589C16.5688 7.18129 23.8656 5.16355 14.3054 12.4735C2.28445 21.6652 5.79662 10.2855 9.20766 3.56212C11.5413 -1.03759 -0.0733361 1.29643 3.09 4.77375C6.25333 8.25108 11.5219 8.90508 10.5725 11.8856C9.62316 14.8662 3.11553 15.169 1.56452 12.3901C0.497485 10.4783 0.938028 8.74348 2.92933 7.09331Z" stroke="black" stroke-opacity="0.1" stroke-width="1.5" stroke-linecap="round"/>
<path d="M8.53895 3.22279C8.35154 3.59218 8.49907 4.04356 8.86846 4.23097C9.23785 4.41837 9.68923 4.27084 9.87664 3.90145L8.53895 3.22279ZM9.87664 3.90145C10.2135 3.23752 10.3591 2.58264 10.2148 1.97708C10.065 1.34846 9.63886 0.919877 9.14038 0.65799C8.20253 0.165269 6.86098 0.169615 5.69076 0.403606C4.50808 0.640089 3.25474 1.15975 2.49736 1.95251C2.10759 2.36049 1.8074 2.8875 1.79076 3.51476C1.77396 4.14764 2.04931 4.74417 2.53535 5.27844L3.64492 4.26906C3.34011 3.934 3.28645 3.69693 3.29023 3.55456C3.29416 3.40656 3.36415 3.21666 3.58194 2.9887C4.03968 2.50958 4.95102 2.08121 5.98487 1.87449C7.03118 1.66527 7.95803 1.73123 8.44274 1.98588C8.65554 2.09768 8.72926 2.21423 8.75561 2.32479C8.78745 2.45843 8.78551 2.73679 8.53895 3.22279L9.87664 3.90145ZM2.53535 5.27844C4.21208 7.12161 6.46917 8.23423 7.98352 9.15653C8.78001 9.64163 9.33737 10.0496 9.65356 10.4622C9.92572 10.8173 10.0153 11.1641 9.85802 11.658L11.2873 12.1133C11.6046 11.1169 11.3917 10.2642 10.8441 9.54977C10.3406 8.89278 9.56115 8.36107 8.76376 7.87543C7.09035 6.85626 5.13151 5.90321 3.64492 4.26906L2.53535 5.27844Z" fill="url(#paint0_angular_2002_6016)"/>
<path d="M15.2134 8.35592L14.6354 8.83389L15.2134 8.35592ZM4.63176 17.2994C4.27833 17.0834 3.81671 17.1948 3.60071 17.5483C3.3847 17.9017 3.49611 18.3633 3.84954 18.5793L4.63176 17.2994ZM3.40824 7.67226C6.3422 5.24093 11.4818 5.02066 14.6354 8.83389L15.7913 7.87794C12.0431 3.3456 5.94016 3.62599 2.45113 6.5173L3.40824 7.67226ZM14.6354 8.83389C15.5547 9.9455 15.7812 11.2101 15.514 12.4653C15.2423 13.7416 14.4525 15.0233 13.3152 16.0642C11.0253 18.16 7.56669 19.0932 4.63176 17.2994L3.84954 18.5793C7.51979 20.8224 11.7044 19.5719 14.3279 17.1707C15.6473 15.9632 16.6319 14.418 16.9811 12.7777C17.3348 11.1162 17.0288 9.37433 15.7913 7.87794L14.6354 8.83389Z" fill="url(#paint1_angular_2002_6016)"/>
<path d="M2.92933 7.09375C0.938028 8.74392 0.497485 10.4787 1.56452 12.3905C3.11553 15.1695 9.62316 14.8666 10.5725 11.8861" stroke="url(#paint2_angular_2002_6016)" stroke-width="1.5"/>

</symbol><symbol id="twitter" viewBox="0 0 20 20">
<path d="M15.2052 1.875H17.9619L11.9394 8.75833L19.0244 18.125H13.4769L9.13188 12.4442L4.16021 18.125H1.40188L7.84354 10.7625L1.04688 1.875H6.73521L10.6627 7.0675L15.2052 1.875ZM14.2377 16.475H15.7652L5.90521 3.43833H4.26604L14.2377 16.475Z"/>
</symbol><symbol id="watch" viewBox="0 0 11 16">
<path d="M5.50033 12.6668C8.03163 12.6668 10.0837 10.5775 10.0837 8.00016C10.0837 5.42283 8.03163 3.3335 5.50033 3.3335C2.96902 3.3335 0.916992 5.42283 0.916992 8.00016C0.916992 10.5775 2.96902 12.6668 5.50033 12.6668Z" stroke-width="1.5" stroke-linecap="round" stroke-linejoin="round"/>
<path d="M5.5 6V8L6.48214 9" stroke-width="1.5" stroke-linecap="round" stroke-linejoin="round"/>
<path d="M8.45352 11.5665L8.22435 14.1198C8.19485 14.4523 8.04396 14.7614 7.8015 14.986C7.55904 15.2107 7.24264 15.3345 6.91482 15.3332H4.07971C3.75189 15.3345 3.43549 15.2107 3.19303 14.986C2.95057 14.7614 2.79968 14.4523 2.77018 14.1198L2.54102 11.5665M2.54756 4.43318L2.77673 1.87985C2.80613 1.54857 2.95609 1.24044 3.19716 1.01595C3.43824 0.791462 3.75301 0.666828 4.07971 0.666515H6.92792C7.25574 0.665161 7.57214 0.789047 7.8146 1.0137C8.05706 1.23835 8.20794 1.54742 8.23744 1.87985L8.46661 4.43318" stroke-width="1.5" stroke-linecap="round" stroke-linejoin="round"/>
</symbol></svg>